<?xml version="1.0" encoding="utf-8"?>
<!-- Generator: Adobe Illustrator 21.0.0, SVG Export Plug-In . SVG Version: 6.00 Build 0)  -->
<svg version="1.1" id="图层_1" xmlns="http://www.w3.org/2000/svg" xmlns:xlink="http://www.w3.org/1999/xlink" x="0px" y="0px"
	 viewBox="0 0 240 240" style="enable-background:new 0 0 240 240;" xml:space="preserve">
<style type="text/css">
	.st0{fill-rule:evenodd;clip-rule:evenodd;fill:#E0B6B6;}
	.st1{fill-rule:evenodd;clip-rule:evenodd;fill:#B30000;}
	.st2{fill-rule:evenodd;clip-rule:evenodd;fill:#0E1E7D;}
	.st3{fill-rule:evenodd;clip-rule:evenodd;fill:#007A32;}
	.st4{fill-rule:evenodd;clip-rule:evenodd;fill:#FF0000;}
	.st5{fill-rule:evenodd;clip-rule:evenodd;fill:#30805B;}
	.st6{fill-rule:evenodd;clip-rule:evenodd;fill:#13007C;}
	.st7{fill-rule:evenodd;clip-rule:evenodd;fill:#E60000;}
	.st8{fill:#E60000;}
	.st9{fill-rule:evenodd;clip-rule:evenodd;fill:none;}
</style>
<path class="st1" d="M39.8,10c0,0,13.1-1.1,23.2,10.8c0,0,6.6,7.2,7,17.9c0,0,0.6,8-3.1,14.9c-3.7,6.8-7.6,10.5-14.2,13.7
	c-6.5,3.3-17,3.7-24,0.5c-6.9-3.2-11.2-6.6-15.2-14c0,0-5.4-9.4-2.8-20.2c0,0,0.7-6.5,6.5-13.5C17.2,20.2,25.8,9.6,39.8,10L39.8,10z
	 M43,16.7c0,0,6.9,0.6,12.5,5.7c5.6,5.2,7,10.4,7.6,13.1c0.6,2.8,1.1,10.7-3.4,17.5C55.4,59.9,47,63,43,63.3V52.4h5.2
	c0,0,5.5-1.1,5.9-6.9V33.9c0,0-0.9-5.8-7-6.1h-4V16.7L43,16.7z M36.9,16.7v11.1h-4.6c0,0-6.3,0.4-6.5,7.4v10.2c0,0,0.2,6.3,6.7,7
	h4.5v10.9c0,0-11-0.6-17-11.2c0,0-5.2-7.5-3-16.8c2.2-9.3,7.2-13,8.2-14C26.1,20.5,32.5,16.6,36.9,16.7L36.9,16.7z M32.9,34.1h13.7
	c0,0,1.2-0.2,1.3,1.1v9.5c0,0,0.3,1.5-0.8,1.3H33.2c0,0-1.1,0.3-1.3-1v-9.8C31.9,35.1,32.1,34.1,32.9,34.1L32.9,34.1z"/>
<path class="st2" d="M117.8,12.1c0,0,5.2-3.9,14-1.1c0,0,3,1.1,6.4,4.1L149,26.2l-5.7,5.6L127,15.5C127,15.5,124.3,12.2,117.8,12.1
	L117.8,12.1z M141.4,33.8l-6.7,6.4c0,0-1.1,1.5-2,0.1l-12.3-11.9c0,0-1.1-1.4-1.9-0.2L106,40.8c0,0-0.8,1.3,0.2,1.8l12.1,12
	c0,0,1,1.6,1.9,0.4l12.6-12.5c0,0,0.4-1.1,2.4-0.8h12.9c0,0,0.5,12.9-9.4,20.9c0,0-13,12.8-30.7,4.9c0,0-17.1-5.9-16.9-27.8
	c0,0,0.5-14.7,14-22.4c0,0,9.9-7.2,17.8-1.9L141.4,33.8L141.4,33.8z"/>
<path class="st3" d="M193.6,42.3h5.9l-0.5,3.5h-5.4v5.7h7.4l2.6-14.3h-10V42.3L193.6,42.3L193.6,42.3L193.6,42.3z M193.6,69v-5.7
	h14.4l3.1-17.3h12.6l-1,5.7h-9.5L209.7,69H193.6L193.6,69L193.6,69L193.6,69z M193.6,60.4v-5.7h10l3.3-17.5h18.2l-1,5.4h-15.4
	l-3.3,17.8H193.6L193.6,60.4L193.6,60.4L193.6,60.4z M193.6,33.9v-5.7h14.9l1.5-8.6h18.5l-1,5.7h-15.6l-1.5,8.6H193.6L193.6,33.9
	L193.6,33.9L193.6,33.9z M193.6,25h12.3l1.5-8.4H229l1-5.7l-24.6,0.3l-1.5,8.4h-10.3V25L193.6,25L193.6,25z M187.5,45.8L187.5,45.8
	L187.5,45.8h6.1v5.7h-7.1l-0.6,3.2h7.7v5.7h-8.7l-0.5,3h9.3V69h-13.3l3.2-17.8h-4.3v-5.4h5.2l0.6-3.5h-5.9v-5.4h6.9l3.1-17.3h4.4V25
	h-2.3l-0.6,3.2h2.9v5.7h-3.9l-0.6,3.2h4.5v5.1h-5.4L187.5,45.8L187.5,45.8z M179.2,36.9L179.2,36.9h-6.7L170,51.2l0,0h9.2v-5.4h-5.6
	l0,0l0.8-3.5h4.9V36.9z"/>
<path class="st4" d="M37.5,132.1l8.1-20.6l8.5,20.6H37.5L37.5,132.1z M20.5,132.1l8.1-20.6l8.5,20.6H20.5L20.5,132.1z M62.8,127.4
	h6.3l-0.3,1.2h-5.4L62.8,127.4L62.8,127.4z M61.5,124.6h8.1l-0.2,1.2h-7.4L61.5,124.6L61.5,124.6z M60.3,121.7H70l-0.1,1.2h-9
	L60.3,121.7L60.3,121.7z M59.1,118.8H70v1.2H59.6L59.1,118.8L59.1,118.8z M57.9,115.9h11.9l0.1,1.2H58.3L57.9,115.9L57.9,115.9z
	 M56.6,113h12.6l0.3,1.2H57.2L56.6,113L56.6,113z M40,90h1.2l1.3,0.1l1.2,0.1l1.2,0.2l1.2,0.2l1.2,0.3l1.2,0.3l1.2,0.3l0.6,0.2
	l0.6,0.2l1.1,0.5L53,93l1,0.6l1,0.6l1,0.6l1,0.7l1,0.7l0.9,0.7l0.9,0.8l0.9,0.8l0.8,0.8l0.8,0.8l0.8,0.9l0.3,0.5l0.3,0.5l0.8,1
	l0.6,1l0.6,1l0.6,1l0.5,1.1l0.6,1l0.4,1.1l0.4,1.2l0.4,1.1H55.9L48,92.8l-8.3,20.9L31,93l-15.3,39.5l7,8.7h35.4l6.5-9.4l-0.6-1.4
	h4.2l-0.4,1.1l-0.5,1l-0.5,1l-0.5,1l-0.6,1l-0.6,1l-0.7,0.9l-0.6,0.9l-0.7,0.9l-0.8,0.9l-0.8,0.8l-0.8,0.8l-0.8,0.8l-0.8,0.8
	l-0.9,0.7l-0.9,0.7l-0.9,0.6l-1,0.6l-1,0.6l-1,0.6l-1,0.5l-1,0.4l-1.1,0.4l-1,0.4l-1.1,0.3l-1.2,0.3l-1.1,0.3l-1.2,0.2l-0.6,0.1
	l-0.6,0.1l-1.2,0.1l-1.2,0.1H40h-1.5l-1.5-0.1l-1.5-0.2l-1.5-0.3l-1.4-0.3l-1.4-0.3l-1.4-0.5l-1.4-0.6L27,147l-1.3-0.6l-0.6-0.4
	l-0.6-0.3l-1.2-0.8l-1.2-0.8l-1.2-0.9l-0.5-0.5l-0.5-0.5l-0.5-0.5l-0.5-0.5l-1-1l-1-1.1l-0.4-0.6l-0.4-0.6l-0.9-1.2l-0.3-0.6
	l-0.4-0.6L14,135l-0.3-0.7L13,133l-0.6-1.4l-0.5-1.3l-0.5-1.4l-0.4-1.4l-0.2-0.8l-0.1-0.7l-0.1-0.8l-0.1-0.8l-0.2-1.4l-0.1-1.6
	l-0.1-0.8V120l0.1-1.5l0.1-1.5l0.2-1.5l0.3-1.5l0.3-1.4l0.4-1.4l0.5-1.4l0.5-1.4L13,107l0.7-1.3l0.3-0.6l0.3-0.6l0.8-1.2l0.9-1.2
	l0.8-1.2l0.5-0.6l0.5-0.5l0.5-0.6l0.6-0.5l1-1l1-1l0.6-0.4l0.5-0.4l1.2-0.9l0.6-0.3l0.6-0.4l0.6-0.3l0.6-0.3L27,93l1.3-0.6l1.4-0.6
	l1.4-0.4l1.4-0.4l0.8-0.2l0.7-0.1l0.8-0.1l0.8-0.1l1.5-0.2l1.5-0.1l0.8-0.1H40L40,90z"/>
<path class="st5" d="M117.3,90.1l1.4-0.1h1.4h1.4l1.3,0.1V108v0.5l-0.1,0.1l-0.1,0.3h-0.1l-0.1,0.1l-0.4,0.1h-3.5l-0.4-0.1l-0.1-0.1
	h-0.3v-0.3l-0.1-0.1l-0.1-0.5V90.1L117.3,90.1z M130,119.9v8.6v0.4l-0.1,0.3l-0.1,0.1l-0.1,0.3h-0.3l-0.3,0.1l-0.5,0.1h-5.3v14.1
	l1.1-0.3l1.1-0.1l1-0.4l1-0.3l0.5-0.1l0.5-0.3l1-0.4l1-0.5l0.9-0.5l1-0.5l0.9-0.5l0.8-0.6l0.9-0.6l1.6-1.4l0.8-0.8l0.6-0.8l0.8-0.9
	l0.6-0.8l0.6-0.9l0.5-0.9l0.5-1l0.5-0.9l0.5-1l0.4-1l0.6-2l0.4-1l0.1-1.1l0.3-1l0.1-1.1l0.1-2.3l-0.1-1.8l-0.1-0.9v-0.9l-0.4-1.8
	l-0.5-1.8l-0.3-0.8l-0.3-0.8l-0.6-1.6l-0.9-1.5l-0.8-1.5l-1-1.3l-1.1-1.4l-1.1-1.3l-1.3-1.1l-1.3-1l-1.4-1l-1.5-0.9l-1.5-0.8v20.3
	v0.4l-0.1,0.3l-0.1,0.1l-0.1,0.3l-0.3,0.1h-0.3l-0.5,0.1h-7.1h-0.4l-0.1,0.1l-0.1,0.1v-8.7l0.1-0.3l0.1-0.3l0.3-0.1h0.3h3.2l0.5-0.1
	l0.4-0.1l0.3-0.1l0.3-0.4v-13v-4.9v-1.3l2.5,0.8l1.3,0.4l1.1,0.4l1.3,0.5l1.1,0.6l1.1,0.5l1,0.6l1.1,0.8l1,0.6l1,0.8l0.9,0.9l1,0.9
	l0.9,0.9l1.6,1.8l0.8,1l0.8,1l0.6,1.1l0.6,1l1.3,2.3l0.5,1.1l0.4,1.3l0.8,2.4l0.4,1.3l0.3,1.3l0.1,1.3l0.3,1.4v1.3v1.4v1.5l-0.1,1.5
	l-0.1,1.5l-0.3,1.5l-0.4,1.4l-0.4,1.5l-0.5,1.4l-0.5,1.3l-0.6,1.4l-0.6,1.3l-0.8,1.3l-0.8,1.3l-0.9,1.1l-0.9,1.1l-0.9,1.1l-1,1l-1,1
	l-1.1,0.9L138,144l-1.1,0.9l-1.3,0.8l-1.3,0.8l-1.3,0.6l-1.4,0.6l-1.3,0.5l-1.5,0.5l-1.4,0.4l-1.4,0.4l-1.5,0.3l-1.5,0.1l-1.5,0.1
	l-1.5,0.1l-1.5-0.1l-1.5-0.1l-1.5-0.1l-1.5-0.3l-1.5-0.4l-1.4-0.4l-1.4-0.5l-1.4-0.5l-1.3-0.6l-1.3-0.6l-1.3-0.8l-1.3-0.8l-1.1-0.9
	l-1.1-0.9l-1.1-0.9l-1-1l-1-1l-1-1.1l-0.9-1.1l-0.8-1.1l-0.8-1.3l-0.8-1.3L93,133l-0.6-1.4l-0.5-1.3l-0.5-1.4l-0.4-1.5l-0.4-1.4
	l-0.3-1.5l-0.3-1.5l-0.1-1.5V120v-1.4l0.1-1.3l0.1-1.4l0.3-1.3l0.3-1.3l0.3-1.3l0.8-2.4l0.5-1.3l0.5-1.1l0.5-1.1l0.6-1.1l0.6-1
	l0.8-1.1l0.8-1l0.8-1l0.8-0.9l0.9-0.9l0.9-0.9l0.9-0.9l2-1.5l1-0.8l1-0.8l1.1-0.6l1.1-0.5l1.1-0.6l1.1-0.5l1.1-0.4l1.3-0.4l1.3-0.4
	l1.3-0.4v6.2v13l0.1,0.3l0.1,0.1l0.4,0.1l0.4,0.1l0.4,0.1h3.2h0.3l0.3,0.1l0.3,0.3v0.3v8.7l-0.3-0.3h-0.3h-7.2l-0.5-0.1h-0.3
	l-0.1-0.1l-0.3-0.3l-0.1-0.1v-0.3l-0.1-0.4V98.1l-1.5,0.8l-1.4,0.9l-1.4,1l-1.4,1l-1.3,1.1l-1.1,1.3l-1,1.4l-1,1.4l-0.9,1.4
	l-0.8,1.5l-0.4,0.8l-0.3,0.9l-0.6,1.6l-0.4,1.6l-0.4,1.8l-0.1,0.9v0.9l-0.1,1.8v1.1l0.1,1.1l0.1,1l0.1,1.1l0.3,1.1l0.3,1l0.4,1
	l0.1,0.5l0.3,0.5l0.4,1l0.4,1l1,1.9l1.3,1.6l0.6,0.9l0.6,0.9l0.8,0.8l0.8,0.8l1.5,1.4l0.9,0.6l0.9,0.6l1.8,1l1,0.5l0.9,0.5l1,0.4
	l1,0.4l1.1,0.3l1,0.4l1,0.1l1.1,0.3v-14.1h-5.3l-0.5-0.1l-0.1-0.1h-0.3l-0.3-0.3l-0.1-0.1v-0.3l-0.1-0.4v-8.6l0.1,0.1l0.1,0.1
	l0.4,0.3l0.4,0.1l0.4,0.1h6.9h0.3l0.3,0.1l0.3,0.3v0.3v8.3h1.9v-8.3l0.1-0.3l0.1-0.3l0.3-0.1h0.3h6.9l0.4-0.1l0.4-0.1l0.4-0.3
	L130,119.9L130,119.9z"/>
<path class="st4" d="M175.9,120.1l0.2,2.5l0.2,2.3l0.6,2.5l0.8,2l1,2.3l1.2,1.8l0.6,1l0.8,0.8l1.4,1.8l1.8,1.4l1.8,1.4l2,1.2l2,1
	l2.3,0.8l2.3,0.6l1.2,0.2l1.2,0.2h1.2h1.2h2.5l2.3-0.4l2.5-0.6l2-0.8l2.3-1l1.8-1.2l1-0.6l0.8-0.8l1.8-1.4l1.4-1.8l1.4-1.8l1.2-1.8
	l1-2.3l0.8-2l0.6-2.5l0.2-1l0.2-1.2v-1.2v-1.2v-2.5l-0.4-2.5l-0.6-2.3l-0.8-2.3l-1-2l-1.2-2l-0.6-1l-0.8-0.8l-1.4-1.6l-1.8-1.6
	l-1.8-1.4l-1.8-1.2l-2.3-1l-2-0.8l-2.5-0.6l-1-0.2h-1.2l-1.2-0.2h-1.2l-2.5,0.2l-2.5,0.2l-2.3,0.6l-2.3,0.8l-2,1l-2,1.2l-1,0.6
	l-0.8,0.8l-1.8,1.6l-1.4,1.6l-1.4,1.8l-1.2,2l-1,2l-0.8,2.3l-0.6,2.3l-0.2,1.2v1.2l-0.2,1.2V120.1L175.9,120.1z M170,120.1l0.2-3.1
	l0.2-1.6l0.2-1.4l0.8-2.9l0.4-1.4l0.6-1.2l0.6-1.4l0.6-1.2l1.4-2.5l0.8-1.2l1-1.2l1.8-2l1-1l1-0.8l1.2-1l1.2-0.8l1.2-0.8l1.2-0.6
	l2.7-1.2l2.7-1l1.4-0.4l1.4-0.4l1.4-0.2l1.6-0.2l3.1-0.2l3.1,0.2l1.4,0.2l1.4,0.2l2.9,0.8l1.4,0.4l1.4,0.6l1.2,0.6l1.2,0.6l2.7,1.4
	l1,0.8l1.2,1l2,1.8l1,1l1,1l0.8,1.2l0.8,1.2l0.8,1.2l0.6,1.2l1.4,2.7l1,2.7l0.2,1.4l0.4,1.4l0.2,1.4l0.2,1.6l0.2,3.1l-0.2,3.1
	l-0.2,1.4l-0.2,1.4l-0.6,2.9l-0.6,1.4l-0.4,1.4l-0.6,1.2l-0.8,1.2l-1.4,2.7l-0.8,1l-0.8,1.2l-2,2l-1,1l-1,1l-1.2,0.8l-1,0.8
	l-1.2,0.8l-1.4,0.6l-2.5,1.4l-2.9,1l-1.4,0.4l-1.4,0.2l-1.4,0.2l-1.4,0.2l-3.1,0.2l-3.1-0.2l-1.6-0.2l-1.4-0.2l-2.9-0.6l-1.4-0.6
	l-1.2-0.4l-1.4-0.6l-1.2-0.8l-2.5-1.4l-1.2-0.8l-1.2-0.8l-2-2l-1-1l-0.8-1l-1-1.2l-0.8-1l-0.8-1.2l-0.6-1.4l-1.2-2.5l-1-2.9
	l-0.4-1.4l-0.4-1.4l-0.2-1.4l-0.2-1.4L170,120.1L170,120.1z M216.9,122.2v4.1v4.9v4.3h-4.7h-10v-4.3h10v-4.9h-5.3h-4.7v-4.3v-4.5
	v-4.5h4.7h5.3v-4.5h-10v-4.3h10h4.7v4.3v4.5v4.5h-4.7h-5.3v4.5h10V122.2L216.9,122.2z M183.1,122.2v4.1v4.9v4.3h4.7h10v-4.3h-10
	v-4.9h5.3h4.7v-4.3v-4.5v-4.5h-4.7h-5.3v-4.5h10v-4.3h-10h-4.7v4.3v4.5v4.5h4.7h5.3v4.5h-10V122.2L183.1,122.2z"/>
<path class="st6" d="M57.6,215c-3.6,0.1-6.9,0.2-10.4,0.3c-2.3,9.5-20.9,6.9-18.9-5.1c1-7.1,10.8-10.2,16.9-4.9
	c1.3,1.5,2,2.9,2.4,5.9c3-0.1,7-0.2,10-0.3c0.2-15.3-17.5-23.1-30.7-15.7c-12.7,7.1-11.2,28.9,2.1,34.4c0,0.1,0,0.2,0,0.3
	c-7.3-0.1-15.2-5.7-16.9-12.3l0.1-35.4c5.8-3.9,12.1-8.5,17.9-12.4c0.2,0.1,0.5,0.2,0.7,0.3c-0.4,5.3-0.1,14.1,0.2,20.5
	c3.6-3.5,6-7.1,12.3-8.3c4-0.8,7.9-0.3,10.3,0.5c18.2,6.1,19.3,29.3,3.9,37.3c-0.3,0-1.1,0.7-1.7,0.8c0-0.1,0.4-0.6,0.6-1.1
	C56.7,218.4,57.1,216.7,57.6,215L57.6,215z"/>
<path class="st4" d="M125.1,174v6.2c0,0,5-1.6,4.8,4l0.2,15.1l-7.1,4l0.2-9.9c0.1-3.2-6.4-3.2-6.4,0l0.2,9.9l-7.1-4.4l0.2-14.7
	c-0.2-5.7,4.8-4,4.8-4V174H125.1L125.1,174z M90,217.1l5.3-3.1c0,0-3.9-3.5,1.1-6.2l12.9-7.7l7,4.1l-8.6,4.8
	c-2.8,1.5,0.5,7.2,3.2,5.5l8.4-5.1l-0.2,8.3l-12.8,7.2c-4.8,3-5.9-2.2-5.9-2.2l-5.3,3.1L90,217.1L90,217.1z M144.9,225.9l-5.3-3.1
	c0,0-1.1,5.2-5.9,2.2l-13.1-7.4l0.1-8.2l8.4,5.1c2.7,1.6,6-4,3.2-5.5l-8.6-4.8l7.3-4l12.6,7.5c5,2.7,1.1,6.2,1.1,6.2l5.3,3.1
	L144.9,225.9L144.9,225.9z"/>
<g>
	<g>
		<path class="st7" d="M186.3,180.6v46.1c1.8,0.9,3.7,1.7,5.8,2.2v-39.1C192.1,185.8,189.7,182.3,186.3,180.6z"/>
		<path class="st7" d="M213.7,180.6v46.1c-1.8,0.9-3.7,1.7-5.8,2.2v-39.1C207.9,185.8,210.3,182.3,213.7,180.6z"/>
		<path class="st7" d="M213.8,174.1c0-0.5-0.3-1-0.8-1.2l0,0c-3.9-1.9-8.3-3-13-3c-4.7,0-9.1,1.1-13,3v0c-0.4,0.2-0.7,0.7-0.7,1.2
			c0,0.6,0.4,1.1,0.9,1.3v0c5.3,1.7,9.2,6.7,9.2,12.6v41.8c1.2,0.1,2.4,0.2,3.6,0.2c1.2,0,2.4-0.1,3.6-0.2V188
			c0-5.9,3.9-10.9,9.2-12.6l0,0C213.4,175.2,213.8,174.7,213.8,174.1z"/>
		<path class="st8" d="M179.5,198c0.9,0.3,1.8,0,2.3-0.8v-21.1c-7.1,5.5-11.8,14.1-11.8,23.8c0,9.7,4.6,18.3,11.8,23.8v-21.1
			c-0.5-0.7-1.4-1.1-2.3-0.8c-1.5,0.5-2.5,1.7-2.9,3.1c0,0,0,0,0,0c-0.1,0.2-0.2,0.4-0.5,0.4c-0.1,0-0.3-0.1-0.3-0.1
			c-1.2-1.4-2-3.3-2-5.3c0-2,0.7-3.9,2-5.4c0.1-0.1,0.2-0.1,0.3-0.1c0.2,0,0.4,0.2,0.5,0.4l0,0c0-0.1,0-0.2-0.1-0.2
			C176.9,196.2,177.9,197.5,179.5,198z"/>
		<path class="st7" d="M227.2,202c-1.5,0.5-2.5,1.7-2.9,3.2c0,0,0,0,0,0c0,0.2-0.2,0.4-0.5,0.4c-0.2,0-0.3-0.1-0.4-0.2
			c-1.2-1.4-1.9-3.3-1.9-5.3c0-2,0.7-3.8,1.9-5.3c0.1-0.1,0.2-0.2,0.4-0.2c0.2,0,0.4,0.2,0.5,0.4c0,0,0,0,0,0
			c0.4,1.4,1.4,2.6,2.9,3.2c1,0.4,2.1-0.2,2.5-1.1c0-0.1,0.1-0.3,0.1-0.4c-1-8.3-5.3-15.5-11.6-20.3v47.6
			c6.3-4.8,10.6-12.1,11.6-20.3c0-0.1,0-0.3-0.1-0.4C229.3,202.1,228.2,201.6,227.2,202z"/>
	</g>
	<circle class="st9" cx="200" cy="200" r="30"/>
</g>
</svg>
