<?xml version="1.0" encoding="utf-8"?>
<!-- Generator: Adobe Illustrator 21.0.0, SVG Export Plug-In . SVG Version: 6.00 Build 0)  -->
<svg version="1.1" id="图层_1" xmlns="http://www.w3.org/2000/svg" xmlns:xlink="http://www.w3.org/1999/xlink" x="0px" y="0px"
	 viewBox="0 0 560 1399.8" style="enable-background:new 0 0 560 1399.8;" xml:space="preserve">
<style type="text/css">
	.st0{fill:#FFDEDE;}
	.st1{fill:url(#SVGID_1_);}
	.st2{fill:url(#SVGID_2_);}
	.st3{fill:#FFFFFF;}
	.st4{fill:#7F7F7F;}
	.st5{fill:url(#SVGID_3_);}
	.st6{fill:url(#SVGID_4_);}
	.st7{fill:url(#SVGID_5_);}
	.st8{fill:url(#SVGID_6_);}
	.st9{fill:url(#SVGID_7_);}
	.st10{fill:url(#SVGID_8_);}
	.st11{fill:url(#SVGID_9_);}
</style>
<g>
	<g>
		<linearGradient id="SVGID_1_" gradientUnits="userSpaceOnUse" x1="356.27" y1="400.5306" x2="483.7936" y2="400.5306">
			<stop  offset="0" style="stop-color:#3199FF"/>
			<stop  offset="1" style="stop-color:#3188FF"/>
		</linearGradient>
		<path class="st1" d="M420,480.8c1.4,0,2.7-0.6,3.7-1.6c0.4-0.4,10.5-10.9,22.4-25.5l10.8-13.9c17.8-24.1,26.9-43.2,26.9-56.7
			c0-27.3-17.8-50.7-42.5-59.3c-0.1,0-0.1,0-0.2-0.1c-0.9-0.3-1.8-0.6-2.7-0.9c-0.1,0-0.2-0.1-0.4-0.1c-0.8-0.2-1.7-0.5-2.6-0.7
			c-0.2,0-0.3-0.1-0.5-0.1c-0.8-0.2-1.6-0.4-2.5-0.5c-0.2,0-0.4-0.1-0.7-0.1c-0.8-0.1-1.6-0.3-2.4-0.4c-0.2,0-0.5-0.1-0.7-0.1
			c-0.8-0.1-1.6-0.2-2.4-0.3c-0.2,0-0.5,0-0.7-0.1c-0.8-0.1-1.6-0.1-2.5-0.2l0,0c-1-0.1-2.1-0.1-3.1-0.1l0,0h0c0,0-0.1,0-0.1,0
			c-1,0-2,0-3,0.1c0,0,0,0,0,0c-0.8,0-1.7,0.1-2.5,0.2c-0.2,0-0.5,0-0.7,0.1c-0.8,0.1-1.6,0.2-2.4,0.3c-0.2,0-0.5,0.1-0.7,0.1
			c-0.8,0.1-1.6,0.3-2.4,0.4c-0.2,0-0.4,0.1-0.7,0.1c-0.8,0.2-1.6,0.3-2.5,0.5c-0.2,0-0.4,0.1-0.5,0.1c-0.9,0.2-1.7,0.4-2.6,0.7
			c-0.1,0-0.2,0.1-0.4,0.1c-0.9,0.3-1.8,0.6-2.7,0.9c-0.1,0-0.1,0-0.2,0.1c-24.8,8.6-42.5,32-42.5,59.3c0,33.6,57.6,93.5,60.1,96.1
			C417.3,480.2,418.6,480.8,420,480.8z"/>
		<linearGradient id="SVGID_2_" gradientUnits="userSpaceOnUse" x1="328.0317" y1="476.513" x2="512.0317" y2="476.513">
			<stop  offset="0" style="stop-color:#3199FF"/>
			<stop  offset="1" style="stop-color:#3188FF"/>
		</linearGradient>
		<path class="st2" d="M512,471.2c0-14.9-12.1-28.8-33.3-38c-2.6-1.1-5.6,0-6.7,2.6s0,5.5,2.6,6.6c17.3,7.5,27.2,18.1,27.2,28.8
			c0,21.2-37.5,39-81.8,39c-44.4,0-81.8-17.9-81.8-39c0-10.7,9.8-21.2,27-28.7c2.6-1.1,3.7-4.1,2.6-6.6c-1.1-2.5-4.1-3.7-6.7-2.5
			c-21,9.2-33,23-33,37.9c0,0.1,0,0.1,0,0.2c0,0.1,0,0.1,0,0.2c0,27.3,40.4,48.7,92,48.7h0l0,0c0,0,0,0,0.1,0
			c51.6,0,91.9-21.4,91.9-48.7c0-0.1,0-0.1,0-0.2C512,471.3,512,471.2,512,471.2z"/>
	</g>
	<g>
		<path class="st3" d="M398.6,348.3c-0.3-0.3-0.5-0.6-0.9-0.8c-1-0.9-2.3-1.2-3.5-1.1c-1,0.1-2,0.4-2.8,1.1
			c-11.2,8.7-17.6,21.7-17.6,35.7c0,2.8,2.3,5,5.1,5c2.8,0,5.1-2.2,5.1-5c0-10.9,5-21.1,13.7-27.9
			C400,353.6,400.3,350.4,398.6,348.3z"/>
		<path class="st3" d="M439.8,374.8c-2.6-6.3-8.3-11-15.3-12.4c-1.5-0.3-3-0.5-4.5-0.5c-11.9,0-21.5,9.5-21.5,21.2
			s9.7,21.2,21.5,21.2c11.9,0,21.5-9.5,21.5-21.2C441.5,380.2,440.9,377.4,439.8,374.8z"/>
		<ellipse class="st3" cx="408" cy="343.4" rx="5.1" ry="5"/>
	</g>
</g>
<g>
	<path class="st4" d="M140,480.8c1.4,0,2.7-0.6,3.7-1.6c0.4-0.4,10.5-10.9,22.4-25.5c1.8-2.2,1.4-5.3-0.8-7.1
		c-2.2-1.7-5.4-1.4-7.1,0.8c-7.4,9.1-14.2,16.7-18.2,21c-17.8-19.2-53.6-62.4-53.6-85.2c0-29.2,24-52.9,53.6-52.9
		c29.6,0,53.6,23.7,53.6,52.9c0,11.2-8.6,28.7-24.9,50.8c-1.7,2.2-1.2,5.4,1.1,7c2.3,1.6,5.4,1.1,7.1-1.1
		c17.8-24.1,26.9-43.2,26.9-56.7c0-34.7-28.6-62.9-63.8-62.9c-35.2,0-63.8,28.2-63.8,62.9c0,33.6,57.6,93.5,60.1,96.1
		C137.3,480.2,138.6,480.8,140,480.8z"/>
	<path class="st4" d="M111.4,347.4c-11.2,8.7-17.6,21.7-17.6,35.7c0,2.8,2.3,5,5.1,5c2.8,0,5.1-2.2,5.1-5c0-10.9,5-21.1,13.7-27.9
		c2.2-1.7,2.6-4.9,0.8-7C116.8,346.1,113.6,345.7,111.4,347.4z"/>
	<path class="st4" d="M140,404.4c11.9,0,21.5-9.5,21.5-21.2c0-11.7-9.7-21.2-21.5-21.2c-11.9,0-21.5,9.5-21.5,21.2
		C118.5,394.9,128.2,404.4,140,404.4z M140,372c6.3,0,11.3,5,11.3,11.2c0,6.2-5.1,11.2-11.3,11.2c-6.3,0-11.3-5-11.3-11.2
		C128.7,377,133.8,372,140,372z"/>
	<ellipse class="st4" cx="128" cy="343.4" rx="5.1" ry="5"/>
	<path class="st4" d="M198.8,433.2c-2.6-1.1-5.6,0-6.7,2.6c-1.1,2.5,0,5.5,2.6,6.6c17.3,7.5,27.2,18.1,27.2,28.8
		c0,21.2-37.5,39-81.8,39s-81.8-17.9-81.8-39c0-10.7,9.8-21.2,27-28.7c2.6-1.1,3.7-4.1,2.6-6.6c-1.1-2.5-4.1-3.7-6.7-2.5
		c-21,9.2-33,23-33,37.9c0,27.5,40.4,49.1,92,49.1s92-21.6,92-49.1C232,456.3,219.9,442.4,198.8,433.2z"/>
</g>
<linearGradient id="SVGID_3_" gradientUnits="userSpaceOnUse" x1="335.5317" y1="1259.765" x2="503.5317" y2="1259.765">
	<stop  offset="0" style="stop-color:#3199FF"/>
	<stop  offset="1" style="stop-color:#3188FF"/>
</linearGradient>
<path class="st5" d="M441.8,1265.4c18.6-9.2,31.3-28.1,31.3-49.8c0-30.8-25.5-55.8-56.8-55.8s-56.8,25-56.8,55.8
	c0,22.8,14,42.4,34,51c-33.6,12.2-58,47.2-58,88.5c0,2.6,2.1,4.6,4.7,4.6h158.5c2.6,0,4.7-2.1,4.7-4.6
	C503.5,1312.3,477.4,1276.2,441.8,1265.4z"/>
<path class="st4" d="M182.1,1274.8c-2.2-1.4-5.1-0.8-6.6,1.3c-1.4,2.1-0.9,5,1.3,6.4c21.8,14.2,35.7,39.9,37.1,67.9H65.1
	c2.2-44.1,34.7-79.2,74.4-79.2c0.4,0,0.8-0.1,1.2-0.2c29.3-2.2,52.4-26.3,52.4-55.6c0-30.8-25.5-55.8-56.8-55.8s-56.8,25-56.8,55.8
	c0,22.8,14,42.4,34,51c-33.6,12.2-58,47.2-58,88.5c0,2.6,2.1,4.6,4.7,4.6h158.5c2.6,0,4.7-2.1,4.7-4.6
	C223.5,1322.3,207.7,1291.5,182.1,1274.8z M89.1,1215.5c0-25.6,21.2-46.5,47.3-46.5s47.3,20.8,47.3,46.5c0,25.6-21.2,46.5-47.3,46.5
	S89.1,1241.2,89.1,1215.5z"/>
<g>
	<path class="st4" d="M237.9,139.9c-15.1-15.3-93.6-95.4-97.7-99.6c-0.1-0.1-0.2-0.1-0.3,0l-97.7,99.5c-2.3,2.4-2.9,6.1-1,8.8
		c2.4,3.5,7.2,3.8,10,0.9l12.2-12.5c0.2-0.2,0.4,0,0.4,0.2v83.1c0,10.9,8.9,19.9,19.9,19.9h30.3c3.5,0,6.4-2.9,6.4-6.4l0.2-64.6
		c0-0.9,0.7-1.6,1.6-1.6h34.5c0,0,0,0,0,0c0,0,0.1,0,0.1,0c3.6,0,6.5-2.9,6.5-6.5s-2.9-6.5-6.5-6.5c0,0-0.1,0-0.1,0c0,0,0,0,0,0h-43
		c0,0,0,0,0,0s0,0,0,0c-2.8,0-5.1,1.8-6,4.2c-0.3,0.7-0.4,1.5-0.4,2.3l-0.2,64.7c0,0.8-0.7,1.5-1.5,1.5H83.4c-3.4,0-6.2-3-6.2-6.7
		v-97.4c0-0.1,0-0.1,0.1-0.2l62.6-63.8c0.1-0.1,0.3-0.1,0.4,0l88.7,90.4c2.8,2.9,7.6,2.6,10-0.9C240.8,146,240.2,142.2,237.9,139.9z
		"/>
	<path class="st4" d="M209.8,154.7c-3.5,0-6.4,2.8-6.4,6.4h0v59.5c0,3.7-3.2,6.7-6.7,6.7h-27v0c-3.5,0-6.4,2.9-6.4,6.4
		s2.9,6.4,6.4,6.4v0h27c10.8,0,19.6-8.8,19.6-19.6v-59.5h0C216.2,157.6,213.3,154.7,209.8,154.7z"/>
</g>
<linearGradient id="SVGID_4_" gradientUnits="userSpaceOnUse" x1="320.0286" y1="140.2651" x2="520.0347" y2="140.2651">
	<stop  offset="0" style="stop-color:#3199FF"/>
	<stop  offset="1" style="stop-color:#3188FF"/>
</linearGradient>
<path class="st6" d="M517.9,139.9c-15-15.3-93.8-95.5-97.7-99.6c-0.1-0.1-0.2-0.1-0.3,0l-97.7,99.5c-2.3,2.4-2.9,6.1-1,8.8
	c2.4,3.5,7.2,3.8,10,0.9l12.2-12.5c0.2-0.2,0.4,0,0.4,0.2v83.1c0,10.9,8.9,19.9,19.9,19.9h30.3c3.5,0,6.4-2.9,6.4-6.4l0.2-59.7
	c0-3.6,2.9-6.5,6.5-6.5l29.8,0c3.6,0,6.5,2.9,6.5,6.5v59.6h0c0,0,0,0.1,0,0.1c0,3.5,2.9,6.4,6.4,6.4v0h27c10.8,0,19.6-8.8,19.6-19.6
	v-59.5v-0.1v-24.4l12.7,12.9c2.8,2.9,7.6,2.6,10-1C520.8,145.9,520.2,142.3,517.9,139.9z M420.2,59.2h-0.4
	C419.9,59.1,420.1,59.1,420.2,59.2z"/>
<g>
	<ellipse class="st4" cx="111.4" cy="1069.9" rx="10.2" ry="10.4"/>
	<ellipse class="st4" cx="200.3" cy="1069.9" rx="10.2" ry="10.4"/>
	<path class="st4" d="M238.9,933.8c-1-1.2-2.4-1.9-4-1.9H110c-2.8,0-5.1,2.3-5.1,5.2c0,2.9,2.3,5.2,5.1,5.2h118.7l-18.3,94.6H104.8
		L74.5,884.4c-0.5-2.4-2.6-4.2-5-4.2H45.1c-2.8,0-5.1,2.3-5.1,5.2c0,2.9,2.3,5.2,5.1,5.2h20.1l30.3,152.4c0.5,2.4,2.6,4.2,5,4.2h114
		c2.4,0,4.5-1.8,5-4.2l20.3-105C240.2,936.6,239.8,935,238.9,933.8z"/>
</g>
<g>
	<linearGradient id="SVGID_5_" gradientUnits="userSpaceOnUse" x1="320.0317" y1="700.2651" x2="520.0317" y2="700.2651">
		<stop  offset="0" style="stop-color:#3199FF"/>
		<stop  offset="1" style="stop-color:#3188FF"/>
	</linearGradient>
	<path class="st7" d="M420,600.3c-55.1,0-100,44.9-100,100s44.9,100,100,100s100-44.9,100-100S475.2,600.3,420,600.3z"/>
	<path class="st3" d="M468.8,651.5c-2.4-2.4-5.8-3.3-9.1-2.4l-66.4,17.8c-3.3,0.9-5.8,3.4-6.7,6.7l-17.8,66.4
		c-0.9,3.3,0,6.7,2.4,9.1c1.8,1.8,4.2,2.8,6.6,2.8c0.8,0,1.7-0.1,2.5-0.3l66.4-17.8c3.3-0.9,5.8-3.4,6.7-6.7l17.8-66.4
		C472.2,657.3,471.2,653.9,468.8,651.5z"/>
	<linearGradient id="SVGID_6_" gradientUnits="userSpaceOnUse" x1="409.5054" y1="700.2651" x2="430.558" y2="700.2651">
		<stop  offset="0" style="stop-color:#3199FF"/>
		<stop  offset="1" style="stop-color:#3188FF"/>
	</linearGradient>
	<ellipse class="st8" cx="420" cy="700.3" rx="10.5" ry="10.6"/>
</g>
<g>
	<g>
		<path class="st4" d="M145.9,605.6c0,2.7,2,4.9,4.7,5.3c44.4,5.3,78.9,43.2,78.9,89.1c0,13-2.8,25.4-7.8,36.6
			c-1.1,2.5-0.2,5.4,2.1,6.8l0,0c2.7,1.6,6.2,0.4,7.5-2.4c5.6-12.5,8.7-26.4,8.7-40.9c0-51.3-38.6-93.8-88.2-99.6
			C148.7,599.9,145.9,602.4,145.9,605.6L145.9,605.6z"/>
		<path class="st4" d="M211.5,760.5c-2.1-1.2-4.8-0.8-6.5,1c-16.3,17.3-39.4,28.2-65,28.2c-26.7,0-50.6-11.8-67-30.4
			c-1.7-1.9-4.4-2.4-6.6-1.1h0c-2.9,1.7-3.5,5.6-1.3,8.1c18.3,20.8,45.1,34,75,34c28.6,0,54.5-12.1,72.7-31.5
			C215.1,766.3,214.5,762.3,211.5,760.5L211.5,760.5z"/>
		<path class="st4" d="M55,740.4c2.3-1.3,3.2-4.2,2.2-6.6c-4.3-10.5-6.6-21.9-6.6-33.8c0-42.8,30.1-78.7,70.1-87.6
			c2.4-0.5,4.1-2.7,4.1-5.2v0c0-3.4-3.1-5.9-6.4-5.2C73.6,611.9,40,652,40,699.9c0,13.4,2.6,26.2,7.4,37.9
			C48.6,740.8,52.2,742,55,740.4L55,740.4z"/>
	</g>
	<g>
		<path class="st4" d="M92.4,748.1L92.4,748.1c-2.1-2.1-2.9-5.2-2.1-8.1l17.8-65.8c0.8-2.9,3.1-5.2,5.9-5.9l65.6-17.9l0,0
			c2.9-0.8,5.9,0,8.1,2.1c2.1,2.1,2.9,5.2,2.1,8.1L172,726.4c-0.8,2.9-3.1,5.2-5.9,5.9l-65.6,17.9C97.5,751,94.5,750.2,92.4,748.1z
			 M182.1,658.1c-0.2-0.2-0.4-0.1-0.4-0.1l0,0L116,675.9c-0.2,0-0.3,0.2-0.3,0.3L97.9,742c0,0.1-0.1,0.3,0.1,0.4l0,0
			c0.2,0.2,0.4,0.1,0.4,0.1l65.6-17.9c0.2,0,0.3-0.2,0.3-0.3l17.8-65.8C182.2,658.5,182.2,658.3,182.1,658.1z"/>
	</g>
	<ellipse class="st4" cx="140" cy="700.3" rx="10.5" ry="10.6"/>
</g>
<g>
	<linearGradient id="SVGID_7_" gradientUnits="userSpaceOnUse" x1="381.1403" y1="1069.8547" x2="401.6093" y2="1069.8547">
		<stop  offset="0" style="stop-color:#3199FF"/>
		<stop  offset="1" style="stop-color:#3188FF"/>
	</linearGradient>
	<ellipse class="st9" cx="391.4" cy="1069.9" rx="10.2" ry="10.4"/>
	<linearGradient id="SVGID_8_" gradientUnits="userSpaceOnUse" x1="470.0815" y1="1069.8547" x2="490.5506" y2="1069.8547">
		<stop  offset="0" style="stop-color:#3199FF"/>
		<stop  offset="1" style="stop-color:#3188FF"/>
	</linearGradient>
	<ellipse class="st10" cx="480.3" cy="1069.9" rx="10.2" ry="10.4"/>
	<linearGradient id="SVGID_9_" gradientUnits="userSpaceOnUse" x1="320.0317" y1="963.7648" x2="520.0317" y2="963.7648">
		<stop  offset="0" style="stop-color:#3199FF"/>
		<stop  offset="1" style="stop-color:#3188FF"/>
	</linearGradient>
	<path class="st11" d="M518.9,933.8c-1-1.2-2.4-1.9-4-1.9H366.6c-1.5,0-2.9-1.1-3.2-2.6l-8.9-44.8c-0.5-2.4-2.6-4.2-5-4.2h-24.3
		c-2.8,0-5.1,2.3-5.1,5.2s2.3,5.2,5.1,5.2h17.5c1.5,0,2.9,1.1,3.2,2.6l29.8,149.8c0.5,2.4,2.6,4.2,5,4.2h114c2.4,0,4.5-1.8,5-4.2
		l20.3-105C520.2,936.6,519.8,935,518.9,933.8z"/>
</g>
</svg>
