<?xml version="1.0" encoding="utf-8"?>
<!-- Generator: Adobe Illustrator 21.0.0, SVG Export Plug-In . SVG Version: 6.00 Build 0)  -->
<svg version="1.1" id="one" xmlns="http://www.w3.org/2000/svg" xmlns:xlink="http://www.w3.org/1999/xlink" x="0px" y="0px"
	 viewBox="0 0 440 1100" style="enable-background:new 0 0 440 1100;" xml:space="preserve">
<style type="text/css">
	.st0{fill:#FFDEDE;}
	.st1{fill:url(#SVGID_1_);}
	.st2{fill:url(#SVGID_2_);}
	.st3{fill:#FFFFFF;}
	.st4{fill:#7F7F7F;}
	.st5{fill:url(#SVGID_3_);}
	.st6{fill:url(#SVGID_4_);}
	.st7{fill:url(#SVGID_5_);}
	.st8{fill:url(#SVGID_6_);}
	.st9{fill:url(#SVGID_7_);}
	.st10{fill:url(#SVGID_8_);}
	.st11{fill:url(#SVGID_9_);}
</style>
<g>
	<g>
		<linearGradient id="SVGID_1_" gradientUnits="userSpaceOnUse" x1="266.2405" y1="310.2655" x2="393.7642" y2="310.2655">
			<stop  offset="0" style="stop-color:#3199FF"/>
			<stop  offset="1" style="stop-color:#3188FF"/>
		</linearGradient>
		<path class="st1" d="M330,390.5c1.4,0,2.7-0.6,3.7-1.6c0.4-0.4,10.5-10.9,22.4-25.5l10.8-13.9c17.8-24.1,26.9-43.2,26.9-56.7
			c0-27.3-17.8-50.7-42.5-59.3c-0.1,0-0.1,0-0.2-0.1c-0.9-0.3-1.8-0.6-2.7-0.9c-0.1,0-0.2-0.1-0.4-0.1c-0.8-0.2-1.7-0.5-2.6-0.7
			c-0.2,0-0.3-0.1-0.5-0.1c-0.8-0.2-1.6-0.4-2.5-0.5c-0.2,0-0.4-0.1-0.7-0.1c-0.8-0.1-1.6-0.3-2.4-0.4c-0.2,0-0.5-0.1-0.7-0.1
			c-0.8-0.1-1.6-0.2-2.4-0.3c-0.2,0-0.5,0-0.7-0.1c-0.8-0.1-1.6-0.1-2.5-0.2l0,0c-1-0.1-2.1-0.1-3.1-0.1l0,0h0c0,0-0.1,0-0.1,0
			c-1,0-2,0-3,0.1c0,0,0,0,0,0c-0.8,0-1.7,0.1-2.5,0.2c-0.2,0-0.5,0-0.7,0.1c-0.8,0.1-1.6,0.2-2.4,0.3c-0.2,0-0.5,0.1-0.7,0.1
			c-0.8,0.1-1.6,0.3-2.4,0.4c-0.2,0-0.4,0.1-0.7,0.1c-0.8,0.2-1.6,0.3-2.5,0.5c-0.2,0-0.4,0.1-0.5,0.1c-0.9,0.2-1.7,0.4-2.6,0.7
			c-0.1,0-0.2,0.1-0.4,0.1c-0.9,0.3-1.8,0.6-2.7,0.9c-0.1,0-0.1,0-0.2,0.1c-24.8,8.6-42.5,32-42.5,59.3c0,33.6,57.6,93.5,60.1,96.1
			C327.3,390,328.6,390.5,330,390.5z"/>
		<linearGradient id="SVGID_2_" gradientUnits="userSpaceOnUse" x1="238.0022" y1="386.248" x2="422.0022" y2="386.248">
			<stop  offset="0" style="stop-color:#3199FF"/>
			<stop  offset="1" style="stop-color:#3188FF"/>
		</linearGradient>
		<path class="st2" d="M422,380.9c0-14.9-12.1-28.8-33.3-38c-2.6-1.1-5.6,0-6.7,2.6s0,5.5,2.6,6.6c17.3,7.5,27.2,18.1,27.2,28.8
			c0,21.2-37.5,39-81.8,39c-44.4,0-81.8-17.9-81.8-39c0-10.7,9.8-21.2,27-28.7c2.6-1.1,3.7-4.1,2.6-6.6c-1.1-2.5-4.1-3.7-6.7-2.5
			c-21,9.2-33,23-33,37.9c0,0.1,0,0.1,0,0.2c0,0.1,0,0.1,0,0.2c0,27.3,40.4,48.7,92,48.7h0l0,0c0,0,0,0,0.1,0
			c51.6,0,91.9-21.4,91.9-48.7c0-0.1,0-0.1,0-0.2C422,381,422,381,422,380.9z"/>
	</g>
	<g>
		<path class="st3" d="M308.6,258c-0.3-0.3-0.5-0.6-0.9-0.8c-1-0.9-2.3-1.2-3.5-1.1c-1,0.1-2,0.4-2.8,1.1
			c-11.2,8.7-17.6,21.7-17.6,35.7c0,2.8,2.3,5,5.1,5c2.8,0,5.1-2.2,5.1-5c0-10.9,5-21.1,13.7-27.9
			C309.9,263.3,310.3,260.2,308.6,258z"/>
		<path class="st3" d="M349.8,284.5c-2.6-6.3-8.3-11-15.3-12.4c-1.5-0.3-3-0.5-4.5-0.5c-11.9,0-21.5,9.5-21.5,21.2
			s9.7,21.2,21.5,21.2c11.9,0,21.5-9.5,21.5-21.2C351.5,289.9,350.9,287.1,349.8,284.5z"/>
		<ellipse class="st3" cx="318" cy="253.1" rx="5.1" ry="5"/>
	</g>
</g>
<g>
	<path class="st4" d="M110,390.5c1.4,0,2.7-0.6,3.7-1.6c0.4-0.4,10.5-10.9,22.4-25.5c1.8-2.2,1.4-5.3-0.8-7.1
		c-2.2-1.7-5.4-1.4-7.1,0.8c-7.4,9.1-14.2,16.7-18.2,21c-17.8-19.2-53.6-62.4-53.6-85.2c0-29.2,24-52.9,53.6-52.9
		c29.6,0,53.6,23.7,53.6,52.9c0,11.2-8.6,28.7-24.9,50.8c-1.7,2.2-1.2,5.4,1.1,7c2.3,1.6,5.4,1.1,7.1-1.1
		c17.8-24.1,26.9-43.2,26.9-56.7c0-34.7-28.6-62.9-63.8-62.9c-35.2,0-63.8,28.2-63.8,62.9c0,33.6,57.6,93.5,60.1,96.1
		C107.3,390,108.6,390.5,110,390.5z"/>
	<path class="st4" d="M81.4,257.2c-11.2,8.7-17.6,21.7-17.6,35.7c0,2.8,2.3,5,5.1,5s5.1-2.2,5.1-5c0-10.9,5-21.1,13.7-27.9
		c2.2-1.7,2.6-4.9,0.8-7C86.8,255.8,83.6,255.5,81.4,257.2z"/>
	<path class="st4" d="M110,314.1c11.9,0,21.5-9.5,21.5-21.2c0-11.7-9.7-21.2-21.5-21.2c-11.9,0-21.5,9.5-21.5,21.2
		C88.5,304.6,98.1,314.1,110,314.1z M110,281.7c6.3,0,11.3,5,11.3,11.2c0,6.2-5.1,11.2-11.3,11.2c-6.3,0-11.3-5-11.3-11.2
		C98.7,286.7,103.7,281.7,110,281.7z"/>
	<ellipse class="st4" cx="98" cy="253.1" rx="5.1" ry="5"/>
	<path class="st4" d="M168.7,342.9c-2.6-1.1-5.6,0-6.7,2.6s0,5.5,2.6,6.6c17.3,7.5,27.2,18.1,27.2,28.8c0,21.2-37.5,39-81.8,39
		s-81.8-17.9-81.8-39c0-10.7,9.8-21.2,27-28.7c2.6-1.1,3.7-4.1,2.6-6.6c-1.1-2.5-4.1-3.7-6.7-2.5c-21,9.2-33,23-33,37.9
		c0,27.5,40.4,49.1,92,49.1s92-21.6,92-49.1C202,366,189.9,352.2,168.7,342.9z"/>
</g>
<linearGradient id="SVGID_3_" gradientUnits="userSpaceOnUse" x1="246.0022" y1="990" x2="414.0022" y2="990">
	<stop  offset="0" style="stop-color:#3199FF"/>
	<stop  offset="1" style="stop-color:#3188FF"/>
</linearGradient>
<path class="st5" d="M352.3,995.6c18.6-9.2,31.3-28.1,31.3-49.8c0-30.8-25.5-55.8-56.8-55.8s-56.8,25-56.8,55.8
	c0,22.8,14,42.4,34,51c-33.6,12.2-58,47.2-58,88.5c0,2.6,2.1,4.6,4.7,4.6h158.5c2.6,0,4.7-2.1,4.7-4.6
	C414,1042.6,387.8,1006.5,352.3,995.6z"/>
<path class="st4" d="M152.6,1005c-2.2-1.4-5.1-0.8-6.6,1.3c-1.4,2.1-0.9,5,1.3,6.4c21.8,14.2,35.7,39.9,37.1,67.9H35.6
	c2.2-44.1,34.7-79.2,74.4-79.2c0.4,0,0.8-0.1,1.2-0.2c29.3-2.2,52.4-26.3,52.4-55.6c0-30.8-25.5-55.8-56.8-55.8s-56.8,25-56.8,55.8
	c0,22.8,14,42.4,34,51c-33.6,12.2-58,47.2-58,88.5c0,2.6,2.1,4.6,4.7,4.6h158.5c2.6,0,4.7-2.1,4.7-4.6
	C194,1052.5,178.1,1021.7,152.6,1005z M59.5,945.8c0-25.6,21.2-46.5,47.3-46.5s47.3,20.8,47.3,46.5s-21.2,46.5-47.3,46.5
	S59.5,971.4,59.5,945.8z"/>
<g>
	<path class="st4" d="M207.9,109.6c-15.1-15.3-93.6-95.4-97.7-99.6c-0.1-0.1-0.2-0.1-0.3,0l-97.7,99.5c-2.3,2.4-2.9,6.1-1,8.8
		c2.4,3.5,7.2,3.8,10,0.9l12.2-12.5c0.2-0.2,0.4,0,0.4,0.2v83.1c0,10.9,8.9,19.9,19.9,19.9h30.3c3.5,0,6.4-2.9,6.4-6.4l0.2-64.6
		c0-0.9,0.7-1.6,1.6-1.6h34.5c0,0,0,0,0,0c0,0,0.1,0,0.1,0c3.6,0,6.5-2.9,6.5-6.5s-2.9-6.5-6.5-6.5c0,0-0.1,0-0.1,0c0,0,0,0,0,0h-43
		c0,0,0,0,0,0s0,0,0,0c-2.8,0-5.1,1.8-6,4.2c-0.3,0.7-0.4,1.5-0.4,2.3L77,195.6c0,0.8-0.7,1.5-1.5,1.5H53.4c-3.4,0-6.2-3-6.2-6.7
		V92.9c0-0.1,0-0.1,0.1-0.2l62.6-63.8c0.1-0.1,0.3-0.1,0.4,0l88.7,90.4c2.8,2.9,7.6,2.6,10-0.9C210.8,115.7,210.2,112,207.9,109.6z"
		/>
	<path class="st4" d="M179.8,124.5c-3.5,0-6.4,2.8-6.4,6.4h0v59.5c0,3.7-3.2,6.7-6.7,6.7h-27v0c-3.5,0-6.4,2.9-6.4,6.4
		s2.9,6.4,6.4,6.4v0h27c10.8,0,19.6-8.8,19.6-19.6v-59.5h0C186.2,127.3,183.3,124.5,179.8,124.5z"/>
</g>
<linearGradient id="SVGID_4_" gradientUnits="userSpaceOnUse" x1="229.9992" y1="110" x2="430.0053" y2="110">
	<stop  offset="0" style="stop-color:#3199FF"/>
	<stop  offset="1" style="stop-color:#3188FF"/>
</linearGradient>
<path class="st6" d="M427.9,109.7c-15-15.3-93.8-95.5-97.7-99.6c-0.1-0.1-0.2-0.1-0.3,0l-97.7,99.5c-2.3,2.4-2.9,6.1-1,8.8
	c2.4,3.5,7.2,3.8,10,0.9l12.2-12.5c0.2-0.2,0.4,0,0.4,0.2v83.1c0,10.9,8.9,19.9,19.9,19.9h30.3c3.5,0,6.4-2.9,6.4-6.4l0.2-59.7
	c0-3.6,2.9-6.5,6.5-6.5l29.8,0c3.6,0,6.5,2.9,6.5,6.5v59.6h0c0,0,0,0.1,0,0.1c0,3.5,2.9,6.4,6.4,6.4v0h27c10.8,0,19.6-8.8,19.6-19.6
	v-59.5v-0.1v-24.4l12.7,12.9c2.8,2.9,7.6,2.6,10-1C430.8,115.7,430.2,112,427.9,109.7z M330.2,28.9h-0.4
	C329.9,28.8,330.1,28.8,330.2,28.9z"/>
<g>
	<ellipse class="st4" cx="81.3" cy="859.6" rx="10.2" ry="10.4"/>
	<ellipse class="st4" cx="170.3" cy="859.6" rx="10.2" ry="10.4"/>
	<path class="st4" d="M208.8,723.5c-1-1.2-2.4-1.9-4-1.9H79.9c-2.8,0-5.1,2.3-5.1,5.2c0,2.9,2.3,5.2,5.1,5.2h118.7l-18.3,94.6H74.7
		L44.4,674.2c-0.5-2.4-2.6-4.2-5-4.2H15.1c-2.8,0-5.1,2.3-5.1,5.2c0,2.9,2.3,5.2,5.1,5.2h20.1l30.3,152.4c0.5,2.4,2.6,4.2,5,4.2h114
		c2.4,0,4.5-1.8,5-4.2l20.3-105C210.2,726.3,209.8,724.7,208.8,723.5z"/>
</g>
<g>
	<linearGradient id="SVGID_5_" gradientUnits="userSpaceOnUse" x1="230.0022" y1="550" x2="430.0022" y2="550">
		<stop  offset="0" style="stop-color:#3199FF"/>
		<stop  offset="1" style="stop-color:#3188FF"/>
	</linearGradient>
	<path class="st7" d="M330,450c-55.1,0-100,44.9-100,100s44.9,100,100,100s100-44.9,100-100S385.1,450,330,450z"/>
	<path class="st3" d="M378.8,501.2c-2.4-2.4-5.8-3.3-9.1-2.4l-66.4,17.8c-3.3,0.9-5.8,3.4-6.7,6.7l-17.8,66.4
		c-0.9,3.3,0,6.7,2.4,9.1c1.8,1.8,4.2,2.8,6.6,2.8c0.8,0,1.7-0.1,2.5-0.3l66.4-17.8c3.3-0.9,5.8-3.4,6.7-6.7l17.8-66.4
		C382.1,507,381.2,503.6,378.8,501.2z"/>
	<linearGradient id="SVGID_6_" gradientUnits="userSpaceOnUse" x1="319.4759" y1="550" x2="340.5286" y2="550">
		<stop  offset="0" style="stop-color:#3199FF"/>
		<stop  offset="1" style="stop-color:#3188FF"/>
	</linearGradient>
	<ellipse class="st8" cx="330" cy="550" rx="10.5" ry="10.6"/>
</g>
<g>
	<g>
		<path class="st4" d="M115.9,455.3c0,2.7,2,4.9,4.7,5.3c44.4,5.3,78.9,43.2,78.9,89.1c0,13-2.8,25.4-7.8,36.6
			c-1.1,2.5-0.2,5.4,2.1,6.8l0,0c2.7,1.6,6.2,0.4,7.5-2.4c5.6-12.5,8.7-26.4,8.7-40.9c0-51.3-38.6-93.8-88.2-99.6
			C118.6,449.7,115.9,452.1,115.9,455.3L115.9,455.3z"/>
		<path class="st4" d="M181.5,610.3c-2.1-1.2-4.8-0.8-6.5,1c-16.3,17.3-39.4,28.2-65,28.2c-26.7,0-50.6-11.8-67-30.4
			c-1.7-1.9-4.4-2.4-6.6-1.1h0c-2.9,1.7-3.5,5.6-1.3,8.1c18.3,20.8,45.1,34,75,34c28.6,0,54.5-12.1,72.7-31.5
			C185,616,184.4,612,181.5,610.3L181.5,610.3z"/>
		<path class="st4" d="M24.9,590.1c2.3-1.3,3.2-4.2,2.2-6.6c-4.3-10.5-6.6-21.9-6.6-33.8c0-42.8,30.1-78.7,70.1-87.6
			c2.4-0.5,4.1-2.7,4.1-5.2v0c0-3.4-3.1-5.9-6.4-5.2c-44.8,9.9-78.4,50.1-78.4,98c0,13.4,2.6,26.2,7.4,37.9
			C18.6,590.5,22.1,591.8,24.9,590.1L24.9,590.1z"/>
	</g>
	<g>
		<path class="st4" d="M62.4,597.8L62.4,597.8c-2.1-2.1-2.9-5.2-2.1-8.1l17.8-65.8c0.8-2.9,3.1-5.2,5.9-5.9l65.6-17.9l0,0
			c2.9-0.8,5.9,0,8.1,2.1c2.1,2.1,2.9,5.2,2.1,8.1L142,576.1c-0.8,2.9-3.1,5.2-5.9,5.9l-65.6,17.9C67.5,600.7,64.5,599.9,62.4,597.8
			z M152,507.8c-0.2-0.2-0.4-0.1-0.4-0.1l0,0L86,525.6c-0.2,0-0.3,0.2-0.3,0.3l-17.8,65.8c0,0.1-0.1,0.3,0.1,0.4l0,0
			c0.2,0.2,0.4,0.1,0.4,0.1l65.6-17.9c0.2,0,0.3-0.2,0.3-0.3l17.8-65.8C152.2,508.2,152.2,508,152,507.8z"/>
	</g>
	<ellipse class="st4" cx="110" cy="550" rx="10.5" ry="10.6"/>
</g>
<g>
	<linearGradient id="SVGID_7_" gradientUnits="userSpaceOnUse" x1="291.1108" y1="859.5897" x2="311.5799" y2="859.5897">
		<stop  offset="0" style="stop-color:#3199FF"/>
		<stop  offset="1" style="stop-color:#3188FF"/>
	</linearGradient>
	<ellipse class="st9" cx="301.3" cy="859.6" rx="10.2" ry="10.4"/>
	<linearGradient id="SVGID_8_" gradientUnits="userSpaceOnUse" x1="380.0521" y1="859.5897" x2="400.5212" y2="859.5897">
		<stop  offset="0" style="stop-color:#3199FF"/>
		<stop  offset="1" style="stop-color:#3188FF"/>
	</linearGradient>
	<ellipse class="st10" cx="390.3" cy="859.6" rx="10.2" ry="10.4"/>
	<linearGradient id="SVGID_9_" gradientUnits="userSpaceOnUse" x1="230.0023" y1="753.4998" x2="430.0022" y2="753.4998">
		<stop  offset="0" style="stop-color:#3199FF"/>
		<stop  offset="1" style="stop-color:#3188FF"/>
	</linearGradient>
	<path class="st11" d="M428.8,723.5c-1-1.2-2.4-1.9-4-1.9H276.5c-1.5,0-2.9-1.1-3.2-2.6l-8.9-44.8c-0.5-2.4-2.6-4.2-5-4.2h-24.3
		c-2.8,0-5.1,2.3-5.1,5.2s2.3,5.2,5.1,5.2h17.5c1.5,0,2.9,1.1,3.2,2.6l29.8,149.8c0.5,2.4,2.6,4.2,5,4.2h114c2.4,0,4.5-1.8,5-4.2
		l20.3-105C430.2,726.3,429.8,724.7,428.8,723.5z"/>
</g>
</svg>
