<?xml version="1.0" encoding="utf-8"?>
<!-- Generator: Adobe Illustrator 21.0.0, SVG Export Plug-In . SVG Version: 6.00 Build 0)  -->
<svg version="1.1" id="图层_1" xmlns="http://www.w3.org/2000/svg" xmlns:xlink="http://www.w3.org/1999/xlink" x="0px" y="0px"
	 viewBox="0 0 720 720" style="enable-background:new 0 0 720 720;" xml:space="preserve">
<style type="text/css">
	.st0{fill:#FF70F0;}
	.st1{fill:#F5FAFF;}
	.st2{fill-rule:evenodd;clip-rule:evenodd;fill:#F5FAFF;}
	.st3{fill:none;stroke:#000000;stroke-width:10;stroke-miterlimit:10;}
	.st4{fill:#3199FF;}
</style>
<path class="st0" d="M543.6,94.7c0,4,0,7.8,0,11.5c0,2.3-1,3.7-3.5,3.7c-2.2,0-3.5-1.1-3.6-3.3c-0.1-3.1-0.1-6.2,0-9.3
	c0.1-2-0.6-2.8-2.7-2.7c-2.7,0.2-5.5,0.1-8.2,0c-3.3-0.1-4.9-1.3-4.8-3.8c0.1-2.4,1.4-3.4,4.7-3.4c2.8,0,5.7-0.1,8.5,0
	c1.8,0.1,2.5-0.6,2.4-2.4c0-0.3,0-0.6,0-0.9c0.1-5.1,0.1-5.1-4.9-6.4c-15.8-4.2-26.2-17.2-26.6-33.1c-0.4-19.3,16-35.2,35.8-34.7
	c17.6,0.4,31.9,13.6,34,30.2c2.1,16.4-8.5,34.1-28.1,38.1c-2.6,0.5-3.1,1.5-3.1,3.8c0.1,6.6-0.3,5.3,5.5,5.4c2.2,0,4.3,0,6.5,0
	c2.2,0,3.5,1.1,3.7,3.3c0.2,2.5-1.4,3.7-3.5,3.8c-2.9,0.3-5.9,0.1-8.8,0.1C546,94.7,545.1,94.7,543.6,94.7z M540,17.3
	c-15.3,0-27.7,12.1-27.7,26.9c0,15.6,12.2,27.7,27.8,27.7c15.1,0,27.6-12.3,27.6-27.1C567.8,29.5,555.5,17.3,540,17.3z"/>
<polygon class="st1" points="277.5,65 322.5,110 327.5,105 282.5,60 327.5,15 322.5,10 272.5,60 "/>
<g>
	<path class="st2" d="M638.3,49.5c3.8,0,6.9,3.1,6.9,6.9c0,3.8-3.1,6.9-6.9,6.9c-3.8,0-6.9-3.1-6.9-6.9
		C631.4,52.6,634.5,49.5,638.3,49.5z"/>
	<path class="st2" d="M681.2,49.5c3.8,0,6.9,3.1,6.9,6.9c0,3.8-3.1,6.9-6.9,6.9c-3.8,0-6.9-3.1-6.9-6.9
		C674.3,52.6,677.4,49.5,681.2,49.5z"/>
	<path class="st2" d="M683.3,16.2L660,40.4l-23.3-24.2C620.9,23.7,610,39.7,610,58.3c0,22.3,15.7,40.9,36.7,45.4V92.5
		C631.9,88.2,621,74.6,621,58.3c0-11.3,5.3-21.4,13.6-27.9L660,56.7v0h0v0l25.5-26.3C693.7,36.9,699,47,699,58.3
		c0,16.2-10.9,29.8-25.7,34.1v11.3c21-4.5,36.7-23.1,36.7-45.4C710,39.7,699.1,23.7,683.3,16.2z"/>
</g>
<path class="st1" d="M103.9,105.7c0-0.7-0.1-1.5-0.2-2.2c-1.5-15.3-8.9-26.8-22.3-34.7c-1.7-1-3.6-1.8-5.4-2.7
	c18.4-12.2,17.6-34.1,6.8-45.8c-12-13-31.8-13.7-44.2-1.4c-6.1,6.1-9.3,13.4-9,22.1c0.4,10.8,5.4,19,14.5,25.1
	c-1,0.5-1.7,0.8-2.5,1.2c-15.3,7.5-23.8,19.7-25.6,36.5c-0.1,0.8-0.1,1.6-0.1,2.4c0,0.1,0,0.2,0,0.3c0,2,1.6,3.6,3.6,3.6
	c2,0,3.6-1.6,3.6-3.6c0,0,0,0,0-0.1c0.1-0.6,0.1-1.2,0.2-1.8c1.3-15.1,9-26,23.2-31.6c14.3-5.5,27.6-2.9,38.9,7.4
	c6.8,6.2,10.5,14.2,11.2,23.4c0.1,0.8,0.1,1.6,0.2,2.3c0,0.1,0,0.2,0,0.3c0,2,1.6,3.6,3.6,3.6c2,0,3.6-1.6,3.6-3.6
	C104,106.2,104,105.9,103.9,105.7z M59.9,63.2c-13.1,0-23.2-10.2-23.2-23.4C36.8,27.3,47.4,17,60.2,17c12.9,0.1,23.3,10.5,23.2,23.5
	C83.3,54.4,70.8,63.9,59.9,63.2z"/>
<g>
	<path class="st1" d="M206.6,44.9h-0.3V36c0-14.3-11.8-26-26.3-26s-26.3,11.7-26.3,26v8.9h-0.3c-7.9,0-14.4,6.4-14.4,14.2v36.6
		c0,7.8,6.5,14.2,14.4,14.2h53.2c7.9,0,14.4-6.4,14.4-14.2V59.1C221,51.3,214.5,44.9,206.6,44.9z M159.4,36
		c0-11.2,9.2-20.3,20.6-20.3c11.3,0,20.6,9.1,20.6,20.3v8.9h-41.1V36z M215.2,95.8c0,4.7-3.9,8.5-8.6,8.5h-53.2
		c-4.8,0-8.6-3.8-8.6-8.5V59.1c0-4.7,3.9-8.5,8.6-8.5h53.2c4.8,0,8.6,3.8,8.6,8.5V95.8z"/>
	<path class="st1" d="M180,65.4c-3.2,0-5.8,2.5-5.8,5.7c0,2.1,1.2,3.9,2.9,4.9v9.3c0,1.6,1.3,2.8,2.9,2.8s2.9-1.3,2.9-2.8V76
		c1.7-1,2.9-2.8,2.9-4.9C185.8,67.9,183.2,65.4,180,65.4z"/>
</g>
<path class="st4" d="M467.7,12.2C467.7,12.2,467.7,12.2,467.7,12.2c-0.1-0.2-0.2-0.3-0.3-0.5c0,0,0-0.1-0.1-0.1
	c-0.3-0.4-0.6-0.7-1-1c0,0-0.1,0-0.1-0.1c-0.2-0.1-0.3-0.2-0.5-0.3c0,0,0,0,0,0c-0.4-0.2-0.8-0.3-1.3-0.3h-21
	c-1.9,0-3.5,1.6-3.5,3.5s1.6,3.5,3.5,3.5h12.5l-18.6,18.8c-6.8-5.2-15.3-8.3-24.5-8.3c-22.5,0-40.9,18.5-40.9,41.2
	s18.3,41.2,40.9,41.2s40.9-18.5,40.9-41.2c0-10.9-4.2-20.9-11.1-28.2L461,22v12.6c0,1.9,1.6,3.5,3.5,3.5s3.5-1.6,3.5-3.5V13.5
	C468,13.1,467.9,12.6,467.7,12.2z M412.9,103c-18.7,0-33.9-15.3-33.9-34.2s15.2-34.2,33.9-34.2s33.9,15.3,33.9,34.2
	S431.6,103,412.9,103z"/>
<path class="st1" d="M183.6,214.7c0,4,0,7.8,0,11.5c0,2.3-1,3.7-3.5,3.7c-2.2,0-3.5-1.1-3.6-3.3c-0.1-3.1-0.1-6.2,0-9.3
	c0.1-2-0.6-2.8-2.7-2.7c-2.7,0.2-5.5,0.1-8.2,0c-3.3-0.1-4.9-1.3-4.8-3.8c0.1-2.4,1.4-3.4,4.7-3.4c2.8,0,5.7-0.1,8.5,0
	c1.8,0.1,2.5-0.6,2.4-2.4c0-0.3,0-0.6,0-0.9c0.1-5.1,0.1-5.1-4.9-6.4c-15.8-4.2-26.2-17.2-26.6-33.1c-0.4-19.3,16-35.2,35.8-34.7
	c17.6,0.4,31.9,13.6,34,30.2c2.1,16.4-8.5,34.1-28.1,38.1c-2.6,0.5-3.1,1.5-3.1,3.8c0.1,6.6-0.3,5.3,5.5,5.4c2.2,0,4.3,0,6.5,0
	c2.2,0,3.5,1.1,3.7,3.3c0.2,2.5-1.4,3.7-3.5,3.8c-2.9,0.3-5.9,0.1-8.8,0.1C186,214.7,185.1,214.7,183.6,214.7z M180,137.3
	c-15.3,0-27.7,12.1-27.7,26.9c0,15.6,12.2,27.7,27.8,27.7c15.1,0,27.6-12.3,27.6-27.1C207.8,149.5,195.5,137.3,180,137.3z"/>
<path class="st1" d="M107.7,132.2C107.7,132.2,107.7,132.2,107.7,132.2c-0.1-0.2-0.2-0.3-0.3-0.5c0,0,0-0.1-0.1-0.1
	c-0.3-0.4-0.6-0.7-1-1c0,0-0.1,0-0.1-0.1c-0.2-0.1-0.3-0.2-0.5-0.3c0,0,0,0,0,0c-0.4-0.2-0.8-0.3-1.3-0.3h-21
	c-1.9,0-3.5,1.6-3.5,3.5s1.6,3.5,3.5,3.5h12.5l-18.6,18.8c-6.8-5.2-15.3-8.3-24.5-8.3c-22.5,0-40.9,18.5-40.9,41.2
	S30.3,230,52.9,230s40.9-18.5,40.9-41.2c0-10.9-4.2-20.9-11.1-28.2L101,142v12.6c0,1.9,1.6,3.5,3.5,3.5c1.9,0,3.5-1.6,3.5-3.5v-21.1
	C108,133.1,107.9,132.6,107.7,132.2z M52.9,223C34.2,223,19,207.6,19,188.8s15.2-34.2,33.9-34.2s33.9,15.3,33.9,34.2
	S71.6,223,52.9,223z"/>
</svg>
