<?xml version="1.0" encoding="utf-8"?>
<!-- Generator: Adobe Illustrator 21.0.0, SVG Export Plug-In . SVG Version: 6.00 Build 0)  -->
<svg version="1.1" id="图层_2" xmlns="http://www.w3.org/2000/svg" xmlns:xlink="http://www.w3.org/1999/xlink" x="0px" y="0px"
	 viewBox="0 0 4000 2000" style="enable-background:new 0 0 4000 2000;" xml:space="preserve">
<style type="text/css">
	.st0{fill:#3199FF;}
	.st1{fill:#7F7F7F;}
	.st2{fill:#FFFFFF;}
	.st3{fill:#CCCCCC;}
	.st4{fill:#FF7D7D;}
	.st5{fill:#009BF5;}
	.st6{fill:#3184B4;}
	.st7{fill:#F1F1F1;}
	.st8{fill:#D45E5E;}
	.st9{fill:#F45656;}
	.st10{fill:#F9EA61;}
	.st11{fill:#FFAC09;}
	.st12{fill:#FFBE31;}
	.st13{fill:#FFD131;}
	.st14{fill:#DEDEDE;}
	.st15{fill:#BBBBBB;}
	.st16{fill:#CFCFCF;}
	.st17{fill:#FAC77D;}
	.st18{fill:#E1963F;}
	.st19{fill:#F2AB57;}
	.st20{fill:#F8C171;}
	.st21{fill:none;stroke:#000000;stroke-width:12;stroke-miterlimit:10;}
	.st22{fill:#F4F4F4;stroke:#CCCCCC;stroke-width:12;stroke-miterlimit:10;}
	.st23{fill:none;stroke:#000000;stroke-width:4;stroke-miterlimit:10;}
	.st24{fill:none;stroke:#FFFFFF;stroke-width:4;stroke-miterlimit:10;}
	.st25{fill:url(#SVGID_1_);}
	.st26{fill:url(#SVGID_2_);}
	.st27{fill:url(#SVGID_3_);}
	.st28{fill:url(#SVGID_4_);}
	.st29{fill:url(#SVGID_5_);}
	.st30{fill:url(#SVGID_6_);}
	.st31{fill:none;stroke:#FFFFFF;stroke-width:10;stroke-miterlimit:10;}
	.st32{fill:none;stroke:#FFFFFF;stroke-width:10;stroke-linecap:round;stroke-miterlimit:10;}
	.st33{opacity:0.51;fill:#FFB164;}
	.st34{opacity:0.57;fill:#FF0000;}
	.st35{fill:none;stroke:#000000;stroke-width:8;stroke-miterlimit:10;}
	.st36{fill:#FFFCF3;}
	.st37{fill:#FAFCFF;}
	.st38{fill:none;stroke:#000000;stroke-width:10;stroke-miterlimit:10;}
	.st39{fill:#FF1800;}
	.st40{fill:#FFCA08;}
	.st41{fill:#FF5A00;}
	.st42{fill:url(#SVGID_7_);}
	.st43{fill:url(#SVGID_8_);}
	.st44{fill:url(#SVGID_9_);}
	.st45{fill:url(#SVGID_10_);}
	.st46{fill:url(#SVGID_11_);}
	.st47{fill:url(#SVGID_12_);}
	.st48{fill:#FF1414;}
	.st49{fill:url(#SVGID_13_);}
	.st50{fill:url(#SVGID_14_);}
	.st51{fill:url(#SVGID_15_);}
	.st52{fill:#005CFF;}
	.st53{fill:url(#SVGID_16_);}
	.st54{fill:url(#SVGID_17_);}
	.st55{fill:url(#SVGID_18_);}
	.st56{fill:url(#SVGID_19_);}
	.st57{fill:url(#SVGID_20_);}
	.st58{fill:url(#SVGID_21_);}
	.st59{fill:#FFFAF8;}
	.st60{fill:url(#SVGID_22_);}
	.st61{fill:url(#SVGID_23_);}
	.st62{fill:url(#SVGID_24_);}
	.st63{fill:url(#SVGID_25_);}
	.st64{fill:url(#SVGID_26_);}
	.st65{fill:url(#SVGID_27_);}
	.st66{fill:url(#SVGID_28_);}
	.st67{fill:url(#SVGID_29_);}
	.st68{fill:url(#SVGID_30_);}
	.st69{fill:url(#SVGID_31_);}
	.st70{fill:url(#SVGID_32_);}
	.st71{fill:url(#SVGID_33_);}
	.st72{fill:url(#SVGID_34_);}
	.st73{fill:url(#SVGID_35_);}
	.st74{fill:url(#SVGID_36_);}
	.st75{fill:url(#SVGID_37_);}
	.st76{fill:url(#SVGID_38_);}
	.st77{fill:url(#SVGID_39_);}
	.st78{fill:url(#SVGID_40_);}
	.st79{fill:url(#SVGID_41_);}
	.st80{fill:url(#SVGID_42_);}
	.st81{fill:url(#SVGID_43_);}
	.st82{fill:url(#SVGID_44_);}
	.st83{fill:url(#SVGID_45_);}
	.st84{fill:url(#SVGID_46_);}
	.st85{fill:url(#SVGID_47_);}
	.st86{fill:url(#SVGID_48_);}
	.st87{fill:url(#SVGID_49_);}
	.st88{fill:url(#SVGID_50_);}
	.st89{fill:url(#SVGID_51_);}
	.st90{fill:url(#SVGID_52_);}
	.st91{fill:url(#SVGID_53_);}
	.st92{fill:url(#SVGID_54_);}
	.st93{fill:url(#SVGID_55_);}
	.st94{fill:url(#SVGID_56_);}
	.st95{fill:none;stroke:#000000;stroke-width:16;stroke-miterlimit:10;}
	.st96{fill:url(#SVGID_57_);}
	.st97{fill:url(#SVGID_58_);}
	.st98{fill:url(#SVGID_59_);}
	.st99{fill:none;}
	.st100{fill:url(#SVGID_60_);}
	.st101{fill:url(#SVGID_61_);}
	.st102{fill:url(#SVGID_62_);}
	.st103{fill:url(#SVGID_63_);}
	.st104{fill:url(#SVGID_64_);}
	.st105{fill:url(#SVGID_65_);}
	.st106{fill:url(#SVGID_66_);}
	.st107{fill:url(#SVGID_67_);}
	.st108{fill:url(#SVGID_68_);}
	.st109{fill:#FAFEFF;}
	.st110{fill:#F8FBFF;}
	.st111{fill:url(#SVGID_69_);}
	.st112{fill:url(#SVGID_70_);}
	.st113{fill:url(#SVGID_71_);}
	.st114{fill:url(#SVGID_72_);}
	.st115{fill:url(#SVGID_73_);}
	.st116{fill:url(#SVGID_74_);}
	.st117{fill:url(#SVGID_75_);}
	.st118{fill:url(#SVGID_76_);}
	.st119{fill:url(#SVGID_77_);}
	.st120{fill:url(#SVGID_78_);}
	.st121{fill:url(#SVGID_79_);}
	.st122{fill:url(#SVGID_80_);}
	.st123{fill:url(#SVGID_81_);}
	.st124{fill:url(#SVGID_82_);}
	.st125{fill:url(#SVGID_83_);}
	.st126{fill:url(#SVGID_84_);}
	.st127{fill:url(#SVGID_85_);}
	.st128{fill:url(#SVGID_86_);}
	.st129{fill:url(#SVGID_87_);}
	.st130{fill:url(#SVGID_88_);}
	.st131{fill:url(#SVGID_89_);}
	.st132{fill:url(#SVGID_90_);}
	.st133{fill:url(#SVGID_91_);}
	.st134{fill:url(#SVGID_92_);}
	.st135{fill:url(#SVGID_93_);}
	.st136{fill:url(#SVGID_94_);}
	.st137{fill:url(#SVGID_95_);}
	.st138{fill:url(#SVGID_96_);}
	.st139{fill:url(#SVGID_97_);}
	.st140{fill:url(#SVGID_98_);}
	.st141{fill:url(#SVGID_99_);}
	.st142{fill:url(#SVGID_100_);}
	.st143{fill:url(#SVGID_101_);}
	.st144{fill:url(#SVGID_102_);}
	.st145{fill:url(#SVGID_103_);}
	.st146{fill:url(#SVGID_104_);}
	.st147{fill:url(#SVGID_105_);}
	.st148{fill:url(#SVGID_106_);}
	.st149{fill:url(#SVGID_107_);}
	.st150{fill:url(#SVGID_108_);}
	.st151{fill:url(#SVGID_109_);}
	.st152{fill:url(#SVGID_110_);}
	.st153{fill:url(#SVGID_111_);}
	.st154{fill:url(#SVGID_112_);}
	.st155{fill:url(#SVGID_113_);}
	.st156{fill:url(#SVGID_114_);}
	.st157{fill:url(#SVGID_115_);}
	.st158{fill:url(#SVGID_116_);}
	.st159{fill:url(#SVGID_117_);}
	.st160{fill:url(#SVGID_118_);}
	.st161{fill:url(#SVGID_119_);}
	.st162{fill:url(#SVGID_120_);}
	.st163{fill:url(#SVGID_121_);}
	.st164{fill:url(#SVGID_122_);}
	.st165{fill:url(#SVGID_123_);}
	.st166{fill:url(#SVGID_124_);}
	.st167{fill:url(#SVGID_125_);}
	.st168{fill:url(#SVGID_126_);}
	.st169{fill:url(#SVGID_127_);}
	.st170{fill:url(#SVGID_128_);}
	.st171{fill:url(#SVGID_129_);}
	.st172{fill:url(#SVGID_130_);}
	.st173{fill:url(#SVGID_131_);}
	.st174{fill:url(#SVGID_132_);}
	.st175{fill:url(#SVGID_133_);}
	.st176{fill:url(#SVGID_134_);}
	.st177{fill:url(#SVGID_135_);}
	.st178{fill:url(#SVGID_136_);}
	.st179{fill:url(#SVGID_137_);}
	.st180{fill:url(#SVGID_138_);}
	.st181{fill:url(#SVGID_139_);}
	.st182{fill:url(#SVGID_140_);}
	.st183{fill:#F2F2F2;}
	.st184{fill:url(#SVGID_141_);}
	.st185{fill:url(#SVGID_142_);}
	.st186{fill:url(#SVGID_143_);}
	.st187{fill:url(#SVGID_144_);}
	.st188{fill:url(#SVGID_145_);}
	.st189{fill:url(#SVGID_146_);}
	.st190{fill:url(#SVGID_147_);}
	.st191{fill:url(#SVGID_148_);}
	.st192{fill:url(#SVGID_149_);}
	.st193{fill:url(#SVGID_150_);}
	.st194{fill:url(#SVGID_151_);}
	.st195{fill:url(#SVGID_152_);}
	.st196{fill:url(#SVGID_153_);}
	.st197{fill:url(#SVGID_154_);}
	.st198{fill:url(#SVGID_155_);}
	.st199{fill:url(#SVGID_156_);}
	.st200{fill:url(#SVGID_157_);}
	.st201{fill:none;stroke:#000000;stroke-width:10;stroke-linecap:round;stroke-miterlimit:10;}
	.st202{clip-path:url(#SVGID_159_);fill:#3199FF;}
	.st203{clip-path:url(#SVGID_159_);fill:#3198FF;}
	.st204{clip-path:url(#SVGID_159_);fill:#3197FF;}
	.st205{clip-path:url(#SVGID_159_);fill:#3196FF;}
	.st206{clip-path:url(#SVGID_159_);fill:#3195FF;}
	.st207{clip-path:url(#SVGID_159_);fill:#3194FF;}
	.st208{clip-path:url(#SVGID_159_);fill:#3193FF;}
	.st209{clip-path:url(#SVGID_159_);fill:#3192FF;}
	.st210{clip-path:url(#SVGID_159_);fill:#3191FF;}
	.st211{clip-path:url(#SVGID_159_);fill:#318FFF;}
	.st212{clip-path:url(#SVGID_159_);fill:#318EFF;}
	.st213{clip-path:url(#SVGID_159_);fill:#318DFF;}
	.st214{clip-path:url(#SVGID_159_);fill:#318CFF;}
	.st215{clip-path:url(#SVGID_159_);fill:#318BFF;}
	.st216{clip-path:url(#SVGID_159_);fill:#318AFF;}
	.st217{clip-path:url(#SVGID_159_);fill:#3189FF;}
	.st218{clip-path:url(#SVGID_159_);fill:#3188FF;}
	.st219{clip-path:url(#SVGID_161_);fill:#3199FF;}
	.st220{clip-path:url(#SVGID_161_);fill:#3198FF;}
	.st221{clip-path:url(#SVGID_161_);fill:#3197FF;}
	.st222{clip-path:url(#SVGID_161_);fill:#3196FF;}
	.st223{clip-path:url(#SVGID_161_);fill:#3195FF;}
	.st224{clip-path:url(#SVGID_161_);fill:#3194FF;}
	.st225{clip-path:url(#SVGID_161_);fill:#3193FF;}
	.st226{clip-path:url(#SVGID_161_);fill:#3192FF;}
	.st227{clip-path:url(#SVGID_161_);fill:#3191FF;}
	.st228{clip-path:url(#SVGID_161_);fill:#318FFF;}
	.st229{clip-path:url(#SVGID_161_);fill:#318EFF;}
	.st230{clip-path:url(#SVGID_161_);fill:#318DFF;}
	.st231{clip-path:url(#SVGID_161_);fill:#318CFF;}
	.st232{clip-path:url(#SVGID_161_);fill:#318BFF;}
	.st233{clip-path:url(#SVGID_161_);fill:#318AFF;}
	.st234{clip-path:url(#SVGID_161_);fill:#3189FF;}
	.st235{clip-path:url(#SVGID_161_);fill:#3188FF;}
	.st236{fill:none;stroke:#000000;stroke-width:12;stroke-linecap:round;stroke-miterlimit:10;}
	.st237{fill:#FAFDFF;}
	.st238{fill:#B2B2B2;}
	.st239{opacity:0.49;}
	.st240{fill:url(#SVGID_162_);}
	.st241{fill:url(#SVGID_163_);}
	.st242{fill:url(#SVGID_164_);}
	.st243{fill:none;stroke:#000000;stroke-width:8;stroke-linecap:round;stroke-miterlimit:10;}
	.st244{fill:#FCFCFC;}
	.st245{fill:none;stroke:#000000;stroke-width:16;stroke-linecap:round;stroke-miterlimit:10;}
	.st246{fill:#0B0A0A;}
	.st247{fill:url(#SVGID_165_);}
	.st248{fill:url(#SVGID_166_);}
	.st249{fill:url(#SVGID_167_);}
	.st250{fill:url(#SVGID_168_);}
	.st251{fill:url(#SVGID_169_);}
	.st252{fill:url(#SVGID_170_);}
	.st253{fill:url(#SVGID_171_);}
	.st254{fill:url(#SVGID_172_);}
	.st255{fill:url(#SVGID_173_);}
	.st256{fill:#808080;}
	.st257{fill:none;stroke:#000000;stroke-width:8;stroke-linecap:round;stroke-linejoin:round;stroke-miterlimit:10;}
	.st258{fill:none;stroke:#000000;stroke-width:10;stroke-linecap:round;stroke-linejoin:round;stroke-miterlimit:10;}
	.st259{fill:none;stroke:#000000;stroke-width:10;stroke-linejoin:round;stroke-miterlimit:10;}
	.st260{fill:none;stroke:#7F7F7F;stroke-width:10;stroke-miterlimit:10;}
	.st261{fill:none;stroke:#7F7F7F;stroke-width:10;stroke-linejoin:round;stroke-miterlimit:10;}
	.st262{fill:url(#SVGID_174_);}
	.st263{fill:url(#SVGID_175_);}
	.st264{fill:url(#SVGID_176_);}
	.st265{fill:url(#SVGID_177_);}
	.st266{fill:url(#SVGID_178_);}
	.st267{fill:url(#SVGID_179_);}
	.st268{fill:url(#SVGID_180_);}
	.st269{fill:url(#SVGID_181_);}
	.st270{fill:url(#SVGID_182_);}
	.st271{fill:url(#SVGID_183_);}
	.st272{fill:url(#SVGID_184_);}
	.st273{fill:url(#SVGID_185_);}
	.st274{fill:url(#SVGID_186_);}
	.st275{fill:url(#SVGID_187_);}
	.st276{fill:url(#SVGID_188_);}
	.st277{fill:url(#SVGID_189_);}
	.st278{fill:url(#SVGID_190_);}
	.st279{fill:url(#SVGID_191_);}
	.st280{fill:url(#SVGID_192_);}
	.st281{fill:url(#SVGID_193_);}
	.st282{fill:url(#SVGID_194_);}
	.st283{fill:url(#SVGID_195_);}
	.st284{fill:url(#SVGID_196_);}
	.st285{fill:url(#SVGID_197_);}
	.st286{fill:url(#SVGID_198_);}
	.st287{fill:url(#SVGID_199_);}
	.st288{fill:url(#SVGID_200_);}
	.st289{fill:url(#SVGID_201_);}
	.st290{fill:url(#SVGID_202_);}
	.st291{fill:url(#SVGID_203_);}
	.st292{fill:url(#SVGID_204_);}
	.st293{fill:url(#SVGID_205_);}
	.st294{fill:url(#SVGID_206_);}
	.st295{fill:url(#SVGID_207_);}
	.st296{fill:url(#SVGID_208_);}
	.st297{fill:url(#SVGID_209_);}
	.st298{fill:url(#SVGID_210_);}
	.st299{fill:url(#SVGID_211_);}
	.st300{fill:url(#SVGID_212_);}
	.st301{fill:url(#SVGID_213_);}
	.st302{fill:#318CFF;}
	.st303{fill:#E00000;}
	.st304{fill:#00C412;}
	.st305{fill:none;stroke:#FFFFFF;stroke-width:8;stroke-linecap:round;stroke-miterlimit:10;}
	.st306{fill:none;stroke:#FFFFFF;stroke-width:8;stroke-linecap:round;stroke-linejoin:round;stroke-miterlimit:10;}
	.st307{fill:#A9D6FF;}
	.st308{fill-rule:evenodd;clip-rule:evenodd;fill:url(#SVGID_214_);}
	.st309{fill-rule:evenodd;clip-rule:evenodd;fill:#FFFFFF;}
	.st310{fill-rule:evenodd;clip-rule:evenodd;fill:#CCEAFF;}
	.st311{fill:#CCEAFF;}
	.st312{fill:#42A001;}
	.st313{fill:#50B0FF;}
	.st314{fill:none;stroke:#50B0FF;stroke-width:8;stroke-miterlimit:10;}
	.st315{fill:none;stroke:#FFFFFF;stroke-width:12;stroke-miterlimit:10;}
	.st316{fill:#E5E5E5;}
</style>
<g id="图层_1">
	<path class="st1" d="M357.3,39.7c-26.2-26.3-68.9-26.3-95.1,0c-26.2,26.3-26.2,69.1,0,95.4L223,174.4l5.6,5.6l53.6-53.8
		c8.1,5.8,17.9,8.9,28.1,8.8l-0.1-7.9c-10.8,0.1-20.9-4-28.5-11.6c-15.4-15.5-15.4-40.6,0-56.1s40.5-15.5,56,0
		c10,10.1,10,26.4,0,36.5c-10,10.1-26.4,10.1-36.4,0c-4.6-4.6-4.6-12.2,0-16.8c4.6-4.6,12.2-4.6,16.8,0l5.6-5.6
		c-7.7-7.7-20.3-7.7-28,0s-7.7,20.3,0,28.1c13.1,13.1,34.5,13.1,47.6,0c13.1-13.1,13.1-34.5,0-47.7c-18.5-18.6-48.6-18.6-67.2,0
		c-18.5,18.6-18.5,48.8,0,67.3l-8.4,8.4c-23.1-23.2-23.1-61,0-84.2s60.8-23.2,84,0s23.1,61,0,84.2c-16.1,16.1-39.1,21-59.5,14.8
		l-6.2,6.2c24,9,52.1,3.9,71.3-15.4C383.6,108.8,383.6,66,357.3,39.7z"/>
	<g>
		<path class="st1" d="M174.8,56.3H56.6c-2.9,0-5.2-2.4-5.2-5.2v0c0-2.9,2.4-5.2,5.2-5.2h118.2c2.9,0,5.2,2.4,5.2,5.2v0
			C180,53.9,177.6,56.3,174.8,56.3z"/>
		<ellipse class="st1" cx="27" cy="51" rx="7" ry="7"/>
		<path class="st1" d="M174.8,105.3H56.6c-2.9,0-5.2-2.4-5.2-5.2v0c0-2.9,2.4-5.2,5.2-5.2h118.2c2.9,0,5.2,2.4,5.2,5.2v0
			C180,102.9,177.6,105.3,174.8,105.3z"/>
		<ellipse class="st1" cx="27" cy="100" rx="7" ry="7"/>
		<path class="st1" d="M174.8,154.3H56.6c-2.9,0-5.2-2.4-5.2-5.3l0,0c0-2.9,2.4-5.3,5.2-5.3h118.2c2.9,0,5.2,2.4,5.2,5.3l0,0
			C180,151.9,177.6,154.3,174.8,154.3z"/>
		<ellipse class="st1" cx="27" cy="149" rx="7" ry="7"/>
	</g>
	<g>
		<path class="st1" d="M565,76.9c-5.6-9.3-14.3-15.8-23.9-17.9c-11.2-2.5-20.6,2.3-28.2,6.1c-2.6,1.3-5.1,2.6-7.4,3.4
			c0-7.5,1.7-23.4,9-32c3.2-3.7,7.2-5.8,12.2-6.1c2.2-0.2,3.8-2.1,3.7-4.3c-0.2-2.2-2.1-3.8-4.3-3.7c-7.1,0.6-13.9,4.4-18.4,9.7
			c-8.9,10.5-10.1,27.4-10.1,36.1c-0.6-0.3-1.3-0.7-2.1-1.2c-4.6-2.7-11.6-6.9-29.9-8.7c-12.1-1.2-21.5,2.2-28,10
			c-12.1,14.5-10.8,40.6-6,58.6c10.5,39.1,41.9,53,67.8,53c15.8,0,30.4-4.4,42.1-12.6c13.5-9.5,22.8-23.8,27.7-42.3
			C575.4,101.3,570.3,85.7,565,76.9z M561.4,123c-11.7,44.2-47.3,49-62.1,49c-11.1,0-48.4-3.4-60.1-47.1c-4.7-17.4-5.2-40,4.4-51.4
			c4.2-5,9.9-7.4,17.4-7.4c1.2,0,2.5,0.1,3.8,0.2c16.5,1.6,22.4,5.1,26.6,7.6c3,1.8,5.7,3.4,10.3,3.4c4.9,0,9.7-2.4,14.8-5
			c7.1-3.6,14.4-7.3,22.9-5.5c7.5,1.6,14.3,6.8,18.8,14.2C562.7,88.6,567,102,561.4,123z"/>
		<path class="st1" d="M465,49.1c5.4,3.7,11.1,6.5,16,7.7c3.3,0.8,5.8,0.9,7.8,0.5c2.8-0.5,4.4-1.9,5.4-3.3
			c4.8-7.1-4.4-18.3-15.1-25.6c-10.7-7.3-24.4-12-29.2-4.9C445.1,30.6,454.4,41.8,465,49.1z M474.6,35c9.3,6.4,12.8,12.6,13,14.4
			c-1.8,0.6-8.8-0.6-18.1-6.9c-9.3-6.4-12.8-12.6-13-14.4C458.3,27.5,465.4,28.7,474.6,35z"/>
		<path class="st1" d="M491.6,145.6c-0.3,0-26.2-3.2-31.5-35.6c-0.4-2.2-2.4-3.7-4.6-3.3c-2.2,0.4-3.6,2.4-3.3,4.6
			c3.2,19.9,13.4,30.3,21.4,35.5c8.7,5.7,16.7,6.7,17,6.7c0.1,0,0.3,0,0.4,0c2,0,3.7-1.5,3.9-3.6
			C495.3,147.9,493.7,145.9,491.6,145.6z"/>
	</g>
	<g>
		<path class="st1" d="M687.6,169c-1.2,0-2.2-0.1-3.2-0.2c-0.3,0-0.6,0-0.9-0.1c-0.7,0-2.4-0.1-4.7-0.3c-12.5-0.7-41.8-2.4-49.3-3.8
			c-6.6-1.2-10.2-6.3-9.4-13.4c0.1-1.1,0.2-2.3,0.3-3.4c0.8-13.5,10.2-23.5,26.5-27.9c4.3-1.2,9-1.7,14.4-1.5
			c10.7,0.4,17.6-6.4,20-9.3c1.1-1.3,2.3-2.6,3.8-4.3l66.5-71.2c2.7-2.9,7-3.6,10.4-1.7c21.7,12.1,21,41.3,12.2,57.6
			c-7.3,13.6-8.1,34.2-8.2,35.3v34.3c0,3.8-3.1,7-7,7h-8.6c-3.8,0-6.9-3.1-7-6.9c-0.1-10.4-0.6-45.3-0.6-56.1c0-2-0.1-3.3-0.2-4.1
			c-1.6,1-4,3.1-6,4.8c-9,7.7-18.4,26.6-25.4,40.5c-2.6,5.3-4.9,9.8-6.8,13.1C698.9,167.5,692.4,169,687.6,169z M658.9,126
			c-3.8,0-7.1,0.4-10.1,1.2c-9.2,2.5-20.3,8.3-21,21.2c-0.1,1.2-0.2,2.5-0.3,3.7c-0.5,4.6,2.1,5.1,3.4,5.3c7,1.3,37.1,3,48.4,3.7
			c2.3,0.1,4,0.2,4.8,0.3c0.3,0,0.6,0,1,0.1c4.3,0.3,8.4,0.7,13.1-7.5c1.8-3.1,4-7.6,6.6-12.7c7.6-15.2,17-34.2,27.2-42.8
			c6.1-5.2,10.1-8.6,14.2-6.7c3.7,1.7,4.2,6.6,4.2,11.6c0,10.5,0.4,44.6,0.6,55.5h7.7l0-34c0-0.9,0.7-23.3,9.1-38.7
			c7.2-13.3,8.1-38-9.3-47.6c-0.4-0.2-1-0.1-1.4,0.3l-66.5,71.2c-1.4,1.5-2.5,2.8-3.5,3.9c-3.2,3.8-12,12.5-26,12
			C660.3,126,659.6,126,658.9,126z"/>
	</g>
	<path class="st1" d="M972.2,147.7c-5.9-19.2-15.8-33.9-30.3-45c-2.3-1.8-4.7-3.3-7-4.8c-10.8-6.9-17.3-11.1-7.6-32
		c6.3-13.6,9.9-24,10.7-31c0.6-4.8-2.6-9.3-7.4-10.5L911.9,20l-1.6,2.8c-3.1,5.3-7.7,11.7-12.7,11.5c-5.6-0.2-10.9-8.4-12.3-11.2
		l-1.5-3.1l-18.1,4.2l-0.2,0.1c-4.9,1.4-8,6.2-7.1,11.2c2.7,15.2,3.3,17.1,6.8,28c8.6,26.9,1.6,33.7,1.5,33.7c-1,0.9-2.3,2-3.9,3.3
		c-8.7,7.2-25,20.6-32.7,40.1c-4.8,12.1-5.3,20.5-1.5,25.6c1.8,2.5,5.5,5.3,12.8,4.7c1.3-0.1,2.5-0.3,3.8-0.4
		c6.3-0.8,14.2-1.8,30.2,5.2c6.5,2.9,13.6,4.3,21,4.3c1.7,0,3.4-0.1,5.2-0.2c7.9-0.7,15.6-3.9,22.4-9.3c3.9-3.1,10.8-5.9,21.6-1.9
		c11.9,4.4,20,4.4,24.7-0.1C974.5,164.4,975.2,157.5,972.2,147.7z M866.9,34c-0.1-0.6,0.3-1.2,0.9-1.4l11.4-2.7
		c2.9,4.7,9.2,12.8,18,13c6.8,0.2,13.1-4.2,18.8-13.1l12.4,3c0.5,0.1,0.8,0.6,0.8,1c-0.5,4.2-2.6,12.5-10,28.4
		c-3.3,7-4.9,12.8-5.3,17.6c-6.4,3.1-22.8,9-36.5-1.6c-0.7-4.9-2-10.7-4.2-17.5C870,50.2,869.5,48.6,866.9,34z M964.3,162.2
		c-0.7,0.7-4,2.6-15.8-1.7c-15.4-5.7-25.4-0.4-30,3.3c-5.4,4.3-11.5,6.9-17.7,7.4c-7.9,0.7-15.2-0.5-21.9-3.4
		c-12-5.3-20.2-6.6-26.5-6.6c-3.2,0-5.9,0.3-8.3,0.7c-1.2,0.2-2.3,0.3-3.4,0.4c-1.8,0.1-4.2,0-5.2-1.2c-0.6-0.9-2.4-4.7,2.6-17.3
		c6.9-17.4,22-29.9,30.2-36.6c1.7-1.4,3.1-2.6,4.2-3.6c2-1.8,5.1-5.9,5.6-14.7c5.9,3.1,11.9,4.2,17.5,4.2c7.7,0,14.5-2.1,19.3-4
		c2.4,7.9,9.1,12.2,15.3,16.2c2.1,1.4,4.4,2.8,6.4,4.3c13.1,10,22,23.3,27.3,40.7C965.7,156.2,965.9,160.7,964.3,162.2z"/>
	<path class="st1" d="M1172.6,93.1c-2.8-16.8-3.1-27.8,1.7-42.2c0.4-1.2,0-2.5-1-3.3c-1-0.8-2.3-0.9-3.4-0.3
		c-3,1.6-31.6,9.7-44.1,1.6c-14.7-9.5-36-9.2-51.7,0.7c-13.5,8.5-42.9-1-43.2-1.1c-1.3-0.4-2.8,0.1-3.5,1.2
		c-0.8,1.2-0.6,2.7,0.3,3.7c6.4,7,2.7,28.8,0,39.5c-4.4,1-7.7,4.9-7.7,9.6V133c0,5.4,4.4,9.9,9.9,9.9h2.3v9.9c0,2.9,2.4,5.3,5.3,5.3
		h12.2c2.9,0,5.3-2.4,5.3-5.3v-9.9h89.9v9.9c0,2.9,2.4,5.3,5.3,5.3h12.2c2.9,0,5.3-2.4,5.3-5.3v-9.9h2.3c5.5,0,9.9-4.4,9.9-9.9
		v-30.3C1180,98.1,1176.9,94.2,1172.6,93.1z M1085.5,92.8h-39.6v-8.3h39.6V92.8z M1154.1,92.8h-39.6v-8.3h39.6V92.8z M1077.4,54.8
		c13.8-8.7,32.4-9,45.2-0.8c12,7.8,33.6,3.8,44.3,0.7c-3.2,12.5-2.8,23.2-0.4,38h-6.2v-8.5c0-3.2-2.7-5.9-5.9-5.9h-40
		c-3.3,0-5.9,2.6-5.9,5.9v8.5h-16.8v-8.5c0-3.2-2.7-5.9-5.9-5.9h-40c-3.3,0-5.9,2.6-5.9,5.9v8.5h-5.8c2-8.3,5.2-25.3,1.8-36.5
		C1046.2,58.8,1065.8,62.1,1077.4,54.8z M1047.4,150.4h-7.6v-7.6h7.6V150.4z M1160.2,150.4h-7.6v-7.6h7.6V150.4z M1172.4,133
		c0,1.2-1,2.3-2.3,2.3h-7.6h-12.2h-100.6h-12.2h-7.6c-1.2,0-2.3-1-2.3-2.3v-30.3c0-1.2,1-2.3,2.3-2.3h140.2c1.2,0,2.3,1,2.3,2.3V133
		z"/>
	<path class="st1" d="M1379.9,109.5c-0.9-12.7-6.5-25.2-15.7-35.3V44h-7.9v30.7l-56.2,56.2l-56.7-56.6V44h-7.9v30.7
		c-9,10-14.4,22.3-15.3,34.8c-0.9,13.4,3.3,25.5,12.1,34.3c7.9,7.9,18.7,12.2,30.7,12.2c1.2,0,2.4,0,3.6-0.1
		c12-0.8,23.7-5.8,33.5-14.1c9.8,8.3,21.5,13.2,33.5,14.1c1.2,0.1,2.4,0.1,3.6,0.1c11.9,0,22.7-4.3,30.7-12.2
		C1376.5,135.1,1380.8,122.9,1379.9,109.5z M1237.8,138.2c-14.1-14.1-13.1-38.1,1.8-56.2h0.2l54.4,54.3
		C1276.1,151.3,1251.9,152.3,1237.8,138.2z M1362.2,138.2c-14.1,14.1-38.3,13.1-56.4-1.9l54.4-54.3h0.2
		C1375.3,100.1,1376.3,124.1,1362.2,138.2z"/>
	<path class="st1" d="M1556.4,95.1c9.2-10.9,7.8-23.1,5.8-31.6c0-0.2-0.1-0.3-0.1-0.5c0,0-0.4-1.6,0.1-2.6c0.3-0.6,1.1-1.2,2.4-1.5
		c0,0,0,0,0,0c2.9-0.8,6.6-2.2,9.7-5.3c7.7-7.7,7.7-20.1,0-27.8s-20.1-7.7-27.8,0c-2.2,2.2-3.8,4.9-4.8,7.8
		c-0.1,0.3-0.1,0.4-0.2,0.7c-0.2,0.9-1.3,3.5-6.7,3.3l-2-0.1c-9.9-0.5-19.4-0.9-27.9,6.2c-6.9-2.6-15-1.1-20.5,4.4l-58.7,58.7
		c-7.5,7.5-7.5,19.8,0,27.4l40.2,40.2c7.5,7.5,19.8,7.5,27.4,0l58.7-58.7C1557.5,110.1,1558.9,102,1556.4,95.1z M1532.4,46.8l2,0.1
		c11.1,0.5,15.4-6.5,16.3-10.7c0.5-1.4,1.3-2.7,2.4-3.8c4-4,10.6-4,14.6,0c4,4,4,10.6,0,14.6c-1.3,1.3-3,2.1-5.7,2.9
		c-4.7,1.4-7,4.1-8.1,6.2c-2.1,4.1-1.1,8.4-0.7,9.7c2.1,9.1,1.4,15.7-2.3,21.3l-37.7-37.7C1518.4,46.1,1524.5,46.4,1532.4,46.8z
		 M1472.5,167.7l-40.2-40.2c-3.9-3.9-3.9-10.2,0-14.1l58.7-58.7c3.9-3.9,10.2-3.9,14.1,0l40.2,40.2c3.9,3.9,3.9,10.2,0,14.1
		l-10.8,10.8L1510.7,96c-1.8-1.8-4.8-1.8-6.6,0c-1.8,1.8-1.8,4.8,0,6.6l23.8,23.8l-5.3,5.3l-23.8-23.8c-1.8-1.8-4.8-1.8-6.6,0
		c-1.8,1.8-1.8,4.8,0,6.6l23.8,23.8l-5.3,5.3l-23.8-23.8c-1.8-1.8-4.8-1.8-6.6,0c-1.8,1.8-1.8,4.8,0,6.6l23.8,23.8l-17.4,17.4
		C1482.7,171.6,1476.4,171.6,1472.5,167.7z"/>
	<path class="st1" d="M1780,37.5c0-2.5-2.1-4.5-4.6-4.5s-4.6,2-4.6,4.5c0,38.7-31.8,70.3-70.8,70.3s-70.8-31.5-70.8-70.3
		c0-2.5-2.1-4.5-4.6-4.5c-2.5,0-4.6,2-4.6,4.5c0,42.9,34.4,77.9,77.3,79.3l-14.4,6.1c-0.9,0.4-1.6,1.1-2,2l-6.3,15.5
		c-0.4,0.9-0.4,1.9,0,2.8l6.6,15.4c0.4,0.9,1.1,1.6,2,1.9l15.6,6.2c0.4,0.2,0.9,0.3,1.4,0.3c0.5,0,1-0.1,1.4-0.3l15.5-6.5
		c0.9-0.4,1.6-1.1,2-2l6.3-15.5c0.4-0.9,0.4-1.9,0-2.8l-6.6-15.4c-0.4-0.9-1.1-1.6-2-1.9l-14.4-5.8
		C1745.4,115.6,1780,80.5,1780,37.5z M1716.8,144.5l-2.8,6.8l-2.7-2.7l1.7-4.1H1716.8z M1683.2,138.7l2.8-6.9l2.7,2.7l-1.7,4.2
		H1683.2z M1704.5,145.9l-4.4,1.9l-4.5-1.8l-1.9-4.4l1.8-4.4l4.4-1.9l4.5,1.8l1.9,4.4L1704.5,145.9z M1697.1,128.6l-4.1,1.7
		l-2.7-2.7l6.8-2.9V128.6z M1692.9,152.8l4.1,1.7v3.7l-6.8-2.7L1692.9,152.8z M1702.9,154.5l4.2-1.8l2.7,2.7l-6.9,2.9V154.5z
		 M1707.2,130.4l-4.3-1.7v-3.7l7,2.8L1707.2,130.4z M1683.2,144.5h3.8l1.8,4.2l-2.7,2.7L1683.2,144.5z M1716.8,138.7h-3.8l-1.7-4.1
		l2.7-2.7L1716.8,138.7z"/>
	<g>
		<path class="st1" d="M1959.1,102.8c-2.9,0-5.7,0.6-8.3,1.8V85.2c0-2-1.6-3.6-3.6-3.6h-27.5c-1.7-2.2-4.9-8.7,1.6-20.2
			c11-19.6-0.3-30-0.7-30.4c-1.5-1.3-3.8-1.2-5.1,0.3c-1.3,1.5-1.2,3.8,0.3,5.1c0.1,0.1,7.5,6.9-0.7,21.5
			c-6.1,10.9-5.4,18.8-3.4,23.8h-24.5c-0.8-3.9-1.7-11.4,1.8-16c7.6-10,0.5-21.2,0.2-21.7c-1.1-1.7-3.3-2.2-5-1.1
			c-1.7,1.1-2.1,3.3-1.1,5c0,0.1,4.7,7.4,0.2,13.4c-4.8,6.3-4.3,15-3.4,20.4h-23.2c-1-1.6-2.2-4.5,0-7.6c6.4-8.7,0.4-18.7,0.2-19.2
			c-1-1.7-3.2-2.2-4.9-1.2c-1.7,1-2.2,3.3-1.2,5c0,0.1,3.7,6.3,0.2,11.1c-3.1,4.2-3.1,8.4-2.1,11.9H1827c-2,0-3.6,1.6-3.6,3.6v29.6
			c0,21.6,15.6,39,25.7,48h-25.5c-2,0-3.6,1.6-3.6,3.6s1.6,3.6,3.6,3.6h35.8h53.3h38c2,0,3.6-1.6,3.6-3.6s-1.6-3.6-3.6-3.6h-25.7
			c9.8-7.5,15.9-16.2,19.7-24.1c3.8,3.7,9,5.9,14.6,5.9c11.5,0,20.9-9.4,20.9-20.9S1970.6,102.8,1959.1,102.8z M1911.7,162.8h-51.2
			c-5-3.7-29.9-23.3-29.9-48v-26h53.7c0,0,0,0,0,0c0,0,0,0,0,0h59.3v25.6C1943.6,114.7,1943.2,145.4,1911.7,162.8z M1959.1,137.4
			c-4.7,0-9-2.4-11.5-6.3c3.1-9.2,3.1-16.1,3.1-16.7v-1.6c2.4-1.8,5.3-2.9,8.3-2.9c7.5,0,13.7,6.2,13.7,13.7
			C1972.8,131.3,1966.7,137.4,1959.1,137.4z"/>
		<path class="st1" d="M1925.6,103.7c-2,0.3-3.3,2.2-2.9,4.2c0,0.1,1.4,8.2-1.7,17.4c-4.1,12.2-13.8,20.1-29.1,23.5
			c-1.9,0.4-3.2,2.4-2.7,4.3c0.4,1.7,1.9,2.8,3.5,2.8c0.3,0,0.5,0,0.8-0.1c22.2-5,30.9-18.2,34.3-28.3c3.6-10.9,2-20.5,1.9-20.9
			C1929.4,104.6,1927.6,103.3,1925.6,103.7z"/>
	</g>
	<path class="st0" d="M357.3,239.7c-26.2-26.3-68.9-26.3-95.1,0c-26.2,26.3-26.2,69.1,0,95.4L223,374.4l5.6,5.6l53.6-53.8
		c8.1,5.8,17.9,8.9,28.1,8.8l-0.1-7.9c-10.8,0.1-20.9-4-28.5-11.6c-15.4-15.5-15.4-40.6,0-56.1s40.5-15.5,56,0
		c10,10.1,10,26.4,0,36.5c-10,10.1-26.4,10.1-36.4,0c-4.6-4.6-4.6-12.2,0-16.8c4.6-4.6,12.2-4.6,16.8,0l5.6-5.6
		c-7.7-7.7-20.3-7.7-28,0s-7.7,20.3,0,28.1c13.1,13.1,34.5,13.1,47.6,0c13.1-13.1,13.1-34.5,0-47.7c-18.5-18.6-48.6-18.6-67.2,0
		c-18.5,18.6-18.5,48.8,0,67.3l-8.4,8.4c-23.1-23.2-23.1-61,0-84.2s60.8-23.2,84,0s23.1,61,0,84.2c-16.1,16.1-39.1,21-59.5,14.8
		l-6.2,6.2c24,9,52.1,3.9,71.3-15.4C383.6,308.8,383.6,266,357.3,239.7z"/>
	<g>
		<path class="st0" d="M174.8,263.4H56.6c-2.9,0-5.2-2.4-5.2-5.3v0c0-2.9,2.4-5.2,5.2-5.2h118.2c2.9,0,5.2,2.4,5.2,5.2v0
			C180,261.1,177.6,263.4,174.8,263.4z"/>
		<ellipse class="st0" cx="27" cy="258.2" rx="7" ry="7"/>
		<path class="st0" d="M174.8,312.4H56.6c-2.9,0-5.2-2.4-5.2-5.3v0c0-2.9,2.4-5.2,5.2-5.2h118.2c2.9,0,5.2,2.4,5.2,5.2v0
			C180,310.1,177.6,312.4,174.8,312.4z"/>
		<ellipse class="st0" cx="27" cy="307.2" rx="7" ry="7"/>
		<path class="st0" d="M174.8,361.4H56.6c-2.9,0-5.2-2.4-5.2-5.3v0c0-2.9,2.4-5.2,5.2-5.2h118.2c2.9,0,5.2,2.4,5.2,5.2v0
			C180,359.1,177.6,361.4,174.8,361.4z"/>
		<ellipse class="st0" cx="27" cy="356.2" rx="7" ry="7"/>
	</g>
	<g>
		<path class="st0" d="M565,276.9c-5.6-9.3-14.3-15.8-23.9-17.9c-11.2-2.5-20.6,2.3-28.2,6.1c-2.6,1.3-5.1,2.6-7.4,3.4
			c0-7.5,1.7-23.4,9-32c3.2-3.7,7.2-5.8,12.2-6.1c2.2-0.2,3.8-2.1,3.7-4.3c-0.2-2.2-2.1-3.8-4.3-3.7c-7.1,0.6-13.9,4.4-18.4,9.7
			c-8.9,10.5-10.1,27.4-10.1,36.1c-0.6-0.3-1.3-0.7-2.1-1.2c-4.6-2.7-11.6-6.9-29.9-8.7c-12.1-1.2-21.5,2.2-28,10
			c-12.1,14.5-10.8,40.6-6,58.6c10.5,39.1,41.9,53,67.8,53c15.8,0,30.4-4.4,42.1-12.6c13.5-9.5,22.8-23.8,27.7-42.3
			C575.4,301.3,570.3,285.7,565,276.9z M561.4,323c-11.7,44.2-47.3,49-62.1,49c-11.1,0-48.4-3.4-60.1-47.1
			c-4.7-17.4-5.2-40,4.4-51.4c4.2-5,9.9-7.4,17.4-7.4c1.2,0,2.5,0.1,3.8,0.2c16.5,1.6,22.4,5.1,26.6,7.6c3,1.8,5.7,3.4,10.3,3.4
			c4.9,0,9.7-2.4,14.8-5c7.1-3.6,14.4-7.3,22.9-5.5c7.5,1.6,14.3,6.8,18.8,14.2C562.7,288.6,567,302,561.4,323z"/>
		<path class="st0" d="M465,249.1c5.4,3.7,11.1,6.5,16,7.7c3.3,0.8,5.8,0.9,7.8,0.5c2.8-0.5,4.4-1.9,5.4-3.3
			c4.8-7.1-4.4-18.3-15.1-25.6c-10.7-7.3-24.4-12-29.2-4.9C445.1,230.6,454.4,241.8,465,249.1z M474.6,235
			c9.3,6.4,12.8,12.6,13,14.4c-1.8,0.6-8.8-0.6-18.1-6.9c-9.3-6.4-12.8-12.6-13-14.4C458.3,227.5,465.4,228.7,474.6,235z"/>
		<path class="st0" d="M491.6,345.6c-0.3,0-26.2-3.2-31.5-35.6c-0.4-2.2-2.4-3.7-4.6-3.3c-2.2,0.4-3.6,2.4-3.3,4.6
			c3.2,19.9,13.4,30.3,21.4,35.5c8.7,5.7,16.7,6.7,17,6.7c0.1,0,0.3,0,0.4,0c2,0,3.7-1.5,3.9-3.6
			C495.3,347.9,493.7,345.9,491.6,345.6z"/>
	</g>
	<g>
		<path class="st0" d="M687.6,369c-1.2,0-2.2-0.1-3.2-0.2c-0.3,0-0.6,0-0.9-0.1c-0.7,0-2.4-0.1-4.7-0.3c-12.5-0.7-41.8-2.4-49.3-3.8
			c-6.6-1.2-10.2-6.3-9.4-13.4c0.1-1.1,0.2-2.3,0.3-3.4c0.8-13.5,10.2-23.5,26.5-27.9c4.3-1.2,9-1.7,14.4-1.5
			c10.7,0.4,17.6-6.4,20-9.3c1.1-1.3,2.3-2.6,3.8-4.3l66.5-71.2c2.7-2.9,7-3.6,10.4-1.7c21.7,12.1,21,41.3,12.2,57.6
			c-7.3,13.6-8.1,34.2-8.2,35.3v34.3c0,3.8-3.1,7-7,7h-8.6c-3.8,0-6.9-3.1-7-6.9c-0.1-10.4-0.6-45.3-0.6-56.1c0-2-0.1-3.3-0.2-4.1
			c-1.6,1-4,3.1-6,4.8c-9,7.7-18.4,26.6-25.4,40.5c-2.6,5.3-4.9,9.8-6.8,13.1C698.9,367.5,692.4,369,687.6,369z M658.9,326
			c-3.8,0-7.1,0.4-10.1,1.2c-9.2,2.5-20.3,8.3-21,21.2c-0.1,1.2-0.2,2.5-0.3,3.7c-0.5,4.6,2.1,5.1,3.4,5.3c7,1.3,37.1,3,48.4,3.7
			c2.3,0.1,4,0.2,4.8,0.3c0.3,0,0.6,0,1,0.1c4.3,0.3,8.4,0.7,13.1-7.5c1.8-3.1,4-7.6,6.6-12.7c7.6-15.2,17-34.2,27.2-42.8
			c6.1-5.2,10.1-8.6,14.2-6.7c3.7,1.7,4.2,6.6,4.2,11.6c0,10.5,0.4,44.6,0.6,55.5h7.7l0-34c0-0.9,0.7-23.3,9.1-38.7
			c7.2-13.3,8.1-38-9.3-47.6c-0.4-0.2-1-0.1-1.4,0.3l-66.5,71.2c-1.4,1.5-2.5,2.8-3.5,3.9c-3.2,3.8-12,12.5-26,12
			C660.3,326,659.6,326,658.9,326z"/>
	</g>
	<path class="st0" d="M972.2,347.7c-5.9-19.2-15.8-33.9-30.3-45c-2.3-1.8-4.7-3.3-7-4.8c-10.8-6.9-17.3-11.1-7.6-32
		c6.3-13.6,9.9-24,10.7-31c0.6-4.8-2.6-9.3-7.4-10.5l-18.7-4.4l-1.6,2.8c-3.1,5.3-7.7,11.7-12.7,11.5c-5.6-0.2-10.9-8.4-12.3-11.2
		l-1.5-3.1l-18.1,4.2l-0.2,0.1c-4.9,1.4-8,6.2-7.1,11.2c2.7,15.2,3.3,17.1,6.8,28c8.6,26.9,1.6,33.7,1.5,33.7c-1,0.9-2.3,2-3.9,3.3
		c-8.7,7.2-25,20.6-32.7,40.1c-4.8,12.1-5.3,20.5-1.5,25.6c1.8,2.5,5.5,5.3,12.8,4.7c1.3-0.1,2.5-0.3,3.8-0.4
		c6.3-0.8,14.2-1.8,30.2,5.2c6.5,2.9,13.6,4.3,21,4.3c1.7,0,3.4-0.1,5.2-0.2c7.9-0.7,15.6-3.9,22.4-9.3c3.9-3.1,10.8-5.9,21.6-1.9
		c11.9,4.4,20,4.4,24.7-0.1C974.5,364.4,975.2,357.5,972.2,347.7z M866.9,234c-0.1-0.6,0.3-1.2,0.9-1.4l11.4-2.7
		c2.9,4.7,9.2,12.8,18,13c6.8,0.2,13.1-4.2,18.8-13.1l12.4,3c0.5,0.1,0.8,0.6,0.8,1c-0.5,4.2-2.6,12.5-10,28.4
		c-3.3,7-4.9,12.8-5.3,17.6c-6.4,3.1-22.8,9-36.5-1.6c-0.7-4.9-2-10.7-4.2-17.5C870,250.2,869.5,248.6,866.9,234z M964.3,362.2
		c-0.7,0.7-4,2.6-15.8-1.7c-15.4-5.7-25.4-0.4-30,3.3c-5.4,4.3-11.5,6.9-17.7,7.4c-7.9,0.7-15.2-0.5-21.9-3.4
		c-12-5.3-20.2-6.6-26.5-6.6c-3.2,0-5.9,0.3-8.3,0.7c-1.2,0.2-2.3,0.3-3.4,0.4c-1.8,0.1-4.2,0-5.2-1.2c-0.6-0.9-2.4-4.7,2.6-17.3
		c6.9-17.4,22-29.9,30.2-36.6c1.7-1.4,3.1-2.6,4.2-3.6c2-1.8,5.1-5.9,5.6-14.7c5.9,3.1,11.9,4.2,17.5,4.2c7.7,0,14.5-2.1,19.3-4
		c2.4,7.9,9.1,12.2,15.3,16.2c2.1,1.4,4.4,2.8,6.4,4.3c13.1,10,22,23.3,27.3,40.7C965.7,356.2,965.9,360.7,964.3,362.2z"/>
	<path class="st0" d="M1172.6,293.1c-2.8-16.8-3.1-27.8,1.7-42.2c0.4-1.2,0-2.5-1-3.3c-1-0.8-2.3-0.9-3.4-0.3
		c-3,1.6-31.6,9.7-44.1,1.6c-14.7-9.5-36-9.2-51.7,0.7c-13.5,8.5-42.9-1-43.2-1.1c-1.3-0.4-2.8,0.1-3.5,1.2
		c-0.8,1.2-0.6,2.7,0.3,3.7c6.4,7,2.7,28.8,0,39.5c-4.4,1-7.7,4.9-7.7,9.6V333c0,5.4,4.4,9.9,9.9,9.9h2.3v9.9c0,2.9,2.4,5.3,5.3,5.3
		h12.2c2.9,0,5.3-2.4,5.3-5.3v-9.9h89.9v9.9c0,2.9,2.4,5.3,5.3,5.3h12.2c2.9,0,5.3-2.4,5.3-5.3v-9.9h2.3c5.5,0,9.9-4.4,9.9-9.9
		v-30.3C1180,298.1,1176.9,294.2,1172.6,293.1z M1085.5,292.8h-39.6v-8.3h39.6V292.8z M1154.1,292.8h-39.6v-8.3h39.6V292.8z
		 M1077.4,254.8c13.8-8.7,32.4-9,45.2-0.8c12,7.8,33.6,3.8,44.3,0.7c-3.2,12.5-2.8,23.2-0.4,38h-6.2v-8.5c0-3.2-2.7-5.9-5.9-5.9h-40
		c-3.3,0-5.9,2.6-5.9,5.9v8.5h-16.8v-8.5c0-3.2-2.7-5.9-5.9-5.9h-40c-3.3,0-5.9,2.6-5.9,5.9v8.5h-5.8c2-8.3,5.2-25.3,1.8-36.5
		C1046.2,258.8,1065.8,262.1,1077.4,254.8z M1047.4,350.4h-7.6v-7.6h7.6V350.4z M1160.2,350.4h-7.6v-7.6h7.6V350.4z M1172.4,333
		c0,1.2-1,2.3-2.3,2.3h-7.6h-12.2h-100.6h-12.2h-7.6c-1.2,0-2.3-1-2.3-2.3v-30.3c0-1.2,1-2.3,2.3-2.3h140.2c1.2,0,2.3,1,2.3,2.3V333
		z"/>
	<path class="st0" d="M1379.9,309.5c-0.9-12.7-6.5-25.2-15.7-35.3V244h-7.9v30.7l-56.2,56.2l-56.7-56.6V244h-7.9v30.7
		c-9,10-14.4,22.3-15.3,34.8c-0.9,13.4,3.3,25.5,12.1,34.3c7.9,7.9,18.7,12.2,30.7,12.2c1.2,0,2.4,0,3.6-0.1
		c12-0.8,23.7-5.8,33.5-14.1c9.8,8.3,21.5,13.2,33.5,14.1c1.2,0.1,2.4,0.1,3.6,0.1c11.9,0,22.7-4.3,30.7-12.2
		C1376.5,335.1,1380.8,322.9,1379.9,309.5z M1237.8,338.2c-14.1-14.1-13.1-38.1,1.8-56.2h0.2l54.4,54.3
		C1276.1,351.3,1251.9,352.3,1237.8,338.2z M1362.2,338.2c-14.1,14.1-38.3,13.1-56.4-1.9l54.4-54.3h0.2
		C1375.3,300.1,1376.3,324.1,1362.2,338.2z"/>
	<path class="st0" d="M1556.4,295.1c9.2-10.9,7.8-23.1,5.8-31.6c0-0.2-0.1-0.3-0.1-0.5c0,0-0.4-1.6,0.1-2.6c0.3-0.6,1.1-1.2,2.4-1.5
		c0,0,0,0,0,0c2.9-0.8,6.6-2.2,9.7-5.3c7.7-7.7,7.7-20.1,0-27.8s-20.1-7.7-27.8,0c-2.2,2.2-3.8,4.9-4.8,7.8
		c-0.1,0.3-0.1,0.4-0.2,0.7c-0.2,0.9-1.3,3.5-6.7,3.3l-2-0.1c-9.9-0.5-19.4-0.9-27.9,6.2c-6.9-2.6-15-1.1-20.5,4.4l-58.7,58.7
		c-7.5,7.5-7.5,19.8,0,27.4l40.2,40.2c7.5,7.5,19.8,7.5,27.4,0l58.7-58.7C1557.5,310.1,1558.9,302,1556.4,295.1z M1532.4,246.8
		l2,0.1c11.1,0.5,15.4-6.5,16.3-10.7c0.5-1.4,1.3-2.7,2.4-3.8c4-4,10.6-4,14.6,0c4,4,4,10.6,0,14.6c-1.3,1.3-3,2.1-5.7,2.9
		c-4.7,1.4-7,4.1-8.1,6.2c-2.1,4.1-1.1,8.4-0.7,9.7c2.1,9.1,1.4,15.7-2.3,21.3l-37.7-37.7C1518.4,246.1,1524.5,246.4,1532.4,246.8z
		 M1472.5,367.7l-40.2-40.2c-3.9-3.9-3.9-10.2,0-14.1l58.7-58.7c3.9-3.9,10.2-3.9,14.1,0l40.2,40.2c3.9,3.9,3.9,10.2,0,14.1
		l-10.8,10.8l-23.8-23.8c-1.8-1.8-4.8-1.8-6.6,0c-1.8,1.8-1.8,4.8,0,6.6l23.8,23.8l-5.3,5.3l-23.8-23.8c-1.8-1.8-4.8-1.8-6.6,0
		s-1.8,4.8,0,6.6l23.8,23.8l-5.3,5.3l-23.8-23.8c-1.8-1.8-4.8-1.8-6.6,0c-1.8,1.8-1.8,4.8,0,6.6l23.8,23.8l-17.4,17.4
		C1482.7,371.6,1476.4,371.6,1472.5,367.7z"/>
	<path class="st0" d="M1780,237.5c0-2.5-2.1-4.5-4.6-4.5s-4.6,2-4.6,4.5c0,38.7-31.8,70.3-70.8,70.3s-70.8-31.5-70.8-70.3
		c0-2.5-2.1-4.5-4.6-4.5c-2.5,0-4.6,2-4.6,4.5c0,42.9,34.4,77.9,77.3,79.3l-14.4,6.1c-0.9,0.4-1.6,1.1-2,2l-6.3,15.5
		c-0.4,0.9-0.4,1.9,0,2.8l6.6,15.4c0.4,0.9,1.1,1.6,2,1.9l15.6,6.2c0.4,0.2,0.9,0.3,1.4,0.3c0.5,0,1-0.1,1.4-0.3l15.5-6.5
		c0.9-0.4,1.6-1.1,2-2l6.3-15.5c0.4-0.9,0.4-1.9,0-2.8l-6.6-15.4c-0.4-0.9-1.1-1.6-2-1.9l-14.4-5.8
		C1745.4,315.6,1780,280.5,1780,237.5z M1716.8,344.5l-2.8,6.8l-2.7-2.7l1.7-4.1H1716.8z M1683.2,338.7l2.8-6.9l2.7,2.7l-1.7,4.2
		H1683.2z M1704.5,345.9l-4.4,1.9l-4.5-1.8l-1.9-4.4l1.8-4.4l4.4-1.9l4.5,1.8l1.9,4.4L1704.5,345.9z M1697.1,328.6l-4.1,1.7
		l-2.7-2.7l6.8-2.9V328.6z M1692.9,352.8l4.1,1.7v3.7l-6.8-2.7L1692.9,352.8z M1702.9,354.5l4.2-1.8l2.7,2.7l-6.9,2.9V354.5z
		 M1707.2,330.4l-4.3-1.7v-3.7l7,2.8L1707.2,330.4z M1683.2,344.5h3.8l1.8,4.2l-2.7,2.7L1683.2,344.5z M1716.8,338.7h-3.8l-1.7-4.1
		l2.7-2.7L1716.8,338.7z"/>
	<g>
		<path class="st0" d="M1959.1,302.8c-2.9,0-5.7,0.6-8.3,1.8v-19.3c0-2-1.6-3.6-3.6-3.6h-27.5c-1.7-2.2-4.9-8.7,1.6-20.2
			c11-19.6-0.3-30-0.7-30.4c-1.5-1.3-3.8-1.2-5.1,0.3c-1.3,1.5-1.2,3.8,0.3,5.1c0.1,0.1,7.5,6.9-0.7,21.5
			c-6.1,10.9-5.4,18.8-3.4,23.8h-24.5c-0.8-3.9-1.7-11.4,1.8-16c7.6-10,0.5-21.2,0.2-21.7c-1.1-1.7-3.3-2.2-5-1.1
			c-1.7,1.1-2.1,3.3-1.1,5c0,0.1,4.7,7.4,0.2,13.4c-4.8,6.3-4.3,15-3.4,20.4h-23.2c-1-1.6-2.2-4.5,0-7.6c6.4-8.7,0.4-18.7,0.2-19.2
			c-1-1.7-3.2-2.2-4.9-1.2c-1.7,1-2.2,3.3-1.2,5c0,0.1,3.7,6.3,0.2,11.1c-3.1,4.2-3.1,8.4-2.1,11.9H1827c-2,0-3.6,1.6-3.6,3.6v29.6
			c0,21.6,15.6,39,25.7,48h-25.5c-2,0-3.6,1.6-3.6,3.6s1.6,3.6,3.6,3.6h35.8h53.3h38c2,0,3.6-1.6,3.6-3.6s-1.6-3.6-3.6-3.6h-25.7
			c9.8-7.5,15.9-16.2,19.7-24.1c3.8,3.7,9,5.9,14.6,5.9c11.5,0,20.9-9.4,20.9-20.9S1970.6,302.8,1959.1,302.8z M1911.7,362.8h-51.2
			c-5-3.7-29.9-23.3-29.9-48v-26h53.7c0,0,0,0,0,0c0,0,0,0,0,0h59.3v25.6C1943.6,314.7,1943.2,345.4,1911.7,362.8z M1959.1,337.4
			c-4.7,0-9-2.4-11.5-6.3c3.1-9.2,3.1-16.1,3.1-16.7v-1.6c2.4-1.8,5.3-2.9,8.3-2.9c7.5,0,13.7,6.2,13.7,13.7
			C1972.8,331.3,1966.7,337.4,1959.1,337.4z"/>
		<path class="st0" d="M1925.6,303.7c-2,0.3-3.3,2.2-2.9,4.2c0,0.1,1.4,8.2-1.7,17.4c-4.1,12.2-13.8,20.1-29.1,23.5
			c-1.9,0.4-3.2,2.4-2.7,4.3c0.4,1.7,1.9,2.8,3.5,2.8c0.3,0,0.5,0,0.8-0.1c22.2-5,30.9-18.2,34.3-28.3c3.6-10.9,2-20.5,1.9-20.9
			C1929.4,304.6,1927.6,303.3,1925.6,303.7z"/>
	</g>
	<path class="st1" d="M2103.9,41.1l-42.4,31.3l-34.7-45.9c-1.2-1.6-3.6-2-5.2-0.8c-1.7,1.2-2,3.5-0.8,5.2l96,126.8
		c-2.6,3.8-2.6,8.9,0.4,12.8c3.7,4.9,10.8,5.9,15.7,2.3c3.3-2.4,4.8-6.4,4.4-10.2l37.7-27.8c5.6-4.1,6.8-12,2.6-17.6l-55.7-73.6
		C2117.5,38.1,2109.5,36.9,2103.9,41.1z M2128.3,166.9c-1.7,1.2-4,0.9-5.2-0.8c-1.2-1.6-0.9-4,0.8-5.2s4-0.9,5.2,0.8
		C2130.3,163.3,2130,165.6,2128.3,166.9z M2171.5,121.7c1.7,2.3,1.3,5.5-1.1,7.3l-36.6,27c-3-2.8-7.3-3.8-11.1-2.6l-56.8-75l20.3-15
		l48.2,63.7c1.2,1.6,3.6,2,5.2,0.8c1.7-1.2,2-3.5,0.8-5.2l-48.2-63.7l16.1-11.9c2.3-1.7,5.6-1.2,7.3,1.1L2171.5,121.7z"/>
	<g>
		<path class="st1" d="M2343.2,33c-1.6-7.5-8.4-13-16.3-13H2273c-7.8,0-14.6,5.5-16.3,13L2244,92.9h112L2343.2,33z M2265.2,34.7
			c0.8-3.6,4.1-6.3,7.8-6.3h53.9c3.8,0,7.1,2.6,7.8,6.3l10.6,49.6h-90.8L2265.2,34.7z"/>
		<path class="st1" d="M2323.1,101.2H2244v8.5h51.8v61.8h-27.6c-4.8,0-8.7,3.8-8.9,8.5h36.5h8.5h36.5c-0.2-4.7-4.1-8.5-8.9-8.5
			h-27.6v-61.8h18.8V130h8.5v-20.3h24.4v-8.5h-24.4H2323.1z"/>
	</g>
	<g>
		<path class="st1" d="M2539.3,96.3c-31-11.5-36.1-22.5-38-26.6c-0.3-0.7-0.6-1.3-1-1.9c-1.9-3.1-8.3-8.6-15-7.6
			c-3.6,0.5-8.5,3.1-11.2,12.2c-0.7,2.5-1.9,4.1-3.8,5c-7.1,3.7-22.8-2.2-33.2-6.1c-4-1.5-8.4,0.2-10.5,4
			c-3.8,6.9-9.5,23.2-4.9,54.7c0.6,4.4,4.4,7.7,8.7,7.7h24.2c4.4,0,8.1-3.6,8.3-8.1c9.2,4.8,21.6,10.5,30.4,10.5
			c6.7,0,20.5-0.4,33.8-0.8c11.8-0.3,22.9-0.6,29.1-0.7c7.5-0.1,22.1-2.7,23.7-12.2C2581.5,116.7,2568.5,107.1,2539.3,96.3z
			 M2571.5,124.8c-0.3,1.7-6.8,4.9-15.4,5c-6.3,0.1-17.4,0.4-29.2,0.7c-13.3,0.4-27,0.8-33.6,0.8c-5.6,0-15.5-3.6-27.2-9.8
			c-1.2-0.6-2.4-0.9-3.7-0.9c-1.4,0-2.9,0.4-4.2,1.2c-2.4,1.5-3.8,4.2-3.8,7.1v0.1h-24c-0.2,0-0.3-0.1-0.3-0.3
			c-4.4-30,1.2-44.3,3.8-49.1c0.1-0.1,0.2-0.1,0.3-0.1c16.1,6,30.2,10.6,39.8,5.7c4-2,6.7-5.5,8.1-10.3c0.6-2.1,2-5.8,4.3-6.1
			c2.6-0.4,6.1,2.7,6.7,3.7c0.1,0.1,0.3,0.6,0.5,1c2.6,5.5,8.6,18.4,42.8,31.1C2571.7,117.6,2571.5,124.8,2571.5,124.8z"/>
		<path class="st1" d="M2504.7,112.3c-1.1-0.4-2-0.7-2.7-1c-0.9-0.4-2.2-1-4.2-1.9c-2.1-1-4.6-0.1-5.6,2.1c-0.8,1.7-0.4,3.7,0.8,5
			c0.3,0.3,8.6,4.1,8.9,4.2c0.5,0.2,0.9,0.2,1.4,0.2c1.7,0,3.4-1.1,4-2.9C2508.1,115.6,2506.9,113.1,2504.7,112.3z"/>
		<path class="st1" d="M2544.5,117.6c-16.5,1.2-31.5-2.7-31.8-2.8c-2.3-0.6-4.6,0.8-5.1,3.1c-0.6,2.3,0.8,4.7,3,5.3
			c0.6,0.2,12.5,3.3,27.4,3.3c2.3,0,4.7-0.1,7.1-0.2c2.3-0.2,4.1-2.3,3.9-4.7C2548.9,119.2,2546.8,117.4,2544.5,117.6z"/>
	</g>
	<path class="st1" d="M2749.3,56.6c-5.3-2.6-10.6-4.6-14.4-5.9l1.5-14c0.3-2.3-0.9-4.4-3-5.5c-0.1,0-0.2-0.1-0.3-0.1
		c-18-12.9-35.4-12.2-47-9.3c-12.5,3.2-20.7,9.4-21,9.7c-1.2,0.9-1.7,2.4-1.5,3.8c-0.1,0.4-0.1,0.9,0,1.4l1.5,13.4
		c-10.2,3.4-36.1,13.5-36.1,28.8v83.8c0,9.4,7.6,17.1,17,17.1h33.2c0,0,0,0,0,0c0,0,0,0,0,0h40.5c0.4,0.2,0.9,0.3,1.4,0.3
		c0.3,0,0.6,0,0.8-0.1c0.2,0,0.4-0.1,0.5-0.2h31.6c9.4,0,17-7.7,17-17.1V78.8C2771,70.9,2763.9,63.7,2749.3,56.6z M2700.1,95.5
		l15.9,76.1h-31.9L2700.1,95.5z M2700.2,94.6l-13.2-16.1l10.4-8l2.4-1.9l13.2,10.1L2700.2,94.6z M2678.8,74.6
		c-0.8,0.6-1.5,0.4-1.9,0.2c-0.4-0.2-1-0.6-1.1-1.5l-3.3-30.2l21.3,20.1l-4.4,3.4L2678.8,74.6z M2724.2,73.3c-0.1,1-0.8,1.4-1.1,1.5
		c-0.4,0.2-1.1,0.4-1.9-0.2l-14.9-11.4l21.3-20.1L2724.2,73.3z M2724.3,35L2700,57.9l-24.7-23.3C2684.3,29.7,2703.5,22.6,2724.3,35z
		 M2637.1,162.6V78.8c0-8.1,17.1-16.4,28.9-20.5l1.7,15.9c0.4,3.6,2.6,6.7,6,8.1c1.3,0.6,2.6,0.8,4,0.8c0.8,0,1.6-0.1,2.4-0.3
		l11.4,14l-15.6,74.8H2646C2641.1,171.6,2637.1,167.6,2637.1,162.6z M2762.9,162.6c0,4.9-4,9-8.9,9h-29.7l-15.6-74.5l11.6-14.2
		c0.7,0.1,1.4,0.2,2.1,0.2c1.3,0,2.7-0.3,4-0.8c3.4-1.4,5.6-4.5,6-8.1l1.7-15.2c13.5,4.9,29,13.1,29,19.8V162.6z"/>
	<g>
		<path class="st1" d="M2946,101.5V81.6h-33.5v19.9c-0.4,0.1-0.7,0.1-1.1,0.2V88.1c0-13.7-10.6-24.9-24-25.8V42.6h-12.8V28.1h24V20
			h-47.9v8.1h16v14.5H2854v19.7c-13.3,0.8-24,12.1-24,25.8V180h58.6h5.1h76.3v-49.2C2970,116.3,2959.7,104.1,2946,101.5z
			 M2920.5,89.6h17.6v11.3h-17.6V89.6z M2861.9,50.7h17.6v11.3h-17.6V50.7z M2838,171.9V88.1c0-9.8,7.9-17.8,17.6-17.8h30.3
			c9.7,0,17.6,8,17.6,17.8v16.8c-4.2,2.4-7.8,5.9-10.4,10.1v-14.8c0-4-3.2-7.3-7.2-7.3h-30.3c-4,0-7.2,3.3-7.2,7.3v41.9
			c0,4,3.2,7.3,7.2,7.3h30.3c0.9,0,1.8-0.2,2.7-0.5v23.1H2838z M2885.1,100.9v40.3h-28.7v-40.3H2885.1z M2962,171.9h-65.5v-41.1
			c0-12,9.7-21.8,21.6-21.8h22.4c11.9,0,21.6,9.8,21.6,21.8V171.9z"/>
		<path class="st1" d="M2929.3,118.7c-11.9,0-21.6,9.8-21.6,21.8c0,12,9.7,21.8,21.6,21.8s21.6-9.8,21.6-21.8
			C2950.8,128.5,2941.2,118.7,2929.3,118.7z M2929.3,154.2c-7.5,0-13.6-6.2-13.6-13.7c0-7.6,6.1-13.7,13.6-13.7s13.6,6.2,13.6,13.7
			C2942.9,148,2936.8,154.2,2929.3,154.2z"/>
	</g>
	<g>
		<path class="st1" d="M3150.4,20h-100.8c-8.1,0-14.6,6.5-14.6,14.6v130.9c0,8,6.6,14.6,14.6,14.6h100.8c8.1,0,14.6-6.5,14.6-14.6
			V34.6C3165,26.5,3158.4,20,3150.4,20z M3156.6,165.4c0,3.4-2.8,6.1-6.2,6.1h-100.8c-3.4,0-6.2-2.8-6.2-6.1V70.4h113.1V165.4z
			 M3156.6,61.9h-113.1V34.6c0-3.4,2.8-6.1,6.2-6.1h100.8c3.4,0,6.2,2.8,6.2,6.1V61.9z"/>
		<path class="st1" d="M3079.8,35h-20.9c-5.4,0-9.8,4.4-9.8,9.8v0.6c0,5.4,4.4,9.8,9.8,9.8h20.9c5.4,0,9.8-4.4,9.8-9.8v-0.6
			C3089.6,39.4,3085.2,35,3079.8,35z M3082.8,45.4c0,1.7-1.4,3.1-3.1,3.1h-20.9c-1.7,0-3.1-1.4-3.1-3.1v-0.6c0-1.7,1.4-3.1,3.1-3.1
			h20.9c1.7,0,3.1,1.4,3.1,3.1V45.4z"/>
		<path class="st1" d="M3100,156.9c16,0,29.6-10.7,34-25.3h3.1c5.6,0,10.1-4.5,10.1-10.1c0-5.6-4.5-10.1-10.1-10.1h-3.1
			c-4.4-14.6-17.9-25.3-34-25.3c-19.6,0-35.5,15.9-35.5,35.4S3080.4,156.9,3100,156.9z M3135.3,118.2h1.8c1.9,0,3.4,1.5,3.4,3.4
			c0,1.9-1.5,3.4-3.4,3.4h-1.8c0.1-1.1,0.2-2.2,0.2-3.4S3135.4,119.3,3135.3,118.2z M3100,92.9c15.8,0,28.7,12.8,28.7,28.6
			s-12.9,28.6-28.7,28.6s-28.7-12.8-28.7-28.6S3084.2,92.9,3100,92.9z"/>
		<path class="st1" d="M3100,143.5c12.1,0,21.9-9.8,21.9-21.9s-9.8-21.9-21.9-21.9s-21.9,9.8-21.9,21.9S3087.9,143.5,3100,143.5z
			 M3100,106.4c8.4,0,15.2,6.8,15.2,15.2s-6.8,15.2-15.2,15.2s-15.2-6.8-15.2-15.2S3091.6,106.4,3100,106.4z"/>
	</g>
	<g>
		<path class="st1" d="M3296.9,77.4h-2.2V62.6c0-14.9-6.4-26.8-18.5-34.5c-9.3-5.8-19.1-7.6-22.9-8.1c-1.3-0.2-2.7,0.2-3.7,1.1
			c-1,0.9-1.6,2.1-1.6,3.4v52.9h-2.2c-3.8,0-6.8,3-6.8,6.7v89.1c0,3.7,3.1,6.7,6.8,6.7h51.1c3.8,0,6.8-3,6.8-6.7V84.2
			C3303.8,80.5,3300.7,77.4,3296.9,77.4z M3255.6,27.9c9.5,1.9,31.6,9,31.6,34.6v14.9h-31.6V27.9z M3296.2,84.9v17.7h-49.7V84.9
			H3296.2z M3246.5,172.6V110h49.7v62.6H3246.5z"/>
		<path class="st1" d="M3355.2,116.1h-38.1c-3.2,0-5.8,2.6-5.8,5.7v52.5c0,3.1,2.6,5.7,5.8,5.7h38.1c3.2,0,5.8-2.6,5.8-5.7v-52.5
			C3361,118.6,3358.4,116.1,3355.2,116.1z M3353.5,172.6h-34.6v-49.1h34.6V172.6z"/>
	</g>
	<path class="st1" d="M3568.9,84.7c-1.3,0-2.5,0.2-3.7,0.7v-9.1c0-10.1-8-18.3-17.8-18.3s-17.8,8.2-17.8,18.3v8.4h-59.3v-8.4
		c0-10.1-8-18.3-17.8-18.3s-17.8,8.2-17.8,18.3v9.1c-1.2-0.4-2.4-0.7-3.7-0.7c-6.1,0-11.1,5.1-11.1,11.5v7.6c0,6.3,5,11.5,11.1,11.5
		c1.3,0,2.5-0.2,3.7-0.7v9.1c0,10.1,8,18.3,17.8,18.3s17.8-8.2,17.8-18.3v-8.4h59.3v8.4c0,10.1,8,18.3,17.8,18.3s17.8-8.2,17.8-18.3
		v-9.1c1.2,0.4,2.4,0.7,3.7,0.7c6.1,0,11.1-5.1,11.1-11.5v-7.6C3580,89.9,3575,84.7,3568.9,84.7z M3431.1,107.6
		c-2,0-3.7-1.7-3.7-3.8v-7.6c0-2.1,1.7-3.8,3.7-3.8c2,0,3.7,1.7,3.7,3.8v7.6C3434.8,105.9,3433.2,107.6,3431.1,107.6z M3463,123.7
		c0,5.9-4.7,10.7-10.4,10.7s-10.4-4.8-10.4-10.7v-19.9v-7.6V76.3c0-5.9,4.7-10.7,10.4-10.7s10.4,4.8,10.4,10.7V123.7z M3470.4,107.6
		V92.4h59.3v15.3H3470.4z M3557.8,123.7c0,5.9-4.7,10.7-10.4,10.7s-10.4-4.8-10.4-10.7V76.3c0-5.9,4.7-10.7,10.4-10.7
		s10.4,4.8,10.4,10.7v19.9v7.6V123.7z M3572.6,103.8c0,2.1-1.7,3.8-3.7,3.8c-2,0-3.7-1.7-3.7-3.8v-7.6c0-2.1,1.7-3.8,3.7-3.8
		c2,0,3.7,1.7,3.7,3.8V103.8z"/>
	<g>
		<path class="st1" d="M3775.8,83.6c-2.3,0-4.2,1.9-4.2,4.2v63.6c-8.7-6.6-24.6-16.3-43.2-16.3c-10.3,0-19.2,6.1-19.2,6.1l-9.2,6.8
			l-9.7-6.1c-6.7-4.2-13.1-6.3-19.2-6.3c-18.2,0-33.9,11.1-42.7,18.9V87c0-2.3-1.9-4.2-4.2-4.2c-2.3,0-4.2,1.9-4.2,4.2v77.8
			c0,1.8,1.1,3.4,2.8,4c0.5,0.2,1,0.3,1.5,0.3c1.2,0,2.4-0.5,3.2-1.5c0.2-0.2,20.1-23.4,43.7-23.4c4.5,0,9.4,1.7,14.7,5l12.1,7.6
			c1.5,0.9,3.3,0.9,4.7-0.2l11.5-8.4c0.6-0.4,7.2-4.5,14.3-4.5c24.2,0,44.2,19.7,44.4,19.9c1.2,1.2,3,1.6,4.6,0.9
			c1.6-0.7,2.6-2.2,2.6-3.9V87.8C3780,85.5,3778.1,83.6,3775.8,83.6z"/>
		<path class="st1" d="M3643.5,131.5c1.5,0.7,3.3,0.4,4.5-0.7c0.8-0.7,20.3-17.6,48.9,0.4c0.2,0.1,0.3,0.2,0.5,0.3c0,0,0,0,0.1,0
			c0.2,0.1,0.5,0.2,0.7,0.2c0.1,0,0.1,0,0.2,0c0.2,0,0.4,0.1,0.6,0.1c0,0,0.1,0,0.1,0c0,0,0,0,0,0c0,0,0,0,0.1,0
			c0.3,0,0.5,0,0.7-0.1c0.1,0,0.1,0,0.2,0c0.2,0,0.4-0.1,0.6-0.2c0.1,0,0.2-0.1,0.2-0.1c0.2-0.1,0.3-0.2,0.5-0.2
			c0.1,0,0.1-0.1,0.2-0.1c0,0,0.1,0,0.1-0.1c0.3-0.2,26.4-19,50.4-0.1c0.8,0.6,1.7,0.9,2.6,0.9c0.6,0,1.3-0.1,1.8-0.4
			c1.4-0.7,2.4-2.2,2.4-3.8V52c0-0.9-0.3-1.7-0.7-2.4c-0.5-0.7-12.4-17.9-30.1-18.5c-9.8-0.3-19.2,4.5-28,14.2
			c-4.7-5.4-14-13.8-26.3-14.3c-11.2-0.5-21.9,5.7-31.9,18.4c-0.6,0.7-0.9,1.7-0.9,2.6v75.6C3641.1,129.3,3642,130.9,3643.5,131.5z
			 M3727.8,39.6c11.4,0.3,20.2,10.6,22.8,13.9v66.4c-18.8-10.4-37.4-4.2-47,0.5l0.7-66.8C3711.9,44.1,3719.8,39.4,3727.8,39.6z
			 M3649.5,53.5c7.9-9.6,15.9-14.4,24-14.1c11.2,0.4,19.9,10.7,22.3,13.9l-0.7,67.1c-8.8-4.4-16.8-5.9-23.8-5.9
			c-9.3,0-16.8,2.7-21.8,5.4V53.5z"/>
	</g>
	<g>
		<path class="st1" d="M3966.9,60.5h-6.2V30c0-5.5-4.5-10-10.1-10h-101.1c-5.6,0-10.1,4.5-10.1,10v30.5h-6.2
			c-5.6,0-10.1,4.5-10.1,10.1v60.9c0,5.6,4.5,10.1,10.1,10.1h19.4v33c0,3,2.4,5.5,5.4,5.5h84c3,0,5.4-2.4,5.4-5.5v-33h19.4
			c5.6,0,10.1-4.5,10.1-10.1V70.6C3977,65,3972.5,60.5,3966.9,60.5z M3847.1,30c0-1.2,1.1-2.2,2.4-2.2h101.1c1.3,0,2.4,1,2.4,2.2
			v30.5h-105.8V30z M3939.7,172.2h-79.3v-70.1h79.3V172.2z M3969.2,131.5c0,1.2-1.1,2.3-2.4,2.3h-19.4v-34c0-3-2.4-5.5-5.4-5.5h-84
			c-3,0-5.4,2.4-5.4,5.5v34h-19.4c-1.3,0-2.4-1.1-2.4-2.3V70.6c0-1.2,1.1-2.3,2.4-2.3h133.7c1.3,0,2.4,1.1,2.4,2.3V131.5z"/>
		<path class="st1" d="M3875.1,126.6h49.8c2.1,0,3.9-1.7,3.9-3.9s-1.7-3.9-3.9-3.9h-49.8c-2.1,0-3.9,1.7-3.9,3.9
			S3873,126.6,3875.1,126.6z"/>
		<path class="st1" d="M3875.1,154.4h49.8c2.1,0,3.9-1.7,3.9-3.9c0-2.2-1.7-3.9-3.9-3.9h-49.8c-2.1,0-3.9,1.7-3.9,3.9
			C3871.2,152.6,3873,154.4,3875.1,154.4z"/>
		<ellipse class="st1" cx="3844.6" cy="81.6" rx="7" ry="7"/>
	</g>
	<path class="st0" d="M2103.9,241.1l-42.4,31.3l-34.7-45.9c-1.2-1.6-3.6-2-5.2-0.8c-1.7,1.2-2,3.5-0.8,5.2l96,126.8
		c-2.6,3.8-2.6,8.9,0.4,12.8c3.7,4.9,10.8,5.9,15.7,2.3c3.3-2.4,4.8-6.4,4.4-10.2l37.7-27.8c5.6-4.1,6.8-12,2.6-17.6l-55.7-73.6
		C2117.5,238.1,2109.5,236.9,2103.9,241.1z M2128.3,366.9c-1.7,1.2-4,0.9-5.2-0.8c-1.2-1.6-0.9-4,0.8-5.2c1.7-1.2,4-0.9,5.2,0.8
		C2130.3,363.3,2130,365.6,2128.3,366.9z M2171.5,321.7c1.7,2.3,1.3,5.5-1.1,7.3l-36.6,27c-3-2.8-7.3-3.8-11.1-2.6l-56.8-75l20.3-15
		l48.2,63.7c1.2,1.6,3.6,2,5.2,0.8c1.7-1.2,2-3.5,0.8-5.2l-48.2-63.7l16.1-11.9c2.3-1.7,5.6-1.2,7.3,1.1L2171.5,321.7z"/>
	<g>
		<path class="st0" d="M2343.2,233c-1.6-7.5-8.4-13-16.3-13H2273c-7.8,0-14.6,5.5-16.3,13l-12.8,59.9h112L2343.2,233z M2265.2,234.7
			c0.8-3.6,4.1-6.3,7.8-6.3h53.9c3.8,0,7.1,2.6,7.8,6.3l10.6,49.6h-90.8L2265.2,234.7z"/>
		<path class="st0" d="M2323.1,301.2H2244v8.5h51.8v61.8h-27.6c-4.8,0-8.7,3.8-8.9,8.5h36.5h8.5h36.5c-0.2-4.7-4.1-8.5-8.9-8.5
			h-27.6v-61.8h18.8V330h8.5v-20.3h24.4v-8.5h-24.4H2323.1z"/>
	</g>
	<g>
		<path class="st0" d="M2539.3,296.3c-31-11.5-36.1-22.5-38-26.6c-0.3-0.7-0.6-1.3-1-1.9c-1.9-3.1-8.3-8.6-15-7.6
			c-3.6,0.5-8.5,3.1-11.2,12.2c-0.7,2.5-1.9,4.1-3.8,5c-7.1,3.7-22.8-2.2-33.2-6.1c-4-1.5-8.4,0.2-10.5,4
			c-3.8,6.9-9.5,23.2-4.9,54.7c0.6,4.4,4.4,7.7,8.7,7.7h24.2c4.4,0,8.1-3.6,8.3-8.1c9.2,4.8,21.6,10.5,30.4,10.5
			c6.7,0,20.5-0.4,33.8-0.8c11.8-0.3,22.9-0.6,29.1-0.7c7.5-0.1,22.1-2.7,23.7-12.2C2581.5,316.7,2568.5,307.1,2539.3,296.3z
			 M2571.5,324.8c-0.3,1.7-6.8,4.9-15.4,5c-6.3,0.1-17.4,0.4-29.2,0.7c-13.3,0.4-27,0.8-33.6,0.8c-5.6,0-15.5-3.6-27.2-9.8
			c-1.2-0.6-2.4-0.9-3.7-0.9c-1.4,0-2.9,0.4-4.2,1.2c-2.4,1.5-3.8,4.2-3.8,7.1v0.1h-24c-0.2,0-0.3-0.1-0.3-0.3
			c-4.4-30,1.2-44.3,3.8-49.1c0.1-0.1,0.2-0.1,0.3-0.1c16.1,6,30.2,10.6,39.8,5.7c4-2,6.7-5.5,8.1-10.3c0.6-2.1,2-5.8,4.3-6.1
			c2.6-0.4,6.1,2.7,6.7,3.7c0.1,0.1,0.3,0.6,0.5,1c2.6,5.5,8.6,18.4,42.8,31.1C2571.7,317.6,2571.5,324.8,2571.5,324.8z"/>
		<path class="st0" d="M2504.7,312.3c-1.1-0.4-2-0.7-2.7-1c-0.9-0.4-2.2-1-4.2-1.9c-2.1-1-4.6-0.1-5.6,2.1c-0.8,1.7-0.4,3.7,0.8,5
			c0.3,0.3,8.6,4.1,8.9,4.2c0.5,0.2,0.9,0.2,1.4,0.2c1.7,0,3.4-1.1,4-2.9C2508.1,315.6,2506.9,313.1,2504.7,312.3z"/>
		<path class="st0" d="M2544.5,317.6c-16.5,1.2-31.5-2.7-31.8-2.8c-2.3-0.6-4.6,0.8-5.1,3.1c-0.6,2.3,0.8,4.7,3,5.3
			c0.6,0.2,12.5,3.3,27.4,3.3c2.3,0,4.7-0.1,7.1-0.2c2.3-0.2,4.1-2.3,3.9-4.7S2546.8,317.4,2544.5,317.6z"/>
	</g>
	<path class="st0" d="M2749.3,256.6c-5.3-2.6-10.6-4.6-14.4-5.9l1.5-14c0.3-2.3-0.9-4.4-3-5.5c-0.1,0-0.2-0.1-0.3-0.1
		c-18-12.9-35.4-12.2-47-9.3c-12.5,3.2-20.7,9.4-21,9.7c-1.2,0.9-1.7,2.4-1.5,3.8c-0.1,0.4-0.1,0.9,0,1.4l1.5,13.4
		c-10.2,3.4-36.1,13.5-36.1,28.8v83.8c0,9.4,7.6,17.1,17,17.1h33.2c0,0,0,0,0,0c0,0,0,0,0,0h40.5c0.4,0.2,0.9,0.3,1.4,0.3
		c0.3,0,0.6,0,0.8-0.1c0.2,0,0.4-0.1,0.5-0.2h31.6c9.4,0,17-7.7,17-17.1v-83.8C2771,270.9,2763.9,263.7,2749.3,256.6z M2700.1,295.5
		l15.9,76.1h-31.9L2700.1,295.5z M2700.2,294.6l-13.2-16.1l10.4-8l2.4-1.9l13.2,10.1L2700.2,294.6z M2678.8,274.6
		c-0.8,0.6-1.5,0.4-1.9,0.2c-0.4-0.2-1-0.6-1.1-1.5l-3.3-30.2l21.3,20.1l-4.4,3.4L2678.8,274.6z M2724.2,273.3
		c-0.1,1-0.8,1.4-1.1,1.5c-0.4,0.2-1.1,0.4-1.9-0.2l-14.9-11.4l21.3-20.1L2724.2,273.3z M2724.3,235l-24.3,22.9l-24.7-23.3
		C2684.3,229.7,2703.5,222.6,2724.3,235z M2637.1,362.6v-83.8c0-8.1,17.1-16.4,28.9-20.5l1.7,15.9c0.4,3.6,2.6,6.7,6,8.1
		c1.3,0.6,2.6,0.8,4,0.8c0.8,0,1.6-0.1,2.4-0.3l11.4,14l-15.6,74.8H2646C2641.1,371.6,2637.1,367.6,2637.1,362.6z M2762.9,362.6
		c0,4.9-4,9-8.9,9h-29.7l-15.6-74.5l11.6-14.2c0.7,0.1,1.4,0.2,2.1,0.2c1.3,0,2.7-0.3,4-0.8c3.4-1.4,5.6-4.5,6-8.1l1.7-15.2
		c13.5,4.9,29,13.1,29,19.8V362.6z"/>
	<g>
		<path class="st0" d="M2946,301.5v-19.9h-33.5v19.9c-0.4,0.1-0.7,0.1-1.1,0.2v-13.7c0-13.7-10.6-24.9-24-25.8v-19.7h-12.8v-14.5h24
			V220h-47.9v8.1h16v14.5H2854v19.7c-13.3,0.8-24,12.1-24,25.8V380h58.6h5.1h76.3v-49.2C2970,316.3,2959.7,304.1,2946,301.5z
			 M2920.5,289.6h17.6v11.3h-17.6V289.6z M2861.9,250.7h17.6v11.3h-17.6V250.7z M2838,371.9v-83.9c0-9.8,7.9-17.8,17.6-17.8h30.3
			c9.7,0,17.6,8,17.6,17.8v16.8c-4.2,2.4-7.8,5.9-10.4,10.1v-14.8c0-4-3.2-7.3-7.2-7.3h-30.3c-4,0-7.2,3.3-7.2,7.3v41.9
			c0,4,3.2,7.3,7.2,7.3h30.3c0.9,0,1.8-0.2,2.7-0.5v23.1H2838z M2885.1,300.9v40.3h-28.7v-40.3H2885.1z M2962,371.9h-65.5v-41.1
			c0-12,9.7-21.8,21.6-21.8h22.4c11.9,0,21.6,9.8,21.6,21.8V371.9z"/>
		<path class="st0" d="M2929.3,318.7c-11.9,0-21.6,9.8-21.6,21.8c0,12,9.7,21.8,21.6,21.8s21.6-9.8,21.6-21.8
			C2950.8,328.5,2941.2,318.7,2929.3,318.7z M2929.3,354.2c-7.5,0-13.6-6.2-13.6-13.7s6.1-13.7,13.6-13.7s13.6,6.2,13.6,13.7
			S2936.8,354.2,2929.3,354.2z"/>
	</g>
	<g>
		<path class="st0" d="M3150.4,220h-100.8c-8.1,0-14.6,6.5-14.6,14.6v130.9c0,8,6.6,14.6,14.6,14.6h100.8c8.1,0,14.6-6.5,14.6-14.6
			V234.6C3165,226.5,3158.4,220,3150.4,220z M3156.6,365.4c0,3.4-2.8,6.1-6.2,6.1h-100.8c-3.4,0-6.2-2.8-6.2-6.1v-95.1h113.1V365.4z
			 M3156.6,261.9h-113.1v-27.4c0-3.4,2.8-6.1,6.2-6.1h100.8c3.4,0,6.2,2.8,6.2,6.1V261.9z"/>
		<path class="st0" d="M3079.8,235h-20.9c-5.4,0-9.8,4.4-9.8,9.8v0.6c0,5.4,4.4,9.8,9.8,9.8h20.9c5.4,0,9.8-4.4,9.8-9.8v-0.6
			C3089.6,239.4,3085.2,235,3079.8,235z M3082.8,245.4c0,1.7-1.4,3.1-3.1,3.1h-20.9c-1.7,0-3.1-1.4-3.1-3.1v-0.6
			c0-1.7,1.4-3.1,3.1-3.1h20.9c1.7,0,3.1,1.4,3.1,3.1V245.4z"/>
		<path class="st0" d="M3100,356.9c16,0,29.6-10.7,34-25.3h3.1c5.6,0,10.1-4.5,10.1-10.1s-4.5-10.1-10.1-10.1h-3.1
			c-4.4-14.6-17.9-25.3-34-25.3c-19.6,0-35.5,15.9-35.5,35.4S3080.4,356.9,3100,356.9z M3135.3,318.2h1.8c1.9,0,3.4,1.5,3.4,3.4
			s-1.5,3.4-3.4,3.4h-1.8c0.1-1.1,0.2-2.2,0.2-3.4S3135.4,319.3,3135.3,318.2z M3100,292.9c15.8,0,28.7,12.8,28.7,28.6
			s-12.9,28.6-28.7,28.6s-28.7-12.8-28.7-28.6S3084.2,292.9,3100,292.9z"/>
		<path class="st0" d="M3100,343.5c12.1,0,21.9-9.8,21.9-21.9s-9.8-21.9-21.9-21.9s-21.9,9.8-21.9,21.9S3087.9,343.5,3100,343.5z
			 M3100,306.4c8.4,0,15.2,6.8,15.2,15.2c0,8.4-6.8,15.2-15.2,15.2s-15.2-6.8-15.2-15.2C3084.8,313.2,3091.6,306.4,3100,306.4z"/>
	</g>
	<g>
		<path class="st0" d="M3296.9,277.4h-2.2v-14.9c0-14.9-6.4-26.8-18.5-34.5c-9.3-5.8-19.1-7.6-22.9-8.1c-1.3-0.2-2.7,0.2-3.7,1.1
			c-1,0.9-1.6,2.1-1.6,3.4v52.9h-2.2c-3.8,0-6.8,3-6.8,6.7v89.1c0,3.7,3.1,6.7,6.8,6.7h51.1c3.8,0,6.8-3,6.8-6.7v-89.1
			C3303.8,280.5,3300.7,277.4,3296.9,277.4z M3255.6,227.9c9.5,1.9,31.6,9,31.6,34.6v14.9h-31.6V227.9z M3296.2,284.9v17.7h-49.7
			v-17.7H3296.2z M3246.5,372.6V310h49.7v62.6H3246.5z"/>
		<path class="st0" d="M3355.2,316.1h-38.1c-3.2,0-5.8,2.6-5.8,5.7v52.5c0,3.1,2.6,5.7,5.8,5.7h38.1c3.2,0,5.8-2.6,5.8-5.7v-52.5
			C3361,318.6,3358.4,316.1,3355.2,316.1z M3353.5,372.6h-34.6v-49.1h34.6V372.6z"/>
	</g>
	<path class="st0" d="M3568.9,284.7c-1.3,0-2.5,0.2-3.7,0.7v-9.1c0-10.1-8-18.3-17.8-18.3s-17.8,8.2-17.8,18.3v8.4h-59.3v-8.4
		c0-10.1-8-18.3-17.8-18.3s-17.8,8.2-17.8,18.3v9.1c-1.2-0.4-2.4-0.7-3.7-0.7c-6.1,0-11.1,5.1-11.1,11.5v7.6c0,6.3,5,11.5,11.1,11.5
		c1.3,0,2.5-0.2,3.7-0.7v9.1c0,10.1,8,18.3,17.8,18.3s17.8-8.2,17.8-18.3v-8.4h59.3v8.4c0,10.1,8,18.3,17.8,18.3s17.8-8.2,17.8-18.3
		v-9.1c1.2,0.4,2.4,0.7,3.7,0.7c6.1,0,11.1-5.1,11.1-11.5v-7.6C3580,289.9,3575,284.7,3568.9,284.7z M3431.1,307.6
		c-2,0-3.7-1.7-3.7-3.8v-7.6c0-2.1,1.7-3.8,3.7-3.8c2,0,3.7,1.7,3.7,3.8v7.6C3434.8,305.9,3433.2,307.6,3431.1,307.6z M3463,323.7
		c0,5.9-4.7,10.7-10.4,10.7s-10.4-4.8-10.4-10.7v-19.9v-7.6v-19.9c0-5.9,4.7-10.7,10.4-10.7s10.4,4.8,10.4,10.7V323.7z
		 M3470.4,307.6v-15.3h59.3v15.3H3470.4z M3557.8,323.7c0,5.9-4.7,10.7-10.4,10.7s-10.4-4.8-10.4-10.7v-47.3
		c0-5.9,4.7-10.7,10.4-10.7s10.4,4.8,10.4,10.7v19.9v7.6V323.7z M3572.6,303.8c0,2.1-1.7,3.8-3.7,3.8c-2,0-3.7-1.7-3.7-3.8v-7.6
		c0-2.1,1.7-3.8,3.7-3.8c2,0,3.7,1.7,3.7,3.8V303.8z"/>
	<g>
		<path class="st0" d="M3775.8,283.6c-2.3,0-4.2,1.9-4.2,4.2v63.6c-8.7-6.6-24.6-16.3-43.2-16.3c-10.3,0-19.2,6.1-19.2,6.1l-9.2,6.8
			l-9.7-6.1c-6.7-4.2-13.1-6.3-19.2-6.3c-18.2,0-33.9,11.1-42.7,18.9V287c0-2.3-1.9-4.2-4.2-4.2c-2.3,0-4.2,1.9-4.2,4.2v77.8
			c0,1.8,1.1,3.4,2.8,4c0.5,0.2,1,0.3,1.5,0.3c1.2,0,2.4-0.5,3.2-1.5c0.2-0.2,20.1-23.4,43.7-23.4c4.5,0,9.4,1.7,14.7,5l12.1,7.6
			c1.5,0.9,3.3,0.9,4.7-0.2l11.5-8.4c0.6-0.4,7.2-4.5,14.3-4.5c24.2,0,44.2,19.7,44.4,19.9c1.2,1.2,3,1.6,4.6,0.9
			c1.6-0.7,2.6-2.2,2.6-3.9v-72.8C3780,285.5,3778.1,283.6,3775.8,283.6z"/>
		<path class="st0" d="M3643.5,331.5c1.5,0.7,3.3,0.4,4.5-0.7c0.8-0.7,20.3-17.6,48.9,0.4c0.2,0.1,0.3,0.2,0.5,0.3c0,0,0,0,0.1,0
			c0.2,0.1,0.5,0.2,0.7,0.2c0.1,0,0.1,0,0.2,0c0.2,0,0.4,0.1,0.6,0.1c0,0,0.1,0,0.1,0c0,0,0,0,0,0c0,0,0,0,0.1,0
			c0.3,0,0.5,0,0.7-0.1c0.1,0,0.1,0,0.2,0c0.2,0,0.4-0.1,0.6-0.2c0.1,0,0.2-0.1,0.2-0.1c0.2-0.1,0.3-0.2,0.5-0.2
			c0.1,0,0.1-0.1,0.2-0.1c0,0,0.1,0,0.1-0.1c0.3-0.2,26.4-19,50.4-0.1c0.8,0.6,1.7,0.9,2.6,0.9c0.6,0,1.3-0.1,1.8-0.4
			c1.4-0.7,2.4-2.2,2.4-3.8V252c0-0.9-0.3-1.7-0.7-2.4c-0.5-0.7-12.4-17.9-30.1-18.5c-9.8-0.3-19.2,4.5-28,14.2
			c-4.7-5.4-14-13.8-26.3-14.3c-11.2-0.5-21.9,5.7-31.9,18.4c-0.6,0.7-0.9,1.7-0.9,2.6v75.6C3641.1,329.3,3642,330.9,3643.5,331.5z
			 M3727.8,239.6c11.4,0.3,20.2,10.6,22.8,13.9v66.4c-18.8-10.4-37.4-4.2-47,0.5l0.7-66.8C3711.9,244.1,3719.8,239.4,3727.8,239.6z
			 M3649.5,253.5c7.9-9.6,15.9-14.4,24-14.1c11.2,0.4,19.9,10.7,22.3,13.9l-0.7,67.1c-8.8-4.4-16.8-5.9-23.8-5.9
			c-9.3,0-16.8,2.7-21.8,5.4V253.5z"/>
	</g>
	<g>
		<path class="st0" d="M3966.9,260.5h-6.2V230c0-5.5-4.5-10-10.1-10h-101.1c-5.6,0-10.1,4.5-10.1,10v30.5h-6.2
			c-5.6,0-10.1,4.5-10.1,10.1v60.9c0,5.6,4.5,10.1,10.1,10.1h19.4v33c0,3,2.4,5.5,5.4,5.5h84c3,0,5.4-2.4,5.4-5.5v-33h19.4
			c5.6,0,10.1-4.5,10.1-10.1v-60.9C3977,265,3972.5,260.5,3966.9,260.5z M3847.1,230c0-1.2,1.1-2.2,2.4-2.2h101.1
			c1.3,0,2.4,1,2.4,2.2v30.5h-105.8V230z M3939.7,372.2h-79.3v-70.1h79.3V372.2z M3969.2,331.5c0,1.2-1.1,2.3-2.4,2.3h-19.4v-34
			c0-3-2.4-5.5-5.4-5.5h-84c-3,0-5.4,2.4-5.4,5.5v34h-19.4c-1.3,0-2.4-1.1-2.4-2.3v-60.9c0-1.2,1.1-2.3,2.4-2.3h133.7
			c1.3,0,2.4,1.1,2.4,2.3V331.5z"/>
		<path class="st0" d="M3875.1,326.6h49.8c2.1,0,3.9-1.7,3.9-3.9s-1.7-3.9-3.9-3.9h-49.8c-2.1,0-3.9,1.7-3.9,3.9
			S3873,326.6,3875.1,326.6z"/>
		<path class="st0" d="M3875.1,354.4h49.8c2.1,0,3.9-1.7,3.9-3.9s-1.7-3.9-3.9-3.9h-49.8c-2.1,0-3.9,1.7-3.9,3.9
			S3873,354.4,3875.1,354.4z"/>
		<ellipse class="st0" cx="3844.6" cy="281.6" rx="7" ry="7"/>
	</g>
</g>
</svg>
