<?xml version="1.0" encoding="utf-8"?>
<!-- Generator: Adobe Illustrator 21.0.0, SVG Export Plug-In . SVG Version: 6.00 Build 0)  -->
<svg version="1.1" xmlns="http://www.w3.org/2000/svg" xmlns:xlink="http://www.w3.org/1999/xlink" x="0px" y="0px"
	 viewBox="0 0 2000 2000" style="enable-background:new 0 0 2000 2000;" xml:space="preserve">
<style type="text/css">
	.st0{opacity:0.51;fill:#FFB164;}
	.st1{opacity:0.57;fill:#FF0000;}
	.st2{fill:none;stroke:#000000;stroke-width:8;stroke-miterlimit:10;}
	.st3{fill:#FFFCF3;}
	.st4{fill:#FAFCFF;}
	.st5{fill:none;stroke:#000000;stroke-width:10;stroke-miterlimit:10;}
	.st6{fill:#FF1800;}
	.st7{fill:#FFFFFF;}
	.st8{fill:#FFCA08;}
	.st9{fill:#FF5A00;}
	.st10{fill:url(#SVGID_1_);}
	.st11{fill:url(#SVGID_2_);}
	.st12{fill:url(#SVGID_3_);}
	.st13{fill:url(#SVGID_4_);}
	.st14{fill:url(#SVGID_5_);}
	.st15{fill:url(#SVGID_6_);}
	.st16{fill:#FF1414;}
	.st17{fill:url(#SVGID_7_);}
	.st18{fill:url(#SVGID_8_);}
	.st19{fill:url(#SVGID_9_);}
	.st20{fill:#005CFF;}
	.st21{fill:url(#SVGID_10_);}
	.st22{fill:url(#SVGID_11_);}
	.st23{fill:url(#SVGID_12_);}
	.st24{fill:url(#SVGID_13_);}
	.st25{fill:url(#SVGID_14_);}
	.st26{fill:url(#SVGID_15_);}
	.st27{fill:#FFFAF8;}
	.st28{fill:url(#SVGID_16_);}
	.st29{fill:url(#SVGID_17_);}
	.st30{fill:#7F7F7F;}
	.st31{fill:url(#SVGID_18_);}
	.st32{fill:url(#SVGID_19_);}
	.st33{fill:url(#SVGID_20_);}
	.st34{fill:url(#SVGID_21_);}
	.st35{fill:url(#SVGID_22_);}
	.st36{fill:url(#SVGID_23_);}
	.st37{fill:url(#SVGID_24_);}
	.st38{fill:url(#SVGID_25_);}
	.st39{fill:url(#SVGID_26_);}
	.st40{fill:url(#SVGID_27_);}
	.st41{fill:url(#SVGID_28_);}
	.st42{fill:url(#SVGID_29_);}
	.st43{fill:url(#SVGID_30_);}
	.st44{fill:url(#SVGID_31_);}
	.st45{fill:url(#SVGID_32_);}
	.st46{fill:url(#SVGID_33_);}
	.st47{fill:url(#SVGID_34_);}
	.st48{fill:url(#SVGID_35_);}
	.st49{fill:url(#SVGID_36_);}
	.st50{fill:url(#SVGID_37_);}
	.st51{fill:url(#SVGID_38_);}
	.st52{fill:url(#SVGID_39_);}
	.st53{fill:url(#SVGID_40_);}
	.st54{fill:url(#SVGID_41_);}
	.st55{fill:url(#SVGID_42_);}
	.st56{fill:url(#SVGID_43_);}
	.st57{fill:url(#SVGID_44_);}
	.st58{fill:url(#SVGID_45_);}
	.st59{fill:url(#SVGID_46_);}
	.st60{fill:url(#SVGID_47_);}
	.st61{fill:url(#SVGID_48_);}
	.st62{fill:none;stroke:#000000;stroke-width:16;stroke-miterlimit:10;}
	.st63{fill:url(#SVGID_49_);}
	.st64{fill:url(#SVGID_50_);}
	.st65{fill:url(#SVGID_51_);}
	.st66{fill:none;}
	.st67{fill:url(#SVGID_52_);}
	.st68{fill:url(#SVGID_53_);}
	.st69{fill:url(#SVGID_54_);}
	.st70{fill:url(#SVGID_55_);}
	.st71{fill:url(#SVGID_56_);}
	.st72{fill:url(#SVGID_57_);}
	.st73{fill:url(#SVGID_58_);}
	.st74{fill:url(#SVGID_59_);}
	.st75{fill:url(#SVGID_60_);}
	.st76{fill:#FAFEFF;}
	.st77{fill:url(#SVGID_61_);}
	.st78{fill:url(#SVGID_62_);}
	.st79{fill:url(#SVGID_63_);}
	.st80{fill:url(#SVGID_64_);}
	.st81{fill:url(#SVGID_65_);}
	.st82{fill:url(#SVGID_66_);}
	.st83{fill:url(#SVGID_67_);}
	.st84{fill:url(#SVGID_68_);}
	.st85{fill:url(#SVGID_69_);}
	.st86{fill:url(#SVGID_70_);}
	.st87{fill:url(#SVGID_71_);}
	.st88{fill:url(#SVGID_72_);}
	.st89{fill:url(#SVGID_73_);}
	.st90{fill:url(#SVGID_74_);}
	.st91{fill:url(#SVGID_75_);}
	.st92{fill:url(#SVGID_76_);}
	.st93{fill:url(#SVGID_77_);}
	.st94{fill:url(#SVGID_78_);}
	.st95{fill:url(#SVGID_79_);}
	.st96{fill:url(#SVGID_80_);}
	.st97{fill:url(#SVGID_81_);}
	.st98{fill:url(#SVGID_82_);}
	.st99{fill:url(#SVGID_83_);}
	.st100{fill:url(#SVGID_84_);}
	.st101{fill:url(#SVGID_85_);}
	.st102{fill:url(#SVGID_86_);}
	.st103{fill:url(#SVGID_87_);}
	.st104{fill:url(#SVGID_88_);}
	.st105{fill:url(#SVGID_89_);}
	.st106{fill:url(#SVGID_90_);}
	.st107{fill:url(#SVGID_91_);}
	.st108{fill:url(#SVGID_92_);}
	.st109{fill:url(#SVGID_93_);}
	.st110{fill:url(#SVGID_94_);}
	.st111{fill:url(#SVGID_95_);}
	.st112{fill:url(#SVGID_96_);}
	.st113{fill:url(#SVGID_97_);}
	.st114{fill:url(#SVGID_98_);}
	.st115{fill:url(#SVGID_99_);}
	.st116{fill:url(#SVGID_100_);}
	.st117{fill:url(#SVGID_101_);}
	.st118{fill:url(#SVGID_102_);}
	.st119{fill:url(#SVGID_103_);}
	.st120{fill:url(#SVGID_104_);}
	.st121{fill:url(#SVGID_105_);}
	.st122{fill:url(#SVGID_106_);}
	.st123{fill:url(#SVGID_107_);}
	.st124{fill:url(#SVGID_108_);}
	.st125{fill:url(#SVGID_109_);}
	.st126{fill:url(#SVGID_110_);}
	.st127{fill:url(#SVGID_111_);}
	.st128{fill:url(#SVGID_112_);}
	.st129{fill:url(#SVGID_113_);}
	.st130{fill:url(#SVGID_114_);}
	.st131{fill:url(#SVGID_115_);}
	.st132{fill:url(#SVGID_116_);}
	.st133{fill:url(#SVGID_117_);}
	.st134{fill:url(#SVGID_118_);}
	.st135{fill:url(#SVGID_119_);}
	.st136{fill:url(#SVGID_120_);}
	.st137{fill:url(#SVGID_121_);}
	.st138{fill:url(#SVGID_122_);}
	.st139{fill:url(#SVGID_123_);}
	.st140{fill:url(#SVGID_124_);}
	.st141{fill:url(#SVGID_125_);}
	.st142{fill:url(#SVGID_126_);}
	.st143{fill:url(#SVGID_127_);}
	.st144{fill:url(#SVGID_128_);}
	.st145{fill:url(#SVGID_129_);}
	.st146{fill:url(#SVGID_130_);}
	.st147{fill:url(#SVGID_131_);}
	.st148{fill:url(#SVGID_132_);}
	.st149{fill:#F2F2F2;}
	.st150{fill:url(#SVGID_133_);}
	.st151{fill:url(#SVGID_134_);}
	.st152{fill:url(#SVGID_135_);}
	.st153{fill:url(#SVGID_136_);}
	.st154{fill:url(#SVGID_137_);}
	.st155{fill:url(#SVGID_138_);}
	.st156{fill:url(#SVGID_139_);}
	.st157{fill:url(#SVGID_140_);}
	.st158{fill:url(#SVGID_141_);}
	.st159{fill:url(#SVGID_142_);}
	.st160{fill:url(#SVGID_143_);}
	.st161{fill:#3199FF;}
	.st162{fill:url(#SVGID_144_);}
	.st163{fill:url(#SVGID_145_);}
	.st164{fill:none;stroke:#000000;stroke-width:10;stroke-linecap:round;stroke-miterlimit:10;}
	.st165{clip-path:url(#SVGID_147_);fill:#3199FF;}
	.st166{clip-path:url(#SVGID_147_);fill:#3198FF;}
	.st167{clip-path:url(#SVGID_147_);fill:#3197FF;}
	.st168{clip-path:url(#SVGID_147_);fill:#3196FF;}
	.st169{clip-path:url(#SVGID_147_);fill:#3195FF;}
	.st170{clip-path:url(#SVGID_147_);fill:#3194FF;}
	.st171{clip-path:url(#SVGID_147_);fill:#3193FF;}
	.st172{clip-path:url(#SVGID_147_);fill:#3192FF;}
	.st173{clip-path:url(#SVGID_147_);fill:#3191FF;}
	.st174{clip-path:url(#SVGID_147_);fill:#318FFF;}
	.st175{clip-path:url(#SVGID_147_);fill:#318EFF;}
	.st176{clip-path:url(#SVGID_147_);fill:#318DFF;}
	.st177{clip-path:url(#SVGID_147_);fill:#318CFF;}
	.st178{clip-path:url(#SVGID_147_);fill:#318BFF;}
	.st179{clip-path:url(#SVGID_147_);fill:#318AFF;}
	.st180{clip-path:url(#SVGID_147_);fill:#3189FF;}
	.st181{clip-path:url(#SVGID_147_);fill:#3188FF;}
	.st182{clip-path:url(#SVGID_149_);fill:#3199FF;}
	.st183{clip-path:url(#SVGID_149_);fill:#3198FF;}
	.st184{clip-path:url(#SVGID_149_);fill:#3197FF;}
	.st185{clip-path:url(#SVGID_149_);fill:#3196FF;}
	.st186{clip-path:url(#SVGID_149_);fill:#3195FF;}
	.st187{clip-path:url(#SVGID_149_);fill:#3194FF;}
	.st188{clip-path:url(#SVGID_149_);fill:#3193FF;}
	.st189{clip-path:url(#SVGID_149_);fill:#3192FF;}
	.st190{clip-path:url(#SVGID_149_);fill:#3191FF;}
	.st191{clip-path:url(#SVGID_149_);fill:#318FFF;}
	.st192{clip-path:url(#SVGID_149_);fill:#318EFF;}
	.st193{clip-path:url(#SVGID_149_);fill:#318DFF;}
	.st194{clip-path:url(#SVGID_149_);fill:#318CFF;}
	.st195{clip-path:url(#SVGID_149_);fill:#318BFF;}
	.st196{clip-path:url(#SVGID_149_);fill:#318AFF;}
	.st197{clip-path:url(#SVGID_149_);fill:#3189FF;}
	.st198{clip-path:url(#SVGID_149_);fill:#3188FF;}
	.st199{fill:none;stroke:#000000;stroke-width:12;stroke-linecap:round;stroke-miterlimit:10;}
	.st200{fill:#FAFDFF;}
	.st201{fill:#B2B2B2;}
	.st202{fill:none;stroke:#000000;stroke-width:12;stroke-miterlimit:10;}
	.st203{opacity:0.49;}
	.st204{fill:url(#SVGID_150_);}
	.st205{fill:url(#SVGID_151_);}
	.st206{fill:url(#SVGID_152_);}
	.st207{fill:none;stroke:#000000;stroke-width:8;stroke-linecap:round;stroke-miterlimit:10;}
	.st208{fill:#FCFCFC;}
	.st209{fill:none;stroke:#000000;stroke-width:16;stroke-linecap:round;stroke-miterlimit:10;}
	.st210{fill:#0B0A0A;}
	.st211{fill:url(#SVGID_153_);}
	.st212{fill:url(#SVGID_154_);}
	.st213{fill:url(#SVGID_155_);}
	.st214{fill:url(#SVGID_156_);}
	.st215{fill:url(#SVGID_157_);}
	.st216{fill:url(#SVGID_158_);}
	.st217{fill:url(#SVGID_159_);}
	.st218{fill:url(#SVGID_160_);}
	.st219{fill:url(#SVGID_161_);}
	.st220{fill:#808080;}
	.st221{fill:none;stroke:#000000;stroke-width:8;stroke-linecap:round;stroke-linejoin:round;stroke-miterlimit:10;}
	.st222{fill:none;stroke:#000000;stroke-width:10;stroke-linecap:round;stroke-linejoin:round;stroke-miterlimit:10;}
	.st223{fill:none;stroke:#000000;stroke-width:10;stroke-linejoin:round;stroke-miterlimit:10;}
	.st224{fill:none;stroke:#7F7F7F;stroke-width:10;stroke-miterlimit:10;}
	.st225{fill:none;stroke:#7F7F7F;stroke-width:10;stroke-linejoin:round;stroke-miterlimit:10;}
	.st226{fill:url(#SVGID_162_);}
	.st227{fill:url(#SVGID_163_);}
	.st228{fill:url(#SVGID_164_);}
	.st229{fill:url(#SVGID_165_);}
	.st230{fill:url(#SVGID_166_);}
	.st231{fill:url(#SVGID_167_);}
	.st232{fill:url(#SVGID_168_);}
	.st233{fill:url(#SVGID_169_);}
	.st234{fill:url(#SVGID_170_);}
	.st235{fill:url(#SVGID_171_);}
	.st236{fill:url(#SVGID_172_);}
	.st237{fill:url(#SVGID_173_);}
	.st238{fill:url(#SVGID_174_);}
	.st239{fill:url(#SVGID_175_);}
	.st240{fill:url(#SVGID_176_);}
	.st241{fill:url(#SVGID_177_);}
	.st242{fill:url(#SVGID_178_);}
	.st243{fill:url(#SVGID_179_);}
	.st244{fill:url(#SVGID_180_);}
	.st245{fill:url(#SVGID_181_);}
	.st246{fill:url(#SVGID_182_);}
	.st247{fill:url(#SVGID_183_);}
	.st248{fill:url(#SVGID_184_);}
	.st249{fill:url(#SVGID_185_);}
	.st250{fill:url(#SVGID_186_);}
	.st251{fill:url(#SVGID_187_);}
	.st252{fill:url(#SVGID_188_);}
	.st253{fill:url(#SVGID_189_);}
	.st254{fill:url(#SVGID_190_);}
	.st255{fill:url(#SVGID_191_);}
	.st256{fill:url(#SVGID_192_);}
	.st257{fill:url(#SVGID_193_);}
	.st258{fill:url(#SVGID_194_);}
	.st259{fill:url(#SVGID_195_);}
	.st260{fill:url(#SVGID_196_);}
	.st261{fill:url(#SVGID_197_);}
	.st262{fill:url(#SVGID_198_);}
	.st263{fill:url(#SVGID_199_);}
	.st264{fill:#318CFF;}
	.st265{fill:#E00000;}
	.st266{fill:#00C412;}
	.st267{fill:none;stroke:#FFFFFF;stroke-width:8;stroke-linecap:round;stroke-miterlimit:10;}
	.st268{fill:none;stroke:#FFFFFF;stroke-width:8;stroke-linecap:round;stroke-linejoin:round;stroke-miterlimit:10;}
	.st269{fill:#A9D6FF;}
	.st270{fill-rule:evenodd;clip-rule:evenodd;fill:url(#SVGID_200_);}
	.st271{fill-rule:evenodd;clip-rule:evenodd;fill:#FFFFFF;}
	.st272{fill-rule:evenodd;clip-rule:evenodd;fill:#CCEAFF;}
	.st273{fill:#CCEAFF;}
	.st274{fill:#42A001;}
	.st275{fill:#CCCCCC;}
	.st276{fill:#FF7D7D;}
	.st277{fill:#009BF5;}
	.st278{fill:#3184B4;}
	.st279{fill:#F1F1F1;}
	.st280{fill:#D45E5E;}
	.st281{fill:#F45656;}
	.st282{fill:#F9EA61;}
	.st283{fill:#FFAC09;}
	.st284{fill:#FFBE31;}
	.st285{fill:#FFD131;}
	.st286{fill:#DEDEDE;}
	.st287{fill:#BBBBBB;}
	.st288{fill:#CFCFCF;}
	.st289{fill:#FAC77D;}
	.st290{fill:#E1963F;}
	.st291{fill:#F2AB57;}
	.st292{fill:#F8C171;}
	.st293{fill:#F4F4F4;stroke:#CCCCCC;stroke-width:12;stroke-miterlimit:10;}
	.st294{fill:none;stroke:#000000;stroke-width:4;stroke-miterlimit:10;}
	.st295{fill:none;stroke:#FFFFFF;stroke-width:4;stroke-miterlimit:10;}
	.st296{fill:url(#SVGID_201_);}
	.st297{fill:url(#SVGID_202_);}
	.st298{fill:url(#SVGID_203_);}
	.st299{fill:url(#SVGID_204_);}
</style>
<g id="图层_1">
	<path class="st30" d="M357.1,39.7c-26.2-26.3-68.9-26.3-95.1,0s-26.2,69.1,0,95.4l-39.2,39.3l5.6,5.6l53.6-53.8
		c8.1,5.8,17.9,8.9,28.1,8.8l-0.1-7.9c-10.8,0.1-20.9-4-28.5-11.6c-15.4-15.5-15.4-40.6,0-56.1s40.5-15.5,56,0
		c10,10.1,10,26.4,0,36.5c-10,10.1-26.3,10.1-36.4,0c-4.6-4.6-4.6-12.2,0-16.8c4.6-4.6,12.2-4.6,16.8,0l5.6-5.6
		c-7.7-7.7-20.3-7.7-28,0c-7.7,7.7-7.7,20.3,0,28.1c13.1,13.1,34.5,13.1,47.6,0c13.1-13.1,13.1-34.5,0-47.7
		c-18.5-18.6-48.6-18.6-67.2,0c-18.5,18.6-18.5,48.8,0,67.3l-8.4,8.4c-23.1-23.2-23.1-61,0-84.2s60.8-23.2,84,0s23.1,61,0,84.2
		c-16.1,16.1-39.1,21-59.5,14.8l-6.2,6.2c24,9,52.1,3.9,71.3-15.4C383.3,108.8,383.3,66,357.1,39.7z"/>
	<g>
		<path class="st30" d="M174.5,56.3H56.3c-2.9,0-5.2-2.4-5.2-5.2v0c0-2.9,2.4-5.2,5.2-5.2h118.2c2.9,0,5.3,2.4,5.3,5.2v0
			C179.8,53.9,177.4,56.3,174.5,56.3z"/>
		<ellipse class="st30" cx="26.7" cy="51" rx="7" ry="7"/>
		<path class="st30" d="M174.5,105.3H56.3c-2.9,0-5.2-2.4-5.2-5.2v0c0-2.9,2.4-5.2,5.2-5.2h118.2c2.9,0,5.3,2.4,5.3,5.2v0
			C179.8,102.9,177.4,105.3,174.5,105.3z"/>
		<ellipse class="st30" cx="26.7" cy="100" rx="7" ry="7"/>
		<path class="st30" d="M174.5,154.3H56.3c-2.9,0-5.2-2.4-5.2-5.3l0,0c0-2.9,2.4-5.3,5.2-5.3h118.2c2.9,0,5.3,2.4,5.3,5.3l0,0
			C179.8,151.9,177.4,154.3,174.5,154.3z"/>
		<ellipse class="st30" cx="26.7" cy="149" rx="7" ry="7"/>
	</g>
	<g>
		<path class="st30" d="M564.7,76.9c-5.6-9.3-14.3-15.8-23.9-17.9c-11.2-2.5-20.6,2.3-28.2,6.1c-2.6,1.3-5.1,2.6-7.4,3.4
			c0-7.5,1.7-23.4,9-32c3.2-3.7,7.2-5.8,12.2-6.1c2.2-0.2,3.8-2.1,3.7-4.3c-0.2-2.2-2.1-3.8-4.3-3.7c-7.1,0.6-13.9,4.4-18.4,9.7
			c-8.9,10.5-10.1,27.4-10.1,36.1c-0.6-0.3-1.3-0.7-2.1-1.2c-4.6-2.7-11.6-6.9-29.9-8.7c-12.1-1.2-21.5,2.2-28,10
			c-12.1,14.5-10.8,40.6-6,58.6c10.5,39.1,41.9,53,67.8,53c15.8,0,30.4-4.4,42.1-12.6c13.5-9.5,22.8-23.8,27.7-42.3
			C575.2,101.3,570.1,85.7,564.7,76.9z M561.2,123c-11.7,44.2-47.3,49-62.1,49c-11.1,0-48.4-3.4-60.1-47.1
			c-4.7-17.4-5.2-40,4.4-51.4c4.2-5,9.9-7.4,17.4-7.4c1.2,0,2.5,0.1,3.8,0.2c16.5,1.6,22.4,5.1,26.6,7.6c3,1.8,5.7,3.4,10.3,3.4
			c4.9,0,9.7-2.4,14.8-5c7.1-3.6,14.4-7.3,22.9-5.5c7.5,1.6,14.3,6.8,18.8,14.2C562.5,88.6,566.8,102,561.2,123z"/>
		<path class="st30" d="M464.8,49.1c5.4,3.7,11.1,6.5,16,7.7c3.3,0.8,5.8,0.9,7.8,0.5c2.8-0.5,4.4-1.9,5.4-3.3
			c4.8-7.1-4.4-18.3-15.1-25.6c-10.7-7.3-24.4-12-29.2-4.9C444.8,30.6,454.1,41.8,464.8,49.1z M474.4,35c9.3,6.4,12.8,12.6,13,14.4
			c-1.8,0.6-8.8-0.6-18.1-6.9c-9.3-6.4-12.8-12.6-13-14.4C458.1,27.5,465.1,28.7,474.4,35z"/>
		<path class="st30" d="M491.3,145.6c-0.3,0-26.2-3.2-31.5-35.6c-0.4-2.2-2.4-3.7-4.6-3.3c-2.2,0.4-3.6,2.4-3.3,4.6
			c3.2,19.9,13.4,30.3,21.4,35.5c8.7,5.7,16.7,6.7,17,6.7c0.1,0,0.3,0,0.4,0c2,0,3.7-1.5,3.9-3.6
			C495.1,147.9,493.5,145.9,491.3,145.6z"/>
	</g>
	<g>
		<path class="st30" d="M687.4,169c-1.2,0-2.2-0.1-3.2-0.2c-0.3,0-0.6,0-0.9-0.1c-0.7,0-2.4-0.1-4.7-0.3
			c-12.5-0.7-41.8-2.4-49.3-3.8c-6.6-1.2-10.2-6.3-9.4-13.4c0.1-1.1,0.2-2.3,0.3-3.4c0.8-13.5,10.2-23.5,26.5-27.9
			c4.3-1.2,9-1.7,14.4-1.5c10.7,0.4,17.6-6.4,20-9.3c1.1-1.3,2.3-2.6,3.8-4.3l66.5-71.2c2.7-2.9,7-3.6,10.4-1.7
			c21.7,12.1,21,41.3,12.2,57.6c-7.3,13.6-8.1,34.2-8.2,35.3v34.3c0,3.8-3.1,7-7,7h-8.6c-3.8,0-6.9-3.1-7-6.9
			c-0.1-10.4-0.6-45.3-0.6-56.1c0-2-0.1-3.3-0.2-4.1c-1.6,1-4,3.1-6,4.8c-9,7.7-18.4,26.6-25.4,40.5c-2.6,5.3-4.9,9.8-6.8,13.1
			C698.7,167.5,692.2,169,687.4,169z M658.6,126c-3.8,0-7.1,0.4-10.1,1.2c-9.2,2.5-20.3,8.3-21,21.2c-0.1,1.2-0.2,2.5-0.3,3.7
			c-0.5,4.6,2.1,5.1,3.4,5.3c7,1.3,37.1,3,48.4,3.7c2.3,0.1,4,0.2,4.8,0.3c0.3,0,0.6,0,1,0.1c4.3,0.3,8.4,0.7,13.1-7.5
			c1.8-3.1,4-7.6,6.6-12.7c7.6-15.2,17-34.2,27.2-42.8c6.1-5.2,10.1-8.6,14.2-6.7c3.7,1.7,4.2,6.6,4.2,11.6
			c0,10.5,0.4,44.6,0.6,55.5h7.7l0-34c0-0.9,0.7-23.3,9.1-38.7c7.2-13.3,8.1-38-9.3-47.6c-0.4-0.2-1-0.1-1.4,0.3l-66.5,71.2
			c-1.4,1.5-2.5,2.8-3.5,3.9c-3.2,3.8-12,12.5-26,12C660,126,659.3,126,658.6,126z"/>
	</g>
	<path class="st30" d="M971.9,147.7c-5.9-19.2-15.8-33.9-30.3-45c-2.3-1.8-4.7-3.3-7-4.8c-10.8-6.9-17.3-11.1-7.6-32
		c6.3-13.6,9.9-24,10.7-31c0.6-4.8-2.6-9.3-7.4-10.5L911.7,20l-1.6,2.8c-3.1,5.3-7.7,11.7-12.7,11.5c-5.6-0.2-10.9-8.4-12.3-11.2
		l-1.5-3.1l-18.1,4.2l-0.2,0.1c-4.9,1.4-8,6.2-7.1,11.2c2.7,15.2,3.3,17.1,6.8,28c8.6,26.9,1.6,33.7,1.5,33.7c-1,0.9-2.3,2-3.9,3.3
		c-8.7,7.2-25,20.6-32.7,40.1c-4.8,12.1-5.3,20.5-1.5,25.6c1.8,2.5,5.5,5.3,12.8,4.7c1.3-0.1,2.5-0.3,3.8-0.4
		c6.3-0.8,14.2-1.8,30.2,5.2c6.5,2.9,13.6,4.3,21,4.3c1.7,0,3.4-0.1,5.2-0.2c7.9-0.7,15.6-3.9,22.4-9.3c3.9-3.1,10.8-5.9,21.6-1.9
		c11.9,4.4,20,4.4,24.7-0.1C974.3,164.4,974.9,157.5,971.9,147.7z M866.7,34c-0.1-0.6,0.3-1.2,0.9-1.4l11.4-2.7
		c2.9,4.7,9.2,12.8,18,13c6.8,0.2,13.1-4.2,18.8-13.1l12.4,3c0.5,0.1,0.8,0.6,0.8,1c-0.5,4.2-2.6,12.5-10,28.4
		c-3.3,7-4.9,12.8-5.3,17.6c-6.4,3.1-22.8,9-36.5-1.6c-0.7-4.9-2-10.7-4.2-17.5C869.8,50.2,869.2,48.6,866.7,34z M964,162.2
		c-0.7,0.7-4,2.6-15.8-1.7c-15.4-5.7-25.4-0.4-30,3.3c-5.4,4.3-11.5,6.9-17.7,7.4c-7.9,0.7-15.2-0.5-21.9-3.4
		c-12-5.3-20.2-6.6-26.5-6.6c-3.2,0-5.9,0.3-8.3,0.7c-1.2,0.2-2.3,0.3-3.4,0.4c-1.8,0.1-4.2,0-5.2-1.2c-0.6-0.9-2.4-4.7,2.6-17.3
		c6.9-17.4,22-29.9,30.2-36.6c1.7-1.4,3.1-2.6,4.2-3.6c2-1.8,5.1-5.9,5.6-14.7c5.9,3.1,11.9,4.2,17.5,4.2c7.7,0,14.5-2.1,19.3-4
		c2.4,7.9,9.1,12.2,15.3,16.2c2.1,1.4,4.4,2.8,6.4,4.3c13.1,10,22,23.3,27.3,40.7C965.5,156.2,965.6,160.7,964,162.2z"/>
	<path class="st30" d="M1172.4,93.1c-2.8-16.8-3.1-27.8,1.7-42.2c0.4-1.2,0-2.5-1-3.3c-1-0.8-2.3-0.9-3.4-0.3
		c-3,1.6-31.6,9.7-44.1,1.6c-14.7-9.5-36-9.2-51.7,0.7c-13.5,8.5-42.9-1-43.2-1.1c-1.3-0.4-2.8,0.1-3.5,1.2
		c-0.8,1.2-0.6,2.7,0.3,3.7c6.4,7,2.7,28.8,0,39.5c-4.4,1-7.7,4.9-7.7,9.6V133c0,5.4,4.4,9.9,9.9,9.9h2.3v9.9c0,2.9,2.4,5.3,5.3,5.3
		h12.2c2.9,0,5.3-2.4,5.3-5.3v-9.9h89.9v9.9c0,2.9,2.4,5.3,5.3,5.3h12.2c2.9,0,5.3-2.4,5.3-5.3v-9.9h2.3c5.5,0,9.9-4.4,9.9-9.9
		v-30.3C1179.8,98.1,1176.6,94.2,1172.4,93.1z M1085.3,92.8h-39.6v-8.3h39.6V92.8z M1153.9,92.8h-39.6v-8.3h39.6V92.8z M1077.1,54.8
		c13.8-8.7,32.4-9,45.2-0.8c12,7.8,33.6,3.8,44.3,0.7c-3.2,12.5-2.8,23.2-0.4,38h-6.2v-8.5c0-3.2-2.7-5.9-5.9-5.9h-40
		c-3.3,0-5.9,2.6-5.9,5.9v8.5h-16.8v-8.5c0-3.2-2.7-5.9-5.9-5.9h-40c-3.3,0-5.9,2.6-5.9,5.9v8.5h-5.8c2-8.3,5.2-25.3,1.8-36.5
		C1046,58.8,1065.6,62.1,1077.1,54.8z M1047.2,150.4h-7.6v-7.6h7.6V150.4z M1160,150.4h-7.6v-7.6h7.6V150.4z M1172.2,133
		c0,1.2-1,2.3-2.3,2.3h-7.6h-12.2h-100.6h-12.2h-7.6c-1.2,0-2.3-1-2.3-2.3v-30.3c0-1.2,1-2.3,2.3-2.3h140.2c1.2,0,2.3,1,2.3,2.3V133
		z"/>
	<path class="st30" d="M1379.6,109.5c-0.9-12.7-6.5-25.2-15.7-35.3V44h-7.9v30.7l-56.2,56.2l-56.7-56.6V44h-7.9v30.7
		c-9,10-14.4,22.3-15.3,34.8c-0.9,13.4,3.3,25.5,12.1,34.3c7.9,7.9,18.7,12.2,30.7,12.2c1.2,0,2.4,0,3.6-0.1
		c12-0.8,23.7-5.8,33.5-14.1c9.8,8.3,21.5,13.2,33.5,14.1c1.2,0.1,2.4,0.1,3.6,0.1c11.9,0,22.7-4.3,30.7-12.2
		C1376.3,135.1,1380.6,122.9,1379.6,109.5z M1237.6,138.2c-14.1-14.1-13.1-38.1,1.8-56.2h0.2l54.4,54.3
		C1275.8,151.3,1251.7,152.3,1237.6,138.2z M1362,138.2c-14.1,14.1-38.3,13.1-56.4-1.9l54.4-54.3h0.2
		C1375,100.1,1376,124.1,1362,138.2z"/>
	<path class="st30" d="M1556.1,95.1c9.2-10.9,7.8-23.1,5.8-31.6c0-0.2-0.1-0.3-0.1-0.5c0,0-0.4-1.6,0.1-2.6c0.3-0.6,1.1-1.2,2.4-1.5
		c0,0,0,0,0,0c2.9-0.8,6.6-2.2,9.7-5.3c7.7-7.7,7.7-20.1,0-27.8s-20.1-7.7-27.8,0c-2.2,2.2-3.8,4.9-4.8,7.8
		c-0.1,0.3-0.1,0.4-0.2,0.7c-0.2,0.9-1.3,3.5-6.7,3.3l-2-0.1c-9.9-0.5-19.4-0.9-27.9,6.2c-6.9-2.6-15-1.1-20.5,4.4l-58.7,58.7
		c-7.5,7.5-7.5,19.8,0,27.4l40.2,40.2c7.5,7.5,19.8,7.5,27.4,0l58.7-58.7C1557.3,110.1,1558.7,102,1556.1,95.1z M1532.2,46.8l2,0.1
		c11.1,0.5,15.4-6.5,16.3-10.7c0.5-1.4,1.3-2.7,2.4-3.8c4-4,10.6-4,14.6,0c4,4,4,10.6,0,14.6c-1.3,1.3-3,2.1-5.7,2.9
		c-4.7,1.4-7,4.1-8.1,6.2c-2.1,4.1-1.1,8.4-0.7,9.7c2.1,9.1,1.4,15.7-2.3,21.3l-37.7-37.7C1518.2,46.1,1524.3,46.4,1532.2,46.8z
		 M1472.2,167.7l-40.2-40.2c-3.9-3.9-3.9-10.2,0-14.1l58.7-58.7c3.9-3.9,10.2-3.9,14.1,0l40.2,40.2c3.9,3.9,3.9,10.2,0,14.1
		l-10.8,10.8L1510.4,96c-1.8-1.8-4.8-1.8-6.6,0s-1.8,4.8,0,6.6l23.8,23.8l-5.3,5.3l-23.8-23.8c-1.8-1.8-4.8-1.8-6.6,0
		c-1.8,1.8-1.8,4.8,0,6.6l23.8,23.8l-5.3,5.3l-23.8-23.8c-1.8-1.8-4.8-1.8-6.6,0c-1.8,1.8-1.8,4.8,0,6.6l23.8,23.8l-17.4,17.4
		C1482.5,171.6,1476.1,171.6,1472.2,167.7z"/>
	<path class="st30" d="M1779.8,37.5c0-2.5-2.1-4.5-4.6-4.5c-2.5,0-4.6,2-4.6,4.5c0,38.7-31.8,70.3-70.8,70.3s-70.8-31.5-70.8-70.3
		c0-2.5-2.1-4.5-4.6-4.5c-2.5,0-4.6,2-4.6,4.5c0,42.9,34.4,77.9,77.3,79.3l-14.4,6.1c-0.9,0.4-1.6,1.1-2,2l-6.3,15.5
		c-0.4,0.9-0.4,1.9,0,2.8l6.6,15.4c0.4,0.9,1.1,1.6,2,1.9l15.6,6.2c0.4,0.2,0.9,0.3,1.4,0.3c0.5,0,1-0.1,1.4-0.3l15.5-6.5
		c0.9-0.4,1.6-1.1,2-2l6.3-15.5c0.4-0.9,0.4-1.9,0-2.8l-6.6-15.4c-0.4-0.9-1.1-1.6-2-1.9l-14.4-5.8
		C1745.2,115.6,1779.8,80.5,1779.8,37.5z M1716.5,144.5l-2.8,6.8l-2.7-2.7l1.7-4.1H1716.5z M1683,138.7l2.8-6.9l2.7,2.7l-1.7,4.2
		H1683z M1704.3,145.9l-4.4,1.9l-4.5-1.8l-1.9-4.4l1.8-4.4l4.4-1.9l4.5,1.8l1.9,4.4L1704.3,145.9z M1696.8,128.6l-4.1,1.7l-2.7-2.7
		l6.8-2.9V128.6z M1692.7,152.8l4.1,1.7v3.7l-6.8-2.7L1692.7,152.8z M1702.7,154.5l4.2-1.8l2.7,2.7l-6.9,2.9V154.5z M1707,130.4
		l-4.3-1.7v-3.7l7,2.8L1707,130.4z M1682.9,144.5h3.8l1.8,4.2l-2.7,2.7L1682.9,144.5z M1716.6,138.7h-3.8l-1.7-4.1l2.7-2.7
		L1716.6,138.7z"/>
	<g>
		<path class="st30" d="M1958.9,102.8c-2.9,0-5.7,0.6-8.3,1.8V85.2c0-2-1.6-3.6-3.6-3.6h-27.5c-1.7-2.2-4.9-8.7,1.6-20.2
			c11-19.6-0.3-30-0.7-30.4c-1.5-1.3-3.8-1.2-5.1,0.3c-1.3,1.5-1.2,3.8,0.3,5.1c0.1,0.1,7.5,6.9-0.7,21.5
			c-6.1,10.9-5.4,18.8-3.4,23.8h-24.5c-0.8-3.9-1.7-11.4,1.8-16c7.6-10,0.5-21.2,0.2-21.7c-1.1-1.7-3.3-2.2-5-1.1
			c-1.7,1.1-2.1,3.3-1.1,5c0,0.1,4.7,7.4,0.2,13.4c-4.8,6.3-4.3,15-3.4,20.4h-23.2c-1-1.6-2.2-4.5,0-7.6c6.4-8.7,0.4-18.7,0.2-19.2
			c-1-1.7-3.2-2.2-4.9-1.2c-1.7,1-2.2,3.3-1.2,5c0,0.1,3.7,6.3,0.2,11.1c-3.1,4.2-3.1,8.4-2.1,11.9h-21.8c-2,0-3.6,1.6-3.6,3.6v29.6
			c0,21.6,15.6,39,25.7,48h-25.5c-2,0-3.6,1.6-3.6,3.6s1.6,3.6,3.6,3.6h35.8h53.3h38c2,0,3.6-1.6,3.6-3.6s-1.6-3.6-3.6-3.6h-25.7
			c9.8-7.5,15.9-16.2,19.7-24.1c3.8,3.7,9,5.9,14.6,5.9c11.5,0,20.9-9.4,20.9-20.9S1970.4,102.8,1958.9,102.8z M1911.5,162.8h-51.2
			c-5-3.7-29.9-23.3-29.9-48v-26h53.7c0,0,0,0,0,0s0,0,0,0h59.3v25.6C1943.4,114.7,1943,145.4,1911.5,162.8z M1958.9,137.4
			c-4.7,0-9-2.4-11.5-6.3c3.1-9.2,3.1-16.1,3.1-16.7v-1.6c2.4-1.8,5.3-2.9,8.3-2.9c7.5,0,13.7,6.2,13.7,13.7
			C1972.6,131.3,1966.4,137.4,1958.9,137.4z"/>
		<path class="st30" d="M1925.4,103.7c-2,0.3-3.3,2.2-2.9,4.2c0,0.1,1.4,8.2-1.7,17.4c-4.1,12.2-13.8,20.1-29.1,23.5
			c-1.9,0.4-3.2,2.4-2.7,4.3c0.4,1.7,1.9,2.8,3.5,2.8c0.3,0,0.5,0,0.8-0.1c22.2-5,30.9-18.2,34.3-28.3c3.6-10.9,2-20.5,1.9-20.9
			C1929.2,104.6,1927.3,103.3,1925.4,103.7z"/>
	</g>
	<path class="st161" d="M357.1,239.7c-26.2-26.3-68.9-26.3-95.1,0s-26.2,69.1,0,95.4l-39.2,39.3l5.6,5.6l53.6-53.8
		c8.1,5.8,17.9,8.9,28.1,8.8l-0.1-7.9c-10.8,0.1-20.9-4-28.5-11.6c-15.4-15.5-15.4-40.6,0-56.1s40.5-15.5,56,0
		c10,10.1,10,26.4,0,36.5c-10,10.1-26.3,10.1-36.4,0c-4.6-4.6-4.6-12.2,0-16.8c4.6-4.6,12.2-4.6,16.8,0l5.6-5.6
		c-7.7-7.7-20.3-7.7-28,0c-7.7,7.7-7.7,20.3,0,28.1c13.1,13.1,34.5,13.1,47.6,0c13.1-13.1,13.1-34.5,0-47.7
		c-18.5-18.6-48.6-18.6-67.2,0c-18.5,18.6-18.5,48.8,0,67.3l-8.4,8.4c-23.1-23.2-23.1-61,0-84.2s60.8-23.2,84,0s23.1,61,0,84.2
		c-16.1,16.1-39.1,21-59.5,14.8l-6.2,6.2c24,9,52.1,3.9,71.3-15.4C383.3,308.8,383.3,266,357.1,239.7z"/>
	<g>
		<path class="st161" d="M174.5,256.3H56.3c-2.9,0-5.2-2.4-5.2-5.3l0,0c0-2.9,2.4-5.3,5.2-5.3h118.2c2.9,0,5.3,2.4,5.3,5.3l0,0
			C179.8,253.9,177.4,256.3,174.5,256.3z"/>
		<ellipse class="st161" cx="26.7" cy="251" rx="7" ry="7"/>
		<path class="st161" d="M174.5,305.3H56.3c-2.9,0-5.2-2.4-5.2-5.3l0,0c0-2.9,2.4-5.3,5.2-5.3h118.2c2.9,0,5.3,2.4,5.3,5.3l0,0
			C179.8,302.9,177.4,305.3,174.5,305.3z"/>
		<ellipse class="st161" cx="26.7" cy="300" rx="7" ry="7"/>
		<path class="st161" d="M174.5,354.3H56.3c-2.9,0-5.2-2.4-5.2-5.3l0,0c0-2.9,2.4-5.3,5.2-5.3h118.2c2.9,0,5.3,2.4,5.3,5.3l0,0
			C179.8,351.9,177.4,354.3,174.5,354.3z"/>
		<ellipse class="st161" cx="26.7" cy="349" rx="7" ry="7"/>
	</g>
	<g>
		<path class="st161" d="M564.7,276.9c-5.6-9.3-14.3-15.8-23.9-17.9c-11.2-2.5-20.6,2.3-28.2,6.1c-2.6,1.3-5.1,2.6-7.4,3.4
			c0-7.5,1.7-23.4,9-32c3.2-3.7,7.2-5.8,12.2-6.1c2.2-0.2,3.8-2.1,3.7-4.3c-0.2-2.2-2.1-3.8-4.3-3.7c-7.1,0.6-13.9,4.4-18.4,9.7
			c-8.9,10.5-10.1,27.4-10.1,36.1c-0.6-0.3-1.3-0.7-2.1-1.2c-4.6-2.7-11.6-6.9-29.9-8.7c-12.1-1.2-21.5,2.2-28,10
			c-12.1,14.5-10.8,40.6-6,58.6c10.5,39.1,41.9,53,67.8,53c15.8,0,30.4-4.4,42.1-12.6c13.5-9.5,22.8-23.8,27.7-42.3
			C575.2,301.3,570.1,285.7,564.7,276.9z M561.2,323c-11.7,44.2-47.3,49-62.1,49c-11.1,0-48.4-3.4-60.1-47.1
			c-4.7-17.4-5.2-40,4.4-51.4c4.2-5,9.9-7.4,17.4-7.4c1.2,0,2.5,0.1,3.8,0.2c16.5,1.6,22.4,5.1,26.6,7.6c3,1.8,5.7,3.4,10.3,3.4
			c4.9,0,9.7-2.4,14.8-5c7.1-3.6,14.4-7.3,22.9-5.5c7.5,1.6,14.3,6.8,18.8,14.2C562.5,288.6,566.8,302,561.2,323z"/>
		<path class="st161" d="M464.8,249.1c5.4,3.7,11.1,6.5,16,7.7c3.3,0.8,5.8,0.9,7.8,0.5c2.8-0.5,4.4-1.9,5.4-3.3
			c4.8-7.1-4.4-18.3-15.1-25.6c-10.7-7.3-24.4-12-29.2-4.9C444.8,230.6,454.1,241.8,464.8,249.1z M474.4,235
			c9.3,6.4,12.8,12.6,13,14.4c-1.8,0.6-8.8-0.6-18.1-6.9c-9.3-6.4-12.8-12.6-13-14.4C458.1,227.5,465.1,228.7,474.4,235z"/>
		<path class="st161" d="M491.3,345.6c-0.3,0-26.2-3.2-31.5-35.6c-0.4-2.2-2.4-3.7-4.6-3.3c-2.2,0.4-3.6,2.4-3.3,4.6
			c3.2,19.9,13.4,30.3,21.4,35.5c8.7,5.7,16.7,6.7,17,6.7c0.1,0,0.3,0,0.4,0c2,0,3.7-1.5,3.9-3.6
			C495.1,347.9,493.5,345.9,491.3,345.6z"/>
	</g>
	<g>
		<path class="st161" d="M687.4,369c-1.2,0-2.2-0.1-3.2-0.2c-0.3,0-0.6,0-0.9-0.1c-0.7,0-2.4-0.1-4.7-0.3
			c-12.5-0.7-41.8-2.4-49.3-3.8c-6.6-1.2-10.2-6.3-9.4-13.4c0.1-1.1,0.2-2.3,0.3-3.4c0.8-13.5,10.2-23.5,26.5-27.9
			c4.3-1.2,9-1.7,14.4-1.5c10.7,0.4,17.6-6.4,20-9.3c1.1-1.3,2.3-2.6,3.8-4.3l66.5-71.2c2.7-2.9,7-3.6,10.4-1.7
			c21.7,12.1,21,41.3,12.2,57.6c-7.3,13.6-8.1,34.2-8.2,35.3v34.3c0,3.8-3.1,7-7,7h-8.6c-3.8,0-6.9-3.1-7-6.9
			c-0.1-10.4-0.6-45.3-0.6-56.1c0-2-0.1-3.3-0.2-4.1c-1.6,1-4,3.1-6,4.8c-9,7.7-18.4,26.6-25.4,40.5c-2.6,5.3-4.9,9.8-6.8,13.1
			C698.7,367.5,692.2,369,687.4,369z M658.6,326c-3.8,0-7.1,0.4-10.1,1.2c-9.2,2.5-20.3,8.3-21,21.2c-0.1,1.2-0.2,2.5-0.3,3.7
			c-0.5,4.6,2.1,5.1,3.4,5.3c7,1.3,37.1,3,48.4,3.7c2.3,0.1,4,0.2,4.8,0.3c0.3,0,0.6,0,1,0.1c4.3,0.3,8.4,0.7,13.1-7.5
			c1.8-3.1,4-7.6,6.6-12.7c7.6-15.2,17-34.2,27.2-42.8c6.1-5.2,10.1-8.6,14.2-6.7c3.7,1.7,4.2,6.6,4.2,11.6
			c0,10.5,0.4,44.6,0.6,55.5h7.7l0-34c0-0.9,0.7-23.3,9.1-38.7c7.2-13.3,8.1-38-9.3-47.6c-0.4-0.2-1-0.1-1.4,0.3l-66.5,71.2
			c-1.4,1.5-2.5,2.8-3.5,3.9c-3.2,3.8-12,12.5-26,12C660,326,659.3,326,658.6,326z"/>
	</g>
	<path class="st161" d="M971.9,347.7c-5.9-19.2-15.8-33.9-30.3-45c-2.3-1.8-4.7-3.3-7-4.8c-10.8-6.9-17.3-11.1-7.6-32
		c6.3-13.6,9.9-24,10.7-31c0.6-4.8-2.6-9.3-7.4-10.5l-18.7-4.4l-1.6,2.8c-3.1,5.3-7.7,11.7-12.7,11.5c-5.6-0.2-10.9-8.4-12.3-11.2
		l-1.5-3.1l-18.1,4.2l-0.2,0.1c-4.9,1.4-8,6.2-7.1,11.2c2.7,15.2,3.3,17.1,6.8,28c8.6,26.9,1.6,33.7,1.5,33.7c-1,0.9-2.3,2-3.9,3.3
		c-8.7,7.2-25,20.6-32.7,40.1c-4.8,12.1-5.3,20.5-1.5,25.6c1.8,2.5,5.5,5.3,12.8,4.7c1.3-0.1,2.5-0.3,3.8-0.4
		c6.3-0.8,14.2-1.8,30.2,5.2c6.5,2.9,13.6,4.3,21,4.3c1.7,0,3.4-0.1,5.2-0.2c7.9-0.7,15.6-3.9,22.4-9.3c3.9-3.1,10.8-5.9,21.6-1.9
		c11.9,4.4,20,4.4,24.7-0.1C974.3,364.4,974.9,357.5,971.9,347.7z M866.7,234c-0.1-0.6,0.3-1.2,0.9-1.4l11.4-2.7
		c2.9,4.7,9.2,12.8,18,13c6.8,0.2,13.1-4.2,18.8-13.1l12.4,3c0.5,0.1,0.8,0.6,0.8,1c-0.5,4.2-2.6,12.5-10,28.4
		c-3.3,7-4.9,12.8-5.3,17.6c-6.4,3.1-22.8,9-36.5-1.6c-0.7-4.9-2-10.7-4.2-17.5C869.8,250.2,869.2,248.6,866.7,234z M964,362.2
		c-0.7,0.7-4,2.6-15.8-1.7c-15.4-5.7-25.4-0.4-30,3.3c-5.4,4.3-11.5,6.9-17.7,7.4c-7.9,0.7-15.2-0.5-21.9-3.4
		c-12-5.3-20.2-6.6-26.5-6.6c-3.2,0-5.9,0.3-8.3,0.7c-1.2,0.2-2.3,0.3-3.4,0.4c-1.8,0.1-4.2,0-5.2-1.2c-0.6-0.9-2.4-4.7,2.6-17.3
		c6.9-17.4,22-29.9,30.2-36.6c1.7-1.4,3.1-2.6,4.2-3.6c2-1.8,5.1-5.9,5.6-14.7c5.9,3.1,11.9,4.2,17.5,4.2c7.7,0,14.5-2.1,19.3-4
		c2.4,7.9,9.1,12.2,15.3,16.2c2.1,1.4,4.4,2.8,6.4,4.3c13.1,10,22,23.3,27.3,40.7C965.5,356.2,965.6,360.7,964,362.2z"/>
	<path class="st161" d="M1172.4,293.1c-2.8-16.8-3.1-27.8,1.7-42.2c0.4-1.2,0-2.5-1-3.3c-1-0.8-2.3-0.9-3.4-0.3
		c-3,1.6-31.6,9.7-44.1,1.6c-14.7-9.5-36-9.2-51.7,0.7c-13.5,8.5-42.9-1-43.2-1.1c-1.3-0.4-2.8,0.1-3.5,1.2
		c-0.8,1.2-0.6,2.7,0.3,3.7c6.4,7,2.7,28.8,0,39.5c-4.4,1-7.7,4.9-7.7,9.6V333c0,5.4,4.4,9.9,9.9,9.9h2.3v9.9c0,2.9,2.4,5.3,5.3,5.3
		h12.2c2.9,0,5.3-2.4,5.3-5.3v-9.9h89.9v9.9c0,2.9,2.4,5.3,5.3,5.3h12.2c2.9,0,5.3-2.4,5.3-5.3v-9.9h2.3c5.5,0,9.9-4.4,9.9-9.9
		v-30.3C1179.8,298.1,1176.6,294.2,1172.4,293.1z M1085.3,292.8h-39.6v-8.3h39.6V292.8z M1153.9,292.8h-39.6v-8.3h39.6V292.8z
		 M1077.1,254.8c13.8-8.7,32.4-9,45.2-0.8c12,7.8,33.6,3.8,44.3,0.7c-3.2,12.5-2.8,23.2-0.4,38h-6.2v-8.5c0-3.2-2.7-5.9-5.9-5.9h-40
		c-3.3,0-5.9,2.6-5.9,5.9v8.5h-16.8v-8.5c0-3.2-2.7-5.9-5.9-5.9h-40c-3.3,0-5.9,2.6-5.9,5.9v8.5h-5.8c2-8.3,5.2-25.3,1.8-36.5
		C1046,258.8,1065.6,262.1,1077.1,254.8z M1047.2,350.4h-7.6v-7.6h7.6V350.4z M1160,350.4h-7.6v-7.6h7.6V350.4z M1172.2,333
		c0,1.2-1,2.3-2.3,2.3h-7.6h-12.2h-100.6h-12.2h-7.6c-1.2,0-2.3-1-2.3-2.3v-30.3c0-1.2,1-2.3,2.3-2.3h140.2c1.2,0,2.3,1,2.3,2.3V333
		z"/>
	<path class="st161" d="M1379.6,309.5c-0.9-12.7-6.5-25.2-15.7-35.3V244h-7.9v30.7l-56.2,56.2l-56.7-56.6V244h-7.9v30.7
		c-9,10-14.4,22.3-15.3,34.8c-0.9,13.4,3.3,25.5,12.1,34.3c7.9,7.9,18.7,12.2,30.7,12.2c1.2,0,2.4,0,3.6-0.1
		c12-0.8,23.7-5.8,33.5-14.1c9.8,8.3,21.5,13.2,33.5,14.1c1.2,0.1,2.4,0.1,3.6,0.1c11.9,0,22.7-4.3,30.7-12.2
		C1376.3,335.1,1380.6,322.9,1379.6,309.5z M1237.6,338.2c-14.1-14.1-13.1-38.1,1.8-56.2h0.2l54.4,54.3
		C1275.8,351.3,1251.7,352.3,1237.6,338.2z M1362,338.2c-14.1,14.1-38.3,13.1-56.4-1.9l54.4-54.3h0.2
		C1375,300.1,1376,324.1,1362,338.2z"/>
	<path class="st161" d="M1556.1,295.1c9.2-10.9,7.8-23.1,5.8-31.6c0-0.2-0.1-0.3-0.1-0.5c0,0-0.4-1.6,0.1-2.6
		c0.3-0.6,1.1-1.2,2.4-1.5c0,0,0,0,0,0c2.9-0.8,6.6-2.2,9.7-5.3c7.7-7.7,7.7-20.1,0-27.8s-20.1-7.7-27.8,0c-2.2,2.2-3.8,4.9-4.8,7.8
		c-0.1,0.3-0.1,0.4-0.2,0.7c-0.2,0.9-1.3,3.5-6.7,3.3l-2-0.1c-9.9-0.5-19.4-0.9-27.9,6.2c-6.9-2.6-15-1.1-20.5,4.4l-58.7,58.7
		c-7.5,7.5-7.5,19.8,0,27.4l40.2,40.2c7.5,7.5,19.8,7.5,27.4,0l58.7-58.7C1557.3,310.1,1558.7,302,1556.1,295.1z M1532.2,246.8
		l2,0.1c11.1,0.5,15.4-6.5,16.3-10.7c0.5-1.4,1.3-2.7,2.4-3.8c4-4,10.6-4,14.6,0c4,4,4,10.6,0,14.6c-1.3,1.3-3,2.1-5.7,2.9
		c-4.7,1.4-7,4.1-8.1,6.2c-2.1,4.1-1.1,8.4-0.7,9.7c2.1,9.1,1.4,15.7-2.3,21.3l-37.7-37.7C1518.2,246.1,1524.3,246.4,1532.2,246.8z
		 M1472.2,367.7l-40.2-40.2c-3.9-3.9-3.9-10.2,0-14.1l58.7-58.7c3.9-3.9,10.2-3.9,14.1,0l40.2,40.2c3.9,3.9,3.9,10.2,0,14.1
		l-10.8,10.8l-23.8-23.8c-1.8-1.8-4.8-1.8-6.6,0c-1.8,1.8-1.8,4.8,0,6.6l23.8,23.8l-5.3,5.3l-23.8-23.8c-1.8-1.8-4.8-1.8-6.6,0
		s-1.8,4.8,0,6.6l23.8,23.8l-5.3,5.3l-23.8-23.8c-1.8-1.8-4.8-1.8-6.6,0c-1.8,1.8-1.8,4.8,0,6.6l23.8,23.8l-17.4,17.4
		C1482.5,371.6,1476.1,371.6,1472.2,367.7z"/>
	<path class="st161" d="M1779.8,237.5c0-2.5-2.1-4.5-4.6-4.5c-2.5,0-4.6,2-4.6,4.5c0,38.7-31.8,70.3-70.8,70.3s-70.8-31.5-70.8-70.3
		c0-2.5-2.1-4.5-4.6-4.5c-2.5,0-4.6,2-4.6,4.5c0,42.9,34.4,77.9,77.3,79.3l-14.4,6.1c-0.9,0.4-1.6,1.1-2,2l-6.3,15.5
		c-0.4,0.9-0.4,1.9,0,2.8l6.6,15.4c0.4,0.9,1.1,1.6,2,1.9l15.6,6.2c0.4,0.2,0.9,0.3,1.4,0.3c0.5,0,1-0.1,1.4-0.3l15.5-6.5
		c0.9-0.4,1.6-1.1,2-2l6.3-15.5c0.4-0.9,0.4-1.9,0-2.8l-6.6-15.4c-0.4-0.9-1.1-1.6-2-1.9l-14.4-5.8
		C1745.2,315.6,1779.8,280.5,1779.8,237.5z M1716.5,344.5l-2.8,6.8l-2.7-2.7l1.7-4.1H1716.5z M1683,338.7l2.8-6.9l2.7,2.7l-1.7,4.2
		H1683z M1704.3,345.9l-4.4,1.9l-4.5-1.8l-1.9-4.4l1.8-4.4l4.4-1.9l4.5,1.8l1.9,4.4L1704.3,345.9z M1696.8,328.6l-4.1,1.7l-2.7-2.7
		l6.8-2.9V328.6z M1692.7,352.8l4.1,1.7v3.7l-6.8-2.7L1692.7,352.8z M1702.7,354.5l4.2-1.8l2.7,2.7l-6.9,2.9V354.5z M1707,330.4
		l-4.3-1.7v-3.7l7,2.8L1707,330.4z M1682.9,344.5h3.8l1.8,4.2l-2.7,2.7L1682.9,344.5z M1716.6,338.7h-3.8l-1.7-4.1l2.7-2.7
		L1716.6,338.7z"/>
	<g>
		<path class="st161" d="M1958.9,302.8c-2.9,0-5.7,0.6-8.3,1.8v-19.3c0-2-1.6-3.6-3.6-3.6h-27.5c-1.7-2.2-4.9-8.7,1.6-20.2
			c11-19.6-0.3-30-0.7-30.4c-1.5-1.3-3.8-1.2-5.1,0.3c-1.3,1.5-1.2,3.8,0.3,5.1c0.1,0.1,7.5,6.9-0.7,21.5
			c-6.1,10.9-5.4,18.8-3.4,23.8h-24.5c-0.8-3.9-1.7-11.4,1.8-16c7.6-10,0.5-21.2,0.2-21.7c-1.1-1.7-3.3-2.2-5-1.1
			c-1.7,1.1-2.1,3.3-1.1,5c0,0.1,4.7,7.4,0.2,13.4c-4.8,6.3-4.3,15-3.4,20.4h-23.2c-1-1.6-2.2-4.5,0-7.6c6.4-8.7,0.4-18.7,0.2-19.2
			c-1-1.7-3.2-2.2-4.9-1.2c-1.7,1-2.2,3.3-1.2,5c0,0.1,3.7,6.3,0.2,11.1c-3.1,4.2-3.1,8.4-2.1,11.9h-21.8c-2,0-3.6,1.6-3.6,3.6v29.6
			c0,21.6,15.6,39,25.7,48h-25.5c-2,0-3.6,1.6-3.6,3.6s1.6,3.6,3.6,3.6h35.8h53.3h38c2,0,3.6-1.6,3.6-3.6s-1.6-3.6-3.6-3.6h-25.7
			c9.8-7.5,15.9-16.2,19.7-24.1c3.8,3.7,9,5.9,14.6,5.9c11.5,0,20.9-9.4,20.9-20.9S1970.4,302.8,1958.9,302.8z M1911.5,362.8h-51.2
			c-5-3.7-29.9-23.3-29.9-48v-26h53.7c0,0,0,0,0,0s0,0,0,0h59.3v25.6C1943.4,314.7,1943,345.4,1911.5,362.8z M1958.9,337.4
			c-4.7,0-9-2.4-11.5-6.3c3.1-9.2,3.1-16.1,3.1-16.7v-1.6c2.4-1.8,5.3-2.9,8.3-2.9c7.5,0,13.7,6.2,13.7,13.7
			C1972.6,331.3,1966.4,337.4,1958.9,337.4z"/>
		<path class="st161" d="M1925.4,303.7c-2,0.3-3.3,2.2-2.9,4.2c0,0.1,1.4,8.2-1.7,17.4c-4.1,12.2-13.8,20.1-29.1,23.5
			c-1.9,0.4-3.2,2.4-2.7,4.3c0.4,1.7,1.9,2.8,3.5,2.8c0.3,0,0.5,0,0.8-0.1c22.2-5,30.9-18.2,34.3-28.3c3.6-10.9,2-20.5,1.9-20.9
			C1929.2,304.6,1927.3,303.3,1925.4,303.7z"/>
	</g>
	<path class="st30" d="M103.7,441.1l-42.4,31.3l-34.7-45.9c-1.2-1.6-3.6-2-5.2-0.8c-1.7,1.2-2,3.5-0.8,5.2l96,126.8
		c-2.6,3.8-2.6,8.9,0.4,12.8c3.7,4.9,10.8,5.9,15.7,2.3c3.3-2.4,4.8-6.4,4.4-10.2l37.7-27.8c5.6-4.1,6.8-12,2.6-17.6l-55.7-73.6
		C117.3,438.1,109.3,436.9,103.7,441.1z M128.1,566.9c-1.7,1.2-4,0.9-5.2-0.8s-0.9-4,0.8-5.2c1.7-1.2,4-0.9,5.2,0.8
		C130.1,563.3,129.8,565.6,128.1,566.9z M171.2,521.7c1.7,2.3,1.3,5.5-1.1,7.3l-36.6,27c-3-2.8-7.3-3.8-11.1-2.6l-56.8-75l20.3-15
		l48.2,63.7c1.2,1.6,3.6,2,5.2,0.8c1.7-1.2,2-3.5,0.8-5.2l-48.2-63.7l16.1-11.9c2.3-1.7,5.6-1.2,7.3,1.1L171.2,521.7z"/>
	<g>
		<path class="st30" d="M343,433c-1.6-7.5-8.4-13-16.3-13h-53.9c-7.8,0-14.6,5.5-16.3,13l-12.8,59.9h112L343,433z M265,434.7
			c0.8-3.6,4.1-6.3,7.8-6.3h53.9c3.8,0,7.1,2.6,7.8,6.3l10.6,49.6h-90.8L265,434.7z"/>
		<path class="st30" d="M322.8,501.2h-79.1v8.5h51.8v61.8h-27.6c-4.8,0-8.7,3.8-8.9,8.5h36.5h8.5h36.5c-0.2-4.7-4.1-8.5-8.9-8.5H304
			v-61.8h18.8V530h8.5v-20.3h24.4v-8.5h-24.4H322.8z"/>
	</g>
	<g>
		<path class="st30" d="M539,496.3c-31-11.5-36.1-22.5-38-26.6c-0.3-0.7-0.6-1.3-1-1.9c-1.9-3.1-8.3-8.6-15-7.6
			c-3.6,0.5-8.5,3.1-11.2,12.2c-0.7,2.5-1.9,4.1-3.8,5c-7.1,3.7-22.8-2.2-33.2-6.1c-4-1.5-8.4,0.2-10.5,4
			c-3.8,6.9-9.5,23.2-4.9,54.7c0.6,4.4,4.4,7.7,8.7,7.7h24.2c4.4,0,8.1-3.6,8.3-8.1c9.2,4.8,21.6,10.5,30.4,10.5
			c6.7,0,20.5-0.4,33.8-0.8c11.8-0.3,22.9-0.6,29.1-0.7c7.5-0.1,22.1-2.7,23.7-12.2C581.2,516.7,568.3,507.1,539,496.3z
			 M571.3,524.8c-0.3,1.7-6.8,4.9-15.4,5c-6.3,0.1-17.4,0.4-29.2,0.7c-13.3,0.4-27,0.8-33.6,0.8c-5.6,0-15.5-3.6-27.2-9.8
			c-1.2-0.6-2.4-0.9-3.7-0.9c-1.4,0-2.9,0.4-4.2,1.2c-2.4,1.5-3.8,4.2-3.8,7.1v0.1h-24c-0.2,0-0.3-0.1-0.3-0.3
			c-4.4-30,1.2-44.3,3.8-49.1c0.1-0.1,0.2-0.1,0.3-0.1c16.1,6,30.2,10.6,39.8,5.7c4-2,6.7-5.5,8.1-10.3c0.6-2.1,2-5.8,4.3-6.1
			c2.6-0.4,6.1,2.7,6.7,3.7c0.1,0.1,0.3,0.6,0.5,1c2.6,5.5,8.6,18.4,42.8,31.1C571.5,517.6,571.3,524.8,571.3,524.8z"/>
		<path class="st30" d="M504.5,512.3c-1.1-0.4-2-0.7-2.7-1c-0.9-0.4-2.2-1-4.2-1.9c-2.1-1-4.6-0.1-5.6,2.1c-0.8,1.7-0.4,3.7,0.8,5
			c0.3,0.3,8.6,4.1,8.9,4.2c0.5,0.2,0.9,0.2,1.4,0.2c1.7,0,3.4-1.1,4-2.9C507.8,515.6,506.7,513.1,504.5,512.3z"/>
		<path class="st30" d="M544.3,517.6c-16.5,1.2-31.5-2.7-31.8-2.8c-2.3-0.6-4.6,0.8-5.1,3.1c-0.6,2.3,0.8,4.7,3,5.3
			c0.6,0.2,12.5,3.3,27.4,3.3c2.3,0,4.7-0.1,7.1-0.2c2.3-0.2,4.1-2.3,3.9-4.7S546.6,517.4,544.3,517.6z"/>
	</g>
	<path class="st30" d="M749.1,456.6c-5.3-2.6-10.6-4.6-14.4-5.9l1.5-14c0.3-2.3-0.9-4.4-3-5.5c-0.1,0-0.2-0.1-0.3-0.1
		c-18-12.9-35.4-12.2-47-9.3c-12.5,3.2-20.7,9.4-21,9.7c-1.2,0.9-1.7,2.4-1.5,3.8c-0.1,0.4-0.1,0.9,0,1.4l1.5,13.4
		c-10.2,3.4-36.1,13.5-36.1,28.8v83.8c0,9.4,7.6,17.1,17,17.1h33.2c0,0,0,0,0,0c0,0,0,0,0,0h40.5c0.4,0.2,0.9,0.3,1.4,0.3
		c0.3,0,0.6,0,0.8-0.1c0.2,0,0.4-0.1,0.5-0.2h31.6c9.4,0,17-7.7,17-17.1v-83.8C770.8,470.9,763.7,463.7,749.1,456.6z M699.9,495.5
		l15.9,76.1h-31.9L699.9,495.5z M700,494.6l-13.2-16.1l10.4-8l2.4-1.9l13.2,10.1L700,494.6z M678.6,474.6c-0.8,0.6-1.5,0.4-1.9,0.2
		c-0.4-0.2-1-0.6-1.1-1.5l-3.3-30.2l21.3,20.1l-4.4,3.4L678.6,474.6z M724,473.3c-0.1,1-0.8,1.4-1.1,1.5c-0.4,0.2-1.1,0.4-1.9-0.2
		L706,463.1l21.3-20.1L724,473.3z M724.1,435l-24.3,22.9l-24.7-23.3C684.1,429.7,703.3,422.6,724.1,435z M636.9,562.6v-83.8
		c0-8.1,17.1-16.4,28.9-20.5l1.7,15.9c0.4,3.6,2.6,6.7,6,8.1c1.3,0.6,2.6,0.8,4,0.8c0.8,0,1.6-0.1,2.4-0.3l11.4,14l-15.6,74.8h-29.9
		C640.9,571.6,636.9,567.6,636.9,562.6z M762.7,562.6c0,4.9-4,9-8.9,9H724l-15.6-74.5l11.6-14.2c0.7,0.1,1.4,0.2,2.1,0.2
		c1.3,0,2.7-0.3,4-0.8c3.4-1.4,5.6-4.5,6-8.1l1.7-15.2c13.5,4.9,29,13.1,29,19.8V562.6z"/>
	<g>
		<path class="st30" d="M945.8,501.5v-19.9h-33.5v19.9c-0.4,0.1-0.7,0.1-1.1,0.2v-13.7c0-13.7-10.6-24.9-24-25.8v-19.7h-12.8v-14.5
			h24V420h-47.9v8.1h16v14.5h-12.8v19.7c-13.3,0.8-24,12.1-24,25.8V580h58.6h5.1h76.3v-49.2C969.8,516.3,959.4,504.1,945.8,501.5z
			 M920.3,489.6h17.6v11.3h-17.6V489.6z M861.7,450.7h17.6v11.3h-17.6V450.7z M837.8,571.9v-83.9c0-9.8,7.9-17.8,17.6-17.8h30.3
			c9.7,0,17.6,8,17.6,17.8v16.8c-4.2,2.4-7.8,5.9-10.4,10.1v-14.8c0-4-3.2-7.3-7.2-7.3h-30.3c-4,0-7.2,3.3-7.2,7.3v41.9
			c0,4,3.2,7.3,7.2,7.3h30.3c0.9,0,1.8-0.2,2.7-0.5v23.1H837.8z M884.9,500.9v40.3h-28.7v-40.3H884.9z M961.8,571.9h-65.5v-41.1
			c0-12,9.7-21.8,21.6-21.8h22.4c11.9,0,21.6,9.8,21.6,21.8V571.9z"/>
		<path class="st30" d="M929.1,518.7c-11.9,0-21.6,9.8-21.6,21.8c0,12,9.7,21.8,21.6,21.8s21.6-9.8,21.6-21.8
			C950.6,528.5,940.9,518.7,929.1,518.7z M929.1,554.2c-7.5,0-13.6-6.2-13.6-13.7c0-7.6,6.1-13.7,13.6-13.7s13.6,6.2,13.6,13.7
			C942.6,548,936.5,554.2,929.1,554.2z"/>
	</g>
	<g>
		<path class="st30" d="M1150.2,420h-100.8c-8.1,0-14.6,6.5-14.6,14.6v130.9c0,8,6.6,14.6,14.6,14.6h100.8c8.1,0,14.6-6.5,14.6-14.6
			V434.6C1164.8,426.5,1158.2,420,1150.2,420z M1156.3,565.4c0,3.4-2.8,6.1-6.2,6.1h-100.8c-3.4,0-6.2-2.8-6.2-6.1v-95.1h113.1
			V565.4z M1156.3,461.9h-113.1v-27.4c0-3.4,2.8-6.1,6.2-6.1h100.8c3.4,0,6.2,2.8,6.2,6.1V461.9z"/>
		<path class="st30" d="M1079.6,435h-20.9c-5.4,0-9.8,4.4-9.8,9.8v0.6c0,5.4,4.4,9.8,9.8,9.8h20.9c5.4,0,9.8-4.4,9.8-9.8v-0.6
			C1089.4,439.4,1085,435,1079.6,435z M1082.6,445.4c0,1.7-1.4,3.1-3.1,3.1h-20.9c-1.7,0-3.1-1.4-3.1-3.1v-0.6
			c0-1.7,1.4-3.1,3.1-3.1h20.9c1.7,0,3.1,1.4,3.1,3.1V445.4z"/>
		<path class="st30" d="M1099.8,556.9c16,0,29.6-10.7,34-25.3h3.1c5.6,0,10.1-4.5,10.1-10.1s-4.5-10.1-10.1-10.1h-3.1
			c-4.4-14.6-17.9-25.3-34-25.3c-19.5,0-35.5,15.9-35.5,35.4C1064.3,541.1,1080.2,556.9,1099.8,556.9z M1135.1,518.2h1.8
			c1.9,0,3.4,1.5,3.4,3.4s-1.5,3.4-3.4,3.4h-1.8c0.1-1.1,0.2-2.2,0.2-3.4S1135.2,519.3,1135.1,518.2z M1099.8,492.9
			c15.8,0,28.7,12.8,28.7,28.6s-12.9,28.6-28.7,28.6s-28.7-12.8-28.7-28.6S1084,492.9,1099.8,492.9z"/>
		<path class="st30" d="M1099.8,543.5c12.1,0,21.9-9.8,21.9-21.9c0-12.1-9.8-21.9-21.9-21.9c-12.1,0-21.9,9.8-21.9,21.9
			C1077.8,533.6,1087.7,543.5,1099.8,543.5z M1099.8,506.4c8.4,0,15.2,6.8,15.2,15.2s-6.8,15.2-15.2,15.2s-15.2-6.8-15.2-15.2
			S1091.4,506.4,1099.8,506.4z"/>
	</g>
	<g>
		<path class="st30" d="M1296.7,477.4h-2.2v-14.9c0-14.9-6.4-26.8-18.5-34.5c-9.3-5.8-19.1-7.6-22.9-8.1c-1.3-0.2-2.7,0.2-3.7,1.1
			c-1,0.9-1.6,2.1-1.6,3.4v52.9h-2.2c-3.8,0-6.8,3-6.8,6.7v89.1c0,3.7,3.1,6.7,6.8,6.7h51.1c3.8,0,6.8-3,6.8-6.7v-89.1
			C1303.5,480.5,1300.5,477.4,1296.7,477.4z M1255.3,427.9c9.5,1.9,31.6,9,31.6,34.6v14.9h-31.6V427.9z M1296,484.9v17.7h-49.7
			v-17.7H1296z M1246.3,572.6V510h49.7v62.6H1246.3z"/>
		<path class="st30" d="M1355,516.1h-38.1c-3.2,0-5.8,2.6-5.8,5.7v52.5c0,3.1,2.6,5.7,5.8,5.7h38.1c3.2,0,5.8-2.6,5.8-5.7v-52.5
			C1360.8,518.6,1358.2,516.1,1355,516.1z M1353.2,572.6h-34.6v-49.1h34.6V572.6z"/>
	</g>
	<path class="st30" d="M1568.7,484.7c-1.3,0-2.5,0.2-3.7,0.7v-9.1c0-10.1-8-18.3-17.8-18.3c-9.8,0-17.8,8.2-17.8,18.3v8.4h-59.3
		v-8.4c0-10.1-8-18.3-17.8-18.3s-17.8,8.2-17.8,18.3v9.1c-1.2-0.4-2.4-0.7-3.7-0.7c-6.1,0-11.1,5.1-11.1,11.5v7.6
		c0,6.3,5,11.5,11.1,11.5c1.3,0,2.5-0.2,3.7-0.7v9.1c0,10.1,8,18.3,17.8,18.3s17.8-8.2,17.8-18.3v-8.4h59.3v8.4
		c0,10.1,8,18.3,17.8,18.3c9.8,0,17.8-8.2,17.8-18.3v-9.1c1.2,0.4,2.4,0.7,3.7,0.7c6.1,0,11.1-5.1,11.1-11.5v-7.6
		C1579.8,489.9,1574.8,484.7,1568.7,484.7z M1430.9,507.6c-2,0-3.7-1.7-3.7-3.8v-7.6c0-2.1,1.7-3.8,3.7-3.8c2,0,3.7,1.7,3.7,3.8v7.6
		C1434.6,505.9,1432.9,507.6,1430.9,507.6z M1462.7,523.7c0,5.9-4.7,10.7-10.4,10.7c-5.7,0-10.4-4.8-10.4-10.7v-19.9v-7.6v-19.9
		c0-5.9,4.7-10.7,10.4-10.7c5.7,0,10.4,4.8,10.4,10.7V523.7z M1470.1,507.6v-15.3h59.3v15.3H1470.1z M1557.6,523.7
		c0,5.9-4.7,10.7-10.4,10.7c-5.7,0-10.4-4.8-10.4-10.7v-47.3c0-5.9,4.7-10.7,10.4-10.7c5.7,0,10.4,4.8,10.4,10.7v19.9v7.6V523.7z
		 M1572.4,503.8c0,2.1-1.7,3.8-3.7,3.8s-3.7-1.7-3.7-3.8v-7.6c0-2.1,1.7-3.8,3.7-3.8s3.7,1.7,3.7,3.8V503.8z"/>
	<g>
		<path class="st30" d="M1775.6,483.6c-2.3,0-4.2,1.9-4.2,4.2v63.6c-8.7-6.6-24.6-16.3-43.2-16.3c-10.3,0-19.2,6.1-19.2,6.1
			l-9.2,6.8l-9.7-6.1c-6.7-4.2-13.1-6.3-19.2-6.3c-18.2,0-33.9,11.1-42.7,18.9V487c0-2.3-1.9-4.2-4.2-4.2c-2.3,0-4.2,1.9-4.2,4.2
			v77.8c0,1.8,1.1,3.4,2.8,4c0.5,0.2,1,0.3,1.5,0.3c1.2,0,2.4-0.5,3.2-1.5c0.2-0.2,20.1-23.4,43.7-23.4c4.5,0,9.4,1.7,14.7,5
			l12.1,7.6c1.5,0.9,3.3,0.9,4.7-0.2l11.5-8.4c0.6-0.4,7.2-4.5,14.3-4.5c24.2,0,44.2,19.7,44.4,19.9c1.2,1.2,3,1.6,4.6,0.9
			c1.6-0.7,2.6-2.2,2.6-3.9v-72.8C1779.8,485.5,1777.9,483.6,1775.6,483.6z"/>
		<path class="st30" d="M1643.3,531.5c1.5,0.7,3.3,0.4,4.5-0.7c0.8-0.7,20.3-17.6,48.9,0.4c0.2,0.1,0.3,0.2,0.5,0.3c0,0,0,0,0.1,0
			c0.2,0.1,0.5,0.2,0.7,0.2c0.1,0,0.1,0,0.2,0c0.2,0,0.4,0.1,0.6,0.1c0,0,0.1,0,0.1,0c0,0,0,0,0,0c0,0,0,0,0.1,0
			c0.3,0,0.5,0,0.7-0.1c0.1,0,0.1,0,0.2,0c0.2,0,0.4-0.1,0.6-0.2c0.1,0,0.2-0.1,0.2-0.1c0.2-0.1,0.3-0.2,0.5-0.2
			c0.1,0,0.1-0.1,0.2-0.1c0,0,0.1,0,0.1-0.1c0.3-0.2,26.4-19,50.4-0.1c0.8,0.6,1.7,0.9,2.6,0.9c0.6,0,1.3-0.1,1.8-0.4
			c1.4-0.7,2.4-2.2,2.4-3.8V452c0-0.9-0.3-1.7-0.7-2.4c-0.5-0.7-12.4-17.9-30.1-18.5c-9.8-0.3-19.2,4.5-28,14.2
			c-4.7-5.4-14-13.8-26.3-14.3c-11.2-0.5-21.9,5.7-31.9,18.4c-0.6,0.7-0.9,1.7-0.9,2.6v75.6C1640.8,529.3,1641.8,530.9,1643.3,531.5
			z M1727.5,439.6c11.4,0.3,20.2,10.6,22.8,13.9v66.4c-18.8-10.4-37.4-4.2-47,0.5l0.7-66.8C1711.7,444.1,1719.5,439.4,1727.5,439.6z
			 M1649.3,453.5c7.9-9.6,15.9-14.4,24-14.1c11.2,0.4,19.9,10.7,22.3,13.9l-0.7,67.1c-8.8-4.4-16.8-5.9-23.8-5.9
			c-9.3,0-16.8,2.7-21.8,5.4V453.5z"/>
	</g>
	<g>
		<path class="st30" d="M1966.6,460.5h-6.2V430c0-5.5-4.5-10-10.1-10h-101.1c-5.6,0-10.1,4.5-10.1,10v30.5h-6.2
			c-5.6,0-10.1,4.5-10.1,10.1v60.9c0,5.6,4.5,10.1,10.1,10.1h19.4v33c0,3,2.4,5.5,5.4,5.5h84c3,0,5.4-2.4,5.4-5.5v-33h19.4
			c5.6,0,10.1-4.5,10.1-10.1v-60.9C1976.8,465,1972.2,460.5,1966.6,460.5z M1846.9,430c0-1.2,1.1-2.2,2.4-2.2h101.1
			c1.3,0,2.4,1,2.4,2.2v30.5h-105.8V430z M1939.4,572.2h-79.3v-70.1h79.3V572.2z M1969,531.5c0,1.2-1.1,2.3-2.4,2.3h-19.4v-34
			c0-3-2.4-5.5-5.4-5.5h-84c-3,0-5.4,2.4-5.4,5.5v34h-19.4c-1.3,0-2.4-1.1-2.4-2.3v-60.9c0-1.2,1.1-2.3,2.4-2.3h133.7
			c1.3,0,2.4,1.1,2.4,2.3V531.5z"/>
		<path class="st30" d="M1874.9,526.6h49.8c2.1,0,3.9-1.7,3.9-3.9s-1.7-3.9-3.9-3.9h-49.8c-2.1,0-3.9,1.7-3.9,3.9
			S1872.7,526.6,1874.9,526.6z"/>
		<path class="st30" d="M1874.9,554.4h49.8c2.1,0,3.9-1.7,3.9-3.9s-1.7-3.9-3.9-3.9h-49.8c-2.1,0-3.9,1.7-3.9,3.9
			S1872.7,554.4,1874.9,554.4z"/>
		<ellipse class="st30" cx="1844.4" cy="481.6" rx="7" ry="7"/>
	</g>
	<path class="st161" d="M103.7,641.1l-42.4,31.3l-34.7-45.9c-1.2-1.6-3.6-2-5.2-0.8c-1.7,1.2-2,3.5-0.8,5.2l96,126.8
		c-2.6,3.8-2.6,8.9,0.4,12.8c3.7,4.9,10.8,5.9,15.7,2.3c3.3-2.4,4.8-6.4,4.4-10.2l37.7-27.8c5.6-4.1,6.8-12,2.6-17.6l-55.7-73.6
		C117.3,638.1,109.3,636.9,103.7,641.1z M128.1,766.9c-1.7,1.2-4,0.9-5.2-0.8s-0.9-4,0.8-5.2c1.7-1.2,4-0.9,5.2,0.8
		C130.1,763.3,129.8,765.6,128.1,766.9z M171.2,721.7c1.7,2.3,1.3,5.5-1.1,7.3l-36.6,27c-3-2.8-7.3-3.8-11.1-2.6l-56.8-75l20.3-15
		l48.2,63.7c1.2,1.6,3.6,2,5.2,0.8c1.7-1.2,2-3.5,0.8-5.2l-48.2-63.7l16.1-11.9c2.3-1.7,5.6-1.2,7.3,1.1L171.2,721.7z"/>
	<g>
		<path class="st161" d="M343,633c-1.6-7.5-8.4-13-16.3-13h-53.9c-7.8,0-14.6,5.5-16.3,13l-12.8,59.9h112L343,633z M265,634.7
			c0.8-3.6,4.1-6.3,7.8-6.3h53.9c3.8,0,7.1,2.6,7.8,6.3l10.6,49.6h-90.8L265,634.7z"/>
		<path class="st161" d="M322.8,701.2h-79.1v8.5h51.8v61.8h-27.6c-4.8,0-8.7,3.8-8.9,8.5h36.5h8.5h36.5c-0.2-4.7-4.1-8.5-8.9-8.5
			H304v-61.8h18.8V730h8.5v-20.3h24.4v-8.5h-24.4H322.8z"/>
	</g>
	<g>
		<path class="st161" d="M539,696.3c-31-11.5-36.1-22.5-38-26.6c-0.3-0.7-0.6-1.3-1-1.9c-1.9-3.1-8.3-8.6-15-7.6
			c-3.6,0.5-8.5,3.1-11.2,12.2c-0.7,2.5-1.9,4.1-3.8,5c-7.1,3.7-22.8-2.2-33.2-6.1c-4-1.5-8.4,0.2-10.5,4
			c-3.8,6.9-9.5,23.2-4.9,54.7c0.6,4.4,4.4,7.7,8.7,7.7h24.2c4.4,0,8.1-3.6,8.3-8.1c9.2,4.8,21.6,10.5,30.4,10.5
			c6.7,0,20.5-0.4,33.8-0.8c11.8-0.3,22.9-0.6,29.1-0.7c7.5-0.1,22.1-2.7,23.7-12.2C581.2,716.7,568.3,707.1,539,696.3z
			 M571.3,724.8c-0.3,1.7-6.8,4.9-15.4,5c-6.3,0.1-17.4,0.4-29.2,0.7c-13.3,0.4-27,0.8-33.6,0.8c-5.6,0-15.5-3.6-27.2-9.8
			c-1.2-0.6-2.4-0.9-3.7-0.9c-1.4,0-2.9,0.4-4.2,1.2c-2.4,1.5-3.8,4.2-3.8,7.1v0.1h-24c-0.2,0-0.3-0.1-0.3-0.3
			c-4.4-30,1.2-44.3,3.8-49.1c0.1-0.1,0.2-0.1,0.3-0.1c16.1,6,30.2,10.6,39.8,5.7c4-2,6.7-5.5,8.1-10.3c0.6-2.1,2-5.8,4.3-6.1
			c2.6-0.4,6.1,2.7,6.7,3.7c0.1,0.1,0.3,0.6,0.5,1c2.6,5.5,8.6,18.4,42.8,31.1C571.5,717.6,571.3,724.8,571.3,724.8z"/>
		<path class="st161" d="M504.5,712.3c-1.1-0.4-2-0.7-2.7-1c-0.9-0.4-2.2-1-4.2-1.9c-2.1-1-4.6-0.1-5.6,2.1c-0.8,1.7-0.4,3.7,0.8,5
			c0.3,0.3,8.6,4.1,8.9,4.2c0.5,0.2,0.9,0.2,1.4,0.2c1.7,0,3.4-1.1,4-2.9C507.8,715.6,506.7,713.1,504.5,712.3z"/>
		<path class="st161" d="M544.3,717.6c-16.5,1.2-31.5-2.7-31.8-2.8c-2.3-0.6-4.6,0.8-5.1,3.1c-0.6,2.3,0.8,4.7,3,5.3
			c0.6,0.2,12.5,3.3,27.4,3.3c2.3,0,4.7-0.1,7.1-0.2c2.3-0.2,4.1-2.3,3.9-4.7S546.6,717.4,544.3,717.6z"/>
	</g>
	<path class="st161" d="M749.1,656.6c-5.3-2.6-10.6-4.6-14.4-5.9l1.5-14c0.3-2.3-0.9-4.4-3-5.5c-0.1,0-0.2-0.1-0.3-0.1
		c-18-12.9-35.4-12.2-47-9.3c-12.5,3.2-20.7,9.4-21,9.7c-1.2,0.9-1.7,2.4-1.5,3.8c-0.1,0.4-0.1,0.9,0,1.4l1.5,13.4
		c-10.2,3.4-36.1,13.5-36.1,28.8v83.8c0,9.4,7.6,17.1,17,17.1h33.2c0,0,0,0,0,0c0,0,0,0,0,0h40.5c0.4,0.2,0.9,0.3,1.4,0.3
		c0.3,0,0.6,0,0.8-0.1c0.2,0,0.4-0.1,0.5-0.2h31.6c9.4,0,17-7.7,17-17.1v-83.8C770.8,670.9,763.7,663.7,749.1,656.6z M699.9,695.5
		l15.9,76.1h-31.9L699.9,695.5z M700,694.6l-13.2-16.1l10.4-8l2.4-1.9l13.2,10.1L700,694.6z M678.6,674.6c-0.8,0.6-1.5,0.4-1.9,0.2
		c-0.4-0.2-1-0.6-1.1-1.5l-3.3-30.2l21.3,20.1l-4.4,3.4L678.6,674.6z M724,673.3c-0.1,1-0.8,1.4-1.1,1.5c-0.4,0.2-1.1,0.4-1.9-0.2
		L706,663.1l21.3-20.1L724,673.3z M724.1,635l-24.3,22.9l-24.7-23.3C684.1,629.7,703.3,622.6,724.1,635z M636.9,762.6v-83.8
		c0-8.1,17.1-16.4,28.9-20.5l1.7,15.9c0.4,3.6,2.6,6.7,6,8.1c1.3,0.6,2.6,0.8,4,0.8c0.8,0,1.6-0.1,2.4-0.3l11.4,14l-15.6,74.8h-29.9
		C640.9,771.6,636.9,767.6,636.9,762.6z M762.7,762.6c0,4.9-4,9-8.9,9H724l-15.6-74.5l11.6-14.2c0.7,0.1,1.4,0.2,2.1,0.2
		c1.3,0,2.7-0.3,4-0.8c3.4-1.4,5.6-4.5,6-8.1l1.7-15.2c13.5,4.9,29,13.1,29,19.8V762.6z"/>
	<g>
		<path class="st161" d="M945.8,701.5v-19.9h-33.5v19.9c-0.4,0.1-0.7,0.1-1.1,0.2v-13.7c0-13.7-10.6-24.9-24-25.8v-19.7h-12.8v-14.5
			h24V620h-47.9v8.1h16v14.5h-12.8v19.7c-13.3,0.8-24,12.1-24,25.8V780h58.6h5.1h76.3v-49.2C969.8,716.3,959.4,704.1,945.8,701.5z
			 M920.3,689.6h17.6v11.3h-17.6V689.6z M861.7,650.7h17.6v11.3h-17.6V650.7z M837.8,771.9v-83.9c0-9.8,7.9-17.8,17.6-17.8h30.3
			c9.7,0,17.6,8,17.6,17.8v16.8c-4.2,2.4-7.8,5.9-10.4,10.1v-14.8c0-4-3.2-7.3-7.2-7.3h-30.3c-4,0-7.2,3.3-7.2,7.3v41.9
			c0,4,3.2,7.3,7.2,7.3h30.3c0.9,0,1.8-0.2,2.7-0.5v23.1H837.8z M884.9,700.9v40.3h-28.7v-40.3H884.9z M961.8,771.9h-65.5v-41.1
			c0-12,9.7-21.8,21.6-21.8h22.4c11.9,0,21.6,9.8,21.6,21.8V771.9z"/>
		<path class="st161" d="M929.1,718.7c-11.9,0-21.6,9.8-21.6,21.8c0,12,9.7,21.8,21.6,21.8s21.6-9.8,21.6-21.8
			C950.6,728.5,940.9,718.7,929.1,718.7z M929.1,754.2c-7.5,0-13.6-6.2-13.6-13.7c0-7.6,6.1-13.7,13.6-13.7s13.6,6.2,13.6,13.7
			C942.6,748,936.5,754.2,929.1,754.2z"/>
	</g>
	<g>
		<path class="st161" d="M1150.2,620h-100.8c-8.1,0-14.6,6.5-14.6,14.6v130.9c0,8,6.6,14.6,14.6,14.6h100.8
			c8.1,0,14.6-6.5,14.6-14.6V634.6C1164.8,626.5,1158.2,620,1150.2,620z M1156.3,765.4c0,3.4-2.8,6.1-6.2,6.1h-100.8
			c-3.4,0-6.2-2.8-6.2-6.1v-95.1h113.1V765.4z M1156.3,661.9h-113.1v-27.4c0-3.4,2.8-6.1,6.2-6.1h100.8c3.4,0,6.2,2.8,6.2,6.1V661.9
			z"/>
		<path class="st161" d="M1079.6,635h-20.9c-5.4,0-9.8,4.4-9.8,9.8v0.6c0,5.4,4.4,9.8,9.8,9.8h20.9c5.4,0,9.8-4.4,9.8-9.8v-0.6
			C1089.4,639.4,1085,635,1079.6,635z M1082.6,645.4c0,1.7-1.4,3.1-3.1,3.1h-20.9c-1.7,0-3.1-1.4-3.1-3.1v-0.6
			c0-1.7,1.4-3.1,3.1-3.1h20.9c1.7,0,3.1,1.4,3.1,3.1V645.4z"/>
		<path class="st161" d="M1099.8,756.9c16,0,29.6-10.7,34-25.3h3.1c5.6,0,10.1-4.5,10.1-10.1s-4.5-10.1-10.1-10.1h-3.1
			c-4.4-14.6-17.9-25.3-34-25.3c-19.5,0-35.5,15.9-35.5,35.4S1080.2,756.9,1099.8,756.9z M1135.1,718.2h1.8c1.9,0,3.4,1.5,3.4,3.4
			s-1.5,3.4-3.4,3.4h-1.8c0.1-1.1,0.2-2.2,0.2-3.4S1135.2,719.3,1135.1,718.2z M1099.8,692.9c15.8,0,28.7,12.8,28.7,28.6
			s-12.9,28.6-28.7,28.6s-28.7-12.8-28.7-28.6S1084,692.9,1099.8,692.9z"/>
		<path class="st161" d="M1099.8,743.5c12.1,0,21.9-9.8,21.9-21.9s-9.8-21.9-21.9-21.9c-12.1,0-21.9,9.8-21.9,21.9
			S1087.7,743.5,1099.8,743.5z M1099.8,706.4c8.4,0,15.2,6.8,15.2,15.2s-6.8,15.2-15.2,15.2s-15.2-6.8-15.2-15.2
			S1091.4,706.4,1099.8,706.4z"/>
	</g>
	<g>
		<path class="st161" d="M1296.7,677.4h-2.2v-14.9c0-14.9-6.4-26.8-18.5-34.5c-9.3-5.8-19.1-7.6-22.9-8.1c-1.3-0.2-2.7,0.2-3.7,1.1
			c-1,0.9-1.6,2.1-1.6,3.4v52.9h-2.2c-3.8,0-6.8,3-6.8,6.7v89.1c0,3.7,3.1,6.7,6.8,6.7h51.1c3.8,0,6.8-3,6.8-6.7v-89.1
			C1303.5,680.5,1300.5,677.4,1296.7,677.4z M1255.3,627.9c9.5,1.9,31.6,9,31.6,34.6v14.9h-31.6V627.9z M1296,684.9v17.7h-49.7
			v-17.7H1296z M1246.3,772.6V710h49.7v62.6H1246.3z"/>
		<path class="st161" d="M1355,716.1h-38.1c-3.2,0-5.8,2.6-5.8,5.7v52.5c0,3.1,2.6,5.7,5.8,5.7h38.1c3.2,0,5.8-2.6,5.8-5.7v-52.5
			C1360.8,718.6,1358.2,716.1,1355,716.1z M1353.2,772.6h-34.6v-49.1h34.6V772.6z"/>
	</g>
	<path class="st161" d="M1568.7,684.7c-1.3,0-2.5,0.2-3.7,0.7v-9.1c0-10.1-8-18.3-17.8-18.3c-9.8,0-17.8,8.2-17.8,18.3v8.4h-59.3
		v-8.4c0-10.1-8-18.3-17.8-18.3s-17.8,8.2-17.8,18.3v9.1c-1.2-0.4-2.4-0.7-3.7-0.7c-6.1,0-11.1,5.1-11.1,11.5v7.6
		c0,6.3,5,11.5,11.1,11.5c1.3,0,2.5-0.2,3.7-0.7v9.1c0,10.1,8,18.3,17.8,18.3s17.8-8.2,17.8-18.3v-8.4h59.3v8.4
		c0,10.1,8,18.3,17.8,18.3c9.8,0,17.8-8.2,17.8-18.3v-9.1c1.2,0.4,2.4,0.7,3.7,0.7c6.1,0,11.1-5.1,11.1-11.5v-7.6
		C1579.8,689.9,1574.8,684.7,1568.7,684.7z M1430.9,707.6c-2,0-3.7-1.7-3.7-3.8v-7.6c0-2.1,1.7-3.8,3.7-3.8c2,0,3.7,1.7,3.7,3.8v7.6
		C1434.6,705.9,1432.9,707.6,1430.9,707.6z M1462.7,723.7c0,5.9-4.7,10.7-10.4,10.7c-5.7,0-10.4-4.8-10.4-10.7v-19.9v-7.6v-19.9
		c0-5.9,4.7-10.7,10.4-10.7c5.7,0,10.4,4.8,10.4,10.7V723.7z M1470.1,707.6v-15.3h59.3v15.3H1470.1z M1557.6,723.7
		c0,5.9-4.7,10.7-10.4,10.7c-5.7,0-10.4-4.8-10.4-10.7v-47.3c0-5.9,4.7-10.7,10.4-10.7c5.7,0,10.4,4.8,10.4,10.7v19.9v7.6V723.7z
		 M1572.4,703.8c0,2.1-1.7,3.8-3.7,3.8s-3.7-1.7-3.7-3.8v-7.6c0-2.1,1.7-3.8,3.7-3.8s3.7,1.7,3.7,3.8V703.8z"/>
	<g>
		<path class="st161" d="M1775.6,683.6c-2.3,0-4.2,1.9-4.2,4.2v63.6c-8.7-6.6-24.6-16.3-43.2-16.3c-10.3,0-19.2,6.1-19.2,6.1
			l-9.2,6.8l-9.7-6.1c-6.7-4.2-13.1-6.3-19.2-6.3c-18.2,0-33.9,11.1-42.7,18.9V687c0-2.3-1.9-4.2-4.2-4.2c-2.3,0-4.2,1.9-4.2,4.2
			v77.8c0,1.8,1.1,3.4,2.8,4c0.5,0.2,1,0.3,1.5,0.3c1.2,0,2.4-0.5,3.2-1.5c0.2-0.2,20.1-23.4,43.7-23.4c4.5,0,9.4,1.7,14.7,5
			l12.1,7.6c1.5,0.9,3.3,0.9,4.7-0.2l11.5-8.4c0.6-0.4,7.2-4.5,14.3-4.5c24.2,0,44.2,19.7,44.4,19.9c1.2,1.2,3,1.6,4.6,0.9
			c1.6-0.7,2.6-2.2,2.6-3.9v-72.8C1779.8,685.5,1777.9,683.6,1775.6,683.6z"/>
		<path class="st161" d="M1643.3,731.5c1.5,0.7,3.3,0.4,4.5-0.7c0.8-0.7,20.3-17.6,48.9,0.4c0.2,0.1,0.3,0.2,0.5,0.3c0,0,0,0,0.1,0
			c0.2,0.1,0.5,0.2,0.7,0.2c0.1,0,0.1,0,0.2,0c0.2,0,0.4,0.1,0.6,0.1c0,0,0.1,0,0.1,0c0,0,0,0,0,0c0,0,0,0,0.1,0
			c0.3,0,0.5,0,0.7-0.1c0.1,0,0.1,0,0.2,0c0.2,0,0.4-0.1,0.6-0.2c0.1,0,0.2-0.1,0.2-0.1c0.2-0.1,0.3-0.2,0.5-0.2
			c0.1,0,0.1-0.1,0.2-0.1c0,0,0.1,0,0.1-0.1c0.3-0.2,26.4-19,50.4-0.1c0.8,0.6,1.7,0.9,2.6,0.9c0.6,0,1.3-0.1,1.8-0.4
			c1.4-0.7,2.4-2.2,2.4-3.8V652c0-0.9-0.3-1.7-0.7-2.4c-0.5-0.7-12.4-17.9-30.1-18.5c-9.8-0.3-19.2,4.5-28,14.2
			c-4.7-5.4-14-13.8-26.3-14.3c-11.2-0.5-21.9,5.7-31.9,18.4c-0.6,0.7-0.9,1.7-0.9,2.6v75.6C1640.8,729.3,1641.8,730.9,1643.3,731.5
			z M1727.5,639.6c11.4,0.3,20.2,10.6,22.8,13.9v66.4c-18.8-10.4-37.4-4.2-47,0.5l0.7-66.8C1711.7,644.1,1719.5,639.4,1727.5,639.6z
			 M1649.3,653.5c7.9-9.6,15.9-14.4,24-14.1c11.2,0.4,19.9,10.7,22.3,13.9l-0.7,67.1c-8.8-4.4-16.8-5.9-23.8-5.9
			c-9.3,0-16.8,2.7-21.8,5.4V653.5z"/>
	</g>
	<g>
		<path class="st161" d="M1966.6,660.5h-6.2V630c0-5.5-4.5-10-10.1-10h-101.1c-5.6,0-10.1,4.5-10.1,10v30.5h-6.2
			c-5.6,0-10.1,4.5-10.1,10.1v60.9c0,5.6,4.5,10.1,10.1,10.1h19.4v33c0,3,2.4,5.5,5.4,5.5h84c3,0,5.4-2.4,5.4-5.5v-33h19.4
			c5.6,0,10.1-4.5,10.1-10.1v-60.9C1976.8,665,1972.2,660.5,1966.6,660.5z M1846.9,630c0-1.2,1.1-2.2,2.4-2.2h101.1
			c1.3,0,2.4,1,2.4,2.2v30.5h-105.8V630z M1939.4,772.2h-79.3v-70.1h79.3V772.2z M1969,731.5c0,1.2-1.1,2.3-2.4,2.3h-19.4v-34
			c0-3-2.4-5.5-5.4-5.5h-84c-3,0-5.4,2.4-5.4,5.5v34h-19.4c-1.3,0-2.4-1.1-2.4-2.3v-60.9c0-1.2,1.1-2.3,2.4-2.3h133.7
			c1.3,0,2.4,1.1,2.4,2.3V731.5z"/>
		<path class="st161" d="M1874.9,726.6h49.8c2.1,0,3.9-1.7,3.9-3.9s-1.7-3.9-3.9-3.9h-49.8c-2.1,0-3.9,1.7-3.9,3.9
			S1872.7,726.6,1874.9,726.6z"/>
		<path class="st161" d="M1874.9,754.4h49.8c2.1,0,3.9-1.7,3.9-3.9s-1.7-3.9-3.9-3.9h-49.8c-2.1,0-3.9,1.7-3.9,3.9
			S1872.7,754.4,1874.9,754.4z"/>
		<ellipse class="st161" cx="1844.4" cy="681.6" rx="7" ry="7"/>
	</g>
</g>
<g id="图层_2">
</g>
</svg>
