<?xml version="1.0" encoding="utf-8"?>
<!-- Generator: Adobe Illustrator 21.0.0, SVG Export Plug-In . SVG Version: 6.00 Build 0)  -->
<svg version="1.1" id="图层_2" xmlns="http://www.w3.org/2000/svg" xmlns:xlink="http://www.w3.org/1999/xlink" x="0px" y="0px"
	 viewBox="0 0 2000 2000" style="enable-background:new 0 0 2000 2000;" xml:space="preserve">
<style type="text/css">
	.st0{fill:#3199FF;}
	.st1{fill:#7F7F7F;}
	.st2{fill:#FFFFFF;}
	.st3{fill:#CCCCCC;}
	.st4{fill:#FF7D7D;}
	.st5{fill:#009BF5;}
	.st6{fill:#3184B4;}
	.st7{fill:#F1F1F1;}
	.st8{fill:#D45E5E;}
	.st9{fill:#F45656;}
	.st10{fill:#F9EA61;}
	.st11{fill:#FFAC09;}
	.st12{fill:#FFBE31;}
	.st13{fill:#FFD131;}
	.st14{fill:#DEDEDE;}
	.st15{fill:#BBBBBB;}
	.st16{fill:#CFCFCF;}
	.st17{fill:#FAC77D;}
	.st18{fill:#E1963F;}
	.st19{fill:#F2AB57;}
	.st20{fill:#F8C171;}
	.st21{fill:none;stroke:#000000;stroke-width:12;stroke-miterlimit:10;}
	.st22{fill:#F4F4F4;stroke:#CCCCCC;stroke-width:12;stroke-miterlimit:10;}
	.st23{fill:none;stroke:#000000;stroke-width:4;stroke-miterlimit:10;}
	.st24{fill:none;stroke:#FFFFFF;stroke-width:4;stroke-miterlimit:10;}
	.st25{fill:url(#SVGID_1_);}
	.st26{fill:url(#SVGID_2_);}
	.st27{fill:url(#SVGID_3_);}
	.st28{fill:url(#SVGID_4_);}
	.st29{fill:url(#SVGID_5_);}
	.st30{fill:url(#SVGID_6_);}
	.st31{fill:none;stroke:#FFFFFF;stroke-width:10;stroke-miterlimit:10;}
	.st32{fill:none;stroke:#FFFFFF;stroke-width:10;stroke-linecap:round;stroke-miterlimit:10;}
	.st33{opacity:0.51;fill:#FFB164;}
	.st34{opacity:0.57;fill:#FF0000;}
	.st35{fill:none;stroke:#000000;stroke-width:8;stroke-miterlimit:10;}
	.st36{fill:#FFFCF3;}
	.st37{fill:#FAFCFF;}
	.st38{fill:none;stroke:#000000;stroke-width:10;stroke-miterlimit:10;}
	.st39{fill:#FF1800;}
	.st40{fill:#FFCA08;}
	.st41{fill:#FF5A00;}
	.st42{fill:url(#SVGID_7_);}
	.st43{fill:url(#SVGID_8_);}
	.st44{fill:url(#SVGID_9_);}
	.st45{fill:url(#SVGID_10_);}
	.st46{fill:url(#SVGID_11_);}
	.st47{fill:url(#SVGID_12_);}
	.st48{fill:#FF1414;}
	.st49{fill:url(#SVGID_13_);}
	.st50{fill:url(#SVGID_14_);}
	.st51{fill:url(#SVGID_15_);}
	.st52{fill:#005CFF;}
	.st53{fill:url(#SVGID_16_);}
	.st54{fill:url(#SVGID_17_);}
	.st55{fill:url(#SVGID_18_);}
	.st56{fill:url(#SVGID_19_);}
	.st57{fill:url(#SVGID_20_);}
	.st58{fill:url(#SVGID_21_);}
	.st59{fill:#FFFAF8;}
	.st60{fill:url(#SVGID_22_);}
	.st61{fill:url(#SVGID_23_);}
	.st62{fill:url(#SVGID_24_);}
	.st63{fill:url(#SVGID_25_);}
	.st64{fill:url(#SVGID_26_);}
	.st65{fill:url(#SVGID_27_);}
	.st66{fill:url(#SVGID_28_);}
	.st67{fill:url(#SVGID_29_);}
	.st68{fill:url(#SVGID_30_);}
	.st69{fill:url(#SVGID_31_);}
	.st70{fill:url(#SVGID_32_);}
	.st71{fill:url(#SVGID_33_);}
	.st72{fill:url(#SVGID_34_);}
	.st73{fill:url(#SVGID_35_);}
	.st74{fill:url(#SVGID_36_);}
	.st75{fill:url(#SVGID_37_);}
	.st76{fill:url(#SVGID_38_);}
	.st77{fill:url(#SVGID_39_);}
	.st78{fill:url(#SVGID_40_);}
	.st79{fill:url(#SVGID_41_);}
	.st80{fill:url(#SVGID_42_);}
	.st81{fill:url(#SVGID_43_);}
	.st82{fill:url(#SVGID_44_);}
	.st83{fill:url(#SVGID_45_);}
	.st84{fill:url(#SVGID_46_);}
	.st85{fill:url(#SVGID_47_);}
	.st86{fill:url(#SVGID_48_);}
	.st87{fill:url(#SVGID_49_);}
	.st88{fill:url(#SVGID_50_);}
	.st89{fill:url(#SVGID_51_);}
	.st90{fill:url(#SVGID_52_);}
	.st91{fill:url(#SVGID_53_);}
	.st92{fill:url(#SVGID_54_);}
	.st93{fill:url(#SVGID_55_);}
	.st94{fill:url(#SVGID_56_);}
	.st95{fill:none;stroke:#000000;stroke-width:16;stroke-miterlimit:10;}
	.st96{fill:url(#SVGID_57_);}
	.st97{fill:url(#SVGID_58_);}
	.st98{fill:url(#SVGID_59_);}
	.st99{fill:none;}
	.st100{fill:url(#SVGID_60_);}
	.st101{fill:url(#SVGID_61_);}
	.st102{fill:url(#SVGID_62_);}
	.st103{fill:url(#SVGID_63_);}
	.st104{fill:url(#SVGID_64_);}
	.st105{fill:url(#SVGID_65_);}
	.st106{fill:url(#SVGID_66_);}
	.st107{fill:url(#SVGID_67_);}
	.st108{fill:url(#SVGID_68_);}
	.st109{fill:#FAFEFF;}
	.st110{fill:#F8FBFF;}
	.st111{fill:url(#SVGID_69_);}
	.st112{fill:url(#SVGID_70_);}
	.st113{fill:url(#SVGID_71_);}
	.st114{fill:url(#SVGID_72_);}
	.st115{fill:url(#SVGID_73_);}
	.st116{fill:url(#SVGID_74_);}
	.st117{fill:url(#SVGID_75_);}
	.st118{fill:url(#SVGID_76_);}
	.st119{fill:url(#SVGID_77_);}
	.st120{fill:url(#SVGID_78_);}
	.st121{fill:url(#SVGID_79_);}
	.st122{fill:url(#SVGID_80_);}
	.st123{fill:url(#SVGID_81_);}
	.st124{fill:url(#SVGID_82_);}
	.st125{fill:url(#SVGID_83_);}
	.st126{fill:url(#SVGID_84_);}
	.st127{fill:url(#SVGID_85_);}
	.st128{fill:url(#SVGID_86_);}
	.st129{fill:url(#SVGID_87_);}
	.st130{fill:url(#SVGID_88_);}
	.st131{fill:url(#SVGID_89_);}
	.st132{fill:url(#SVGID_90_);}
	.st133{fill:url(#SVGID_91_);}
	.st134{fill:url(#SVGID_92_);}
	.st135{fill:url(#SVGID_93_);}
	.st136{fill:url(#SVGID_94_);}
	.st137{fill:url(#SVGID_95_);}
	.st138{fill:url(#SVGID_96_);}
	.st139{fill:url(#SVGID_97_);}
	.st140{fill:url(#SVGID_98_);}
	.st141{fill:url(#SVGID_99_);}
	.st142{fill:url(#SVGID_100_);}
	.st143{fill:url(#SVGID_101_);}
	.st144{fill:url(#SVGID_102_);}
	.st145{fill:url(#SVGID_103_);}
	.st146{fill:url(#SVGID_104_);}
	.st147{fill:url(#SVGID_105_);}
	.st148{fill:url(#SVGID_106_);}
	.st149{fill:url(#SVGID_107_);}
	.st150{fill:url(#SVGID_108_);}
	.st151{fill:url(#SVGID_109_);}
	.st152{fill:url(#SVGID_110_);}
	.st153{fill:url(#SVGID_111_);}
	.st154{fill:url(#SVGID_112_);}
	.st155{fill:url(#SVGID_113_);}
	.st156{fill:url(#SVGID_114_);}
	.st157{fill:url(#SVGID_115_);}
	.st158{fill:url(#SVGID_116_);}
	.st159{fill:url(#SVGID_117_);}
	.st160{fill:url(#SVGID_118_);}
	.st161{fill:url(#SVGID_119_);}
	.st162{fill:url(#SVGID_120_);}
	.st163{fill:url(#SVGID_121_);}
	.st164{fill:url(#SVGID_122_);}
	.st165{fill:url(#SVGID_123_);}
	.st166{fill:url(#SVGID_124_);}
	.st167{fill:url(#SVGID_125_);}
	.st168{fill:url(#SVGID_126_);}
	.st169{fill:url(#SVGID_127_);}
	.st170{fill:url(#SVGID_128_);}
	.st171{fill:url(#SVGID_129_);}
	.st172{fill:url(#SVGID_130_);}
	.st173{fill:url(#SVGID_131_);}
	.st174{fill:url(#SVGID_132_);}
	.st175{fill:url(#SVGID_133_);}
	.st176{fill:url(#SVGID_134_);}
	.st177{fill:url(#SVGID_135_);}
	.st178{fill:url(#SVGID_136_);}
	.st179{fill:url(#SVGID_137_);}
	.st180{fill:url(#SVGID_138_);}
	.st181{fill:url(#SVGID_139_);}
	.st182{fill:url(#SVGID_140_);}
	.st183{fill:url(#SVGID_141_);}
	.st184{fill:url(#SVGID_142_);}
	.st185{fill:url(#SVGID_143_);}
	.st186{fill:url(#SVGID_144_);}
	.st187{fill:url(#SVGID_145_);}
	.st188{fill:#F2F2F2;}
	.st189{fill:url(#SVGID_146_);}
	.st190{fill:url(#SVGID_147_);}
	.st191{fill:url(#SVGID_148_);}
	.st192{fill:url(#SVGID_149_);}
	.st193{fill:url(#SVGID_150_);}
	.st194{fill:url(#SVGID_151_);}
	.st195{fill:url(#SVGID_152_);}
	.st196{fill:url(#SVGID_153_);}
	.st197{fill:url(#SVGID_154_);}
	.st198{fill:url(#SVGID_155_);}
	.st199{fill:url(#SVGID_156_);}
	.st200{fill:url(#SVGID_157_);}
	.st201{fill:url(#SVGID_158_);}
	.st202{fill:url(#SVGID_159_);}
	.st203{fill:url(#SVGID_160_);}
	.st204{fill:url(#SVGID_161_);}
	.st205{fill:url(#SVGID_162_);}
	.st206{fill:none;stroke:#000000;stroke-width:10;stroke-linecap:round;stroke-miterlimit:10;}
	.st207{clip-path:url(#SVGID_164_);fill:#3199FF;}
	.st208{clip-path:url(#SVGID_164_);fill:#3198FF;}
	.st209{clip-path:url(#SVGID_164_);fill:#3197FF;}
	.st210{clip-path:url(#SVGID_164_);fill:#3196FF;}
	.st211{clip-path:url(#SVGID_164_);fill:#3195FF;}
	.st212{clip-path:url(#SVGID_164_);fill:#3194FF;}
	.st213{clip-path:url(#SVGID_164_);fill:#3193FF;}
	.st214{clip-path:url(#SVGID_164_);fill:#3192FF;}
	.st215{clip-path:url(#SVGID_164_);fill:#3191FF;}
	.st216{clip-path:url(#SVGID_164_);fill:#318FFF;}
	.st217{clip-path:url(#SVGID_164_);fill:#318EFF;}
	.st218{clip-path:url(#SVGID_164_);fill:#318DFF;}
	.st219{clip-path:url(#SVGID_164_);fill:#318CFF;}
	.st220{clip-path:url(#SVGID_164_);fill:#318BFF;}
	.st221{clip-path:url(#SVGID_164_);fill:#318AFF;}
	.st222{clip-path:url(#SVGID_164_);fill:#3189FF;}
	.st223{clip-path:url(#SVGID_164_);fill:#3188FF;}
	.st224{clip-path:url(#SVGID_166_);fill:#3199FF;}
	.st225{clip-path:url(#SVGID_166_);fill:#3198FF;}
	.st226{clip-path:url(#SVGID_166_);fill:#3197FF;}
	.st227{clip-path:url(#SVGID_166_);fill:#3196FF;}
	.st228{clip-path:url(#SVGID_166_);fill:#3195FF;}
	.st229{clip-path:url(#SVGID_166_);fill:#3194FF;}
	.st230{clip-path:url(#SVGID_166_);fill:#3193FF;}
	.st231{clip-path:url(#SVGID_166_);fill:#3192FF;}
	.st232{clip-path:url(#SVGID_166_);fill:#3191FF;}
	.st233{clip-path:url(#SVGID_166_);fill:#318FFF;}
	.st234{clip-path:url(#SVGID_166_);fill:#318EFF;}
	.st235{clip-path:url(#SVGID_166_);fill:#318DFF;}
	.st236{clip-path:url(#SVGID_166_);fill:#318CFF;}
	.st237{clip-path:url(#SVGID_166_);fill:#318BFF;}
	.st238{clip-path:url(#SVGID_166_);fill:#318AFF;}
	.st239{clip-path:url(#SVGID_166_);fill:#3189FF;}
	.st240{clip-path:url(#SVGID_166_);fill:#3188FF;}
	.st241{fill:none;stroke:#000000;stroke-width:12;stroke-linecap:round;stroke-miterlimit:10;}
	.st242{fill:#FAFDFF;}
	.st243{fill:#B2B2B2;}
	.st244{opacity:0.49;}
	.st245{fill:url(#SVGID_167_);}
	.st246{fill:url(#SVGID_168_);}
	.st247{fill:url(#SVGID_169_);}
	.st248{fill:none;stroke:#000000;stroke-width:8;stroke-linecap:round;stroke-miterlimit:10;}
	.st249{fill:#FCFCFC;}
	.st250{fill:none;stroke:#000000;stroke-width:16;stroke-linecap:round;stroke-miterlimit:10;}
	.st251{fill:#0B0A0A;}
	.st252{fill:url(#SVGID_170_);}
	.st253{fill:url(#SVGID_171_);}
	.st254{fill:url(#SVGID_172_);}
	.st255{fill:url(#SVGID_173_);}
	.st256{fill:url(#SVGID_174_);}
	.st257{fill:url(#SVGID_175_);}
	.st258{fill:url(#SVGID_176_);}
	.st259{fill:url(#SVGID_177_);}
	.st260{fill:url(#SVGID_178_);}
	.st261{fill:#808080;}
	.st262{fill:none;stroke:#000000;stroke-width:8;stroke-linecap:round;stroke-linejoin:round;stroke-miterlimit:10;}
	.st263{fill:none;stroke:#000000;stroke-width:10;stroke-linecap:round;stroke-linejoin:round;stroke-miterlimit:10;}
	.st264{fill:none;stroke:#000000;stroke-width:10;stroke-linejoin:round;stroke-miterlimit:10;}
	.st265{fill:none;stroke:#7F7F7F;stroke-width:10;stroke-miterlimit:10;}
	.st266{fill:none;stroke:#7F7F7F;stroke-width:10;stroke-linejoin:round;stroke-miterlimit:10;}
	.st267{fill:url(#SVGID_179_);}
	.st268{fill:url(#SVGID_180_);}
	.st269{fill:url(#SVGID_181_);}
	.st270{fill:url(#SVGID_182_);}
	.st271{fill:url(#SVGID_183_);}
	.st272{fill:url(#SVGID_184_);}
	.st273{fill:url(#SVGID_185_);}
	.st274{fill:url(#SVGID_186_);}
	.st275{fill:url(#SVGID_187_);}
	.st276{fill:url(#SVGID_188_);}
	.st277{fill:url(#SVGID_189_);}
	.st278{fill:url(#SVGID_190_);}
	.st279{fill:url(#SVGID_191_);}
	.st280{fill:url(#SVGID_192_);}
	.st281{fill:url(#SVGID_193_);}
	.st282{fill:url(#SVGID_194_);}
	.st283{fill:url(#SVGID_195_);}
	.st284{fill:url(#SVGID_196_);}
	.st285{fill:url(#SVGID_197_);}
	.st286{fill:url(#SVGID_198_);}
	.st287{fill:url(#SVGID_199_);}
	.st288{fill:url(#SVGID_200_);}
	.st289{fill:url(#SVGID_201_);}
	.st290{fill:url(#SVGID_202_);}
	.st291{fill:url(#SVGID_203_);}
	.st292{fill:url(#SVGID_204_);}
	.st293{fill:url(#SVGID_205_);}
	.st294{fill:url(#SVGID_206_);}
	.st295{fill:url(#SVGID_207_);}
	.st296{fill:url(#SVGID_208_);}
	.st297{fill:url(#SVGID_209_);}
	.st298{fill:url(#SVGID_210_);}
	.st299{fill:url(#SVGID_211_);}
	.st300{fill:url(#SVGID_212_);}
	.st301{fill:url(#SVGID_213_);}
	.st302{fill:url(#SVGID_214_);}
	.st303{fill:url(#SVGID_215_);}
	.st304{fill:url(#SVGID_216_);}
	.st305{fill:url(#SVGID_217_);}
	.st306{fill:url(#SVGID_218_);}
	.st307{fill:#318CFF;}
	.st308{fill:#E00000;}
	.st309{fill:#00C412;}
	.st310{fill:none;stroke:#FFFFFF;stroke-width:8;stroke-linecap:round;stroke-miterlimit:10;}
	.st311{fill:none;stroke:#FFFFFF;stroke-width:8;stroke-linecap:round;stroke-linejoin:round;stroke-miterlimit:10;}
	.st312{fill:#A9D6FF;}
	.st313{fill-rule:evenodd;clip-rule:evenodd;fill:url(#SVGID_219_);}
	.st314{fill-rule:evenodd;clip-rule:evenodd;fill:#FFFFFF;}
	.st315{fill-rule:evenodd;clip-rule:evenodd;fill:#CCEAFF;}
	.st316{fill:#CCEAFF;}
	.st317{fill:#42A001;}
	.st318{fill:#50B0FF;}
	.st319{fill:none;stroke:#50B0FF;stroke-width:8;stroke-miterlimit:10;}
	.st320{fill:none;stroke:#FFFFFF;stroke-width:12;stroke-miterlimit:10;}
	.st321{fill:#E5E5E5;}
</style>
<g>
	<circle class="st0" cx="1100" cy="900" r="60"/>
	<path class="st2" d="M1077.2,897.1l11.7,21.9c0,0,21.1-47.9,48.5-60.1c0,0-3.1,24.2,1.8,30.8c0,0-19.7,6.6-48.3,51.2
		c0,0-21.1-23-35.7-30.4L1077.2,897.1z"/>
</g>
<path class="st0" d="M671.3,295.9l16.8,31.6c0,0,30.1-68.9,69.3-86.4c0,0-4.4,34.8,2.5,44.3c0,0-28.2,9.6-69,73.7
	c0,0-30.1-33.2-51-43.7L671.3,295.9z"/>
<path class="st1" d="M1291.9,255.1c20.4,0,40.7,0,61.1,0c0.1,0,0.1,0.1,0.2,0.1c2.3,0.2,4,1.4,5.2,3.2c0.7,1,1,2.2,1.5,3.3
	c0,21.6,0,43.1,0,64.7c0,0.1-0.1,0.1-0.1,0.2c-0.6,2.9-2.2,4.9-5,6c-1.6,0.6-3.2,0.6-4.8,0.6c-2.3,0-4.7,0-7,0
	c-1.5,6.9-7.3,11.4-13.7,11.9c-4.2,0.3-7.9-1-11-3.8c-2.4-2.1-4-4.9-4.7-8.1c-0.3,0-0.6,0-0.8,0c-6.6,0-13.1,0-19.7,0
	c-1.7,0-3.2-0.4-4.7-1.3c-0.2-0.1-0.5-0.2-0.7-0.1c-1.7,1.1-3.6,1.5-5.6,1.4c-0.5,0-0.7,0.1-0.9,0.7c-1.2,4.5-3.9,7.7-8,9.7
	c-2.6,1.3-5.4,1.7-8.3,1.4c-3-0.4-5.7-1.5-7.9-3.5c-2.4-2.1-4.1-4.6-4.8-7.8c-0.1-0.4-0.3-0.5-0.7-0.5c-1,0-2.1,0-3.1,0
	c-2.8,0.1-5.1-0.9-6.9-3.1c-1-1.2-1.6-2.6-1.6-4.1c0-8.8,0-17.6,0-26.5c0-0.3,0-0.6,0.1-0.9c0.5-2.4,1.7-4.4,3-6.4
	c1.5-2.3,3.1-4.6,4.8-6.8c2.1-2.6,4.2-5.2,6.4-7.7c1.3-1.5,2.9-2.7,4.4-4c1.5-1.2,3.1-1.9,5.1-1.9c6.7,0.1,13.4,0,20.1,0
	c0.3,0,0.6,0,0.9,0c0-2.7,0-5.4,0-8c0-0.9,0.1-1.8,0.3-2.7c0.6-2.5,2.1-4.4,4.5-5.4C1290.4,255.5,1291.2,255.3,1291.9,255.1z
	 M1343,326.7c2.9,0,5.8,0,8.7,0c1.2,0,1.8-0.7,1.8-1.9c0-20.5,0-41,0-61.6c0-1.2-0.6-1.9-1.8-1.9c-19.5,0-39.1,0-58.6,0
	c-0.2,0-0.4,0-0.7,0.1c-0.9,0.3-1.4,1-1.4,2.4c0,20.2,0,40.3,0,60.5c0,0.1,0,0.2,0,0.4c0.1,1,0.6,2,2,2c1.6,0,3.2,0,4.8,0
	c5,0,10,0,15,0c0.5,0,0.7-0.1,0.9-0.7c0.2-0.9,0.5-1.8,0.9-2.6c1-2.1,2.3-3.9,4.1-5.3c0.9-0.7,1.9-1.4,2.9-1.9
	c2.8-1.4,5.9-1.7,9-1.3c2.8,0.4,5.2,1.5,7.3,3.3C1340.7,320.5,1342.4,323.3,1343,326.7z M1281.5,326.7c0.5,0,1,0,1.5,0
	c1-0.1,1.8-0.6,1.8-1.9c0-15,0-29.9,0-44.9c0-1.3-0.4-1.7-1.7-1.7c-6.2,0-12.5,0-18.7,0c-0.9,0-1.5,0.3-2.1,0.8
	c-0.2,0.2-0.4,0.3-0.6,0.4c-0.6,0.6-1.2,1.2-1.9,1.8c0.2,0,0.3,0,0.3,0c3.1,0,6.2,0,9.3,0c0.5,0,0.9,0.1,1.4,0.1
	c3.6,0.7,6.2,4.1,6.2,7.8c0,3.1,0,6.1,0,9.2c0,2.6-0.9,4.8-2.9,6.5c-1.4,1.2-2.9,1.8-4.7,1.8c-7.5,0-15,0-22.4,0c-0.3,0-0.6,0-0.9,0
	c0,1.4,0,2.7,0,4.1c0,4.6,0,9.2,0,13.8c0,1.2,0.7,2.1,1.7,2.1c1.4,0,2.7,0,4,0c2.2-8.3,9-12.7,16.5-11.9
	C1275.4,315.7,1279.6,320,1281.5,326.7z M1246.1,300.4c0.1,0,0.1,0,0.2,0c7.6,0,15.3,0,22.9,0c0.7,0,1.4-0.7,1.4-1.5
	c0-3.2,0-6.4,0-9.7c0-0.7-0.7-1.5-1.4-1.5c-4.9,0-9.8,0-14.7,0c-0.2,0-0.4,0.1-0.6,0.3c-1.6,2.2-3.2,4.4-4.8,6.6
	C1247.9,296.4,1246.8,298.3,1246.1,300.4z M1328.4,338.6c4.7,0,8.7-4,8.6-8.7c-0.1-5.1-3.8-8.7-8.7-8.8c-4.7-0.1-8.7,3.6-8.7,8.7
	C1319.7,334.7,1323.5,338.6,1328.4,338.6z M1275.4,329.9c0-4.9-3.9-8.7-8.6-8.7c-4.7,0-8.4,3.7-8.6,8.3c-0.3,5.3,4.1,9.1,8.4,9.2
	C1271.4,338.8,1275.5,334.6,1275.4,329.9z"/>
<g>
	<g>
		<linearGradient id="SVGID_1_" gradientUnits="userSpaceOnUse" x1="1239.9587" y1="499.7728" x2="1359.9587" y2="499.7728">
			<stop  offset="0" style="stop-color:#3199FF"/>
			<stop  offset="1" style="stop-color:#3188FF"/>
		</linearGradient>
		<path class="st25" d="M1345.5,559.8h-91.1c-8,0-14.4-6.5-14.4-14.4v-91.1c0-8,6.5-14.4,14.4-14.4h91.1c8,0,14.4,6.5,14.4,14.4
			v91.1C1360,553.3,1353.5,559.8,1345.5,559.8z M1254.4,447.6c-3.6,0-6.6,2.9-6.6,6.6v91.1c0,3.6,2.9,6.6,6.6,6.6h91.1
			c3.6,0,6.6-2.9,6.6-6.6v-91.1c0-3.6-2.9-6.6-6.6-6.6H1254.4z"/>
	</g>
	<g>
		<linearGradient id="SVGID_2_" gradientUnits="userSpaceOnUse" x1="1257.8525" y1="499.7728" x2="1342.0651" y2="499.7728">
			<stop  offset="0" style="stop-color:#3199FF"/>
			<stop  offset="1" style="stop-color:#3188FF"/>
		</linearGradient>
		<path class="st26" d="M1330.7,534.5c4,0,4.6-1.8,5-12.9c1.6,1.2,4.4,2.3,6.4,2.7c-0.9,13.2-3,16.4-10.9,16.4h-15.5
			c-8.9,0-11.2-2-11.2-9.4v-21.6h-4.2c-4.5,14.5-14.4,25.7-37.7,32c-0.6-1.8-2.3-4.4-3.9-5.8c20.8-5.1,29.9-14.4,34.1-26.2h-24.8
			v-22.2c-1.8,1.5-3.5,2.8-5.5,4.2c-1-1.7-3.2-3.9-4.8-5c12.5-8.3,21.8-19.8,26.7-28.9l7.6,1.4c-1.1,1.9-2.4,3.8-3.8,5.8h22.9
			l1.2-0.4l4.6,3.2c-2.4,4.4-6,9.3-9.5,13.4h27.1v28.6h-23.2v21.5c0,2.8,0.7,3.2,4.9,3.2H1330.7z M1294.8,503.5
			c1.2-5.1,1.8-10.4,2.2-16.1h-22v16.1H1294.8z M1284.2,470.9c-2.7,3.5-5.8,7-9.1,10.3h24.6c2.7-2.9,5.6-6.8,7.7-10.3H1284.2z
			 M1304.1,487.4c-0.5,5.7-1.1,11-2.1,16.1h25.6v-16.1H1304.1z"/>
	</g>
</g>
<g>
	<g>
		<linearGradient id="SVGID_3_" gradientUnits="userSpaceOnUse" x1="1239.9587" y1="900.0007" x2="1359.9587" y2="900.0007">
			<stop  offset="0" style="stop-color:#FF1414"/>
			<stop  offset="0.137" style="stop-color:#FF2E2E"/>
			<stop  offset="0.2912" style="stop-color:#FF4242"/>
			<stop  offset="0.4648" style="stop-color:#FF5151"/>
			<stop  offset="0.6719" style="stop-color:#FF5959"/>
			<stop  offset="1" style="stop-color:#FF5C5C"/>
		</linearGradient>
		<path class="st27" d="M1345.5,960h-91.1c-8,0-14.4-6.5-14.4-14.4v-91.1c0-8,6.5-14.4,14.4-14.4h91.1c8,0,14.4,6.5,14.4,14.4v91.1
			C1360,953.5,1353.5,960,1345.5,960z M1254.4,847.9c-3.6,0-6.6,2.9-6.6,6.6v91.1c0,3.6,2.9,6.6,6.6,6.6h91.1c3.6,0,6.6-2.9,6.6-6.6
			v-91.1c0-3.6-2.9-6.6-6.6-6.6H1254.4z"/>
	</g>
	<g>
		<linearGradient id="SVGID_4_" gradientUnits="userSpaceOnUse" x1="1257.8525" y1="900.0007" x2="1342.0651" y2="900.0007">
			<stop  offset="0" style="stop-color:#FF1414"/>
			<stop  offset="0.137" style="stop-color:#FF2E2E"/>
			<stop  offset="0.2912" style="stop-color:#FF4242"/>
			<stop  offset="0.4648" style="stop-color:#FF5151"/>
			<stop  offset="0.6719" style="stop-color:#FF5959"/>
			<stop  offset="1" style="stop-color:#FF5C5C"/>
		</linearGradient>
		<path class="st28" d="M1330.7,934.7c4,0,4.6-1.8,5-12.9c1.6,1.2,4.4,2.3,6.4,2.7c-0.9,13.2-3,16.4-10.9,16.4h-15.5
			c-8.9,0-11.2-2-11.2-9.4V910h-4.2c-4.5,14.5-14.4,25.7-37.7,32c-0.6-1.8-2.3-4.4-3.9-5.8c20.8-5.1,29.9-14.4,34.1-26.2h-24.8
			v-22.2c-1.8,1.5-3.5,2.8-5.5,4.2c-1-1.7-3.2-3.9-4.8-5c12.5-8.3,21.8-19.8,26.7-28.9l7.6,1.4c-1.1,1.9-2.4,3.8-3.8,5.8h22.9
			l1.2-0.4l4.6,3.2c-2.4,4.4-6,9.3-9.5,13.4h27.1V910h-23.2v21.5c0,2.8,0.7,3.2,4.9,3.2H1330.7z M1294.8,903.8
			c1.2-5.1,1.8-10.4,2.2-16.1h-22v16.1H1294.8z M1284.2,871.1c-2.7,3.5-5.8,7-9.1,10.3h24.6c2.7-2.9,5.6-6.8,7.7-10.3H1284.2z
			 M1304.1,887.6c-0.5,5.7-1.1,11-2.1,16.1h25.6v-16.1H1304.1z"/>
	</g>
</g>
<g id="图层_1">
	<g>
		<g>
			<linearGradient id="SVGID_5_" gradientUnits="userSpaceOnUse" x1="1277.0999" y1="645.8932" x2="1332.3757" y2="741.6339">
				<stop  offset="0" style="stop-color:#32C777"/>
				<stop  offset="9.973979e-02" style="stop-color:#2AD07A"/>
				<stop  offset="0.4447" style="stop-color:#13EA83"/>
				<stop  offset="0.7553" style="stop-color:#05F988"/>
				<stop  offset="1" style="stop-color:#00FF8A"/>
			</linearGradient>
			<path class="st29" d="M1301.6,759.3c-0.9,0.9-2.4,0.9-3.2,0l0,0c-1.9-1.9-45.4-47.5-45.4-72.6c0-25.7,21.1-46.7,47-46.7
				c25.9,0,47,20.9,47,46.7C1347,711.8,1303.4,757.4,1301.6,759.3L1301.6,759.3z M1300,644.4c-23.4,0-42.5,18.9-42.5,42.2
				c0,19.6,30.6,54.8,40.9,66c0.9,1,2.4,1,3.3,0c10.2-11.2,40.9-46.5,40.9-66C1342.5,663.4,1323.4,644.4,1300,644.4z"/>
		</g>
		<g>
			<linearGradient id="SVGID_6_" gradientUnits="userSpaceOnUse" x1="1288.8301" y1="667.3914" x2="1311.0874" y2="705.942">
				<stop  offset="0" style="stop-color:#32C777"/>
				<stop  offset="9.973979e-02" style="stop-color:#2AD07A"/>
				<stop  offset="0.4447" style="stop-color:#13EA83"/>
				<stop  offset="0.7553" style="stop-color:#05F988"/>
				<stop  offset="1" style="stop-color:#00FF8A"/>
			</linearGradient>
			<path class="st30" d="M1300,708.9c-12.3,0-22.4-10-22.4-22.2s10-22.2,22.4-22.2s22.4,10,22.4,22.2S1312.3,708.9,1300,708.9z
				 M1300,668.9c-9.9,0-17.9,8-17.9,17.8s8,17.8,17.9,17.8s17.9-8,17.9-17.8S1309.8,668.9,1300,668.9z"/>
		</g>
	</g>
	<g>
		<g>
			<path class="st1" d="M1501.6,159.3c-0.9,0.9-2.4,0.9-3.2,0l0,0c-1.9-1.9-45.4-47.5-45.4-72.6c0-25.7,21.1-46.7,47-46.7
				c25.9,0,47,20.9,47,46.7C1547,111.8,1503.4,157.4,1501.6,159.3L1501.6,159.3z M1500,44.4c-23.4,0-42.5,18.9-42.5,42.2
				c0,19.6,30.6,54.8,40.9,66c0.9,1,2.4,1,3.3,0c10.2-11.2,40.9-46.5,40.9-66C1542.5,63.4,1523.4,44.4,1500,44.4z"/>
		</g>
		<g>
			<path class="st1" d="M1500,108.9c-12.3,0-22.4-10-22.4-22.2s10-22.2,22.4-22.2s22.4,10,22.4,22.2S1512.3,108.9,1500,108.9z
				 M1500,68.9c-9.9,0-17.9,8-17.9,17.8s8,17.8,17.9,17.8s17.9-8,17.9-17.8S1509.8,68.9,1500,68.9z"/>
		</g>
	</g>
	<polygon class="st1" points="527,294.1 473,240.1 467,246.1 521,300.1 467,354.1 473,360.1 533,300.1 	"/>
	<polygon class="st109" points="673,106 727,160 733,154 679,100 733,46 727,40 667,100 	"/>
	<polygon class="st110" points="105.8,727 159.8,673 153.8,667 99.8,721 45.8,667 39.8,673 99.8,733 	"/>
	<polygon class="st110" points="293.8,673 239.8,727 245.8,733 299.8,679 353.8,733 359.8,727 299.8,667 	"/>
	<polygon points="1506,327.1 1560,273.1 1554,267.1 1500,321.1 1446,267.1 1440,273.1 1500,333.1 	"/>
	<polygon points="1706,273.1 1760,327.1 1754,333.1 1700,279.1 1646,333.1 1640,327.1 1700,267.1 	"/>
	<polygon class="st1" points="1506,526.8 1560,472.8 1554,466.8 1500,520.8 1446,466.8 1440,472.8 1500,532.8 	"/>
	<polygon class="st1" points="1706,472.8 1760,526.8 1754,532.8 1700,478.8 1646,532.8 1640,526.8 1700,466.8 	"/>
	<g>
		<path class="st1" d="M1158.9,77.9l-8.3-26.5c-1.4-4.4-5.4-7.3-10-7.3h-18.1h-3.5h-3.5h-31.2h-3.5h-3.5h-18.1
			c-4.6,0-8.6,2.9-10,7.3l-8.3,26.6c-2.1,6.6-0.9,13.6,3.1,19.3c3.9,5.5,9.9,8.8,16.6,9.1c0.4,0,0.8,0,1.2,0c8,0,15.1-4.2,19.1-10.4
			c4,6.2,11.1,10.4,19.1,10.4s15.1-4.2,19.1-10.4c4,6.2,11.1,10.4,19.1,10.4c0.4,0,0.8,0,1.2,0c6.7-0.3,12.7-3.7,16.6-9.1
			C1159.9,91.5,1161,84.5,1158.9,77.9z M1061.8,99.4c-0.3,0-0.5,0-0.8,0c-4.5-0.2-8.6-2.5-11.2-6.2c-2.8-3.9-3.5-8.8-2.1-13.3
			l8.3-26.6c0.5-1.4,1.8-2.4,3.3-2.4h18.1V84C1077.4,92.5,1070.4,99.4,1061.8,99.4z M1115.5,84.1c0,8.5-7,15.4-15.6,15.4
			c-8.6,0-15.6-6.9-15.6-15.4v0V50.9h31.2V84.1L1115.5,84.1z M1150.1,93.2c-2.6,3.7-6.7,6-11.2,6.2c-0.3,0-0.5,0-0.8,0
			c-8.6,0-15.6-6.9-15.6-15.4V50.9h18.1c1.5,0,2.9,1,3.3,2.4l8.3,26.5C1153.7,84.4,1152.9,89.3,1150.1,93.2z"/>
		<path class="st1" d="M1145.5,114.8c-1.9,0-3.5,1.5-3.5,3.5v23.9c0,3.8-3.1,6.9-7,6.9h-28.8h-12.5h-28.8c-3.9,0-7-3.1-7-6.9v-23.9
			c0-1.9-1.6-3.5-3.5-3.5s-3.5,1.5-3.5,3.5v23.9c0,7.6,6.3,13.8,14,13.8h28.8h12.5h28.8c7.7,0,14-6.2,14-13.8v-23.9
			C1149,116.3,1147.4,114.8,1145.5,114.8z"/>
	</g>
	<g>
		<ellipse class="st110" cx="1054.2" cy="700" rx="14.3" ry="14"/>
		<ellipse class="st110" cx="1100" cy="700" rx="14.3" ry="14"/>
		<ellipse class="st110" cx="1145.7" cy="700" rx="14.3" ry="14"/>
	</g>
	<g>
		<path class="st1" d="M937.3,74.4h-74.8c-3.8,0-6.9,3.3-6.6,7.1l5.6,72.4c0.3,3.4,3.1,6.1,6.6,6.1h63.6c3.4,0,6.3-2.6,6.6-6.1
			l5.6-72.4C944.2,77.7,941.2,74.4,937.3,74.4z M907.8,87.6v59.2H892V87.6H907.8z M869.7,87.6h15.8v59.2h-11.2L869.7,87.6z
			 M925.6,146.8h-11.2V87.6h15.8L925.6,146.8z"/>
		<path class="st1" d="M936.8,53h-16.1l-0.5-6.9c-0.2-3.4-3.1-6.1-6.6-6.1h-27.3c-3.5,0-6.3,2.7-6.6,6.1l-0.5,6.9h-16.1
			c-5.6,0-10.2,4.6-10.2,10.2v4.6h94v-4.6C947,57.6,942.4,53,936.8,53z M885.9,53l0.5-6.4h27.3l0.5,6.4H885.9z"/>
	</g>
	<g>
		<path class="st3" d="M937.3,674.4h-74.8c-3.8,0-6.9,3.3-6.6,7.1l5.6,72.4c0.3,3.4,3.1,6.1,6.6,6.1h63.6c3.4,0,6.3-2.6,6.6-6.1
			l5.6-72.4C944.2,677.7,941.2,674.4,937.3,674.4z M907.8,687.6v59.2H892v-59.2H907.8z M869.7,687.6h15.8v59.2h-11.2L869.7,687.6z
			 M925.6,746.8h-11.2v-59.2h15.8L925.6,746.8z"/>
		<path class="st3" d="M936.8,653h-16.1l-0.5-6.9c-0.2-3.4-3.1-6.1-6.6-6.1h-27.3c-3.5,0-6.3,2.7-6.6,6.1l-0.5,6.9h-16.1
			c-5.6,0-10.2,4.6-10.2,10.2v4.6h94v-4.6C947,657.6,942.4,653,936.8,653z M885.9,653l0.5-6.4h27.3l0.5,6.4H885.9z"/>
	</g>
	<path class="st0" d="M957,859.1c-2.8-1.9-6.6-1.3-9,1.1l-62.5,61c-2.7,2.6-7.1,2.6-9.8,0l-24.1-23.5c-2.7-2.6-7-2.6-9.7,0
		c-2.7,2.6-2.7,6.8,0,9.4l33.8,33c2.7,2.6,7,2.6,9.7,0l72.5-70.7C960.9,866.5,960.6,861.6,957,859.1z"/>
	<g>
		<linearGradient id="SVGID_7_" gradientUnits="userSpaceOnUse" x1="1639.9587" y1="675.1669" x2="1759.9587" y2="675.1669">
			<stop  offset="0" style="stop-color:#0055FF"/>
			<stop  offset="4.896599e-02" style="stop-color:#0061FF"/>
			<stop  offset="0.1828" style="stop-color:#007BFF"/>
			<stop  offset="0.3296" style="stop-color:#0090FF"/>
			<stop  offset="0.4938" style="stop-color:#009FFF"/>
			<stop  offset="0.6897" style="stop-color:#00A7FF"/>
			<stop  offset="1" style="stop-color:#00AAFF"/>
		</linearGradient>
		<path class="st42" d="M1758.9,677.9l-8.3-26.5c-1.4-4.4-5.4-7.3-10-7.3h-18.1h-3.5h-3.5h-31.2h-3.5h-3.5h-18.1
			c-4.6,0-8.6,2.9-10,7.3l-8.3,26.6c-2.1,6.6-0.9,13.6,3.1,19.3c3.9,5.5,9.9,8.8,16.6,9.1c0.4,0,0.8,0,1.2,0c8,0,15.1-4.2,19.1-10.4
			c4,6.2,11.1,10.4,19.1,10.4s15.1-4.2,19.1-10.4c4,6.2,11.1,10.4,19.1,10.4c0.4,0,0.8,0,1.2,0c6.7-0.3,12.7-3.7,16.6-9.1
			C1759.9,691.5,1761,684.5,1758.9,677.9z M1661.8,699.4c-0.3,0-0.5,0-0.8,0c-4.5-0.2-8.6-2.5-11.2-6.2c-2.8-3.9-3.5-8.8-2.1-13.3
			l8.3-26.6c0.5-1.4,1.8-2.4,3.3-2.4h18.1V684C1677.4,692.5,1670.4,699.4,1661.8,699.4z M1715.5,684.1c0,8.5-7,15.4-15.6,15.4
			c-8.6,0-15.6-6.9-15.6-15.4v0v-33.1h31.2V684.1L1715.5,684.1z M1750.1,693.2c-2.6,3.7-6.7,6-11.2,6.2c-0.3,0-0.5,0-0.8,0
			c-8.6,0-15.6-6.9-15.6-15.4v-33.1h18.1c1.5,0,2.9,1,3.3,2.4l8.3,26.5C1753.7,684.4,1752.9,689.3,1750.1,693.2z"/>
		<linearGradient id="SVGID_8_" gradientUnits="userSpaceOnUse" x1="1650.918" y1="735.39" x2="1748.9996" y2="735.39">
			<stop  offset="0" style="stop-color:#0055FF"/>
			<stop  offset="4.896599e-02" style="stop-color:#0061FF"/>
			<stop  offset="0.1828" style="stop-color:#007BFF"/>
			<stop  offset="0.3296" style="stop-color:#0090FF"/>
			<stop  offset="0.4938" style="stop-color:#009FFF"/>
			<stop  offset="0.6897" style="stop-color:#00A7FF"/>
			<stop  offset="1" style="stop-color:#00AAFF"/>
		</linearGradient>
		<path class="st43" d="M1745.5,714.8c-1.9,0-3.5,1.5-3.5,3.5v23.9c0,3.8-3.1,6.9-7,6.9h-28.8h-12.5h-28.8c-3.9,0-7-3.1-7-6.9v-23.9
			c0-1.9-1.6-3.5-3.5-3.5s-3.5,1.5-3.5,3.5v23.9c0,7.6,6.3,13.8,14,13.8h28.8h12.5h28.8c7.7,0,14-6.2,14-13.8v-23.9
			C1749,716.3,1747.4,714.8,1745.5,714.8z"/>
	</g>
	<linearGradient id="SVGID_9_" gradientUnits="userSpaceOnUse" x1="1439.9587" y1="700.0007" x2="1559.9587" y2="700.0007">
		<stop  offset="0" style="stop-color:#FF1414"/>
		<stop  offset="0.137" style="stop-color:#FF2E2E"/>
		<stop  offset="0.2912" style="stop-color:#FF4242"/>
		<stop  offset="0.4648" style="stop-color:#FF5151"/>
		<stop  offset="0.6719" style="stop-color:#FF5959"/>
		<stop  offset="1" style="stop-color:#FF5C5C"/>
	</linearGradient>
	<path class="st44" d="M1551.1,657.6c-13-14.3-34.7-15.4-49-3.3c-1.2,1-3,1-4.2,0c-14.3-12.1-36-11-49,3.3
		c-12.6,13.9-11.6,35.4,1.7,48.6l47,46.8c1.3,1.3,3.5,1.3,4.8,0l47-46.8C1562.7,693,1563.7,671.5,1551.1,657.6z M1541.8,697.9
		l-39.5,39.3c-1.3,1.3-3.5,1.3-4.8,0l-39.5-39.3c-5.2-5.2-7.7-12.4-6.8-19.9c0.5-4.3,2.2-8.4,4.9-11.7c5.1-6.4,12.9-9.7,21-9
		c5.7,0.5,11,3.2,15,7.2l5.3,5.3c1.3,1.3,3.4,1.3,4.7,0l5.3-5.3c4-4,9.3-6.7,15-7.2c8.2-0.7,15.9,2.6,21,9c2.7,3.4,4.4,7.4,4.9,11.7
		C1549.5,685.5,1547,692.7,1541.8,697.9z"/>
	<g>
		<path class="st1" d="M954.1,295.2c-2.7,0-4.9,2.2-4.9,4.9l0,0v42.9c0,4-3.3,7.3-7.3,7.3H858c-4,0-7.3-3.3-7.3-7.3v-85.7
			c0-4,3.3-7.3,7.3-7.3h42c2.7,0,4.9-2.2,4.9-4.9c0-2.7-2.2-4.9-4.9-4.9h-46.8c-6.7,0-12.2,5.5-12.2,12.2v95.5
			c0,6.7,5.5,12.2,12.2,12.2h93.7c6.7,0,12.2-5.5,12.2-12.2v-47.8C959,297.4,956.8,295.2,954.1,295.2z"/>
		<path class="st1" d="M893.9,305.6c1.9,1.9,5,1.9,6.9,0l56.8-57.1c1.9-1.9,1.9-5,0-6.9c-1.9-1.9-5-1.9-6.9,0l-56.8,57.1
			C892,300.5,892,303.7,893.9,305.6z"/>
	</g>
	<g>
		<g>
			<g>
				<defs>
					<path id="SVGID_165_" d="M359.9,285.8c-0.9-2.8-3.3-4.9-6.3-5.3l-32-4.7l-14.3-29.3c-1.3-2.7-4-4.4-7-4.4l0,0
						c-3,0-5.7,1.7-7,4.4L279,275.8l-32,4.7c-2.9,0.4-5.3,2.5-6.3,5.3c-0.9,2.9-0.2,5.9,2,8l23.2,22.8l-5.5,32.2
						c-0.5,3,0.7,5.9,3.1,7.7c1.4,1,2.9,1.5,4.5,1.5c1.2,0,2.5-0.3,3.6-0.9l28.7-15.2l28.7,15.2c2.6,1.4,5.8,1.2,8.2-0.6
						c2.4-1.8,3.6-4.7,3.1-7.7l-5.5-32.3l23.2-22.8C360,291.7,360.8,288.6,359.9,285.8z"/>
				</defs>
				<clipPath id="SVGID_10_">
					<use xlink:href="#SVGID_165_"  style="overflow:visible;"/>
				</clipPath>
				<rect x="239.7" y="242.1" style="clip-path:url(#SVGID_10_);fill:#3199FF;" width="0.5" height="116.5"/>
				<rect x="240.3" y="242.1" style="clip-path:url(#SVGID_10_);fill:#3199FF;" width="7.1" height="116.5"/>
				<rect x="247.3" y="242.1" style="clip-path:url(#SVGID_10_);fill:#3198FF;" width="7.1" height="116.5"/>
				<rect x="254.4" y="242.1" style="clip-path:url(#SVGID_10_);fill:#3197FF;" width="7.1" height="116.5"/>
				<rect x="261.4" y="242.1" style="clip-path:url(#SVGID_10_);fill:#3196FF;" width="7.1" height="116.5"/>
				<rect x="268.5" y="242.1" style="clip-path:url(#SVGID_10_);fill:#3195FF;" width="7.1" height="116.5"/>
				<rect x="275.5" y="242.1" style="clip-path:url(#SVGID_10_);fill:#3194FF;" width="7.1" height="116.5"/>
				<rect x="282.6" y="242.1" style="clip-path:url(#SVGID_10_);fill:#3193FF;" width="7.1" height="116.5"/>
				<rect x="289.7" y="242.1" style="clip-path:url(#SVGID_10_);fill:#3192FF;" width="7.1" height="116.5"/>
				<rect x="296.7" y="242.1" style="clip-path:url(#SVGID_10_);fill:#3191FF;" width="7.1" height="116.5"/>
				<rect x="303.8" y="242.1" style="clip-path:url(#SVGID_10_);fill:#318FFF;" width="7.1" height="116.5"/>
				<rect x="310.8" y="242.1" style="clip-path:url(#SVGID_10_);fill:#318EFF;" width="7.1" height="116.5"/>
				<rect x="317.9" y="242.1" style="clip-path:url(#SVGID_10_);fill:#318DFF;" width="7.1" height="116.5"/>
				<rect x="325" y="242.1" style="clip-path:url(#SVGID_10_);fill:#318CFF;" width="7.1" height="116.5"/>
				<rect x="332" y="242.1" style="clip-path:url(#SVGID_10_);fill:#318BFF;" width="7.1" height="116.5"/>
				<rect x="339.1" y="242.1" style="clip-path:url(#SVGID_10_);fill:#318AFF;" width="7.1" height="116.5"/>
				<rect x="346.1" y="242.1" style="clip-path:url(#SVGID_10_);fill:#3189FF;" width="7.1" height="116.5"/>
				<rect x="353.2" y="242.1" style="clip-path:url(#SVGID_10_);fill:#3188FF;" width="7.1" height="116.5"/>
				<rect x="360.3" y="242.1" style="clip-path:url(#SVGID_10_);fill:#3188FF;" width="0.5" height="116.5"/>
			</g>
		</g>
		<g>
			<path class="st2" d="M279.6,303.7c-1.6,0-2.9-1.3-2.9-2.9c0-13.5,10.9-24.5,24.3-24.5c1.6,0,2.9,1.3,2.9,2.9s-1.3,2.9-2.9,2.9
				c-10.2,0-18.6,8.4-18.6,18.8C282.4,302.4,281.1,303.7,279.6,303.7z"/>
		</g>
	</g>
	<g>
		<g>
			<path class="st1" d="M132.3,358.1c-1.2,0-2.5-0.3-3.6-0.9L100,341.9l-28.7,15.2c-2.6,1.4-5.8,1.2-8.2-0.6
				c-2.4-1.8-3.6-4.7-3.1-7.7l5.5-32.3l-23.2-22.8c-2.1-2.1-2.9-5.2-2-8c0.9-2.8,3.3-4.9,6.3-5.3l32-4.7L93,246.4
				c1.3-2.7,4-4.4,7-4.4c3,0,5.6,1.7,7,4.4l14.3,29.3l32,4.7c2.9,0.4,5.3,2.5,6.3,5.3c0.9,2.9,0.2,5.9-2,8l-23.2,22.8l5.5,32.3
				c0.5,3-0.7,5.9-3.1,7.7C135.5,357.6,133.9,358.1,132.3,358.1z M100,335.4l31.3,16.6c1,0.5,1.8,0.1,2.1-0.2c0.3-0.2,1-0.9,0.8-2.1
				l-6-35.2l25.3-24.9c0.8-0.8,0.6-1.8,0.5-2.2c-0.1-0.4-0.5-1.2-1.7-1.4l-35-5.1l-15.7-32c-0.5-1-1.5-1.2-1.8-1.2
				c-0.4,0-1.3,0.1-1.8,1.2l-15.7,32l-35,5.1c-1.1,0.2-1.5,1-1.7,1.4c-0.1,0.4-0.3,1.3,0.5,2.2l25.3,24.9l-6,35.2
				c-0.2,1.2,0.5,1.8,0.8,2.1c0.3,0.2,1.1,0.7,2.1,0.2L100,335.4z"/>
		</g>
		<g>
			<path class="st1" d="M79.3,303.7c-1.6,0-2.9-1.3-2.9-2.9c0-13.5,10.9-24.5,24.3-24.5c1.6,0,2.9,1.3,2.9,2.9
				c0,1.6-1.3,2.9-2.9,2.9c-10.2,0-18.6,8.4-18.6,18.8C82.2,302.4,80.9,303.7,79.3,303.7z"/>
		</g>
	</g>
	<g>
		<path class="st1" d="M156.1,90.9c-2.3,0-4.2,1.9-4.2,4.2V137c0,6.9-5.6,12.6-12.6,12.6H61.2c-6.9,0-12.6-5.6-12.6-12.6V75.5
			c0-6.9,5.6-12.6,12.6-12.6c2.3,0,4.2-1.9,4.2-4.2c0-2.3-1.9-4.2-4.2-4.2c-11.5,0-20.9,9.4-20.9,21V137c0,11.6,9.4,21,20.9,21h78.1
			c11.5,0,20.9-9.4,20.9-21V95.1C160.3,92.8,158.4,90.9,156.1,90.9z"/>
		<path class="st1" d="M76.3,127.5c2.3,0,4.2-1.9,4.2-4.2V93.4c0-10.7,8.6-19.3,19.3-19.3h56.3c0.3,0,0.5,0,0.8-0.1c0,0,0,0,0,0
			c0.3,0,0.5-0.1,0.7-0.2c0,0,0,0,0,0c0.2-0.1,0.5-0.2,0.7-0.4c0,0,0,0,0,0c1.1-0.8,1.9-2,1.9-3.5c0-1.2-0.5-2.3-1.3-3.1l-23.6-23.6
			c-1.6-1.6-4.3-1.6-5.9,0c-1.6,1.6-1.6,4.3,0,5.9l16.5,16.6H99.7c-15.2,0-27.6,12.4-27.6,27.7v29.9C72.1,125.6,74,127.5,76.3,127.5
			z"/>
	</g>
	<g>
		<path class="st242" d="M1155.8,490.7c-2.3,0-4.2,1.9-4.2,4.2v41.9c0,6.9-5.6,12.6-12.6,12.6h-78.1c-6.9,0-12.6-5.6-12.6-12.6
			v-61.5c0-6.9,5.6-12.6,12.6-12.6c2.3,0,4.2-1.9,4.2-4.2s-1.9-4.2-4.2-4.2c-11.5,0-20.9,9.4-20.9,21v61.5c0,11.6,9.4,21,20.9,21
			h78.1c11.5,0,20.9-9.4,20.9-21v-41.9C1160,492.5,1158.1,490.7,1155.8,490.7z"/>
		<path class="st242" d="M1076,527.3c2.3,0,4.2-1.9,4.2-4.2v-29.9c0-10.7,8.6-19.3,19.3-19.3h56.3c0.3,0,0.5,0,0.8-0.1c0,0,0,0,0,0
			c0.3,0,0.5-0.1,0.7-0.2c0,0,0,0,0,0c0.2-0.1,0.5-0.2,0.7-0.4c0,0,0,0,0,0c1.1-0.8,1.9-2,1.9-3.5c0-1.2-0.5-2.3-1.3-3.1L1135,443
			c-1.6-1.6-4.3-1.6-5.9,0c-1.6,1.6-1.6,4.3,0,5.9l16.5,16.6h-46.2c-15.2,0-27.6,12.4-27.6,27.7v29.9
			C1071.8,525.4,1073.7,527.3,1076,527.3z"/>
	</g>
	<g>
		<path class="st1" d="M1900,718.3c-8.3,0-15.7-4.3-19.9-10.9l-4.2,3.1c5.2,7.8,14,13,24.1,13c9.7,0,18.4-4.9,23.6-12.2l-4.1-3.2
			C1915.2,714.2,1908,718.3,1900,718.3z"/>
		<path class="st1" d="M1884.5,694.8c2.9,0,5.2-2.3,5.2-5.2v-7.8c0-2.9-2.4-5.2-5.2-5.2c-2.9,0-5.2,2.3-5.2,5.2v7.8
			C1879.3,692.5,1881.6,694.8,1884.5,694.8z"/>
		<path class="st1" d="M1915.4,694.8c2.9,0,5.2-2.3,5.2-5.2v-7.8c0-2.9-2.4-5.2-5.2-5.2s-5.2,2.3-5.2,5.2v7.8
			C1910.2,692.5,1912.5,694.8,1915.4,694.8z"/>
		<path class="st1" d="M1900,640c-30.3,0-55,24.6-55,54.8c0,29.3,23.2,53.4,52.3,54.8l-0.2,10.4l3.2-0.6c12-2.4,25.8-11.4,36.8-24.1
			c11.4-13.2,17.9-27.9,17.9-40.4C1955,664.6,1930.3,640,1900,640z M1902.5,753.5l0.2-9.1h-2.7c-27.4,0-49.8-22.2-49.8-49.6
			s22.3-49.6,49.8-49.6c27.4,0,49.8,22.2,49.8,49.6C1949.7,716.9,1925.2,746.8,1902.5,753.5z"/>
	</g>
	<g>
		<g>
			<path class="st1" d="M75.3,938.9h67.1c1.9,0,3.5-1.4,3.9-3.3l13.4-61.7c0.6-2.6-1.3-5.1-3.9-5.1l-73.5-0.4c-2.2,0-4,1.8-4.1,4.1
				l0,0c0,2.3,1.8,4.3,4,4.3l62.1,0.2c2.5,0,4.4,2.4,3.9,5l-8.4,45c-0.4,2-2,3.4-4,3.4H81.6c-1.9,0-3.6-1.4-4-3.4l-15.5-83.7
				c-0.4-2-2-3.4-4-3.4H43.9c-2.2,0-4,1.9-4,4.2v0c0,2.3,1.8,4.2,4,4.2h8c1.9,0,3.6,1.4,4,3.4l15.5,83.7
				C71.7,937.5,73.4,938.9,75.3,938.9z"/>
		</g>
		<ellipse class="st1" cx="82.2" cy="951.6" rx="8.1" ry="8.4"/>
		<ellipse class="st1" cx="134.3" cy="951.6" rx="8.1" ry="8.4"/>
	</g>
	<g>
		<g>
			<path class="st110" d="M275.3,938.9h67.1c1.9,0,3.5-1.4,3.9-3.3l13.4-61.7c0.6-2.6-1.3-5.1-3.9-5.1l-73.5-0.4
				c-2.2,0-4,1.8-4.1,4.1l0,0c0,2.3,1.8,4.3,4,4.3l62.1,0.2c2.5,0,4.4,2.4,3.9,5l-8.4,45c-0.4,2-2,3.4-4,3.4h-54.3
				c-1.9,0-3.6-1.4-4-3.4l-15.5-83.7c-0.4-2-2-3.4-4-3.4h-14.3c-2.2,0-4,1.9-4,4.2v0c0,2.3,1.8,4.2,4,4.2h8c1.9,0,3.6,1.4,4,3.4
				l15.5,83.7C271.7,937.5,273.4,938.9,275.3,938.9z"/>
		</g>
		<ellipse class="st110" cx="282.2" cy="951.6" rx="8.1" ry="8.4"/>
		<ellipse class="st110" cx="334.3" cy="951.6" rx="8.1" ry="8.4"/>
	</g>
	<g>
		<g>
			<ellipse class="st1" cx="500.8" cy="893" rx="6" ry="6"/>
		</g>
		<g>
			<ellipse class="st1" cx="474.6" cy="893" rx="6" ry="6"/>
		</g>
		<g>
			<ellipse class="st1" cx="527" cy="893" rx="6" ry="6"/>
		</g>
		<g>
			<path class="st1" d="M456.7,957l3.1-7.5c2.5-6.2,4.4-12.9,4.2-15c-15-9.6-24-24.7-24-40.6c0-28,26.9-50.8,60-50.8
				s60,22.8,60,50.8c0,28-26.9,50.8-60,50.8c-4.3,0-8.7-0.4-12.9-1.2c-2.5,0-13.9,5.1-23.2,9.9L456.7,957z M500,849
				c-29.8,0-54,20.1-54,44.8c0,14.2,7.9,27.3,21.7,35.9c2.8,1.7,3,5.6,0.8,13.4c-0.2,0.5-0.3,1.1-0.5,1.6c1.4-0.7,2.9-1.4,4.5-2.1
				c10.9-5,14-5.3,15.7-5c3.9,0.7,7.9,1.1,11.9,1.1c29.8,0,54-20.1,54-44.8C554,869.1,529.7,849,500,849z M487,943.4
				C487,943.4,487,943.4,487,943.4C487,943.4,487,943.4,487,943.4z"/>
		</g>
	</g>
	<g>
		<ellipse class="st110" cx="500.8" cy="693" rx="6" ry="6"/>
		<ellipse class="st110" cx="474.6" cy="693" rx="6" ry="6"/>
		<ellipse class="st110" cx="527" cy="693" rx="6" ry="6"/>
		<path class="st110" d="M500,643c-33.1,0-60,22.8-60,50.8c0,10.1,3.6,19.9,10.1,28.1c0.5,0.9,1.5,1.5,2.6,1.5c1.7,0,3-1.3,3-3
			c0-0.8-0.3-1.6-0.9-2.1c-5.7-7.2-8.8-15.6-8.8-24.5c0-24.7,24.2-44.8,54-44.8c29.8,0,54,20.1,54,44.8c0,24.7-24.2,44.8-54,44.8
			c-4,0-8-0.4-11.9-1.1c-1.7-0.3-4.8,0.1-15.7,5c-1.5,0.7-3.1,1.4-4.5,2.1c0.2-0.5,0.3-1.1,0.5-1.6c0.8-2.6,1.3-4.8,1.5-6.7l0,0
			c0-0.1,0-0.1,0-0.2c0-1.7-1.3-3-3-3c-1.6,0-2.9,1.2-3,2.8c0,0.1,0,0.1,0,0.1c-0.4,3-2,8.4-4.1,13.4l-3.1,7.5l7.2-3.7
			c9.2-4.8,20.7-9.9,23.2-9.9c4.2,0.8,8.5,1.2,12.9,1.2c33.1,0,60-22.8,60-50.8C560,665.8,533,643,500,643z"/>
	</g>
	<g>
		<path class="st242" d="M1657.6,89.9c0,0.5,0,1.1,0,1.6c6.8-18.2,21.9-32.3,40.7-37.6c-1.5-0.2-3-0.3-4.5-0.3
			C1673.8,53.5,1657.6,69.8,1657.6,89.9z"/>
		<path class="st242" d="M1757.6,151.7l-26.5-26.6c7.8-9,12.5-20.8,12.5-33.6c0-28.4-23-51.5-51.3-51.5S1641,63.1,1641,91.5
			s23,51.5,51.3,51.5c12,0,23.1-4.2,31.8-11.1l26.7,26.8c1.9,1.9,4.9,1.9,6.8,0C1759.4,156.7,1759.4,153.6,1757.6,151.7z M1647,91.5
			c0-25,20.3-45.4,45.2-45.4c24.9,0,45.2,20.4,45.2,45.4s-20.3,45.4-45.2,45.4C1667.3,136.9,1647,116.5,1647,91.5z"/>
	</g>
	<g>
		<path class="st1" d="M1857.6,89.9c0,0.5,0,1.1,0,1.6c6.8-18.2,21.9-32.3,40.7-37.6c-1.5-0.2-3-0.3-4.5-0.3
			C1873.8,53.5,1857.6,69.8,1857.6,89.9z"/>
		<path class="st1" d="M1957.6,151.7l-26.5-26.6c7.8-9,12.5-20.8,12.5-33.6c0-28.4-23-51.5-51.3-51.5S1841,63.1,1841,91.5
			s23,51.5,51.3,51.5c12,0,23.1-4.2,31.8-11.1l26.7,26.8c1.9,1.9,4.9,1.9,6.8,0C1959.4,156.7,1959.4,153.6,1957.6,151.7z M1847,91.5
			c0-25,20.3-45.4,45.2-45.4c24.9,0,45.2,20.4,45.2,45.4s-20.3,45.4-45.2,45.4C1867.3,136.9,1847,116.5,1847,91.5z"/>
	</g>
	<g>
		<path d="M1857.6,289.9c0,0.5,0,1.1,0,1.6c6.8-18.2,21.9-32.3,40.7-37.6c-1.5-0.2-3-0.3-4.5-0.3
			C1873.8,253.6,1857.6,269.9,1857.6,289.9z"/>
		<path d="M1957.6,351.8l-26.5-26.6c7.8-9,12.5-20.8,12.5-33.6c0-28.4-23-51.5-51.3-51.5s-51.3,23.1-51.3,51.5s23,51.5,51.3,51.5
			c12,0,23.1-4.2,31.8-11.1l26.7,26.8c1.9,1.9,4.9,1.9,6.8,0C1959.4,356.8,1959.4,353.7,1957.6,351.8z M1847,291.5
			c0-25,20.3-45.4,45.2-45.4c24.9,0,45.2,20.4,45.2,45.4s-20.3,45.4-45.2,45.4C1867.3,336.9,1847,316.6,1847,291.5z"/>
	</g>
	<g>
		<path class="st0" d="M1857.6,489.6c0,0.5,0,1.1,0,1.6c6.8-18.2,21.9-32.3,40.7-37.6c-1.5-0.2-3-0.3-4.5-0.3
			C1873.8,453.3,1857.6,469.6,1857.6,489.6z"/>
		<path class="st0" d="M1957.6,551.5l-26.5-26.6c7.8-9,12.5-20.8,12.5-33.6c0-28.4-23-51.5-51.3-51.5s-51.3,23.1-51.3,51.5
			s23,51.5,51.3,51.5c12,0,23.1-4.2,31.8-11.1l26.7,26.8c1.9,1.9,4.9,1.9,6.8,0C1959.4,556.5,1959.4,553.4,1957.6,551.5z
			 M1847,491.2c0-25,20.3-45.4,45.2-45.4c24.9,0,45.2,20.4,45.2,45.4c0,25-20.3,45.4-45.2,45.4C1867.3,536.7,1847,516.3,1847,491.2z
			"/>
	</g>
	<path class="st1" d="M354.8,90.5c-0.4-1.8-2.2-2.9-4-2.5c-1.8,0.4-2.9,2.2-2.5,4c3.6,15.3-0.3,31.6-10.3,43.6
		c-17.6,21-48.8,23.6-69.5,5.9c-10.1-8.6-16.2-20.6-17.3-33.9c-1.1-13.3,3-26.1,11.5-36.3c8.5-10.2,20.4-16.4,33.6-17.5
		c11.4-1,22.5,2,31.9,8.5l-13.8,3.1c-1.5,0.3-2.4,1.8-2.1,3.3c0.3,1.5,1.8,2.5,3.3,2.1l20.6-4.6c1.5-0.3,2.4-1.8,2.1-3.3l0,0
		l-4.5-20.8c-0.3-1.5-1.8-2.5-3.3-2.1c-1.5,0.3-2.4,1.8-2.1,3.3l2.8,12.9c-10.4-6.9-22.8-10.1-35.4-9.1
		c-14.9,1.3-28.4,8.3-38.1,19.8c-9.7,11.5-14.3,26.2-13,41.2c1.2,15,8.2,28.7,19.6,38.4c10.5,9,23.3,13.3,36.1,13.3
		c15.9,0,31.7-6.8,42.8-20C354.4,126.4,358.8,107.9,354.8,90.5z"/>
	<g>
		<g>
			<path class="st1" d="M699.8,960c-15.4,0-30.7-5.9-42.4-17.6c-23.4-23.4-23.4-61.5,0-84.9c23.4-23.4,61.5-23.4,84.9,0
				c23.4,23.4,23.4,61.5,0,84.9l0,0C730.6,954.1,715.2,960,699.8,960z M699.8,846.3c-13.7,0-27.5,5.2-38,15.7
				c-20.9,20.9-20.9,55,0,75.9c20.9,20.9,55,20.9,75.9,0l0,0c20.9-20.9,20.9-55,0-75.9C727.3,851.6,713.6,846.3,699.8,846.3z"/>
		</g>
		<path class="st1" d="M706.5,902l21.6-21.6c1.2-1.2,1.2-3.3,0-4.5c-1.2-1.2-3.3-1.2-4.5,0L702,897.5l-21.6-21.6
			c-1.2-1.2-3.3-1.2-4.5,0c-1.2,1.2-1.2,3.3,0,4.5l21.6,21.6l-21.6,21.6c-1.2,1.2-1.2,3.3,0,4.5c1.2,1.2,3.3,1.2,4.5,0l21.6-21.6
			l21.6,21.6c1.2,1.2,3.3,1.2,4.5,0c1.2-1.2,1.2-3.3,0-4.5L706.5,902z"/>
	</g>
	<g>
		<g>
			<path class="st1" d="M500,160c-15.4,0-30.7-5.9-42.4-17.6c-23.4-23.4-23.4-61.5,0-84.9c23.4-23.4,61.5-23.4,84.9,0
				c23.4,23.4,23.4,61.5,0,84.9l0,0C530.7,154.1,515.3,160,500,160z M500,46.3c-13.7,0-27.5,5.2-38,15.7c-20.9,20.9-20.9,55,0,75.9
				c20.9,20.9,55,20.9,75.9,0l0,0c20.9-20.9,20.9-55,0-75.9C527.4,51.6,513.7,46.3,500,46.3z"/>
		</g>
		<path class="st109" d="M506.6,102l21.6-21.6c1.2-1.2,1.2-3.3,0-4.5c-1.2-1.2-3.3-1.2-4.5,0l-21.6,21.6l-21.6-21.6
			c-1.2-1.2-3.3-1.2-4.5,0c-1.2,1.2-1.2,3.3,0,4.5l21.6,21.6l-21.6,21.6c-1.2,1.2-1.2,3.3,0,4.5c1.2,1.2,3.3,1.2,4.5,0l21.6-21.6
			l21.6,21.6c1.2,1.2,3.3,1.2,4.5,0c1.2-1.2,1.2-3.3,0-4.5L506.6,102z"/>
	</g>
	<g>
		<g>
			<linearGradient id="SVGID_11_" gradientUnits="userSpaceOnUse" x1="644.9587" y1="499.7728" x2="748.8895" y2="499.7728">
				<stop  offset="0" style="stop-color:#FF5A00"/>
				<stop  offset="0.1235" style="stop-color:#FF7B02"/>
				<stop  offset="0.2616" style="stop-color:#FF9704"/>
				<stop  offset="0.4095" style="stop-color:#FFAE06"/>
				<stop  offset="0.5697" style="stop-color:#FFBE07"/>
				<stop  offset="0.7513" style="stop-color:#FFC708"/>
				<stop  offset="1" style="stop-color:#FFCA08"/>
			</linearGradient>
			<path class="st46" d="M696.9,553.7h-36.8c-5,0-9.1-4.1-9.1-9.1v-89.7c0-5,4.1-9.1,9.1-9.1h73.6c5,0,9.1,4.1,9.1,9.1v44.8
				c0,1.7,1.4,3,3,3c1.7,0,3-1.4,3-3v-44.8c0-8.4-6.8-15.2-15.2-15.2h-73.6c-8.4,0-15.2,6.8-15.2,15.2v89.7
				c0,8.4,6.8,15.2,15.2,15.2h36.8c1.7,0,3-1.4,3-3C700,555.1,698.6,553.7,696.9,553.7z"/>
			<linearGradient id="SVGID_12_" gradientUnits="userSpaceOnUse" x1="666.5783" y1="469.3289" x2="727.2704" y2="469.3289">
				<stop  offset="0" style="stop-color:#FF5A00"/>
				<stop  offset="0.1235" style="stop-color:#FF7B02"/>
				<stop  offset="0.2616" style="stop-color:#FF9704"/>
				<stop  offset="0.4095" style="stop-color:#FFAE06"/>
				<stop  offset="0.5697" style="stop-color:#FFBE07"/>
				<stop  offset="0.7513" style="stop-color:#FFC708"/>
				<stop  offset="1" style="stop-color:#FFCA08"/>
			</linearGradient>
			<path class="st47" d="M669.6,472.4h54.6c1.7,0,3-1.4,3-3c0-1.7-1.4-3-3-3h-54.6c-1.7,0-3,1.4-3,3
				C666.6,471,667.9,472.4,669.6,472.4z"/>
			<linearGradient id="SVGID_13_" gradientUnits="userSpaceOnUse" x1="666.5783" y1="498.218" x2="727.2704" y2="498.218">
				<stop  offset="0" style="stop-color:#FF5A00"/>
				<stop  offset="0.1235" style="stop-color:#FF7B02"/>
				<stop  offset="0.2616" style="stop-color:#FF9704"/>
				<stop  offset="0.4095" style="stop-color:#FFAE06"/>
				<stop  offset="0.5697" style="stop-color:#FFBE07"/>
				<stop  offset="0.7513" style="stop-color:#FFC708"/>
				<stop  offset="1" style="stop-color:#FFCA08"/>
			</linearGradient>
			<path class="st49" d="M727.3,498.2c0-1.7-1.4-3-3-3h-54.6c-1.7,0-3,1.4-3,3c0,1.7,1.4,3,3,3h54.6
				C725.9,501.3,727.3,499.9,727.3,498.2z"/>
			<linearGradient id="SVGID_14_" gradientUnits="userSpaceOnUse" x1="666.5783" y1="527.1072" x2="696.9243" y2="527.1072">
				<stop  offset="0" style="stop-color:#FF5A00"/>
				<stop  offset="0.1235" style="stop-color:#FF7B02"/>
				<stop  offset="0.2616" style="stop-color:#FF9704"/>
				<stop  offset="0.4095" style="stop-color:#FFAE06"/>
				<stop  offset="0.5697" style="stop-color:#FFBE07"/>
				<stop  offset="0.7513" style="stop-color:#FFC708"/>
				<stop  offset="1" style="stop-color:#FFCA08"/>
			</linearGradient>
			<path class="st50" d="M669.6,524.1c-1.7,0-3,1.4-3,3s1.4,3,3,3h24.3c1.7,0,3-1.4,3-3s-1.4-3-3-3H669.6z"/>
		</g>
		<g>
			<path class="st0" d="M740.8,516c-1.2,1.2-1.2,3.1,0,4.3l3.8,3.8h-33.3c-1.7,0-3,1.4-3,3s1.4,3,3,3h40.6h0c0.2,0,0.4,0,0.6-0.1
				c0,0,0,0,0.1,0c0.5-0.1,1.1-0.4,1.5-0.8c0.4-0.4,0.7-0.9,0.8-1.5c0,0,0,0,0-0.1c0-0.2,0.1-0.4,0.1-0.6l0,0c0,0,0,0,0-0.1
				c0-0.2,0-0.4-0.1-0.5c0-0.1,0-0.1-0.1-0.2c0-0.1-0.1-0.3-0.1-0.4c0,0,0-0.1-0.1-0.1c-0.1-0.3-0.3-0.6-0.6-0.9l-9-9
				C743.9,514.8,741.9,514.8,740.8,516z"/>
			<path class="st0" d="M751.9,537.8h-40.6l0,0c-0.2,0-0.4,0-0.6,0.1c0,0,0,0-0.1,0c-0.5,0.1-1.1,0.4-1.5,0.8
				c-0.4,0.4-0.7,0.9-0.8,1.5c0,0,0,0,0,0.1c0,0.2-0.1,0.4-0.1,0.6l0,0c0,0,0,0,0,0.1c0,0.2,0,0.4,0.1,0.5c0,0.1,0,0.1,0.1,0.2
				c0,0.1,0.1,0.3,0.1,0.4c0,0,0,0.1,0.1,0.1c0.1,0.3,0.3,0.6,0.6,0.9l9,9c1.2,1.2,3.1,1.2,4.3,0c1.2-1.2,1.2-3.1,0-4.3l-3.8-3.8
				h33.3c1.7,0,3-1.4,3-3C755,539.2,753.6,537.8,751.9,537.8z"/>
		</g>
	</g>
	<g>
		<g>
			<linearGradient id="SVGID_15_" gradientUnits="userSpaceOnUse" x1="47" y1="499.6543" x2="143.1487" y2="499.6543">
				<stop  offset="0" style="stop-color:#FF1414"/>
				<stop  offset="0.137" style="stop-color:#FF2E2E"/>
				<stop  offset="0.2912" style="stop-color:#FF4242"/>
				<stop  offset="0.4648" style="stop-color:#FF5151"/>
				<stop  offset="0.6719" style="stop-color:#FF5959"/>
				<stop  offset="1" style="stop-color:#FF5C5C"/>
			</linearGradient>
			<path class="st51" d="M107,553.9H61c-4.6,0-8.4-3.8-8.4-8.4v-83.2c0-4.7,3.8-8.4,8.4-8.4h68.1c4.6,0,8.4,3.8,8.4,8.4v47
				c2,0.5,3.8,1.2,5.6,2v-49.1c0-7.8-6.3-14.1-14-14.1h-12.4v0v-5.6c0-1.5-1.3-2.8-2.8-2.8c-1.5,0-2.8,1.3-2.8,2.8v5.6v0H97.9v0
				v-5.6c0-1.5-1.3-2.8-2.8-2.8h0c-1.5,0-2.8,1.3-2.8,2.8v5.6v0H79.1v0v-5.6c0-1.5-1.3-2.8-2.8-2.8c-1.5,0-2.8,1.3-2.8,2.8v5.6v0H61
				c-7.7,0-14,6.3-14,14.1v83.2c0,7.8,6.3,14.1,14,14.1h51.2C110.3,557.9,108.5,556,107,553.9z"/>
			<linearGradient id="SVGID_16_" gradientUnits="userSpaceOnUse" x1="67" y1="475.6324" x2="123.148" y2="475.6324">
				<stop  offset="0" style="stop-color:#FF1414"/>
				<stop  offset="0.137" style="stop-color:#FF2E2E"/>
				<stop  offset="0.2912" style="stop-color:#FF4242"/>
				<stop  offset="0.4648" style="stop-color:#FF5151"/>
				<stop  offset="0.6719" style="stop-color:#FF5959"/>
				<stop  offset="1" style="stop-color:#FF5C5C"/>
			</linearGradient>
			<path class="st53" d="M120.3,472.8H69.8c-1.5,0-2.8,1.3-2.8,2.8c0,1.5,1.3,2.8,2.8,2.8h50.5c1.5,0,2.8-1.3,2.8-2.8
				C123.1,474.1,121.9,472.8,120.3,472.8z"/>
			<linearGradient id="SVGID_17_" gradientUnits="userSpaceOnUse" x1="67" y1="494.4605" x2="123.148" y2="494.4605">
				<stop  offset="0" style="stop-color:#FF1414"/>
				<stop  offset="0.137" style="stop-color:#FF2E2E"/>
				<stop  offset="0.2912" style="stop-color:#FF4242"/>
				<stop  offset="0.4648" style="stop-color:#FF5151"/>
				<stop  offset="0.6719" style="stop-color:#FF5959"/>
				<stop  offset="1" style="stop-color:#FF5C5C"/>
			</linearGradient>
			<path class="st54" d="M123.1,494.5c0-1.5-1.3-2.8-2.8-2.8H69.8c-1.5,0-2.8,1.3-2.8,2.8s1.3,2.8,2.8,2.8h50.5
				C121.9,497.3,123.1,496,123.1,494.5z"/>
			<linearGradient id="SVGID_18_" gradientUnits="userSpaceOnUse" x1="67" y1="513.2889" x2="119.8883" y2="513.2889">
				<stop  offset="0" style="stop-color:#FF1414"/>
				<stop  offset="0.137" style="stop-color:#FF2E2E"/>
				<stop  offset="0.2912" style="stop-color:#FF4242"/>
				<stop  offset="0.4648" style="stop-color:#FF5151"/>
				<stop  offset="0.6719" style="stop-color:#FF5959"/>
				<stop  offset="1" style="stop-color:#FF5C5C"/>
			</linearGradient>
			<path class="st55" d="M119.9,510.5H69.8c-1.5,0-2.8,1.3-2.8,2.8s1.3,2.8,2.8,2.8H111C113.6,513.7,116.6,511.8,119.9,510.5z"/>
			<linearGradient id="SVGID_19_" gradientUnits="userSpaceOnUse" x1="67" y1="532.1171" x2="102.8845" y2="532.1171">
				<stop  offset="0" style="stop-color:#FF1414"/>
				<stop  offset="0.137" style="stop-color:#FF2E2E"/>
				<stop  offset="0.2912" style="stop-color:#FF4242"/>
				<stop  offset="0.4648" style="stop-color:#FF5151"/>
				<stop  offset="0.6719" style="stop-color:#FF5959"/>
				<stop  offset="1" style="stop-color:#FF5C5C"/>
			</linearGradient>
			<path class="st56" d="M67,532.1c0,1.5,1.3,2.8,2.8,2.8h32.1c0.2-1.9,0.5-3.8,1-5.6H69.8C68.3,529.3,67,530.6,67,532.1z"/>
		</g>
		<g>
			<path class="st0" d="M140.4,517c-1.4-0.7-2.9-1.2-4.4-1.6c-1.8-0.4-3.6-0.7-5.5-0.7c-2.9,0-5.7,0.5-8.3,1.6
				c-2.6,1-4.9,2.5-6.9,4.4c-3,2.8-5.2,6.4-6.3,10.3c-0.4,1.4-0.7,2.9-0.8,4.4c-0.1,0.7-0.1,1.3-0.1,1.8c0,4.7,1.4,9.2,4.1,13
				c1.2,1.7,2.5,3.1,4.1,4.4c4,3.3,9.1,5.1,14.3,5.1c12.4,0,22.5-10.1,22.5-22.5C153,528.6,148.2,520.8,140.4,517z M130.5,555.6
				c-4.2,0-8.3-1.5-11.6-4.2c-1.2-1-2.4-2.2-3.3-3.6c-2.2-3.1-3.3-6.7-3.3-10.5c0-0.4,0-0.9,0.1-1.5c0.1-1.2,0.3-2.4,0.6-3.6
				c0.9-3.2,2.7-6.1,5.1-8.4c1.7-1.5,3.5-2.7,5.6-3.6c2.2-0.9,4.4-1.3,6.8-1.3c1.5,0,3,0.2,4.4,0.5c1.2,0.3,2.4,0.7,3.5,1.3
				c6.3,3.1,10.3,9.4,10.3,16.4C148.8,547.3,140.6,555.6,130.5,555.6z"/>
			<path class="st0" d="M140.4,534.2c0.8,0,1.4-0.6,1.4-1.4c0-0.8-0.6-1.4-1.4-1.4h-6.4l5.5-5.6c0.5-0.5,0.5-1.4,0-2
				c-0.5-0.5-1.4-0.5-2,0l-6.9,7l-6.9-7c-0.5-0.5-1.4-0.5-2,0s-0.5,1.4,0,2l5.5,5.6h-6.4c-0.8,0-1.4,0.6-1.4,1.4
				c0,0.8,0.6,1.4,1.4,1.4h8.4v4.7h-8.4c-0.8,0-1.4,0.6-1.4,1.4c0,0.8,0.6,1.4,1.4,1.4h8.4v7.9c0,0.8,0.6,1.4,1.4,1.4
				c0.8,0,1.4-0.6,1.4-1.4v-7.9h8.4c0.8,0,1.4-0.6,1.4-1.4c0-0.8-0.6-1.4-1.4-1.4h-8.4v-4.7H140.4z"/>
		</g>
	</g>
	<g>
		<path class="st0" d="M360.3,530.7c0-0.2,0-0.3,0-0.5c0,0,0,0,0,0c-0.1-0.4-0.3-0.8-0.6-1.1c0,0,0,0,0,0l-16.1-16.1
			c-0.9-0.9-2.3-0.9-3.2,0c-0.9,0.9-0.9,2.3,0,3.2l12.2,12.3h-46.8c-1.3,0-2.3,1-2.3,2.3c0,1.3,1,2.3,2.3,2.3h46.8l-12.2,12.3
			c-0.9,0.9-0.9,2.3,0,3.2v0c0.9,0.9,2.3,0.9,3.2,0l16.1-16.1c0,0,0,0,0,0c0.3-0.3,0.5-0.7,0.6-1.1c0,0,0,0,0,0
			C360.2,531,360.3,530.9,360.3,530.7L360.3,530.7L360.3,530.7z"/>
		<g>
			<linearGradient id="SVGID_20_" gradientUnits="userSpaceOnUse" x1="240.2511" y1="499.7728" x2="351.7203" y2="499.7728">
				<stop  offset="0" style="stop-color:#32C777"/>
				<stop  offset="9.973979e-02" style="stop-color:#2AD07A"/>
				<stop  offset="0.4447" style="stop-color:#13EA83"/>
				<stop  offset="0.7553" style="stop-color:#05F988"/>
				<stop  offset="1" style="stop-color:#00FF8A"/>
			</linearGradient>
			<path class="st57" d="M296,550.1c-27.6,0-50-22.6-50-50.3s22.5-50.3,50-50.3c27.6,0,50,22.6,50,50.3c0,1.6,1.3,2.9,2.8,2.9
				s2.8-1.3,2.8-2.9c0-30.9-25-56-55.7-56s-55.7,25.1-55.7,56s25,56,55.7,56c1.6,0,2.8-1.3,2.8-2.9S297.6,550.1,296,550.1z"/>
			<linearGradient id="SVGID_21_" gradientUnits="userSpaceOnUse" x1="270.962" y1="499.7729" x2="321.0094" y2="499.7729">
				<stop  offset="0" style="stop-color:#32C777"/>
				<stop  offset="9.973979e-02" style="stop-color:#2AD07A"/>
				<stop  offset="0.4447" style="stop-color:#13EA83"/>
				<stop  offset="0.7553" style="stop-color:#05F988"/>
				<stop  offset="1" style="stop-color:#00FF8A"/>
			</linearGradient>
			<path class="st58" d="M318.7,489.6c1.3,0,2.3-1,2.3-2.3s-1-2.3-2.3-2.3h-17.3l12.2-12.3c0.9-0.9,0.9-2.3,0-3.2s-2.3-0.9-3.2,0
				L296,484l-14.5-14.5c-0.9-0.9-2.3-0.9-3.2,0s-0.9,2.3,0,3.2l12.2,12.3h-17.3c-1.3,0-2.3,1-2.3,2.3s1,2.3,2.3,2.3h20.5v15h-20.5
				c-1.3,0-2.3,1-2.3,2.3c0,1.3,1,2.3,2.3,2.3h20.5v19.3c0,1.3,1,2.3,2.3,2.3s2.3-1,2.3-2.3v-19.3h20.5c1.3,0,2.3-1,2.3-2.3
				c0-1.3-1-2.3-2.3-2.3h-20.5v-15H318.7z"/>
		</g>
	</g>
	<g>
		<path class="st0" d="M557.7,528.4h-46.8l12.2-12.3c0.9-0.9,0.9-2.3,0-3.2l0,0c-0.9-0.9-2.3-0.9-3.2,0l-16.1,16.1c0,0,0,0,0,0
			c-0.3,0.3-0.5,0.7-0.6,1.1c0,0,0,0,0,0c0,0.1,0,0.3,0,0.5l0,0l0,0c0,0.2,0,0.3,0,0.5c0,0,0,0,0,0c0.1,0.4,0.3,0.8,0.6,1.1
			c0,0,0,0,0,0l16.1,16.1c0.9,0.9,2.3,0.9,3.2,0c0.9-0.9,0.9-2.3,0-3.2L510.9,533h46.8c1.3,0,2.3-1,2.3-2.3S558.9,528.4,557.7,528.4
			z"/>
		<g>
			<linearGradient id="SVGID_22_" gradientUnits="userSpaceOnUse" x1="439.9588" y1="499.7728" x2="551.428" y2="499.7728">
				<stop  offset="0" style="stop-color:#0055FF"/>
				<stop  offset="4.896599e-02" style="stop-color:#0061FF"/>
				<stop  offset="0.1828" style="stop-color:#007BFF"/>
				<stop  offset="0.3296" style="stop-color:#0090FF"/>
				<stop  offset="0.4938" style="stop-color:#009FFF"/>
				<stop  offset="0.6897" style="stop-color:#00A7FF"/>
				<stop  offset="1" style="stop-color:#00AAFF"/>
			</linearGradient>
			<path class="st60" d="M495.7,550.1c-27.6,0-50-22.6-50-50.3s22.5-50.3,50-50.3s50,22.6,50,50.3c0,1.6,1.3,2.9,2.8,2.9
				c1.6,0,2.8-1.3,2.8-2.9c0-30.9-25-56-55.7-56s-55.7,25.1-55.7,56s25,56,55.7,56c1.6,0,2.8-1.3,2.8-2.9S497.3,550.1,495.7,550.1z"
				/>
			<linearGradient id="SVGID_23_" gradientUnits="userSpaceOnUse" x1="470.6698" y1="499.7729" x2="520.7172" y2="499.7729">
				<stop  offset="0" style="stop-color:#0055FF"/>
				<stop  offset="4.896599e-02" style="stop-color:#0061FF"/>
				<stop  offset="0.1828" style="stop-color:#007BFF"/>
				<stop  offset="0.3296" style="stop-color:#0090FF"/>
				<stop  offset="0.4938" style="stop-color:#009FFF"/>
				<stop  offset="0.6897" style="stop-color:#00A7FF"/>
				<stop  offset="1" style="stop-color:#00AAFF"/>
			</linearGradient>
			<path class="st61" d="M518.4,489.6c1.3,0,2.3-1,2.3-2.3s-1-2.3-2.3-2.3h-17.3l12.2-12.3c0.9-0.9,0.9-2.3,0-3.2
				c-0.9-0.9-2.3-0.9-3.2,0L495.7,484l-14.5-14.5c-0.9-0.9-2.3-0.9-3.2,0s-0.9,2.3,0,3.2l12.2,12.3h-17.3c-1.3,0-2.3,1-2.3,2.3
				s1,2.3,2.3,2.3h20.5v15h-20.5c-1.3,0-2.3,1-2.3,2.3c0,1.3,1,2.3,2.3,2.3h20.5v19.3c0,1.3,1,2.3,2.3,2.3c1.3,0,2.3-1,2.3-2.3
				v-19.3h20.5c1.3,0,2.3-1,2.3-2.3c0-1.3-1-2.3-2.3-2.3H498v-15H518.4z"/>
		</g>
	</g>
	<g>
		<g>
			<g>
				<g>
					<linearGradient id="SVGID_24_" gradientUnits="userSpaceOnUse" x1="900.559" y1="470.684" x2="938.5826" y2="470.684">
						<stop  offset="0" style="stop-color:#3188FF"/>
						<stop  offset="0.1308" style="stop-color:#318EFF"/>
						<stop  offset="0.467" style="stop-color:#3196FF"/>
						<stop  offset="1" style="stop-color:#3199FF"/>
					</linearGradient>
					<path class="st62" d="M936.7,472.9h-34.3c-1,0-1.9-0.8-1.9-1.9v-0.7c0-1,0.8-1.9,1.9-1.9h34.3c1,0,1.9,0.8,1.9,1.9v0.7
						C938.6,472.1,937.7,472.9,936.7,472.9z"/>
				</g>
				<g>
					<linearGradient id="SVGID_25_" gradientUnits="userSpaceOnUse" x1="900.559" y1="483.7289" x2="938.5826" y2="483.7289">
						<stop  offset="0" style="stop-color:#3188FF"/>
						<stop  offset="0.1308" style="stop-color:#318EFF"/>
						<stop  offset="0.467" style="stop-color:#3196FF"/>
						<stop  offset="1" style="stop-color:#3199FF"/>
					</linearGradient>
					<path class="st63" d="M936.7,486h-34.3c-1,0-1.9-0.8-1.9-1.9v-0.7c0-1,0.8-1.9,1.9-1.9h34.3c1,0,1.9,0.8,1.9,1.9v0.7
						C938.6,485.1,937.7,486,936.7,486z"/>
				</g>
				<g>
					<linearGradient id="SVGID_26_" gradientUnits="userSpaceOnUse" x1="900.559" y1="495.9184" x2="938.5826" y2="495.9184">
						<stop  offset="0" style="stop-color:#3188FF"/>
						<stop  offset="0.1308" style="stop-color:#318EFF"/>
						<stop  offset="0.467" style="stop-color:#3196FF"/>
						<stop  offset="1" style="stop-color:#3199FF"/>
					</linearGradient>
					<path class="st64" d="M936.7,498.2h-34.3c-1,0-1.9-0.8-1.9-1.9v-0.7c0-1,0.8-1.9,1.9-1.9h34.3c1,0,1.9,0.8,1.9,1.9v0.7
						C938.6,497.3,937.7,498.2,936.7,498.2z"/>
				</g>
			</g>
			<g>
				<linearGradient id="SVGID_27_" gradientUnits="userSpaceOnUse" x1="839.9587" y1="492.144" x2="955.6332" y2="492.144">
					<stop  offset="0" style="stop-color:#3188FF"/>
					<stop  offset="0.1308" style="stop-color:#318EFF"/>
					<stop  offset="0.467" style="stop-color:#3196FF"/>
					<stop  offset="1" style="stop-color:#3199FF"/>
				</linearGradient>
				<path class="st65" d="M897.8,533.5h-50.6c-4,0-7.3-3.3-7.3-7.3V458c0-4,3.3-7.3,7.3-7.3h101.1c4,0,7.3,3.3,7.3,7.3v34.1
					c0,1.5-1.3,2.8-2.8,2.8c-1.5,0-2.8-1.3-2.8-2.8V458c0-0.9-0.8-1.7-1.7-1.7H847.2c-0.9,0-1.7,0.8-1.7,1.7v68.2
					c0,0.9,0.8,1.7,1.7,1.7h50.6c1.5,0,2.8,1.3,2.8,2.8S899.3,533.5,897.8,533.5z"/>
			</g>
			<g>
				<g>
					<linearGradient id="SVGID_28_" gradientUnits="userSpaceOnUse" x1="860.4077" y1="476.1724" x2="882.7746" y2="476.1724">
						<stop  offset="0" style="stop-color:#3188FF"/>
						<stop  offset="0.1308" style="stop-color:#318EFF"/>
						<stop  offset="0.467" style="stop-color:#3196FF"/>
						<stop  offset="1" style="stop-color:#3199FF"/>
					</linearGradient>
					<ellipse class="st66" cx="871.6" cy="476.2" rx="11.2" ry="11.2"/>
				</g>
				<g>
					<linearGradient id="SVGID_29_" gradientUnits="userSpaceOnUse" x1="852.5793" y1="499.7296" x2="890.603" y2="499.7296">
						<stop  offset="0" style="stop-color:#3188FF"/>
						<stop  offset="0.1308" style="stop-color:#318EFF"/>
						<stop  offset="0.467" style="stop-color:#3196FF"/>
						<stop  offset="1" style="stop-color:#3199FF"/>
					</linearGradient>
					<path class="st67" d="M890.6,500.9c0-5.3-4.6-9.6-10.2-9.6h-17.5c-5.6,0-10.2,4.3-10.2,9.6v5.7c0,0.8,0.7,1.5,1.5,1.5h35.1
						c0.8,0,1.5-0.7,1.5-1.5V500.9z"/>
				</g>
			</g>
		</g>
		<g>
			<g>
				<path class="st0" d="M956.7,501.4c-4.4-4.4-11.5-4.4-15.8,0l-11.1,11.1c-4.4,4.4-4.4,11.5,0,15.8c0.9,0.9,2.3,0.9,3.2,0
					c0.9-0.9,0.9-2.3,0-3.2c-2.6-2.6-2.6-6.9,0-9.5l11.1-11.1c2.6-2.6,6.9-2.6,9.5,0c2.6,2.6,2.6,6.9,0,9.5l-5.5,5.5
					c-0.9,0.9-0.9,2.3,0,3.2s2.3,0.9,3.2,0l5.5-5.5C961,512.9,961,505.8,956.7,501.4z"/>
			</g>
			<g>
				<path class="st0" d="M939.5,518.6c-0.9-0.9-2.3-0.9-3.2,0c-0.9,0.9-0.9,2.3,0,3.2c2.6,2.6,2.6,6.9,0,9.5l-11.1,11.1
					c-2.6,2.6-6.9,2.6-9.5,0s-2.6-6.9,0-9.5l5.5-5.5c0.9-0.9,0.9-2.3,0-3.2c-0.9-0.9-2.3-0.9-3.2,0l-5.5,5.5
					c-4.4,4.4-4.4,11.5,0,15.8s11.5,4.4,15.8,0l11.1-11.1C943.8,530.1,943.8,523,939.5,518.6z"/>
			</g>
		</g>
	</g>
	<g>
		<path class="st307" d="M1100,240.1c-33.1,0-60,26.9-60,60s26.9,60,60,60s60-26.9,60-60S1133,240.1,1100,240.1z M1100,354.1
			c-29.8,0-54-24.2-54-54c0-29.8,24.2-54,54-54c29.8,0,54,24.2,54,54C1154,329.8,1129.7,354.1,1100,354.1z"/>
		<path class="st307" d="M1127,297.1h-24v-24c0-1.6-1.4-3-3-3c-1.7,0-3,1.4-3,3v24h-24c-1.7,0-3,1.4-3,3s1.3,3,3,3h24v24
			c0,1.6,1.3,3,3,3c1.6,0,3-1.4,3-3v-24h24c1.6,0,3-1.4,3-3S1128.6,297.1,1127,297.1z"/>
	</g>
	<g>
		<g>
			<path class="st242" d="M1300,160c-33.1,0-60-26.9-60-60s26.9-60,60-60s60,26.9,60,60S1333,160,1300,160z M1300,46
				c-29.8,0-54,24.2-54,54s24.2,54,54,54c29.8,0,54-24.2,54-54S1329.7,46,1300,46z"/>
		</g>
		<path class="st242" d="M1330.9,79.6c-1.2-1.2-3.1-1.2-4.2,0l-34.4,34.4l-19.1-19.1c-1.2-1.2-3.1-1.2-4.2,0c-1.2,1.2-1.2,3.1,0,4.2
			l21.2,21.2c1.2,1.2,3.1,1.2,4.2,0h0l0,0l36.5-36.5C1332.1,82.7,1332.1,80.8,1330.9,79.6z"/>
	</g>
	<g>
		<path class="st0" d="M455.9,1078h-10.6c-2.9,0-5.3,2.4-5.3,5.3v64.4c0,2.9,2.4,5.3,5.3,5.3h10.6c2.9,0,5.3-2.4,5.3-5.3v-64.4
			C461.2,1080.4,458.8,1078,455.9,1078z M455.9,1147.8h-10.6v-64.4h10.6V1147.8z"/>
		<path class="st0" d="M560,1094.3c0-6.7-5.4-12.1-12-12.1h-30.6c5.2-8.9,5.9-22.2-2.8-34.6c-5-7.1-9.6-7-11.9-6.3
			c-4.5,1.4-7.3,6.9-7.4,14.4c-0.2,13.9-8.5,17-16.5,19.9c-0.4,0.2-0.9,0.3-1.3,0.5c-8.7,3.3-10.7,11.4-11.1,15.3l0,0
			c0,0.2-0.1,2.3-0.1,2.3c-0.2,10.2-0.8,42.4-0.5,53.1c0.2,7.6,38.4,11.1,57.5,12.1c0,0,15.3,0.1,15.3,0.1c6.6,0,12-5.4,12-12.1
			c0-2.7-0.9-5-2.4-6.8c3.6-1.8,5.8-5.1,5.8-9.4c0-3.1-1.2-6-3.2-8.1c3.6-1.8,5.8-5.2,5.8-9.4c0-3.1-1.2-6-3.2-8.1
			C557.3,1103,560,1099,560,1094.3z M544.6,1118.6h-16.4c-1.5,0-2.7,1.2-2.7,2.7c0,1.5,1.2,2.7,2.7,2.7h13.8c3.7,0,6.7,3,6.7,6.8
			c0,4-3.6,5.4-6.7,5.4h-17.1c-1.5,0-2.7,1.2-2.7,2.7c0,1.5,1.2,2.7,2.7,2.7h13.8c3.1,0,6.7,1.4,6.7,5.4c0,3.7-3,6.8-6.7,6.8
			c0,0-15.2,0.1-15.3,0c-22.5-1-40.7-3.3-50.1-7.3c-2.6-1.1-2.1,0-2.4-5.6c-0.6-9.5,0.4-37.1,0.8-46.8c0-0.2,0.1-0.4,0-0.6
			c0-0.4-0.2-9.4,7.7-12.4c0.4-0.2,0.8-0.3,1.2-0.5c7.8-2.9,19.6-7.3,19.9-24.9c0.1-5.4,1.5-8.8,3.7-9.3c2-0.5,3.7,1.1,6,4.3
			c8.6,12.3,6.5,25.6-0.1,32.4c-0.8,0.8-1,1.9-0.6,2.9c0.4,1,1.4,1.6,2.4,1.6l35.9,0c3.7,0,6.7,3,6.7,6.8c0,3.7-3,6.8-6.7,6.8h-17.1
			c-1.5,0-2.7,1.2-2.7,2.7s1.2,2.7,2.7,2.7h13.8c3.7,0,6.7,3,6.7,6.8C551.3,1117.2,547.7,1118.6,544.6,1118.6z"/>
	</g>
	<g>
		<path class="st0" d="M655.8,1078h-10.6c-2.9,0-5.3,2.4-5.3,5.3v64.4c0,2.9,2.4,5.3,5.3,5.3h10.6c2.9,0,5.3-2.4,5.3-5.3v-64.4
			C661.1,1080.4,658.7,1078,655.8,1078z"/>
		<path class="st0" d="M759.8,1094.3c0-6.7-5.4-12.1-12-12.1h-30.6c5.2-8.9,5.9-22.2-2.8-34.6c-5-7.1-9.6-7-11.9-6.3
			c-4.5,1.4-7.3,6.9-7.4,14.4c-0.2,13.9-8.5,17-16.5,19.9c-0.4,0.2-0.9,0.3-1.3,0.5c-8.7,3.3-10.7,11.4-11.1,15.3
			c0,0.2-0.1,2.3-0.1,2.3c-0.2,10.2-0.8,42.4-0.5,53.1c0.2,7.6,38.4,11.1,57.5,12.1c0,0,15.3,0.1,15.3,0.1c6.6,0,12-5.4,12-12.1
			c0-2.7-0.9-5-2.4-6.8c3.6-1.8,5.8-5.1,5.8-9.4c0-3.1-1.2-6-3.2-8.1c3.6-1.8,5.8-5.2,5.8-9.4c0-3.1-1.2-6-3.2-8.1
			C757.2,1103,759.8,1099,759.8,1094.3z"/>
	</g>
	<g>
		<g>
			<path d="M1899.8,951c-28.1,0-51-22.9-51-51c0-28.1,22.9-51,51-51c28.1,0,51,22.9,51,51C1950.8,928.1,1927.9,951,1899.8,951z
				 M1899.8,855c-24.8,0-45,20.2-45,45s20.2,45,45,45s45-20.2,45-45S1924.6,855,1899.8,855z"/>
		</g>
		<g>
			<path d="M1899.8,921c-11.6,0-21-9.4-21-21s9.4-21,21-21c11.6,0,21,9.4,21,21S1911.3,921,1899.8,921z M1899.8,885
				c-8.3,0-15,6.7-15,15c0,8.3,6.7,15,15,15c8.3,0,15-6.7,15-15C1914.8,891.7,1908,885,1899.8,885z"/>
		</g>
		<path d="M1957,903h-18c-1.7,0-3-1.3-3-3l0,0c0-1.7,1.3-3,3-3h18c1.7,0,3,1.3,3,3l0,0C1960,901.7,1958.6,903,1957,903z"/>
		<path d="M1861,903h-18c-1.7,0-3-1.3-3-3l0,0c0-1.7,1.3-3,3-3h18c1.7,0,3,1.3,3,3l0,0C1864,901.7,1862.6,903,1861,903z"/>
		<path d="M1897,957v-18c0-1.7,1.3-3,3-3l0,0c1.7,0,3,1.3,3,3v18c0,1.7-1.3,3-3,3l0,0C1898.3,960,1897,958.7,1897,957z"/>
		<path d="M1897,861v-18c0-1.7,1.3-3,3-3l0,0c1.7,0,3,1.3,3,3v18c0,1.7-1.3,3-3,3l0,0C1898.3,864,1897,862.7,1897,861z"/>
	</g>
	<g>
		<g>
			<path class="st0" d="M122.7,1080.7c-1.1-0.8-2.6-0.5-3.6,0.4l-25,24.4c-1.1,1-2.8,1-3.9,0l-9.6-9.4c-1.1-1-2.8-1-3.9,0
				c-1.1,1-1.1,2.7,0,3.8l13.5,13.2c1.1,1,2.8,1,3.9,0l29-28.3C124.2,1083.6,124.1,1081.6,122.7,1080.7z"/>
		</g>
		<g>
			<path class="st0" d="M99.8,1160l-34-29.2c-5.1-4.6-8-11.2-8-18v-62.4l3.5,1.5c3.9,1.7,8,2.6,12.3,2.6c9.6,0,18.5-4.3,24.3-11.9
				l2-2.6l2,2.6c5.8,7.6,14.7,11.9,24.3,11.9c4.2,0,8.2-0.8,12-2.4l3.5-1.5v62.2c0,6.8-2.9,13.4-8,18l-0.1,0.1L99.8,1160z
				 M69.2,1127.1l30.7,26.3l30.7-26.3c4-3.7,6.3-8.9,6.3-14.4v-54.9c-3.4,1-6.9,1.6-10.5,1.6c-10.2,0-19.6-4.2-26.3-11.5
				c-6.7,7.4-16.2,11.5-26.3,11.5c-3.7,0-7.4-0.6-10.8-1.7v55C62.8,1118.2,65.2,1123.5,69.2,1127.1z"/>
		</g>
	</g>
	<g>
		<polygon class="st110" points="656.8,656.1 684,656.1 684,640 639.8,640 639.8,684.1 656.8,684.1 		"/>
		<polygon class="st110" points="715.7,640 715.7,656.1 742.9,656.1 742.9,684.1 759.8,684.1 759.8,640 		"/>
		<rect x="715.7" y="742.3" class="st110" width="17.8" height="17.7"/>
		<path class="st110" d="M639.8,760H684v-44.1h-44.1V760z M653,729.1h17.8v17.7H653V729.1z"/>
		<polygon class="st110" points="742.9,742.3 742.9,760 759.8,760 759.8,715.9 742.9,715.9 		"/>
		<rect x="639.8" y="694.4" class="st110" width="120" height="11.3"/>
	</g>
	<g>
		<path d="M302.5,1100l12.5-12.5c0.7-0.7,0.7-1.9,0-2.6c-0.7-0.7-1.9-0.7-2.6,0l-12.5,12.5l-12.5-12.5c-0.7-0.7-1.9-0.7-2.6,0
			c-0.7,0.7-0.7,1.9,0,2.6l12.5,12.5l-12.5,12.5c-0.7,0.7-0.7,1.9,0,2.6c0.7,0.7,1.9,0.7,2.6,0l12.5-12.5l12.5,12.5
			c0.7,0.7,1.9,0.7,2.6,0c0.7-0.7,0.7-1.9,0-2.6L302.5,1100z"/>
	</g>
	<g>
		<path d="M359.8,1130h-89.1l-30.9-29.8l30.9-30.2h89.1V1130z M272.3,1126.3h83.8v-52.5h-83.8l-27,26.5L272.3,1126.3z"/>
	</g>
	<g>
		<circle class="st0" cx="1700" cy="900" r="60"/>
		<path class="st2" d="M1658,901.3l9.3-7.5l20.2,15c0,0,28.2-30.4,51.9-44l2.5,4.3c0,0-31.1,30-48.5,65.8L1658,901.3z"/>
	</g>
	<g>
		<circle class="st321" cx="1500" cy="900" r="60"/>
		<path class="st2" d="M1458,901.3l9.3-7.5l20.2,15c0,0,28.2-30.4,51.9-44l2.5,4.3c0,0-31.1,30-48.5,65.8L1458,901.3z"/>
	</g>
</g>
</svg>
