<?xml version="1.0" encoding="utf-8"?>
<!-- Generator: Adobe Illustrator 21.0.0, SVG Export Plug-In . SVG Version: 6.00 Build 0)  -->
<svg version="1.1" xmlns="http://www.w3.org/2000/svg" xmlns:xlink="http://www.w3.org/1999/xlink" x="0px" y="0px"
	 viewBox="0 0 866.5 1083.2" style="enable-background:new 0 0 866.5 1083.2;" xml:space="preserve">
<style type="text/css">
	.st0{opacity:0.57;fill:#FF0000;}
	.st1{fill:none;stroke:#000000;stroke-width:8;stroke-miterlimit:10;}
	.st2{fill:#FFFCF3;}
	.st3{fill:#FF1800;}
	.st4{fill:#FFFFFF;}
	.st5{fill:#FFCA08;}
	.st6{fill:#FF5A00;}
	.st7{fill:url(#SVGID_1_);}
	.st8{fill:url(#SVGID_2_);}
	.st9{fill:url(#SVGID_3_);}
	.st10{fill:url(#SVGID_4_);}
	.st11{fill:url(#SVGID_5_);}
	.st12{fill:url(#SVGID_6_);}
	.st13{fill:#FF1414;}
	.st14{fill:url(#SVGID_7_);}
	.st15{fill:url(#SVGID_8_);}
	.st16{fill:url(#SVGID_9_);}
	.st17{fill:#005CFF;}
	.st18{fill:url(#SVGID_10_);}
	.st19{fill:url(#SVGID_11_);}
	.st20{fill:url(#SVGID_12_);}
	.st21{fill:url(#SVGID_13_);}
	.st22{fill:url(#SVGID_14_);}
	.st23{fill:url(#SVGID_15_);}
	.st24{fill:#FFFAF8;}
	.st25{fill:url(#SVGID_16_);}
	.st26{fill:url(#SVGID_17_);}
	.st27{fill:url(#SVGID_18_);}
	.st28{fill:url(#SVGID_19_);}
	.st29{fill:url(#SVGID_20_);}
	.st30{fill:url(#SVGID_21_);}
	.st31{fill:url(#SVGID_22_);}
	.st32{fill:url(#SVGID_23_);}
	.st33{fill:url(#SVGID_24_);}
	.st34{fill:url(#SVGID_25_);}
	.st35{fill:url(#SVGID_26_);}
	.st36{fill:url(#SVGID_27_);}
	.st37{fill:url(#SVGID_28_);}
	.st38{fill:url(#SVGID_29_);}
	.st39{fill:url(#SVGID_30_);}
	.st40{fill:url(#SVGID_31_);}
	.st41{fill:url(#SVGID_32_);}
	.st42{fill:url(#SVGID_33_);}
	.st43{fill:url(#SVGID_34_);}
	.st44{fill:url(#SVGID_35_);}
	.st45{fill:url(#SVGID_36_);}
	.st46{fill:url(#SVGID_37_);}
	.st47{fill:url(#SVGID_38_);}
	.st48{fill:url(#SVGID_39_);}
	.st49{fill:url(#SVGID_40_);}
	.st50{fill:url(#SVGID_41_);}
	.st51{fill:url(#SVGID_42_);}
	.st52{fill:url(#SVGID_43_);}
	.st53{fill:url(#SVGID_44_);}
	.st54{fill:url(#SVGID_45_);}
	.st55{fill:url(#SVGID_46_);}
	.st56{fill:url(#SVGID_47_);}
	.st57{fill:url(#SVGID_48_);}
	.st58{fill:none;stroke:#000000;stroke-width:16;stroke-miterlimit:10;}
	.st59{fill:url(#SVGID_49_);}
	.st60{fill:url(#SVGID_50_);}
	.st61{fill:url(#SVGID_51_);}
	.st62{fill:none;}
	.st63{fill:url(#SVGID_52_);}
	.st64{fill:url(#SVGID_53_);}
	.st65{fill:url(#SVGID_54_);}
	.st66{fill:url(#SVGID_55_);}
	.st67{fill:url(#SVGID_56_);}
	.st68{fill:url(#SVGID_57_);}
	.st69{fill:url(#SVGID_58_);}
	.st70{fill:url(#SVGID_59_);}
	.st71{fill:url(#SVGID_60_);}
	.st72{fill:#7F7F7F;}
	.st73{fill:url(#SVGID_61_);}
	.st74{fill:url(#SVGID_62_);}
	.st75{fill:url(#SVGID_63_);}
	.st76{fill:url(#SVGID_64_);}
	.st77{fill:url(#SVGID_65_);}
	.st78{fill:url(#SVGID_66_);}
	.st79{fill:url(#SVGID_67_);}
	.st80{fill:url(#SVGID_68_);}
	.st81{fill:url(#SVGID_69_);}
	.st82{fill:url(#SVGID_70_);}
	.st83{fill:url(#SVGID_71_);}
	.st84{fill:url(#SVGID_72_);}
	.st85{fill:url(#SVGID_73_);}
	.st86{fill:url(#SVGID_74_);}
	.st87{fill:url(#SVGID_75_);}
	.st88{fill:url(#SVGID_76_);}
	.st89{fill:url(#SVGID_77_);}
	.st90{fill:url(#SVGID_78_);}
	.st91{fill:url(#SVGID_79_);}
	.st92{fill:url(#SVGID_80_);}
	.st93{fill:url(#SVGID_81_);}
	.st94{fill:url(#SVGID_82_);}
	.st95{fill:url(#SVGID_83_);}
	.st96{fill:url(#SVGID_84_);}
	.st97{fill:url(#SVGID_85_);}
	.st98{fill:url(#SVGID_86_);}
	.st99{fill:url(#SVGID_87_);}
	.st100{fill:url(#SVGID_88_);}
	.st101{fill:url(#SVGID_89_);}
	.st102{fill:url(#SVGID_90_);}
	.st103{fill:url(#SVGID_91_);}
	.st104{fill:url(#SVGID_92_);}
	.st105{fill:url(#SVGID_93_);}
	.st106{fill:url(#SVGID_94_);}
	.st107{fill:url(#SVGID_95_);}
	.st108{fill:url(#SVGID_96_);}
	.st109{fill:url(#SVGID_97_);}
	.st110{fill:url(#SVGID_98_);}
	.st111{fill:url(#SVGID_99_);}
	.st112{fill:url(#SVGID_100_);}
	.st113{fill:url(#SVGID_101_);}
	.st114{fill:url(#SVGID_102_);}
	.st115{fill:url(#SVGID_103_);}
	.st116{fill:url(#SVGID_104_);}
	.st117{fill:url(#SVGID_105_);}
	.st118{fill:url(#SVGID_106_);}
	.st119{fill:url(#SVGID_107_);}
	.st120{fill:url(#SVGID_108_);}
	.st121{fill:url(#SVGID_109_);}
	.st122{fill:url(#SVGID_110_);}
	.st123{fill:url(#SVGID_111_);}
	.st124{fill:url(#SVGID_112_);}
	.st125{fill:url(#SVGID_113_);}
	.st126{fill:url(#SVGID_114_);}
	.st127{fill:url(#SVGID_115_);}
	.st128{fill:url(#SVGID_116_);}
	.st129{fill:url(#SVGID_117_);}
	.st130{fill:url(#SVGID_118_);}
	.st131{fill:url(#SVGID_119_);}
	.st132{fill:url(#SVGID_120_);}
	.st133{fill:url(#SVGID_121_);}
	.st134{fill:url(#SVGID_122_);}
	.st135{fill:url(#SVGID_123_);}
	.st136{fill:url(#SVGID_124_);}
	.st137{fill:url(#SVGID_125_);}
	.st138{fill:url(#SVGID_126_);}
	.st139{fill:url(#SVGID_127_);}
	.st140{fill:url(#SVGID_128_);}
	.st141{fill:url(#SVGID_129_);}
	.st142{fill:url(#SVGID_130_);}
	.st143{fill:url(#SVGID_131_);}
	.st144{fill:url(#SVGID_132_);}
	.st145{opacity:0.51;fill:#D8C593;}
	.st146{fill:#F2F2F2;}
	.st147{fill:url(#SVGID_133_);}
	.st148{fill:url(#SVGID_134_);}
	.st149{fill:url(#SVGID_135_);}
	.st150{fill:url(#SVGID_136_);}
	.st151{fill:url(#SVGID_137_);}
	.st152{fill:url(#SVGID_138_);}
	.st153{fill:url(#SVGID_139_);}
	.st154{fill:url(#SVGID_140_);}
	.st155{fill:url(#SVGID_141_);}
	.st156{fill:url(#SVGID_142_);}
	.st157{fill:url(#SVGID_143_);}
	.st158{fill:url(#SVGID_144_);}
	.st159{fill:url(#SVGID_145_);}
	.st160{fill:url(#SVGID_146_);}
	.st161{fill:none;stroke:#000000;stroke-width:10;stroke-miterlimit:10;}
	.st162{fill:none;stroke:#000000;stroke-width:10;stroke-linecap:round;stroke-miterlimit:10;}
	.st163{clip-path:url(#SVGID_148_);fill:#3199FF;}
	.st164{clip-path:url(#SVGID_148_);fill:#3198FF;}
	.st165{clip-path:url(#SVGID_148_);fill:#3197FF;}
	.st166{clip-path:url(#SVGID_148_);fill:#3196FF;}
	.st167{clip-path:url(#SVGID_148_);fill:#3195FF;}
	.st168{clip-path:url(#SVGID_148_);fill:#3194FF;}
	.st169{clip-path:url(#SVGID_148_);fill:#3193FF;}
	.st170{clip-path:url(#SVGID_148_);fill:#3192FF;}
	.st171{clip-path:url(#SVGID_148_);fill:#3191FF;}
	.st172{clip-path:url(#SVGID_148_);fill:#318FFF;}
	.st173{clip-path:url(#SVGID_148_);fill:#318EFF;}
	.st174{clip-path:url(#SVGID_148_);fill:#318DFF;}
	.st175{clip-path:url(#SVGID_148_);fill:#318CFF;}
	.st176{clip-path:url(#SVGID_148_);fill:#318BFF;}
	.st177{clip-path:url(#SVGID_148_);fill:#318AFF;}
	.st178{clip-path:url(#SVGID_148_);fill:#3189FF;}
	.st179{clip-path:url(#SVGID_148_);fill:#3188FF;}
	.st180{fill:none;stroke:#000000;stroke-width:12;stroke-linecap:round;stroke-miterlimit:10;}
	.st181{fill:#B2B2B2;}
	.st182{fill:none;stroke:#000000;stroke-width:12;stroke-miterlimit:10;}
	.st183{opacity:0.49;}
	.st184{fill:url(#SVGID_149_);}
	.st185{fill:url(#SVGID_150_);}
	.st186{fill:url(#SVGID_151_);}
	.st187{fill:none;stroke:#000000;stroke-width:8;stroke-linecap:round;stroke-miterlimit:10;}
	.st188{fill:#FCFCFC;}
	.st189{fill:none;stroke:#000000;stroke-width:16;stroke-linecap:round;stroke-miterlimit:10;}
	.st190{fill:#0B0A0A;}
	.st191{fill:url(#SVGID_152_);}
	.st192{fill:url(#SVGID_153_);}
	.st193{fill:url(#SVGID_154_);}
	.st194{fill:url(#SVGID_155_);}
	.st195{fill:url(#SVGID_156_);}
	.st196{fill:url(#SVGID_157_);}
	.st197{fill:url(#SVGID_158_);}
	.st198{fill:url(#SVGID_159_);}
	.st199{fill:url(#SVGID_160_);}
	.st200{fill:none;stroke:#000000;stroke-width:8;stroke-linecap:round;stroke-linejoin:round;stroke-miterlimit:10;}
	.st201{fill:none;stroke:#000000;stroke-width:10;stroke-linecap:round;stroke-linejoin:round;stroke-miterlimit:10;}
	.st202{fill:none;stroke:#000000;stroke-width:10;stroke-linejoin:round;stroke-miterlimit:10;}
	.st203{fill:none;stroke:#7F7F7F;stroke-width:10;stroke-miterlimit:10;}
	.st204{fill:none;stroke:#7F7F7F;stroke-width:10;stroke-linejoin:round;stroke-miterlimit:10;}
	.st205{fill:url(#SVGID_161_);}
	.st206{fill:url(#SVGID_162_);}
	.st207{fill:url(#SVGID_163_);}
	.st208{fill:url(#SVGID_164_);}
	.st209{fill:#3199FF;}
	.st210{fill:url(#SVGID_165_);}
	.st211{fill:url(#SVGID_166_);}
	.st212{fill:url(#SVGID_167_);}
	.st213{fill:url(#SVGID_168_);}
	.st214{fill:url(#SVGID_169_);}
	.st215{fill:url(#SVGID_170_);}
	.st216{fill:url(#SVGID_171_);}
	.st217{fill:url(#SVGID_172_);}
	.st218{fill:url(#SVGID_173_);}
	.st219{fill:url(#SVGID_174_);}
	.st220{fill:url(#SVGID_175_);}
	.st221{fill:url(#SVGID_176_);}
	.st222{fill:url(#SVGID_177_);}
	.st223{fill:url(#SVGID_178_);}
	.st224{fill:url(#SVGID_179_);}
	.st225{fill:#CCCCCC;}
</style>
<g id="图层_1">
	<g>
		<g>
			<path class="st2" d="M105.8,60.6c22.3,0,40.4,18.1,40.4,40.4s-18.1,40.4-40.4,40.4S65.5,123.3,65.5,101S83.6,60.6,105.8,60.6
				 M105.8,52.9c-26.6,0-48.1,21.5-48.1,48.1s21.5,48.1,48.1,48.1s48.1-21.5,48.1-48.1S132.4,52.9,105.8,52.9L105.8,52.9z"/>
		</g>
		<g>
			<path class="st2" d="M105.8,79.8c11.7,0,21.2,9.5,21.2,21.2s-9.5,21.2-21.2,21.2s-21.2-9.5-21.2-21.2S94.2,79.8,105.8,79.8
				 M105.8,72.2C89.9,72.2,77,85.1,77,101s12.9,28.8,28.8,28.8s28.8-12.9,28.8-28.8S121.7,72.2,105.8,72.2L105.8,72.2z"/>
		</g>
		<g>
			<path class="st2" d="M109.6,201h-7.5c-9.6,0-17.4-7.8-17.4-17.4v-7.9c0-3.9-2.3-7.4-6-8.9l-0.2-0.1c-3.6-1.5-7.8-0.7-10.6,2.1
				l-5.6,5.6c-3.3,3.3-7.7,5.1-12.3,5.1s-9-1.8-12.3-5.1l-5.3-5.3c-3.3-3.3-5.1-7.7-5.1-12.3c0-4.6,1.8-9,5.1-12.3l5.6-5.6
				c2.8-2.8,3.6-6.9,2.1-10.6l-0.1-0.2c-1.5-3.6-5-6-8.9-6h-7.9c-9.6,0-17.4-7.8-17.4-17.4v-7.5c0-9.6,7.8-17.4,17.4-17.4h7.9
				c3.9,0,7.4-2.3,8.9-6l0.1-0.2c1.5-3.6,0.7-7.8-2.1-10.6l-5.6-5.6c-3.3-3.3-5.1-7.7-5.1-12.3s1.8-9,5.1-12.3l5.3-5.3
				c3.3-3.3,7.7-5.1,12.3-5.1s9,1.8,12.3,5.1l5.6,5.6c2.8,2.8,6.9,3.6,10.6,2.1l0.1,0c3.7-1.5,6-5,6-9v-7.9C84.7,8.8,92.5,1,102.1,1
				h7.5c9.6,0,17.4,7.8,17.4,17.4v7.9c0,3.9,2.3,7.4,6,8.9l0.2,0.1c3.6,1.5,7.8,0.7,10.6-2.1l5.6-5.6c6.8-6.8,17.8-6.8,24.6,0
				l5.3,5.3c6.8,6.8,6.8,17.8,0,24.6l-5.6,5.6c-2.8,2.8-3.6,6.9-2.1,10.6l0,0.1c1.5,3.7,5,6,9,6h7.9c9.6,0,17.4,7.8,17.4,17.4v7.5
				c0,9.6-7.8,17.4-17.4,17.4h-7.9c-3.9,0-7.4,2.3-8.9,6l-0.1,0.2c-1.5,3.7-0.7,7.8,2.1,10.6l5.6,5.6c6.8,6.8,6.8,17.8,0,24.6
				l-5.3,5.3c-6.8,6.8-17.8,6.8-24.6,0l-5.6-5.6c-2.8-2.8-6.9-3.6-10.6-2.1l-0.1,0c-3.7,1.5-6,5-6,9v7.9
				C127,193.2,119.2,201,109.6,201z M74.8,158.2c2.3,0,4.5,0.4,6.7,1.4l0.2,0.1c6.5,2.7,10.7,9,10.7,16v7.9c0,5.3,4.3,9.7,9.7,9.7
				h7.5c5.3,0,9.7-4.3,9.7-9.7v-7.9c0-7.1,4.2-13.3,10.7-16l1.6,3.5l-1.5-3.5c6.5-2.7,14-1.3,19,3.7l5.6,5.6c3.8,3.8,9.9,3.8,13.7,0
				l5.3-5.3c3.8-3.8,3.8-9.9,0-13.7l-5.6-5.6c-5-5-6.5-12.5-3.7-19l0.1-0.1c2.7-6.5,9-10.7,16.1-10.7h7.9c5.3,0,9.7-4.3,9.7-9.7
				v-7.5c0-5.3-4.3-9.7-9.7-9.7h-7.9c-7.1,0-13.3-4.2-16-10.7l-0.1-0.2c-2.7-6.5-1.2-14,3.8-19l5.6-5.6c3.8-3.8,3.8-9.9,0-13.7
				l-5.3-5.3c-3.8-3.8-9.9-3.8-13.7,0l-5.6,5.6c-5,5-12.5,6.5-19,3.7l-0.2-0.1c-6.5-2.7-10.7-9-10.7-16v-7.9c0-5.3-4.3-9.7-9.7-9.7
				h-7.5c-5.3,0-9.7,4.3-9.7,9.7v7.9c0,7.1-4.2,13.3-10.7,16L80,38.8l1.5,3.5c-6.5,2.7-14,1.3-19-3.7l-5.6-5.6
				c-1.8-1.8-4.3-2.8-6.9-2.8c-2.6,0-5,1-6.9,2.8l-5.3,5.3c-1.8,1.8-2.8,4.3-2.8,6.9c0,2.6,1,5,2.8,6.9l5.6,5.6c5,5,6.5,12.5,3.7,19
				l-3.6-1.4l3.6,1.5c-2.7,6.6-9,10.8-16.1,10.8h-7.9c-5.3,0-9.7,4.3-9.7,9.7v7.5c0,5.3,4.3,9.7,9.7,9.7h7.9c7.1,0,13.3,4.2,16,10.7
				l-3.5,1.6l3.5-1.5c2.7,6.5,1.3,14-3.7,19l-5.6,5.6c-1.8,1.8-2.8,4.3-2.8,6.9c0,2.6,1,5,2.8,6.9l5.3,5.3c1.8,1.8,4.3,2.8,6.9,2.8
				c2.6,0,5-1,6.9-2.8l5.6-5.6C65.9,160,70.3,158.2,74.8,158.2z"/>
		</g>
	</g>
	<path class="st2" d="M401.3,59.7c0-10.3-8.4-18.8-18.8-18.8H243.6c-10.4,0-18.8,8.4-18.8,18.8V61l0,0v81.3
		c0,10.4,8.4,18.8,18.8,18.8h0h138.9h0c0,0,0,0,0,0c10.2,0,18.6-8.2,18.7-18.4c0-0.1,0-0.2,0-0.4V59.7z M243.6,48.5h138.9
		c5.5,0,10.1,4,11.1,9.2L316.9,102c-2.4,1.4-5.3,1.4-7.6,0l-76.7-44.3C233.5,52.4,238.1,48.5,243.6,48.5z M243.6,153.5
		c-6.2,0-11.3-5.1-11.3-11.3V66.2l76.9,44.4c2.4,1.4,5.3,1.4,7.6,0l76.9-44.4v76.1c0,0.1,0,0.2,0,0.3c-0.2,6-5.1,10.9-11.2,10.9
		c0,0,0,0,0,0H243.6z"/>
	<g>
		<path class="st2" d="M621.8,59.7c0-10.3-8.4-18.8-18.8-18.8H464.1c-10.4,0-18.8,8.4-18.8,18.8V61c0,0,0,0,0,0v81.3
			c0,10.4,8.4,18.8,18.8,18.8h0h138.9l0,0c0,0,0,0,0,0c10.2,0,18.6-8.2,18.7-18.4c0-0.1,0-0.2,0-0.4V59.7z M464.1,48.5h138.9
			c5.5,0,10.1,4,11.1,9.2L537.4,102c-2.4,1.4-5.3,1.4-7.6,0L453,57.7C454,52.4,458.6,48.5,464.1,48.5z M464.1,153.5
			c-6.2,0-11.3-5.1-11.3-11.3V66.2l76.9,44.4c2.4,1.4,5.3,1.4,7.6,0l76.9-44.4v76.1c0,0.1,0,0.2,0,0.3c-0.2,6-5.1,10.9-11.2,10.9
			c0,0,0,0,0,0H464.1z"/>
		<ellipse class="st3" cx="609.6" cy="48.8" rx="35.7" ry="35.7"/>
	</g>
	<g>
		<g>
			<rect x="83.4" y="328.5" class="st6" width="8.8" height="74.8"/>
			<g>
				<polygon class="st6" points="128,377.6 121.8,371.4 152.8,340.3 159,346.5 				"/>
				<polygon class="st6" points="140.4,390.1 134.2,383.9 155.9,362.1 162.1,368.3 				"/>
			</g>
			<rect x="65.8" y="354.9" class="st6" width="8.8" height="22"/>
		</g>
		<g>
			<linearGradient id="SVGID_1_" gradientUnits="userSpaceOnUse" x1="62.516" y1="218.263" x2="137.4294" y2="348.0169">
				<stop  offset="0" style="stop-color:#FF5A00"/>
				<stop  offset="5.608368e-02" style="stop-color:#FF6601"/>
				<stop  offset="0.2433" style="stop-color:#FF8A03"/>
				<stop  offset="0.4323" style="stop-color:#FFA605"/>
				<stop  offset="0.6212" style="stop-color:#FFBA07"/>
				<stop  offset="0.8104" style="stop-color:#FFC608"/>
				<stop  offset="1" style="stop-color:#FFCA08"/>
			</linearGradient>
			<path class="st7" d="M203.3,287.3L178,235.7h-2.7h-24.4H142h-14.9h-8.8H92h-8.8H68.4h-8.9H35.1h-2.7L7.1,287.1L7,287.3
				c-2.8,6.4-2.4,13.3,1.1,19.4c3.9,6.8,11.4,11.9,18.6,12.6c1.1,0.1,2.2,0.2,3.3,0.2c8.4,0,16.4-4.1,21.6-10.6
				c3.9,6.2,10.7,10.4,18.6,10.4c7.2,0,13.5-3.5,17.5-8.9c4,5.4,10.4,8.9,17.5,8.9s13.5-3.5,17.5-8.9c4,5.4,10.4,8.9,17.5,8.9
				c7.8,0,14.7-4.2,18.6-10.4c5.2,6.5,13.1,10.6,21.6,10.6c1.1,0,2.2-0.1,3.3-0.2c7.2-0.8,14.7-5.9,18.6-12.6
				C205.7,300.5,206.1,293.6,203.3,287.3z M27.8,310.5L27.8,310.5c-4.5-0.5-9.6-4-12.1-8.3c-1.5-2.5-2.8-6.5-0.7-11.3l22.8-46.4h20
				l-9.6,51.8C46,305.5,37,311.7,27.8,310.5z M70.1,310.4c-7.1,0-12.9-5.7-13.1-12.8l9.8-53.2h16.5v52.8
				C83.3,304.5,77.4,310.4,70.1,310.4z M105.2,310.4c-7.2,0-13.1-5.9-13.1-13.2v-52.8h26.3v52.8
				C118.3,304.5,112.4,310.4,105.2,310.4z M140.2,310.4c-7.2,0-13.1-5.9-13.1-13.2v-52.8h16.5l9.8,53.2
				C153.1,304.7,147.3,310.4,140.2,310.4z M194.6,302.2c-2.5,4.3-7.5,7.8-12,8.3l-0.1,0c-9.2,1.2-18.2-5.1-20.4-14.2l-9.6-51.8h20
				l22.8,46.4C197.4,295.7,196.1,299.7,194.6,302.2z"/>
			<linearGradient id="SVGID_2_" gradientUnits="userSpaceOnUse" x1="62.0442" y1="310.4539" x2="138.4616" y2="442.8127">
				<stop  offset="0" style="stop-color:#FF5A00"/>
				<stop  offset="5.608368e-02" style="stop-color:#FF6601"/>
				<stop  offset="0.2433" style="stop-color:#FF8A03"/>
				<stop  offset="0.4323" style="stop-color:#FFA605"/>
				<stop  offset="0.6212" style="stop-color:#FFBA07"/>
				<stop  offset="0.8104" style="stop-color:#FFC608"/>
				<stop  offset="1" style="stop-color:#FFCA08"/>
			</linearGradient>
			<polygon class="st8" points="179.6,398.9 179.6,328.5 170.9,328.5 170.9,398.9 39.6,398.9 39.6,328.5 30.8,328.5 30.8,398.9 
				11,398.9 11,407.7 199.3,407.7 199.3,398.9 			"/>
		</g>
	</g>
	<g>
		<g>
			<linearGradient id="SVGID_3_" gradientUnits="userSpaceOnUse" x1="270.9628" y1="262.2936" x2="365.8153" y2="426.583">
				<stop  offset="0" style="stop-color:#FF1414"/>
				<stop  offset="0.137" style="stop-color:#FF2E2E"/>
				<stop  offset="0.2912" style="stop-color:#FF4242"/>
				<stop  offset="0.4648" style="stop-color:#FF5151"/>
				<stop  offset="0.6719" style="stop-color:#FF5959"/>
				<stop  offset="1" style="stop-color:#FF5C5C"/>
			</linearGradient>
			<path class="st9" d="M416.7,313.1h-8.3v-11.5c0-12.6-10.2-22.9-22.8-22.9H267l82.5-36.8c2.6-1.2,5.4-1.3,8.1-0.4
				c2.5,0.9,4.5,2.7,5.5,5l9.1,20.4c1,2.3,3.7,3.4,6,2.3c2.3-1,3.3-3.7,2.3-6.1l-9.1-20.4c-2.1-4.6-5.9-8.2-10.8-9.9
				c-4.8-1.7-10.1-1.5-14.8,0.6l-98.9,44.2c-0.7,0.3-1.3,0.8-1.7,1.3c-10.9,1.7-19.3,11.2-19.3,22.6v87.2
				c0,12.6,10.2,22.9,22.8,22.9h136.9c12.6,0,22.8-10.3,22.8-22.9v-11.5h8.3c5,0,9.1-4.1,9.1-9.2v-45.8
				C425.8,317.2,421.7,313.1,416.7,313.1z M399.3,388.8c0,7.6-6.1,13.7-13.7,13.7H248.7c-7.6,0-13.7-6.2-13.7-13.7v-87.2
				c0-7.6,6.1-13.7,13.7-13.7h136.9c7.6,0,13.7,6.2,13.7,13.7v11.5h-14.5c-17.6,0-32,14.4-32,32.1c0,17.7,14.3,32.1,32,32.1h14.5
				V388.8z M384.7,368.1c-12.6,0-22.8-10.3-22.8-22.9c0-12.6,10.2-22.9,22.8-22.9h32l0,45.8H384.7z"/>
			<linearGradient id="SVGID_4_" gradientUnits="userSpaceOnUse" x1="383.8528" y1="339.208" x2="390.723" y2="351.1077">
				<stop  offset="0" style="stop-color:#FF1414"/>
				<stop  offset="0.137" style="stop-color:#FF2E2E"/>
				<stop  offset="0.2912" style="stop-color:#FF4242"/>
				<stop  offset="0.4648" style="stop-color:#FF5151"/>
				<stop  offset="0.6719" style="stop-color:#FF5959"/>
				<stop  offset="1" style="stop-color:#FF5C5C"/>
			</linearGradient>
			<ellipse class="st10" cx="387.3" cy="345.2" rx="6.9" ry="6.9"/>
		</g>
		<g>
			<path class="st13" d="M328.6,312.2l-16.3,30.1h12.9v6.6h-15.1v9.2h15.1v6.7h-15.1v13.3h-8.3v-13.3h-15.6v-6.7h15.6v-9.2h-15.6
				v-6.6h13.1l-16.1-30.1h9.5l11.2,23.4c0.6,1.3,1.3,3,2.1,5h0.2c0.6-1.6,1.3-3.3,2.2-5.2l11.3-23.2H328.6z"/>
		</g>
	</g>
	<g>
		<g>
			<linearGradient id="SVGID_5_" gradientUnits="userSpaceOnUse" x1="491.7181" y1="216.4159" x2="600.6301" y2="405.0569">
				<stop  offset="0" style="stop-color:#0055FF"/>
				<stop  offset="4.896599e-02" style="stop-color:#0061FF"/>
				<stop  offset="0.1828" style="stop-color:#007BFF"/>
				<stop  offset="0.3296" style="stop-color:#0090FF"/>
				<stop  offset="0.4938" style="stop-color:#009FFF"/>
				<stop  offset="0.6897" style="stop-color:#00A7FF"/>
				<stop  offset="1" style="stop-color:#00AAFF"/>
			</linearGradient>
			<path class="st11" d="M546.2,408.7l-15-18.4c-1.8-2.2-4.5-3.5-7.4-3.5h-58.6c-10.5,0-19-8.5-19-19V253.7c0-10.5,8.5-19,19-19
				h161.9c10.5,0,19,8.5,19,19v114.1c0,10.5-8.5,19-19,19h-59c-2.9,0-5.7,1.3-7.5,3.6L546.2,408.7z M465.2,244.2
				c-5.3,0-9.5,4.3-9.5,9.5v114.1c0,5.3,4.3,9.5,9.5,9.5h63.2c2.9,0,5.6,1.3,7.4,3.5l10.3,12.7l9.9-12.6c1.8-2.3,4.6-3.6,7.5-3.6
				h63.6c5.3,0,9.5-4.3,9.5-9.5V253.7c0-5.3-4.3-9.5-9.5-9.5H465.2z"/>
		</g>
		<g>
			<rect x="498.6" y="291.7" class="st17" width="95.2" height="9.5"/>
			<rect x="498.6" y="320.2" class="st17" width="95.2" height="9.5"/>
		</g>
	</g>
	<g>
		<path class="st13" d="M795.9,327.1h-24.5v-9.7h24.5c2.7,0,4.9-2.2,4.9-4.8c0-2.7-2.2-4.8-4.9-4.8h-24.5v-2.8l19.3-19.1
			c1.9-1.9,1.9-5,0-6.8c-1.9-1.9-5-1.9-6.9,0l-17.3,17.1l-17.3-17.1c-1.9-1.9-5-1.9-6.9,0c-1.9,1.9-1.9,5,0,6.8l19.4,19.2v2.8h-24.5
			c-2.7,0-4.9,2.2-4.9,4.8c0,2.7,2.2,4.8,4.9,4.8h24.5v9.7h-24.5c-2.7,0-4.9,2.2-4.9,4.8c0,2.7,2.2,4.8,4.9,4.8h24.5V361
			c0,2.7,2.2,4.8,4.9,4.8c2.7,0,4.9-2.2,4.9-4.8v-24.2h24.5c2.7,0,4.9-2.2,4.9-4.8C800.8,329.3,798.6,327.1,795.9,327.1z"/>
		<g>
			<linearGradient id="SVGID_6_" gradientUnits="userSpaceOnUse" x1="666.5087" y1="376.4299" x2="866.5087" y2="376.4299">
				<stop  offset="0" style="stop-color:#FF1414"/>
				<stop  offset="0.137" style="stop-color:#FF2E2E"/>
				<stop  offset="0.2912" style="stop-color:#FF4242"/>
				<stop  offset="0.4648" style="stop-color:#FF5151"/>
				<stop  offset="0.6719" style="stop-color:#FF5959"/>
				<stop  offset="1" style="stop-color:#FF5C5C"/>
			</linearGradient>
			<path class="st12" d="M861.7,331.2c-2.4,0-4.4,1.7-4.7,4c-6.6,43.5-44.7,76.9-90.4,76.9c-45.3,0-83-32.8-90.2-75.6V336
				c0-2.4-1.8-4.4-4.1-4.8c0,0-0.1,0-0.1,0c-0.2,0-0.5-0.1-0.7-0.1c0,0,0,0,0,0c0,0,0,0,0,0c-0.3,0-0.6,0-0.8,0.1c0,0,0,0-0.1,0
				c-1.6,0.3-2.9,1.4-3.5,2.8c0,0,0,0.1-0.1,0.1c-0.1,0.2-0.2,0.5-0.2,0.7c0,0.1,0,0.2-0.1,0.4c0,0.2-0.1,0.4-0.1,0.5
				c0,0.1,0,0.1,0,0.2v38.7c0,2.7,2.2,4.8,4.9,4.8c2.7,0,4.9-2.2,4.9-4.8v-8c16.7,32.6,50.9,54.9,90.2,54.9
				c50.6,0,92.6-36.9,99.9-84.9C866.9,333.8,864.7,331.2,861.7,331.2z"/>
			<linearGradient id="SVGID_7_" gradientUnits="userSpaceOnUse" x1="666.5088" y1="266.9061" x2="866.5087" y2="266.9061">
				<stop  offset="0" style="stop-color:#FF1414"/>
				<stop  offset="0.137" style="stop-color:#FF2E2E"/>
				<stop  offset="0.2912" style="stop-color:#FF4242"/>
				<stop  offset="0.4648" style="stop-color:#FF5151"/>
				<stop  offset="0.6719" style="stop-color:#FF5959"/>
				<stop  offset="1" style="stop-color:#FF5C5C"/>
			</linearGradient>
			<path class="st14" d="M866.5,268.6c0-2.7-2.2-4.8-4.9-4.8c-2.7,0-4.9,2.2-4.9,4.8v8c-16.7-32.6-50.9-54.9-90.2-54.9
				c-50.6,0-92.6,36.9-99.9,84.9c-0.4,2.9,1.8,5.5,4.8,5.5c2.4,0,4.4-1.7,4.7-4c6.6-43.5,44.7-76.9,90.4-76.9
				c45.3,0,83,32.8,90.2,75.6v0.5c0,2.4,1.8,4.4,4.1,4.8c0,0,0.1,0,0.1,0c0.2,0,0.5,0.1,0.7,0.1c0,0,0,0,0,0c0,0,0,0,0,0
				c0.3,0,0.6,0,0.8-0.1c0,0,0,0,0.1,0c1.6-0.3,2.9-1.4,3.5-2.8c0,0,0-0.1,0.1-0.1c0.1-0.2,0.2-0.5,0.2-0.7c0-0.1,0-0.2,0.1-0.4
				c0-0.2,0.1-0.4,0.1-0.5c0-0.1,0-0.1,0-0.2V268.6z"/>
		</g>
	</g>
	<g>
		<g>
			<linearGradient id="SVGID_8_" gradientUnits="userSpaceOnUse" x1="67.1071" y1="451.7941" x2="159.1899" y2="611.2862">
				<stop  offset="0" style="stop-color:#32C777"/>
				<stop  offset="9.973979e-02" style="stop-color:#2AD07A"/>
				<stop  offset="0.4447" style="stop-color:#13EA83"/>
				<stop  offset="0.7553" style="stop-color:#05F988"/>
				<stop  offset="1" style="stop-color:#00FF8A"/>
			</linearGradient>
			<path class="st15" d="M107.9,640.7c-1.5,1.5-3.9,1.5-5.4,0h0c-3.1-3.2-75.3-79.2-75.3-121.1c0-42.9,35-77.8,78-77.8
				s78,34.9,78,77.8C183.2,561.6,110.9,637.5,107.9,640.7L107.9,640.7z M105.2,449.3c-38.9,0-70.6,31.6-70.6,70.4
				c0,32.6,50.8,91.4,67.8,110.1c1.5,1.6,4,1.6,5.5,0c17-18.7,67.8-77.5,67.8-110.1C175.7,480.9,144.1,449.3,105.2,449.3z"/>
		</g>
		<g>
			<linearGradient id="SVGID_9_" gradientUnits="userSpaceOnUse" x1="86.6438" y1="487.5818" x2="123.6995" y2="551.7642">
				<stop  offset="0" style="stop-color:#32C777"/>
				<stop  offset="9.973979e-02" style="stop-color:#2AD07A"/>
				<stop  offset="0.4447" style="stop-color:#13EA83"/>
				<stop  offset="0.7553" style="stop-color:#05F988"/>
				<stop  offset="1" style="stop-color:#00FF8A"/>
			</linearGradient>
			<path class="st16" d="M105.2,556.7c-20.5,0-37.1-16.6-37.1-37s16.7-37,37.1-37s37.1,16.6,37.1,37S125.7,556.7,105.2,556.7z
				 M105.2,490c-16.4,0-29.7,13.3-29.7,29.6c0,16.3,13.3,29.6,29.7,29.6s29.7-13.3,29.7-29.6C134.9,503.3,121.6,490,105.2,490z"/>
		</g>
	</g>
	<g>
		<linearGradient id="SVGID_10_" gradientUnits="userSpaceOnUse" x1="226.1473" y1="441.7299" x2="312.3008" y2="527.8834">
			<stop  offset="0" style="stop-color:#0055FF"/>
			<stop  offset="4.896599e-02" style="stop-color:#0061FF"/>
			<stop  offset="0.1828" style="stop-color:#007BFF"/>
			<stop  offset="0.3296" style="stop-color:#0090FF"/>
			<stop  offset="0.4938" style="stop-color:#009FFF"/>
			<stop  offset="0.6897" style="stop-color:#00A7FF"/>
			<stop  offset="1" style="stop-color:#00AAFF"/>
		</linearGradient>
		<path class="st18" d="M226,441.9v85.8h86.5v-85.8H226z M302.9,518.2h-67.3v-66.7h67.3V518.2z"/>
		<linearGradient id="SVGID_11_" gradientUnits="userSpaceOnUse" x1="254.8651" y1="470.4483" x2="283.5829" y2="499.1661">
			<stop  offset="0" style="stop-color:#0055FF"/>
			<stop  offset="4.896599e-02" style="stop-color:#0061FF"/>
			<stop  offset="0.1828" style="stop-color:#007BFF"/>
			<stop  offset="0.3296" style="stop-color:#0090FF"/>
			<stop  offset="0.4938" style="stop-color:#009FFF"/>
			<stop  offset="0.6897" style="stop-color:#00A7FF"/>
			<stop  offset="1" style="stop-color:#00AAFF"/>
		</linearGradient>
		<rect x="254.8" y="470.5" class="st19" width="28.8" height="28.6"/>
		<linearGradient id="SVGID_12_" gradientUnits="userSpaceOnUse" x1="226.1473" y1="555.9093" x2="312.3008" y2="642.0629">
			<stop  offset="0" style="stop-color:#0055FF"/>
			<stop  offset="4.896599e-02" style="stop-color:#0061FF"/>
			<stop  offset="0.1828" style="stop-color:#007BFF"/>
			<stop  offset="0.3296" style="stop-color:#0090FF"/>
			<stop  offset="0.4938" style="stop-color:#009FFF"/>
			<stop  offset="0.6897" style="stop-color:#00A7FF"/>
			<stop  offset="1" style="stop-color:#00AAFF"/>
		</linearGradient>
		<path class="st20" d="M226,556.1v85.8h86.5v-85.8H226z M302.9,632.4h-67.3v-66.7h67.3V632.4z"/>
		<linearGradient id="SVGID_13_" gradientUnits="userSpaceOnUse" x1="254.8651" y1="584.6277" x2="283.5829" y2="613.3456">
			<stop  offset="0" style="stop-color:#0055FF"/>
			<stop  offset="4.896599e-02" style="stop-color:#0061FF"/>
			<stop  offset="0.1828" style="stop-color:#007BFF"/>
			<stop  offset="0.3296" style="stop-color:#0090FF"/>
			<stop  offset="0.4938" style="stop-color:#009FFF"/>
			<stop  offset="0.6897" style="stop-color:#00A7FF"/>
			<stop  offset="1" style="stop-color:#00AAFF"/>
		</linearGradient>
		<rect x="254.8" y="584.7" class="st21" width="28.8" height="28.6"/>
		<g>
			<linearGradient id="SVGID_14_" gradientUnits="userSpaceOnUse" x1="404.4008" y1="556.0342" x2="425.9392" y2="577.5726">
				<stop  offset="0" style="stop-color:#0055FF"/>
				<stop  offset="4.896599e-02" style="stop-color:#0061FF"/>
				<stop  offset="0.1828" style="stop-color:#007BFF"/>
				<stop  offset="0.3296" style="stop-color:#0090FF"/>
				<stop  offset="0.4938" style="stop-color:#009FFF"/>
				<stop  offset="0.6897" style="stop-color:#00A7FF"/>
				<stop  offset="1" style="stop-color:#00AAFF"/>
			</linearGradient>
			<rect x="404.4" y="556.1" class="st22" width="21.6" height="21.5"/>
			<linearGradient id="SVGID_15_" gradientUnits="userSpaceOnUse" x1="339.5359" y1="556.0342" x2="361.0743" y2="577.5726">
				<stop  offset="0" style="stop-color:#0055FF"/>
				<stop  offset="4.896599e-02" style="stop-color:#0061FF"/>
				<stop  offset="0.1828" style="stop-color:#007BFF"/>
				<stop  offset="0.3296" style="stop-color:#0090FF"/>
				<stop  offset="0.4938" style="stop-color:#009FFF"/>
				<stop  offset="0.6897" style="stop-color:#00A7FF"/>
				<stop  offset="1" style="stop-color:#00AAFF"/>
			</linearGradient>
			<rect x="339.5" y="556.1" class="st23" width="21.6" height="21.5"/>
			<linearGradient id="SVGID_16_" gradientUnits="userSpaceOnUse" x1="350.4717" y1="588.1757" x2="415.0866" y2="652.7905">
				<stop  offset="0" style="stop-color:#0055FF"/>
				<stop  offset="4.896599e-02" style="stop-color:#0061FF"/>
				<stop  offset="0.1828" style="stop-color:#007BFF"/>
				<stop  offset="0.3296" style="stop-color:#0090FF"/>
				<stop  offset="0.4938" style="stop-color:#009FFF"/>
				<stop  offset="0.6897" style="stop-color:#00A7FF"/>
				<stop  offset="1" style="stop-color:#00AAFF"/>
			</linearGradient>
			<polygon class="st25" points="404.4,620.4 382.7,620.4 382.7,599 382.7,577.5 361.1,577.5 361.1,599 361.1,620.4 339.5,620.4 
				339.5,641.9 361.1,641.9 361.1,620.4 382.7,620.4 382.7,641.9 404.4,641.9 426,641.9 426,620.4 426,620.4 426,599 404.4,599 			
				"/>
		</g>
		<linearGradient id="SVGID_17_" gradientUnits="userSpaceOnUse" x1="339.6608" y1="441.7299" x2="425.8143" y2="527.8834">
			<stop  offset="0" style="stop-color:#0055FF"/>
			<stop  offset="4.896599e-02" style="stop-color:#0061FF"/>
			<stop  offset="0.1828" style="stop-color:#007BFF"/>
			<stop  offset="0.3296" style="stop-color:#0090FF"/>
			<stop  offset="0.4938" style="stop-color:#009FFF"/>
			<stop  offset="0.6897" style="stop-color:#00A7FF"/>
			<stop  offset="1" style="stop-color:#00AAFF"/>
		</linearGradient>
		<path class="st26" d="M339.5,441.9v85.8H426v-85.8H339.5z M416.4,518.2h-67.3v-66.7h67.3V518.2z"/>
		<linearGradient id="SVGID_18_" gradientUnits="userSpaceOnUse" x1="368.3786" y1="470.4483" x2="397.0965" y2="499.1661">
			<stop  offset="0" style="stop-color:#0055FF"/>
			<stop  offset="4.896599e-02" style="stop-color:#0061FF"/>
			<stop  offset="0.1828" style="stop-color:#007BFF"/>
			<stop  offset="0.3296" style="stop-color:#0090FF"/>
			<stop  offset="0.4938" style="stop-color:#009FFF"/>
			<stop  offset="0.6897" style="stop-color:#00A7FF"/>
			<stop  offset="1" style="stop-color:#00AAFF"/>
		</linearGradient>
		<rect x="368.3" y="470.5" class="st27" width="28.8" height="28.6"/>
	</g>
	<g>
		<linearGradient id="SVGID_19_" gradientUnits="userSpaceOnUse" x1="504.3781" y1="469.459" x2="603.4007" y2="640.9711">
			<stop  offset="0" style="stop-color:#FF1414"/>
			<stop  offset="0.137" style="stop-color:#FF2E2E"/>
			<stop  offset="0.2912" style="stop-color:#FF4242"/>
			<stop  offset="0.4648" style="stop-color:#FF5151"/>
			<stop  offset="0.6719" style="stop-color:#FF5959"/>
			<stop  offset="1" style="stop-color:#FF5C5C"/>
		</linearGradient>
		<path class="st28" d="M482.7,634.1l21.3-67c0.9-2.8,0-5.8-2.2-7.7L448,514.3c-2.6-2.2-1-6.5,2.4-6.4l66.3,0.6c3,0,5.7-1.8,6.8-4.7
			l21.1-56.5c1.2-3.1,5.6-3.2,6.8,0l21.8,56.7c1.1,2.8,3.7,4.6,6.7,4.6H643c3.3,0,4.9,4.1,2.4,6.3l-49.5,44.9
			c-2.1,1.9-2.9,4.9-2,7.6l20.8,63.7c1.1,3.3-2.6,6.1-5.5,4.2l-55.8-37.2c-2.5-1.6-5.7-1.6-8.1,0.1l-57.1,40
			C485.4,640.2,481.6,637.4,482.7,634.1z M479.9,522.5l38.4,32.2c2.2,1.9,3.1,4.9,2.2,7.7l-14.7,46l39.3-27.5
			c2.4-1.7,5.6-1.7,8.1-0.1l38.3,25.6L577.5,563c-0.9-2.7-0.1-5.7,2-7.6l35.9-32.6H570c-3,0-5.6-1.8-6.7-4.6l-15.2-39.7l-14.8,39.6
			c-1.1,2.8-3.8,4.7-6.8,4.7L479.9,522.5z"/>
	</g>
	<linearGradient id="SVGID_20_" gradientUnits="userSpaceOnUse" x1="26.1249" y1="709.4604" x2="184.2742" y2="867.6097">
		<stop  offset="0" style="stop-color:#0055FF"/>
		<stop  offset="4.896599e-02" style="stop-color:#0061FF"/>
		<stop  offset="0.1828" style="stop-color:#007BFF"/>
		<stop  offset="0.3296" style="stop-color:#0090FF"/>
		<stop  offset="0.4938" style="stop-color:#009FFF"/>
		<stop  offset="0.6897" style="stop-color:#00A7FF"/>
		<stop  offset="1" style="stop-color:#00AAFF"/>
	</linearGradient>
	<path class="st29" d="M129.2,796.7c6.4-2.7,12.3-6.6,17.4-11.2c14.1-3.3,26.8-11.5,35.5-23.4c5.2-1.4,9-6.2,9-11.8v-16.4
		c0-6.1-4.5-11.2-10.4-12.1c-4-16.4-13.5-31.3-26.7-42c-13.8-11.1-31.2-17.3-48.9-17.3c-35.7,0-67.2,24.8-75.7,59.3
		c-5.9,0.9-10.4,6-10.4,12.1v16.4c0,6.8,5.5,12.3,12.3,12.3s12.3-5.5,12.3-12.3v-10v-6.3c0-4.5-2.5-8.4-6.1-10.6
		c7.7-30.6,35.8-52.6,67.6-52.6c31.7,0,59.9,22,67.6,52.6c-3.6,2.1-6.1,6.1-6.1,10.6v6.3v10c0,4.5,2.4,8.4,6,10.5
		c-4.4,5-9.7,9.1-15.5,12.1c6-9.5,9.5-20.7,9.5-32.7c0-33.8-27.6-61.3-61.5-61.3s-61.5,27.5-61.5,61.3c0,25.3,15.4,47.1,37.4,56.4
		c-30.5,8.4-54.6,32.5-62.9,63l7.7,2.9c9.2-35.1,41.3-61,79.3-61s70,25.9,79.3,61l7.7-2.9C183.8,829.2,159.8,805.1,129.2,796.7z
		 M35.5,750.3c0,2.3-1.8,4.1-4.1,4.1s-4.1-1.8-4.1-4.1v-16.4c0-2.3,1.8-4.1,4.1-4.1s4.1,1.8,4.1,4.1V750.3z M183.1,733.9v16.4
		c0,2.3-1.8,4.1-4.1,4.1c-2.3,0-4.1-1.8-4.1-4.1v-16.4c0-2.3,1.8-4.1,4.1-4.1C181.2,729.8,183.1,731.7,183.1,733.9z M51.9,740.2
		c0-29.3,23.9-53.2,53.3-53.2s53.3,23.8,53.3,53.2c0,14.7-6,28.1-15.8,37.7c-3.3,0.6-6.6,1-10,1c-2.4,0-4.8-0.2-7.1-0.5
		c0-0.1,0-0.1,0-0.2c0-6.8-5.5-12.3-12.3-12.3c-6.8,0-12.3,5.5-12.3,12.3s5.5,12.3,12.3,12.3c3.7,0,7.1-1.7,9.3-4.3
		c2.6,0.4,5.2,0.7,7.8,0.8c-7.5,4.1-16.1,6.4-25.3,6.4C75.8,793.4,51.9,769.6,51.9,740.2z M117.4,778.3c0,2.3-1.8,4.1-4.1,4.1
		c-2.3,0-4.1-1.8-4.1-4.1s1.8-4.1,4.1-4.1C115.6,774.2,117.4,776,117.4,778.3z"/>
	<polygon class="st72" points="370.8,752.6 280.8,662.6 270.8,672.6 360.8,762.6 270.8,852.6 280.8,862.6 380.8,762.6 	"/>
	<polygon points="501.2,772.6 591.2,862.6 601.2,852.6 511.2,762.6 601.2,672.6 591.2,662.6 491.2,762.6 	"/>
	<g>
		<linearGradient id="SVGID_21_" gradientUnits="userSpaceOnUse" x1="717.8929" y1="442.903" x2="777.2656" y2="545.7393">
			<stop  offset="0" style="stop-color:#FF5A00"/>
			<stop  offset="5.608368e-02" style="stop-color:#FF6601"/>
			<stop  offset="0.2433" style="stop-color:#FF8A03"/>
			<stop  offset="0.4323" style="stop-color:#FFA605"/>
			<stop  offset="0.6212" style="stop-color:#FFBA07"/>
			<stop  offset="0.8104" style="stop-color:#FFC608"/>
			<stop  offset="1" style="stop-color:#FFCA08"/>
		</linearGradient>
		<path class="st30" d="M699.8,551.1c11.9,0,22.3-6.2,28.3-15.6c6.2,9.8,17.4,16.2,30,15.5c17.9-0.9,31.7-16.2,31.7-34.1v-33.2
			c0-2.9-2.3-5.2-5.2-5.2c-2.9,0-5.2,2.3-5.2,5.2v33.4c0,12.5-9.7,23.1-22.2,23.6c-13.1,0.5-24-10-24-23v-34c0-2.9-2.3-5.2-5.2-5.2
			c-2.9,0-5.2,2.3-5.2,5.2v34c0,13.1-11,23.7-24.3,23c-6.7-0.3-12.7-3.7-16.6-9.3c-4.1-5.8-5.2-13.1-3.1-19.9l12.3-39.7
			c0.7-2.2,2.7-3.6,4.9-3.6h120.6c2.3,0,4.3,1.5,4.9,3.6l10.8,34.8c0.8,2.7,3.7,4.3,6.5,3.4c2.7-0.8,4.3-3.7,3.4-6.5l-10.8-34.8
			c-2-6.5-8-10.9-14.8-10.9H696.1c-6.8,0-12.8,4.4-14.8,10.9L669,508.5c-3.1,9.9-1.4,20.4,4.5,28.8c5.7,8.2,14.7,13.2,24.6,13.7
			C698.7,551.1,699.2,551.1,699.8,551.1z"/>
		<linearGradient id="SVGID_22_" gradientUnits="userSpaceOnUse" x1="694.0515" y1="559.7215" x2="740.6437" y2="640.4218">
			<stop  offset="0" style="stop-color:#FF5A00"/>
			<stop  offset="5.608368e-02" style="stop-color:#FF6601"/>
			<stop  offset="0.2433" style="stop-color:#FF8A03"/>
			<stop  offset="0.4323" style="stop-color:#FFA605"/>
			<stop  offset="0.6212" style="stop-color:#FFBA07"/>
			<stop  offset="0.8104" style="stop-color:#FFC608"/>
			<stop  offset="1" style="stop-color:#FFCA08"/>
		</linearGradient>
		<path class="st31" d="M764.4,615.6h-61.3c-5.7,0-10.4-4.6-10.4-10.3v-35.8c0-2.9-2.3-5.2-5.2-5.2c-2.9,0-5.2,2.3-5.2,5.2v35.8
			c0,11.4,9.3,20.7,20.7,20.7h61.3c2.9,0,5.2-2.3,5.2-5.2C769.6,617.9,767.3,615.6,764.4,615.6z"/>
		<linearGradient id="SVGID_23_" gradientUnits="userSpaceOnUse" x1="801.4678" y1="543.9359" x2="845.4005" y2="620.0294">
			<stop  offset="0" style="stop-color:#FF5A00"/>
			<stop  offset="5.608368e-02" style="stop-color:#FF6601"/>
			<stop  offset="0.2433" style="stop-color:#FF8A03"/>
			<stop  offset="0.4323" style="stop-color:#FFA605"/>
			<stop  offset="0.6212" style="stop-color:#FFBA07"/>
			<stop  offset="0.8104" style="stop-color:#FFC608"/>
			<stop  offset="1" style="stop-color:#FFCA08"/>
		</linearGradient>
		<path class="st32" d="M823.4,538.1c-24.3,0-44,19.7-44,43.9s19.7,43.9,44,43.9s44-19.7,44-43.9S847.7,538.1,823.4,538.1z
			 M823.4,615.6c-18.6,0-33.7-15.1-33.7-33.6s15.1-33.6,33.7-33.6s33.7,15.1,33.7,33.6S842,615.6,823.4,615.6z"/>
		<linearGradient id="SVGID_24_" gradientUnits="userSpaceOnUse" x1="814.6996" y1="566.8542" x2="832.1691" y2="597.1123">
			<stop  offset="0" style="stop-color:#FF5A00"/>
			<stop  offset="5.608368e-02" style="stop-color:#FF6601"/>
			<stop  offset="0.2433" style="stop-color:#FF8A03"/>
			<stop  offset="0.4323" style="stop-color:#FFA605"/>
			<stop  offset="0.6212" style="stop-color:#FFBA07"/>
			<stop  offset="0.8104" style="stop-color:#FFC608"/>
			<stop  offset="1" style="stop-color:#FFCA08"/>
		</linearGradient>
		<path class="st33" d="M837.7,576.8h-9.1v-9c0-2.8-2.3-5.2-5.2-5.2c-2.8,0-5.2,2.3-5.2,5.2v9h-9.1c-2.8,0-5.2,2.3-5.2,5.2
			c0,2.8,2.3,5.2,5.2,5.2h9.1v9c0,2.8,2.3,5.2,5.2,5.2c2.8,0,5.2-2.3,5.2-5.2v-9h9.1c2.8,0,5.2-2.3,5.2-5.2
			C842.9,579.1,840.5,576.8,837.7,576.8z"/>
	</g>
	<g>
		<ellipse cx="690.3" cy="101.3" rx="23.8" ry="24"/>
		<ellipse cx="766.5" cy="101.3" rx="23.8" ry="24"/>
		<ellipse cx="842.7" cy="101.3" rx="23.8" ry="24"/>
	</g>
	<g>
		<linearGradient id="SVGID_25_" gradientUnits="userSpaceOnUse" x1="241.8196" y1="982.8986" x2="409.7303" y2="982.8986">
			<stop  offset="0" style="stop-color:#FF5A00"/>
			<stop  offset="0.1235" style="stop-color:#FF7B02"/>
			<stop  offset="0.2616" style="stop-color:#FF9704"/>
			<stop  offset="0.4095" style="stop-color:#FFAE06"/>
			<stop  offset="0.5697" style="stop-color:#FFBE07"/>
			<stop  offset="0.7513" style="stop-color:#FFC708"/>
			<stop  offset="1" style="stop-color:#FFCA08"/>
		</linearGradient>
		<path class="st34" d="M404.3,952.1L364,971.5c-1.7,0.8-3.8,0.2-4.9-1.4l-30.2-48.4c-1.5-2.4-4.9-2.4-6.4-0.1l-31.4,48.5
			c-1.1,1.6-3.1,2.2-4.9,1.3l-38.9-19.2c-2.9-1.4-6.1,1.2-5.4,4.3l20.3,86.4c0.4,1.7,1.9,3,3.7,3h119.7c1.8,0,3.3-1.2,3.7-3
			l20.3-86.6C410.4,953.3,407.2,950.7,404.3,952.1z"/>
		<linearGradient id="SVGID_26_" gradientUnits="userSpaceOnUse" x1="262.8085" y1="1061.2544" x2="388.7414" y2="1061.2544">
			<stop  offset="0" style="stop-color:#FF5A00"/>
			<stop  offset="0.1235" style="stop-color:#FF7B02"/>
			<stop  offset="0.2616" style="stop-color:#FF9704"/>
			<stop  offset="0.4095" style="stop-color:#FFAE06"/>
			<stop  offset="0.5697" style="stop-color:#FFBE07"/>
			<stop  offset="0.7513" style="stop-color:#FFC708"/>
			<stop  offset="1" style="stop-color:#FFCA08"/>
		</linearGradient>
		<path class="st35" d="M381.2,1053.6H270.4c-4.2,0-7.6,3.4-7.6,7.6v0.1c0,4.2,3.4,7.6,7.6,7.6h110.8c4.2,0,7.6-3.4,7.6-7.6v-0.1
			C388.7,1057,385.3,1053.6,381.2,1053.6z"/>
		<linearGradient id="SVGID_27_" gradientUnits="userSpaceOnUse" x1="314.3265" y1="908.3655" x2="337.2234" y2="908.3655">
			<stop  offset="0" style="stop-color:#FF5A00"/>
			<stop  offset="0.1235" style="stop-color:#FF7B02"/>
			<stop  offset="0.2616" style="stop-color:#FF9704"/>
			<stop  offset="0.4095" style="stop-color:#FFAE06"/>
			<stop  offset="0.5697" style="stop-color:#FFBE07"/>
			<stop  offset="0.7513" style="stop-color:#FFC708"/>
			<stop  offset="1" style="stop-color:#FFCA08"/>
		</linearGradient>
		<ellipse class="st36" cx="325.8" cy="908.4" rx="11.4" ry="11.5"/>
		<linearGradient id="SVGID_28_" gradientUnits="userSpaceOnUse" x1="402.9427" y1="942.8345" x2="425.8395" y2="942.8345">
			<stop  offset="0" style="stop-color:#FF5A00"/>
			<stop  offset="0.1235" style="stop-color:#FF7B02"/>
			<stop  offset="0.2616" style="stop-color:#FF9704"/>
			<stop  offset="0.4095" style="stop-color:#FFAE06"/>
			<stop  offset="0.5697" style="stop-color:#FFBE07"/>
			<stop  offset="0.7513" style="stop-color:#FFC708"/>
			<stop  offset="1" style="stop-color:#FFCA08"/>
		</linearGradient>
		<ellipse class="st37" cx="414.4" cy="942.8" rx="11.4" ry="11.5"/>
		<linearGradient id="SVGID_29_" gradientUnits="userSpaceOnUse" x1="225.8395" y1="942.8345" x2="248.7364" y2="942.8345">
			<stop  offset="0" style="stop-color:#FF5A00"/>
			<stop  offset="0.1235" style="stop-color:#FF7B02"/>
			<stop  offset="0.2616" style="stop-color:#FF9704"/>
			<stop  offset="0.4095" style="stop-color:#FFAE06"/>
			<stop  offset="0.5697" style="stop-color:#FFBE07"/>
			<stop  offset="0.7513" style="stop-color:#FFC708"/>
			<stop  offset="1" style="stop-color:#FFCA08"/>
		</linearGradient>
		<ellipse class="st38" cx="237.3" cy="942.8" rx="11.4" ry="11.5"/>
	</g>
	<g>
		<linearGradient id="SVGID_30_" gradientUnits="userSpaceOnUse" x1="21.1517" y1="982.8986" x2="189.0623" y2="982.8986">
			<stop  offset="0" style="stop-color:#999999"/>
			<stop  offset="1" style="stop-color:#E6E6E6"/>
		</linearGradient>
		<path class="st39" d="M183.6,952.1l-40.3,19.3c-1.7,0.8-3.8,0.2-4.9-1.4l-30.2-48.4c-1.5-2.4-4.9-2.4-6.4-0.1l-31.4,48.5
			c-1.1,1.6-3.1,2.2-4.9,1.3l-38.9-19.2c-2.9-1.4-6.1,1.2-5.4,4.3l20.3,86.4c0.4,1.7,1.9,3,3.7,3h119.7c1.8,0,3.3-1.2,3.7-3
			l20.3-86.6C189.7,953.3,186.5,950.7,183.6,952.1z"/>
		<linearGradient id="SVGID_31_" gradientUnits="userSpaceOnUse" x1="42.1406" y1="1061.2544" x2="168.0735" y2="1061.2544">
			<stop  offset="0" style="stop-color:#999999"/>
			<stop  offset="1" style="stop-color:#E6E6E6"/>
		</linearGradient>
		<path class="st40" d="M160.5,1053.6H49.7c-4.2,0-7.6,3.4-7.6,7.6v0.1c0,4.2,3.4,7.6,7.6,7.6h110.8c4.2,0,7.6-3.4,7.6-7.6v-0.1
			C168.1,1057,164.7,1053.6,160.5,1053.6z"/>
		<linearGradient id="SVGID_32_" gradientUnits="userSpaceOnUse" x1="93.6586" y1="908.3655" x2="116.5555" y2="908.3655">
			<stop  offset="0" style="stop-color:#999999"/>
			<stop  offset="1" style="stop-color:#E6E6E6"/>
		</linearGradient>
		<ellipse class="st41" cx="105.1" cy="908.4" rx="11.4" ry="11.5"/>
		<linearGradient id="SVGID_33_" gradientUnits="userSpaceOnUse" x1="182.2747" y1="942.8345" x2="205.1716" y2="942.8345">
			<stop  offset="0" style="stop-color:#999999"/>
			<stop  offset="1" style="stop-color:#E6E6E6"/>
		</linearGradient>
		<ellipse class="st42" cx="193.7" cy="942.8" rx="11.4" ry="11.5"/>
		<linearGradient id="SVGID_34_" gradientUnits="userSpaceOnUse" x1="5.1716" y1="942.8345" x2="28.0685" y2="942.8345">
			<stop  offset="0" style="stop-color:#999999"/>
			<stop  offset="1" style="stop-color:#E6E6E6"/>
		</linearGradient>
		<ellipse class="st43" cx="16.6" cy="942.8" rx="11.4" ry="11.5"/>
	</g>
	<g>
		<linearGradient id="SVGID_35_" gradientUnits="userSpaceOnUse" x1="683.1555" y1="982.8986" x2="851.0661" y2="982.8986">
			<stop  offset="0" style="stop-color:#FF5A00"/>
			<stop  offset="3.565758e-02" style="stop-color:#F95D0B"/>
			<stop  offset="0.3985" style="stop-color:#BB7672"/>
			<stop  offset="0.6904" style="stop-color:#8D89BE"/>
			<stop  offset="0.8971" style="stop-color:#7195ED"/>
			<stop  offset="1" style="stop-color:#6699FF"/>
		</linearGradient>
		<path class="st44" d="M845.6,952.1l-40.3,19.3c-1.7,0.8-3.8,0.2-4.9-1.4l-30.2-48.4c-1.5-2.4-4.9-2.4-6.4-0.1l-31.4,48.5
			c-1.1,1.6-3.1,2.2-4.9,1.3l-38.9-19.2c-2.9-1.4-6.1,1.2-5.4,4.3l20.3,86.4c0.4,1.7,1.9,3,3.7,3h119.7c1.8,0,3.3-1.2,3.7-3
			l20.3-86.6C851.7,953.3,848.5,950.7,845.6,952.1z"/>
		<linearGradient id="SVGID_36_" gradientUnits="userSpaceOnUse" x1="704.1443" y1="1061.2544" x2="830.0773" y2="1061.2544">
			<stop  offset="0" style="stop-color:#FF5A00"/>
			<stop  offset="3.565758e-02" style="stop-color:#F95D0B"/>
			<stop  offset="0.3985" style="stop-color:#BB7672"/>
			<stop  offset="0.6904" style="stop-color:#8D89BE"/>
			<stop  offset="0.8971" style="stop-color:#7195ED"/>
			<stop  offset="1" style="stop-color:#6699FF"/>
		</linearGradient>
		<path class="st45" d="M822.5,1053.6H711.7c-4.2,0-7.6,3.4-7.6,7.6v0.1c0,4.2,3.4,7.6,7.6,7.6h110.8c4.2,0,7.6-3.4,7.6-7.6v-0.1
			C830.1,1057,826.7,1053.6,822.5,1053.6z"/>
		<linearGradient id="SVGID_37_" gradientUnits="userSpaceOnUse" x1="755.6624" y1="908.3655" x2="778.5593" y2="908.3655">
			<stop  offset="0" style="stop-color:#FF5A00"/>
			<stop  offset="3.565758e-02" style="stop-color:#F95D0B"/>
			<stop  offset="0.3985" style="stop-color:#BB7672"/>
			<stop  offset="0.6904" style="stop-color:#8D89BE"/>
			<stop  offset="0.8971" style="stop-color:#7195ED"/>
			<stop  offset="1" style="stop-color:#6699FF"/>
		</linearGradient>
		<ellipse class="st46" cx="767.1" cy="908.4" rx="11.4" ry="11.5"/>
		<linearGradient id="SVGID_38_" gradientUnits="userSpaceOnUse" x1="844.2785" y1="942.8345" x2="867.1754" y2="942.8345">
			<stop  offset="0" style="stop-color:#FF5A00"/>
			<stop  offset="3.565758e-02" style="stop-color:#F95D0B"/>
			<stop  offset="0.3985" style="stop-color:#BB7672"/>
			<stop  offset="0.6904" style="stop-color:#8D89BE"/>
			<stop  offset="0.8971" style="stop-color:#7195ED"/>
			<stop  offset="1" style="stop-color:#6699FF"/>
		</linearGradient>
		<ellipse class="st47" cx="855.7" cy="942.8" rx="11.4" ry="11.5"/>
		<linearGradient id="SVGID_39_" gradientUnits="userSpaceOnUse" x1="667.1754" y1="942.8345" x2="690.0723" y2="942.8345">
			<stop  offset="0" style="stop-color:#FF5A00"/>
			<stop  offset="3.565758e-02" style="stop-color:#F95D0B"/>
			<stop  offset="0.3985" style="stop-color:#BB7672"/>
			<stop  offset="0.6904" style="stop-color:#8D89BE"/>
			<stop  offset="0.8971" style="stop-color:#7195ED"/>
			<stop  offset="1" style="stop-color:#6699FF"/>
		</linearGradient>
		<ellipse class="st48" cx="678.6" cy="942.8" rx="11.4" ry="11.5"/>
	</g>
	<g>
		<linearGradient id="SVGID_40_" gradientUnits="userSpaceOnUse" x1="462.4876" y1="982.8986" x2="630.3982" y2="982.8986">
			<stop  offset="0" style="stop-color:#FF3333"/>
			<stop  offset="0.2616" style="stop-color:#FF4D2A"/>
			<stop  offset="0.7515" style="stop-color:#FF791A"/>
			<stop  offset="1" style="stop-color:#FF8A14"/>
		</linearGradient>
		<path class="st49" d="M624.9,952.1l-40.3,19.3c-1.7,0.8-3.8,0.2-4.9-1.4l-30.2-48.4c-1.5-2.4-4.9-2.4-6.4-0.1l-31.4,48.5
			c-1.1,1.6-3.1,2.2-4.9,1.3L468,952.2c-2.9-1.4-6.1,1.2-5.4,4.3l20.3,86.4c0.4,1.7,1.9,3,3.7,3h119.7c1.8,0,3.3-1.2,3.7-3
			l20.3-86.6C631,953.3,627.8,950.7,624.9,952.1z"/>
		<linearGradient id="SVGID_41_" gradientUnits="userSpaceOnUse" x1="483.4764" y1="1061.2544" x2="609.4093" y2="1061.2544">
			<stop  offset="0" style="stop-color:#FF3333"/>
			<stop  offset="0.2616" style="stop-color:#FF4D2A"/>
			<stop  offset="0.7515" style="stop-color:#FF791A"/>
			<stop  offset="1" style="stop-color:#FF8A14"/>
		</linearGradient>
		<path class="st50" d="M601.8,1053.6H491.1c-4.2,0-7.6,3.4-7.6,7.6v0.1c0,4.2,3.4,7.6,7.6,7.6h110.8c4.2,0,7.6-3.4,7.6-7.6v-0.1
			C609.4,1057,606,1053.6,601.8,1053.6z"/>
		<linearGradient id="SVGID_42_" gradientUnits="userSpaceOnUse" x1="534.9944" y1="908.3655" x2="557.8913" y2="908.3655">
			<stop  offset="0" style="stop-color:#FF3333"/>
			<stop  offset="0.2616" style="stop-color:#FF4D2A"/>
			<stop  offset="0.7515" style="stop-color:#FF791A"/>
			<stop  offset="1" style="stop-color:#FF8A14"/>
		</linearGradient>
		<ellipse class="st51" cx="546.4" cy="908.4" rx="11.4" ry="11.5"/>
		<linearGradient id="SVGID_43_" gradientUnits="userSpaceOnUse" x1="623.6106" y1="942.8345" x2="646.5074" y2="942.8345">
			<stop  offset="0" style="stop-color:#FF3333"/>
			<stop  offset="0.2616" style="stop-color:#FF4D2A"/>
			<stop  offset="0.7515" style="stop-color:#FF791A"/>
			<stop  offset="1" style="stop-color:#FF8A14"/>
		</linearGradient>
		<ellipse class="st52" cx="635.1" cy="942.8" rx="11.4" ry="11.5"/>
		<linearGradient id="SVGID_44_" gradientUnits="userSpaceOnUse" x1="446.5075" y1="942.8345" x2="469.4044" y2="942.8345">
			<stop  offset="0" style="stop-color:#FF3333"/>
			<stop  offset="0.2616" style="stop-color:#FF4D2A"/>
			<stop  offset="0.7515" style="stop-color:#FF791A"/>
			<stop  offset="1" style="stop-color:#FF8A14"/>
		</linearGradient>
		<ellipse class="st53" cx="458" cy="942.8" rx="11.4" ry="11.5"/>
	</g>
	<g>
		<linearGradient id="SVGID_45_" gradientUnits="userSpaceOnUse" x1="683.1555" y1="762.564" x2="851.0661" y2="762.564">
			<stop  offset="0" style="stop-color:#143BFF"/>
			<stop  offset="0.2852" style="stop-color:#5889FF"/>
			<stop  offset="0.5297" style="stop-color:#8FC7FF"/>
			<stop  offset="0.6116" style="stop-color:#8BC5FF"/>
			<stop  offset="0.6971" style="stop-color:#7EBFFF"/>
			<stop  offset="0.7844" style="stop-color:#69B4FF"/>
			<stop  offset="0.8728" style="stop-color:#4CA6FF"/>
			<stop  offset="0.9614" style="stop-color:#2793FF"/>
			<stop  offset="1" style="stop-color:#148AFF"/>
		</linearGradient>
		<path class="st54" d="M845.6,731.8l-40.3,19.3c-1.7,0.8-3.8,0.2-4.9-1.4l-30.2-48.4c-1.5-2.4-4.9-2.4-6.4-0.1l-31.4,48.5
			c-1.1,1.6-3.1,2.2-4.9,1.3l-38.9-19.2c-2.9-1.4-6.1,1.2-5.4,4.3l20.3,86.4c0.4,1.7,1.9,3,3.7,3h119.7c1.8,0,3.3-1.2,3.7-3
			l20.3-86.6C851.7,733,848.5,730.4,845.6,731.8z"/>
		<linearGradient id="SVGID_46_" gradientUnits="userSpaceOnUse" x1="704.1443" y1="840.9199" x2="830.0773" y2="840.9199">
			<stop  offset="0" style="stop-color:#143BFF"/>
			<stop  offset="0.2852" style="stop-color:#5889FF"/>
			<stop  offset="0.5297" style="stop-color:#8FC7FF"/>
			<stop  offset="0.6116" style="stop-color:#8BC5FF"/>
			<stop  offset="0.6971" style="stop-color:#7EBFFF"/>
			<stop  offset="0.7844" style="stop-color:#69B4FF"/>
			<stop  offset="0.8728" style="stop-color:#4CA6FF"/>
			<stop  offset="0.9614" style="stop-color:#2793FF"/>
			<stop  offset="1" style="stop-color:#148AFF"/>
		</linearGradient>
		<path class="st55" d="M822.5,833.3H711.7c-4.2,0-7.6,3.4-7.6,7.6v0.1c0,4.2,3.4,7.6,7.6,7.6h110.8c4.2,0,7.6-3.4,7.6-7.6v-0.1
			C830.1,836.7,826.7,833.3,822.5,833.3z"/>
		<linearGradient id="SVGID_47_" gradientUnits="userSpaceOnUse" x1="755.6624" y1="688.0309" x2="778.5593" y2="688.0309">
			<stop  offset="0" style="stop-color:#143BFF"/>
			<stop  offset="0.2852" style="stop-color:#5889FF"/>
			<stop  offset="0.5297" style="stop-color:#8FC7FF"/>
			<stop  offset="0.6116" style="stop-color:#8BC5FF"/>
			<stop  offset="0.6971" style="stop-color:#7EBFFF"/>
			<stop  offset="0.7844" style="stop-color:#69B4FF"/>
			<stop  offset="0.8728" style="stop-color:#4CA6FF"/>
			<stop  offset="0.9614" style="stop-color:#2793FF"/>
			<stop  offset="1" style="stop-color:#148AFF"/>
		</linearGradient>
		<ellipse class="st56" cx="767.1" cy="688" rx="11.4" ry="11.5"/>
		<linearGradient id="SVGID_48_" gradientUnits="userSpaceOnUse" x1="844.2785" y1="722.4999" x2="867.1754" y2="722.4999">
			<stop  offset="0" style="stop-color:#143BFF"/>
			<stop  offset="0.2852" style="stop-color:#5889FF"/>
			<stop  offset="0.5297" style="stop-color:#8FC7FF"/>
			<stop  offset="0.6116" style="stop-color:#8BC5FF"/>
			<stop  offset="0.6971" style="stop-color:#7EBFFF"/>
			<stop  offset="0.7844" style="stop-color:#69B4FF"/>
			<stop  offset="0.8728" style="stop-color:#4CA6FF"/>
			<stop  offset="0.9614" style="stop-color:#2793FF"/>
			<stop  offset="1" style="stop-color:#148AFF"/>
		</linearGradient>
		<ellipse class="st57" cx="855.7" cy="722.5" rx="11.4" ry="11.5"/>
		<linearGradient id="SVGID_49_" gradientUnits="userSpaceOnUse" x1="667.1754" y1="722.4999" x2="690.0723" y2="722.4999">
			<stop  offset="0" style="stop-color:#143BFF"/>
			<stop  offset="0.2852" style="stop-color:#5889FF"/>
			<stop  offset="0.5297" style="stop-color:#8FC7FF"/>
			<stop  offset="0.6116" style="stop-color:#8BC5FF"/>
			<stop  offset="0.6971" style="stop-color:#7EBFFF"/>
			<stop  offset="0.7844" style="stop-color:#69B4FF"/>
			<stop  offset="0.8728" style="stop-color:#4CA6FF"/>
			<stop  offset="0.9614" style="stop-color:#2793FF"/>
			<stop  offset="1" style="stop-color:#148AFF"/>
		</linearGradient>
		<ellipse class="st59" cx="678.6" cy="722.5" rx="11.4" ry="11.5"/>
	</g>
</g>
<g id="图层_2">
</g>
</svg>
